<svg width="191" height="225" viewBox="0 0 191 225" fill="none" xmlns="http://www.w3.org/2000/svg">
<path d="M67.9641 220.881C50.5829 220.881 33.2017 217.09 19.9707 209.5C7.09438 202.114 0 192.269 0 181.789C0 171.31 7.09438 161.465 19.9707 154.079C46.4327 138.906 89.4955 138.906 115.95 154.079C128.834 161.472 135.921 171.31 135.921 181.789C135.921 192.269 128.827 202.114 115.95 209.5L115.787 209.218L115.95 209.5C102.727 217.09 85.3382 220.881 67.9641 220.881ZM67.9641 143.36C50.6964 143.36 33.4358 147.13 20.297 154.636C7.62645 161.902 0.64559 171.549 0.64559 181.782C0.64559 192.015 7.62645 201.67 20.297 208.936C46.5816 224.01 89.3465 224.01 115.631 208.936C128.295 201.67 135.275 192.022 135.275 181.782C135.275 171.542 128.295 161.902 115.624 154.636C102.485 147.102 85.2247 143.332 67.9641 143.332V143.36Z" fill="#7000FF"/>
<path opacity="0.4" d="M190.81 217.459L119.347 196.322C129.897 184.046 126.286 168.774 108.472 158.555C86.0961 145.729 49.8226 145.729 27.454 158.555C5.08545 171.381 5.07837 192.207 27.4256 205.026C44.5515 214.85 69.8145 217.14 90.7642 211.925L157.25 224.415L190.81 217.459Z" fill="#0B0244"/>
<path d="M31.4343 167.731C31.4343 167.731 30.6184 168.619 29.7671 169.669C28.9158 170.719 26.5108 172.206 25.5105 172.868C24.5102 173.531 19.8704 177.21 18.9695 180.733C18.0685 184.257 21.4596 184.638 24.8933 183.94C28.3269 183.242 31.4697 179.993 32.3849 178.831C33.3001 177.668 36.4926 174.99 40.6641 172.706C44.8355 170.423 42.2106 167.555 42.2106 167.555L31.4343 167.731Z" fill="#5E1D79"/>
<path d="M63.1387 177.314C63.6377 178.453 63.972 179.656 64.1319 180.887C64.3802 182.91 64.7775 187.286 64.9194 188.569C65.2225 191.217 64.5358 193.883 62.9897 196.06C60.7905 199.126 59.6483 200.338 56.6048 199.239C53.5613 198.139 53.4903 193.086 53.9586 190.486C54.3978 187.495 54.6466 184.48 54.7035 181.458C54.655 181.118 54.7042 180.771 54.8454 180.458L63.1387 177.314Z" fill="#5E1D79"/>
<path d="M19.4546 108.54C19.4546 108.54 20.6961 131.634 26.4355 143.777C29.1686 151.362 30.8558 159.28 31.4512 167.315C31.22 167.974 31.1426 168.677 31.225 169.371C31.3073 170.064 31.5472 170.73 31.9265 171.318C33.246 173.087 41.2485 174.524 42.412 168.583C43.5754 162.642 42.7809 151.599 41.213 147.018C39.6452 142.438 41.2769 129.689 41.2769 129.689C41.2769 129.689 43.4903 131.014 46.5764 140.07C49.6624 149.126 51.8546 152.558 52.9045 155.052C53.9545 157.547 55.2599 173.002 54.8342 180.571C54.8342 180.571 61.3043 181.318 63.085 178.21C64.8657 175.102 65.0785 159.253 64.5038 154.214C63.9292 149.175 61.3539 133.072 61.5171 128.047C61.6803 123.022 62.6238 118.942 61.3397 113.952C60.0557 108.962 25.7544 98.7578 25.7544 98.7578L19.4546 108.54Z" fill="url(#paint0_linear_1803_1336)"/>
<path d="M61.4792 128.032C61.6424 123.022 62.586 118.927 61.3019 113.937C60.8195 112.07 55.6689 109.462 49.433 106.925C38.9972 106.221 25.7662 105.516 24.8581 105.657C23.2473 106.134 21.673 106.725 20.1474 107.426L19.438 108.518C19.438 108.518 19.516 109.928 19.7147 112.211C22.1622 112.873 26.809 112.007 26.809 112.007C27.5185 113.613 31.7113 119.272 36.8192 121.626C41.9271 123.98 56.6834 122.754 57.5419 123.677C58.4003 124.6 58.9111 137.25 58.8614 138.857C58.8117 140.464 60.557 150.556 62.1603 159.478C63.7423 168.259 61.9617 179.02 61.9049 179.365C62.3758 179.06 62.7711 178.653 63.0613 178.174C64.842 175.067 65.0548 159.217 64.4802 154.178C63.9055 149.139 61.3232 133.043 61.4792 128.032Z" fill="#5E1D79"/>
<path d="M28.8464 32.654C28.8464 32.654 21.3406 34.5568 18.815 35.2122C18.6107 35.2668 18.4227 35.3696 18.267 35.512C18.1114 35.6543 17.9927 35.8319 17.9211 36.0297C17.2116 37.8902 15.5444 43.669 17.1478 51.992C19.12 62.2248 18.7582 69.1524 18.7582 69.1524L15.736 87.2924C15.736 87.2924 11.7986 104.594 12.1888 105.052C12.579 105.51 22.4969 112.614 25.512 111.5C28.5272 110.387 27.4772 108.681 27.4772 108.681C27.4772 108.681 30.2653 121.078 41.1622 120.662C52.0592 120.246 60.9626 120.07 62.7008 115.644C64.4389 111.218 61.6011 92.881 59.487 85.6503C57.3729 78.4197 52.3926 64.0078 52.3926 64.0078L67.9009 46.0511L54.0527 36.086C54.0527 36.086 50.6332 30.1521 49.2782 29.4192C47.9232 28.6863 47.235 29.3558 47.235 29.3558L28.8464 32.654Z" fill="url(#paint1_linear_1803_1336)"/>
<path d="M25.6167 107.524C25.6167 108.151 25.3046 109.096 23.3607 109.808C21.2324 110.583 15.9967 107.588 12.5347 105.318C14.2657 106.679 22.7789 112.521 25.5387 111.499C26.0218 111.334 26.4764 111.097 26.8866 110.794C26.379 109.738 25.9544 108.645 25.6167 107.524Z" fill="#FA9F97"/>
<path d="M62.6074 114.22C60.777 118.892 51.377 119.097 39.9054 119.52C37.3684 119.652 34.8526 119 32.7046 117.652C33.8468 118.699 35.1887 119.508 36.6509 120.031C38.1131 120.554 39.666 120.78 41.2178 120.697C52.1148 120.295 61.0182 120.105 62.7563 115.679C63.3239 114.227 63.4019 111.267 63.1678 107.701C63.2459 110.605 63.104 112.951 62.6074 114.22Z" fill="#FA9F97"/>
<path d="M48.9739 29.2764C48.9739 29.2764 51.8542 32.5534 47.9594 37.1835C45.5616 40.0025 41.4752 46.1408 38.0273 52.4623C35.8636 56.4159 33.8275 58.5442 32.7349 61.9199C32.7349 61.9199 32.4654 57.9452 32.1461 51.8139C31.8411 46.028 31.607 40.0166 31.834 38.4944C32.2809 35.3583 45.8737 27.8387 48.9739 29.2764Z" fill="#F0F6FF"/>
<path d="M38.8146 39.6239C38.8146 39.6239 37.3957 40.54 36.9133 40.4837C36.4309 40.4273 34.785 38.9332 34.785 38.9332C34.785 38.9332 30.8334 38.9332 30.351 37.2912C30.03 35.8579 29.6201 34.4458 29.1237 33.0628C28.7051 32.1959 26.889 28.038 26.8322 26.3325C26.7755 24.627 26.7542 21.5826 25.9738 19.9898C25.1934 18.3971 23.7745 2.29385 39.4531 2.37137C55.1317 2.44889 50.6977 18.7213 50.6977 18.7213C50.6977 18.7213 51.8541 19.1794 51.2156 21.2795C50.5771 23.3796 50.4281 23.5981 50.1017 24.6411C49.9139 25.6353 49.4 26.5398 48.6403 27.2134L48.4346 29.1374C48.8667 31.1358 48.4868 33.2229 47.3775 34.9444C45.5259 37.8197 38.8146 39.6239 38.8146 39.6239Z" fill="#FCD1C5"/>
<path d="M18.4179 35.416C18.4179 35.416 16.7578 35.705 11.6853 49.398C8.8476 57.0374 4.38524 64.9939 3.54101 70.6389C2.69678 76.2838 3.40621 82.2812 4.53422 82.6758C5.66223 83.0705 25.3065 89.8007 31.4928 91.929C31.572 91.957 31.6565 91.9672 31.7401 91.9588C31.8237 91.9504 31.9045 91.9237 31.9764 91.8805C32.0484 91.8373 32.1098 91.7788 32.1562 91.7092C32.2026 91.6396 32.2329 91.5607 32.2448 91.478L33.6637 82.0838L21.4472 77.7497C21.4472 77.7497 19.0706 75.0153 16.8784 74.0216C16.8784 74.0216 19.1912 69.5183 19.0067 68.3132C18.8223 67.1081 18.8649 54.5567 17.3183 49.4897C15.7717 44.4226 18.4179 35.416 18.4179 35.416Z" fill="url(#paint2_linear_1803_1336)"/>
<path d="M26.4334 71.0552C25.7468 70.6127 25.0363 70.2081 24.305 69.8431C23.8865 69.6951 21.6447 68.9903 21.2119 68.8141C20.4569 68.7408 19.6953 68.7716 18.9488 68.9057C18.8333 68.9198 18.7231 68.9619 18.6278 69.0283C18.5325 69.0946 18.4552 69.1832 18.4025 69.2863C17.913 70.2448 16.5509 73.0426 16.7424 74.0926C16.7424 74.0926 20.8359 76.5169 21.3112 77.6163L21.9568 77.7432C21.9568 77.7432 24.5321 71.9361 26.4334 71.0552Z" fill="#FCD1C5"/>
<path d="M59.5156 85.6852C59.0048 83.9445 58.3379 81.788 57.6072 79.5117L33.3799 90.5761C35.9918 93.2956 39.1728 95.4126 42.6982 96.7776C46.2236 98.1426 50.0077 98.7225 53.7833 98.4763C56.6011 98.2415 59.3153 97.3113 61.6793 95.7701C61.1385 92.3727 60.4163 89.0064 59.5156 85.6852Z" fill="#5E1D79"/>
<path d="M67.9645 46.0859C67.9645 46.0859 61.5228 47.136 56.5141 55.4872C53.1842 61.2373 50.3209 67.2419 47.9512 73.4439L47.8022 74.5151C47.7102 75.1702 47.4682 75.7957 47.0948 76.3434C46.7214 76.8911 46.2265 77.3464 45.6483 77.6745C45.0701 78.0025 44.4238 78.1945 43.7592 78.2356C43.0946 78.2768 42.4294 78.1661 41.8146 77.9119C36.2384 75.6145 27.9806 72.126 26.4269 71.0548C24.8623 72.1045 23.5268 73.4568 22.5004 75.031C21.4741 76.6052 20.7778 78.3688 20.4534 80.2164C19.5241 85.2906 19.7937 85.2976 19.7937 85.2976C19.7937 85.2976 41.7862 94.8257 50.2072 94.5085C58.6282 94.1914 68.5462 66.4881 69.5678 60.7868C70.5894 55.0854 71.7032 47.5941 67.9645 46.0859Z" fill="#24126A"/>
<path d="M67.9645 46.0859C67.9645 46.0859 61.5228 47.136 56.5141 55.4872C53.1842 61.2373 50.3209 67.2419 47.9512 73.4439L47.8022 74.5151C47.7102 75.1702 47.4682 75.7957 47.0948 76.3434C46.7214 76.8911 46.2265 77.3464 45.6483 77.6745C45.0701 78.0025 44.4238 78.1945 43.7592 78.2356C43.0946 78.2768 42.4294 78.1661 41.8146 77.9119C36.2384 75.6145 27.9806 72.126 26.4269 71.0548C24.8623 72.1045 23.5268 73.4568 22.5004 75.031C21.4741 76.6052 20.7778 78.3688 20.4534 80.2164C19.5241 85.2906 19.7937 85.2976 19.7937 85.2976C19.7937 85.2976 41.7862 94.8257 50.2072 94.5085C58.6282 94.1914 68.5462 66.4881 69.5678 60.7868C70.5894 55.0854 71.7032 47.5941 67.9645 46.0859Z" fill="url(#paint3_linear_1803_1336)"/>
<path d="M41.6167 77.8347C41.6167 77.8347 42.3261 77.13 43.3052 76.2772C44.2842 75.4245 45.7456 72.0065 46.001 71.7035C46.2564 71.4004 49.4773 68.814 51.0593 68.7295C52.6413 68.6449 51.5133 70.4349 51.1515 70.6886C50.7897 70.9424 49.2715 71.7528 49.2715 71.7528C49.2715 71.7528 47.7179 73.12 47.5405 73.3173C47.3631 73.5146 51.9532 72.8874 52.691 73.3173C52.8422 73.4253 52.9671 73.5657 53.0563 73.7281C53.1454 73.8905 53.1967 74.0708 53.2062 74.2556C53.2158 74.4403 53.1834 74.6249 53.1114 74.7955C53.0394 74.9661 52.9296 75.1185 52.7903 75.2413C52.5252 75.4297 52.2141 75.5441 51.8893 75.5725C52.0422 75.9503 52.0435 76.372 51.8931 76.7508C51.7427 77.1296 51.4519 77.4367 51.0806 77.6092C49.7114 78.3139 49.385 77.9334 49.385 77.9334C49.385 77.9334 49.3283 80.3154 47.0368 79.8996L41.6167 77.8347Z" fill="#FCD1C5"/>
<path d="M25.4209 11.7928C25.4209 11.7928 23.5409 18.3186 28.883 16.3383C34.225 14.358 39.0137 11.1514 40.7377 12.279C42.0501 13.1388 42.0572 15.8802 41.9934 17.1417C41.9655 17.5702 42.0912 17.9946 42.3481 18.3398L44.0011 20.602C44.191 20.8573 44.3063 21.1597 44.3345 21.4759L44.4906 23.0756C44.5143 23.2664 44.6061 23.4424 44.7492 23.5717C44.8924 23.701 45.0775 23.7751 45.271 23.7804H45.6399C45.8415 23.7856 46.0378 23.7164 46.1911 23.5863C46.3444 23.4561 46.4437 23.2742 46.4699 23.0756L46.8246 20.7077C46.8246 20.7077 48.0094 17.5011 50.7194 18.6781C50.7194 18.6781 52.4505 16.2397 51.7198 11.1444C50.989 6.04914 48.5486 0.784736 38.4178 0.192755C28.287 -0.399225 25.4209 11.7928 25.4209 11.7928Z" fill="#AA8383"/>
<path d="M41.7423 45.2473L40.2029 44.1197C39.4254 44.8033 38.7872 45.6286 38.3228 46.5511C37.805 47.7914 38.4576 51.6675 38.4576 51.6675L38.0107 52.4638L37.4219 51.449L36.8188 46.8612C36.8188 46.8612 37.2445 43.4502 37.2942 43.3375C37.3438 43.2247 40.217 43.563 40.217 43.563C40.8288 44.0228 41.3465 44.5945 41.7423 45.2473Z" fill="#C4CCD6"/>
<path d="M34.3591 40.8555C33.532 40.9209 32.7332 41.1846 32.0313 41.6239C32.0312 41.6239 33.7275 41.6239 33.9971 41.6874C34.2668 41.7508 34.3591 40.8555 34.3591 40.8555Z" fill="#C4CCD6"/>
<path d="M40.1973 43.5834L37.4234 41.138C37.4234 41.138 33.1668 40.3487 33.5286 41.5256C33.8904 42.7025 33.7059 45.3805 34.0039 46.4587C34.0209 46.5053 34.0422 46.5501 34.0677 46.5926C33.8703 47.6061 33.5585 48.5943 33.1384 49.5384C32.6134 50.4617 32.0742 51.4906 32.0742 51.4906L32.4786 64.4155C32.4786 64.4155 37.0048 54.4928 37.9909 52.4843C37.9909 52.4843 37.7142 47.7696 37.2389 46.8886C37.8703 44.7392 40.1973 43.5834 40.1973 43.5834Z" fill="url(#paint4_linear_1803_1336)"/>
<path d="M46.4803 26.9453C43.5716 36.0364 34.7959 38.9259 34.7959 38.9259C34.7959 38.9259 36.4205 40.4129 36.9242 40.4763C37.4279 40.5397 38.8255 39.6165 38.8255 39.6165C38.8255 39.6165 45.5368 37.8124 47.4097 34.9159C48.5189 33.1944 48.8988 31.1073 48.4667 29.1089L48.6725 27.1849C48.3199 27.3477 47.9292 27.4114 47.5427 27.3692C47.1562 27.3269 46.7888 27.1803 46.4803 26.9453Z" fill="#E2B1A6"/>
<path d="M53.9527 37.3047C53.9527 37.3047 52.8175 41.5895 52.6615 41.7516C52.5054 41.9137 49.54 41.6529 49.54 41.6529L51.051 44.3168C51.051 44.3168 36.5785 60.5258 33.7124 69.173C39.2853 60.5737 45.5816 52.459 52.5338 44.9159L50.7105 42.3224L53.7682 42.8369L53.9527 37.3047Z" fill="#5E1D79"/>
<path d="M29.3981 34.1758L28.6319 35.0919L29.5541 35.9306L26.8654 38.4747C26.8654 38.4747 26.4752 55.8395 30.1359 67.2492C30.1359 67.2492 25.2975 56.8261 25.8438 38.0307L28.7737 35.9165L27.8018 35.0497L29.3981 34.1758Z" fill="#5E1D79"/>
<path d="M41.2739 129.674L41.3803 129.751L37.4146 125.77C39.2591 128.222 37.5068 139.688 37.3649 142.31C37.223 144.931 39.6351 150.273 40.6496 156.574C41.6641 162.874 40.153 171.93 40.153 171.958C40.7529 171.588 41.2651 171.094 41.6545 170.509C42.0439 169.923 42.3013 169.262 42.409 168.568C43.5724 162.627 42.7779 151.584 41.21 147.003C39.6422 142.423 41.2739 129.674 41.2739 129.674Z" fill="#5E1D79"/>
<path d="M50.2136 94.5219C58.6417 94.2471 68.5739 66.5015 69.5742 60.8002C69.7444 59.8488 69.9218 58.841 70.0708 57.8262C70.0708 57.9107 68.0205 63.894 66.0625 69.1936C64.1044 74.4932 53.2926 90.8573 47.5674 92.0483C42.4169 93.1266 23.5814 85.0009 19.9348 83.3659C19.6582 85.2969 19.8 85.311 19.8 85.311C19.8 85.311 41.8139 94.8391 50.2136 94.5219Z" fill="#FA9F97"/>
<path d="M45.637 23.7726C45.8386 23.7778 46.0349 23.7086 46.1882 23.5785C46.3415 23.4483 46.4408 23.2664 46.467 23.0678L46.8218 20.6999C46.8218 20.6999 48.0065 17.4933 50.7166 18.6703C50.7166 18.6703 52.3483 16.3587 51.7665 11.5312C48.9288 16.0557 42.3452 18.2756 42.3452 18.2756L43.9982 20.5378C44.1881 20.7931 44.3035 21.0955 44.3316 21.4117L44.4877 23.0114C44.5114 23.2022 44.6032 23.3782 44.7464 23.5076C44.8895 23.6369 45.0747 23.7109 45.2681 23.7162L45.637 23.7726Z" fill="#936D6D"/>
<path d="M45.773 111.668L94.0147 60.2218L142.256 56.3457C142.256 56.3457 150.011 121.294 94.0147 190.176C38.0188 185.503 45.773 111.668 45.773 111.668Z" fill="url(#paint5_linear_1803_1336)"/>
<path d="M142.228 56.3535L153.075 62.5764L104.847 66.4524L94 60.2296L142.228 56.3535Z" fill="url(#paint6_linear_1803_1336)"/>
<path d="M56.6207 117.892L104.862 66.4464L124.691 64.459L153.069 62.5703C153.069 62.5703 160.816 127.519 104.827 196.4C48.8736 191.728 56.6207 117.892 56.6207 117.892Z" fill="#280DA7"/>
<path opacity="0.3" d="M62.473 118.687L105.834 72.4345L123.662 70.6445L149.202 68.9531C149.202 68.9531 156.175 127.341 105.841 189.273C55.5063 185.073 62.473 118.687 62.473 118.687Z" fill="url(#paint7_linear_1803_1336)"/>
<path d="M56.6198 117.892L104.861 66.4462L153.103 62.5701L151.741 61.7949L102.875 65.7203L54.6333 117.166C54.6333 117.166 48.1491 178.887 89.8569 193.031C50.3625 177.612 56.6198 117.892 56.6198 117.892Z" fill="#9C87FF"/>
<path opacity="0.5" d="M126.329 164.376V122.599L137.439 116.257L111.849 94.0645L86.2456 145.602L97.3554 139.259V181.036C97.3993 185.979 98.0424 190.898 99.2709 195.688C101.066 196.012 102.924 196.266 104.868 196.428C112.863 186.623 120.054 176.197 126.371 165.25C126.343 164.94 126.329 164.658 126.329 164.376Z" fill="#280DA7"/>
<path d="M120.517 94.3145L140.447 111.628L131.801 116.582V149.216C131.801 167.707 144.82 190.195 160.886 199.443L191 217.519C180.59 224.947 180.59 224.269 156.961 224.269L138.311 212.479C122.25 203.231 109.226 180.743 109.226 162.251V129.596L100.586 134.55L120.517 94.3145Z" fill="#6A4EEE"/>
<defs>
<linearGradient id="paint0_linear_1803_1336" x1="19.4546" y1="139.703" x2="64.7805" y2="139.703" gradientUnits="userSpaceOnUse">
<stop stop-color="#6F2482"/>
<stop offset="1" stop-color="#812C85"/>
</linearGradient>
<linearGradient id="paint1_linear_1803_1336" x1="-23.0064" y1="65.7767" x2="64.3039" y2="77.8146" gradientUnits="userSpaceOnUse">
<stop stop-color="#6F2482"/>
<stop offset="1" stop-color="#AB3588"/>
</linearGradient>
<linearGradient id="paint2_linear_1803_1336" x1="6248.6" y1="7309.44" x2="7558.92" y2="7309.44" gradientUnits="userSpaceOnUse">
<stop stop-color="#6F2482"/>
<stop offset="1" stop-color="#812C85"/>
</linearGradient>
<linearGradient id="paint3_linear_1803_1336" x1="102.762" y1="84.0432" x2="14.1961" y2="57.085" gradientUnits="userSpaceOnUse">
<stop stop-color="#FCBA9D"/>
<stop offset="0.56" stop-color="#EE8594"/>
<stop offset="1" stop-color="#E4608D"/>
</linearGradient>
<linearGradient id="paint4_linear_1803_1336" x1="2026.93" y1="2699.57" x2="2119.94" y2="2699.57" gradientUnits="userSpaceOnUse">
<stop stop-color="#FCBA9D"/>
<stop offset="0.56" stop-color="#EE8594"/>
<stop offset="1" stop-color="#E4608D"/>
</linearGradient>
<linearGradient id="paint5_linear_1803_1336" x1="154460" y1="57539.6" x2="173442" y2="55028.4" gradientUnits="userSpaceOnUse">
<stop stop-color="#280DA7"/>
<stop offset="1" stop-color="#8B72FF"/>
</linearGradient>
<linearGradient id="paint6_linear_1803_1336" x1="118541" y1="1295.49" x2="106125" y2="1295.49" gradientUnits="userSpaceOnUse">
<stop stop-color="#8B72FF"/>
<stop offset="1" stop-color="#8B72FF"/>
</linearGradient>
<linearGradient id="paint7_linear_1803_1336" x1="155.345" y1="102.693" x2="67.5653" y2="102.693" gradientUnits="userSpaceOnUse">
<stop stop-color="#8D6FF7"/>
<stop offset="1" stop-color="#C6A3ED"/>
</linearGradient>
</defs>
</svg>
