<svg width="74" height="74" viewBox="0 0 74 74" fill="none" xmlns="http://www.w3.org/2000/svg">
<path d="M2.67758 0.244377C2.18672 0.416618 1.75361 0.72979 1.205 1.30916C-0.123204 2.74975 -0.0221447 0.52623 0.0211664 27.7095L0.0644776 51.5889L0.382093 52.2465C0.78633 53.0451 1.56593 53.8907 2.27335 54.2821C2.77864 54.5483 3.55824 54.564 14.8625 54.6423C26.8019 54.7206 26.9174 54.7206 26.8885 55.0337C26.8885 55.206 26.6287 57.5391 26.3399 60.2324L25.7913 65.1022L24.3909 65.1648C23.1638 65.2118 22.9328 65.2588 22.413 65.6346C21.4458 66.3236 21.2869 66.8873 21.2869 69.5179C21.2869 71.3656 21.3303 71.8824 21.5324 72.2738C21.8644 72.9472 22.5574 73.5422 23.2071 73.7457C23.9434 73.965 49.9589 73.965 50.6952 73.7457C50.9984 73.6518 51.4315 73.4013 51.6769 73.1664C52.4132 72.4931 52.5865 71.9607 52.6587 70.066C52.803 66.2766 52.0234 65.1335 49.3237 65.1335H48.111L47.5768 60.2324C47.2736 57.5548 47.0138 55.206 47.0138 55.0337C46.9849 54.7206 47.1004 54.7206 59.0398 54.6423C70.5895 54.564 71.1236 54.5483 71.6578 54.2665C72.3797 53.875 73.1015 53.0921 73.5058 52.2465L73.8378 51.5889L73.8811 32.1722C73.8956 21.4931 73.8811 12.599 73.8378 12.4111C73.679 11.6595 72.4663 11.4089 72.0043 12.0196C71.8599 12.2075 71.8022 16.1222 71.7444 31.6398C71.6723 51.0095 71.6723 51.0251 71.3691 51.4636C71.2103 51.6985 70.9071 51.996 70.7194 52.0899C70.2141 52.3718 3.68818 52.3718 3.18288 52.0899C2.9952 51.996 2.69202 51.6985 2.53321 51.4636L2.23004 51.0251L2.18672 27.506C2.15785 5.34908 2.17229 3.95546 2.40328 3.43873C2.54765 3.12556 2.8797 2.7654 3.16844 2.62448C3.64487 2.35828 5.56499 2.34263 36.9511 2.34263C68.3517 2.34263 70.2574 2.35828 70.7194 2.62448C71.5423 3.07858 71.7444 3.70493 71.7444 5.83449C71.7444 7.58825 71.7589 7.69786 72.1054 8.05801C72.2931 8.27723 72.6251 8.44947 72.8272 8.44947C73.0293 8.44947 73.3614 8.27723 73.5491 8.05801C73.8956 7.69786 73.91 7.58825 73.91 5.74054C73.91 3.17253 73.7079 2.40526 72.6973 1.30916C71.3546 -0.131432 74.8628 -0.00616455 36.8934 0.0094986C7.54287 0.0094986 3.29838 0.0408173 2.67758 0.244377ZM44.7472 54.7519C44.7472 54.8302 45.007 57.1476 45.3246 59.9349C45.6423 62.7221 45.9021 65.0239 45.9021 65.0552C45.9021 65.1022 43.5344 65.1335 40.6326 65.1335H35.3486L35.0021 65.525C34.5402 66.0104 34.5257 66.6837 34.9733 67.1378C35.3053 67.4823 35.3342 67.4823 42.8126 67.5136L50.3054 67.5606L50.3487 69.4866L50.392 71.397H36.9511H23.5103L23.5536 69.4866L23.5969 67.5606L27.3649 67.4823C30.1369 67.4197 31.1908 67.357 31.364 67.2005C31.8549 66.7464 31.7682 65.8225 31.1908 65.3371C31.0464 65.2118 30.4112 65.1492 29.4872 65.1335C28.6643 65.1335 28.0002 65.1022 28.0002 65.0552C28.0002 65.0239 28.26 62.7221 28.5777 59.9349C28.8953 57.1476 29.1551 54.8302 29.1551 54.7519C29.1551 54.6893 32.6633 54.6423 36.9511 54.6423C41.2389 54.6423 44.7472 54.6893 44.7472 54.7519Z" fill="#6A4EEE"/>
<path d="M5.03 5.4585L4.61133 5.9126V12.2856V18.6587L5.03 19.1128C5.5353 19.6452 5.88179 19.6765 6.40152 19.238L6.77689 18.9249L6.80576 13.1782L6.84907 7.43148H36.9503H67.0516V27.3179V47.2043H36.9503H6.84907L6.80576 35.2724L6.77689 23.3406L6.40152 23.0274C6.18497 22.8395 5.86735 22.6986 5.67967 22.6986C5.27543 22.6986 4.79901 23.1684 4.68351 23.6694C4.6402 23.873 4.62577 29.651 4.6402 36.5251L4.68351 49.0363L5.03 49.3338C5.36205 49.6313 6.06947 49.6313 36.9503 49.6313C67.8312 49.6313 68.5386 49.6313 68.8707 49.3338L69.2171 49.0363L69.2605 27.4745L69.2893 5.92826L68.8707 5.4585L68.452 5.0044H36.9503H5.44868L5.03 5.4585Z" fill="#6A4EEE"/>
<path d="M20.2042 12.3485C15.1512 13.5072 11.1377 17.5785 9.57853 23.0903C9.20317 24.3899 9.1743 24.7188 9.1743 27.1615C9.15986 29.479 9.20317 29.9957 9.49191 31.1388C10.8923 36.7289 15.0213 40.9724 20.262 42.2251C21.518 42.5226 24.4198 42.5539 25.6181 42.2877C28.7365 41.5987 31.0897 40.1894 33.2986 37.6841C35.8251 34.8342 37.11 31.3267 37.11 27.2868C37.11 24.0924 36.4314 21.5714 34.8867 18.9877C31.7683 13.7421 25.8347 11.0645 20.2042 12.3485ZM25.286 14.619C29.9348 15.5898 33.5585 19.3635 34.6557 24.3899C34.9156 25.533 34.9444 26.0811 34.8867 27.7879C34.8145 29.9331 34.4824 31.4676 33.7173 33.0178L33.3852 33.7068L32.8511 32.6264C31.9704 30.81 30.3679 28.9466 28.7942 27.9288C28.5488 27.7879 28.5633 27.6939 28.9964 26.7387C30.9887 22.3543 28.5777 17.2183 24.1455 16.4041C22.0233 16.0126 20.0598 16.7329 18.4573 18.4553C17.4034 19.6141 16.8548 20.6789 16.5949 22.1977C16.2918 23.8262 16.6816 26.0341 17.4467 27.2241L17.7643 27.6939L16.927 28.3046C15.4255 29.4163 14.054 31.1075 13.1734 32.9552L12.798 33.7381L12.3216 32.642C11.5275 30.81 11.3254 29.6512 11.3254 27.0832C11.3399 24.938 11.3687 24.7344 11.8018 23.3252C13.0579 19.3949 15.6854 16.4667 19.2658 15.0731C20.9261 14.4154 23.4092 14.2275 25.286 14.619ZM25.0695 19.1756C26.5998 19.9899 27.4805 21.5557 27.4805 23.4817C27.4805 24.9067 27.1773 25.7209 26.21 26.8953C25.4882 27.7879 25.3582 28.4142 25.8058 28.8526C25.9501 28.9936 26.5421 29.3694 27.134 29.6825C29.083 30.7473 30.9165 33.1118 31.6095 35.4292C31.7683 36.0086 31.7683 36.0556 31.3785 36.5097C30.2235 37.825 27.8847 39.2186 25.9213 39.7667C24.3621 40.1894 21.8356 40.2051 20.262 39.7667C18.6883 39.3439 16.7249 38.2478 15.5122 37.136C14.2994 36.0399 14.2994 35.946 15.1801 33.973C15.9597 32.2349 17.5045 30.5124 18.9771 29.7452C20.9261 28.7274 21.0849 28.2106 19.9155 26.817C18.3129 24.9067 18.2408 22.1821 19.7567 20.3031C21.0704 18.6746 23.2504 18.2205 25.0695 19.1756Z" fill="#6A4EEE"/>
<path d="M39.7815 16.921C39.2906 17.3437 39.2617 18.158 39.7237 18.6277C40.0413 18.9409 40.1713 18.9409 51.3888 18.9409H62.7508L63.054 18.5808C63.5015 18.064 63.4727 17.3281 62.9962 16.921C62.6209 16.5921 62.5198 16.5921 51.3888 16.5921C40.2579 16.5921 40.1568 16.5921 39.7815 16.921Z" fill="#6A4EEE"/>
<path d="M40.171 22.9652C39.4492 23.1218 39.1749 24.2336 39.6802 24.9069L39.9545 25.2827H45.5127C50.7678 25.2827 51.0854 25.2671 51.3742 24.9852C51.7929 24.5781 51.7929 23.6386 51.3742 23.2314C51.0854 22.9496 50.7678 22.9339 45.7726 22.9183C42.8708 22.9026 40.3443 22.9183 40.171 22.9652Z" fill="#6A4EEE"/>
<path d="M39.7237 29.5884C39.2617 30.0582 39.2906 30.8724 39.7815 31.2952C40.1568 31.624 40.2579 31.624 51.3888 31.624C62.5198 31.624 62.6209 31.624 62.9962 31.2952C63.4871 30.8724 63.516 30.0895 63.0396 29.6197L62.7075 29.2752H51.3744C40.1713 29.2752 40.0413 29.2752 39.7237 29.5884Z" fill="#6A4EEE"/>
<path d="M39.7807 35.8677C39.3042 36.2749 39.2609 37.1048 39.694 37.5745C39.9683 37.872 40.1705 37.8877 45.541 37.8877C50.9116 37.8877 51.1137 37.872 51.388 37.5745C51.8212 37.1048 51.7778 36.2749 51.3014 35.8677C50.9261 35.5546 50.7673 35.5389 45.541 35.5389C40.3148 35.5389 40.156 35.5546 39.7807 35.8677Z" fill="#6A4EEE"/>
</svg>
