<svg width="74" height="74" viewBox="0 0 74 74" fill="none" xmlns="http://www.w3.org/2000/svg">
<path d="M7.74645 0.191192C4.42378 0.797917 1.42952 2.84923 0.367039 5.24723C0.0193178 6.07065 0 6.90851 0 36.9414C0 66.9743 0.0193178 67.8121 0.367039 68.6356C1.13975 70.3835 3.09085 72.1026 5.33172 72.9838C7.84304 73.9661 7.03169 73.9372 28.6483 73.8938L48.1014 73.8505L49.4343 73.4605C52.5831 72.5504 54.6694 70.9036 55.7706 68.4333C56.1762 67.5377 56.1956 67.191 56.2921 60.7915L56.4081 54.0886L62.242 51.1128C65.4488 49.4804 68.4817 47.848 68.984 47.4869C70.7612 46.2012 72.4032 44.1354 73.3305 42.0697C73.7748 41.0729 73.7941 40.9718 73.852 33.6622L73.91 26.2659L73.3691 25.977C73.0793 25.8037 69.1385 24.3157 64.6181 22.6545L56.4081 19.6353L56.3115 12.9469L56.1956 6.244L55.7126 5.29057C54.4376 2.80589 52.5252 1.31797 49.4343 0.422325L48.1014 0.0322879L28.4938 0.00339624C12.0543 -0.0110496 8.71234 0.0178421 7.74645 0.191192ZM48.0241 2.21361C49.4343 2.53142 50.5161 3.02258 51.4627 3.7882C53.0274 5.05944 53.6842 6.5907 53.5683 8.77202L53.5104 9.99991L51.6752 10.0433C49.6082 10.0866 49.1639 10.2599 49.1639 11.0111C49.1639 11.7623 49.6082 11.9357 51.6752 11.979L53.5104 12.0223L53.5683 15.7205L53.607 19.4042L44.9719 22.5678C40.2004 24.3013 36.1243 25.847 35.8732 26.0203L35.4289 26.3093L35.4868 33.6911C35.5448 40.9718 35.5641 41.0729 36.0084 42.0697C36.9357 44.1354 38.6163 46.2156 40.4322 47.5302C40.8572 47.8336 43.9674 49.5093 47.348 51.2283L53.5104 54.3775V57.1078V59.838L28.0688 59.8814L2.60791 59.9103V35.9302V11.9501H21.0951C38.0175 11.9501 39.6015 11.9357 39.9299 11.7045C40.3549 11.4156 40.3743 10.6933 39.9493 10.3322C39.6595 10.0866 38.8095 10.0721 21.0951 10.0721H2.56927L2.64654 8.07862C2.7045 6.28733 2.76245 6.02731 3.22608 5.30502C4.2306 3.75931 5.67944 2.82033 7.92031 2.2425C8.80893 2.01137 10.3737 1.99692 27.9336 1.98248C44.8753 1.98248 47.0775 2.01137 48.0241 2.21361ZM70.568 27.0893L71.1862 27.3205V33.7633C71.1862 41.0729 71.1476 41.2751 69.5828 43.4998C68.1919 45.4644 67.0522 46.2301 60.6387 49.5093C57.4705 51.1272 54.7854 52.4418 54.6694 52.4418C54.5729 52.4418 51.965 51.1561 48.8741 49.5959C42.2288 46.2156 41.0311 45.4067 39.6402 43.2687C38.1527 41.0151 38.1527 41.0007 38.1527 33.7344V27.3205L46.4207 24.2868L54.6694 21.2532L62.3 24.0557C66.492 25.6014 70.2203 26.9593 70.568 27.0893ZM53.607 64.244C53.607 65.5008 53.5104 66.8876 53.3945 67.3065C52.7956 69.4156 50.7286 71.0914 47.9855 71.6692C47.0389 71.8859 44.8367 71.9003 27.6052 71.8714L8.28735 71.8281L6.81919 71.2791C5.13854 70.658 4.07606 69.8635 3.24539 68.5922C2.72381 67.7977 2.7045 67.711 2.64654 64.8507L2.58859 61.9327H28.0881H53.607V64.244Z" fill="#6A4EEE"/>
<path d="M42.5196 10.2888C42.0173 10.6788 41.9594 11.0977 42.3457 11.5022C42.7128 11.8489 42.848 11.8778 44.5866 11.9212C46.2479 11.95 46.4991 11.9212 46.8468 11.6611C47.3104 11.3144 47.349 10.8377 46.924 10.3899C46.6536 10.101 46.4797 10.0721 44.7218 10.0721C43.2923 10.0721 42.7514 10.1299 42.5196 10.2888Z" fill="#6A4EEE"/>
<path d="M60.8509 32.622C60.6384 32.7086 58.6294 34.1532 56.3692 35.8289L52.2738 38.877L50.458 37.548C48.8739 36.3923 48.5455 36.219 47.966 36.219C47.1546 36.219 46.6523 36.5801 46.6523 37.158C46.6523 37.4902 47.116 37.9236 49.1443 39.4404C51.3079 41.0728 51.7136 41.3184 52.2545 41.3184C52.8147 41.3184 53.3943 40.9283 57.7794 37.6491C62.1066 34.3988 62.6861 33.9076 62.6861 33.5176C62.6861 33.1998 62.5316 32.9687 62.1839 32.7664C61.6043 32.4197 61.4112 32.4053 60.8509 32.622Z" fill="#6A4EEE"/>
<path d="M26.4839 63.5798C23.2578 64.4754 22.3305 67.5379 24.7453 69.3581C26.9475 70.9905 30.5213 70.6293 32.1054 68.6213C32.569 68.0435 32.6463 67.769 32.6463 66.9167C32.6269 65.8333 32.3372 65.2266 31.4099 64.4898C30.2702 63.5653 28.0293 63.1464 26.4839 63.5798ZM29.3815 65.8911C30.2122 66.5123 30.2702 67.1912 29.5361 67.8413C28.9179 68.3902 27.9907 68.5491 27.16 68.2313C25.8657 67.7257 25.6532 66.4689 26.7736 65.7755C27.6429 65.2266 28.5509 65.2699 29.3815 65.8911Z" fill="#6A4EEE"/>
</svg>
