<?xml version="1.0" encoding="utf-8"?>
<!-- Generator: Adobe Illustrator 17.0.0, SVG Export Plug-In . SVG Version: 6.00 Build 0)  -->
<!DOCTYPE svg PUBLIC "-//W3C//DTD SVG 1.1//EN" "http://www.w3.org/Graphics/SVG/1.1/DTD/svg11.dtd">
<svg version="1.1" id="Layer_1" xmlns="http://www.w3.org/2000/svg" xmlns:xlink="http://www.w3.org/1999/xlink" x="0px" y="0px"
	 width="50.935px" height="60.398px" viewBox="0 0 50.935 60.398" enable-background="new 0 0 50.935 60.398" xml:space="preserve">
<path fill="#7B3DD9" d="M48.889,1.532l0.016,57.334l0.4,0L49.289,1.532L48.889,1.532z M1.846,1.732h47.243v-0.4H1.846V1.732z
	 M2.046,58.866V1.532h-0.4v57.333H2.046z M49.105,58.666l-47.259,0l0,0.4l47.259,0L49.105,58.666z M49.928,0.399L49.928,0.399l0-0.4
	h0V0.399z M50.935,0.866c0-0.508-0.486-0.858-1.004-0.866l-0.006,0.4c0.379,0.006,0.61,0.249,0.61,0.466H50.935z M50.935,59.532
	V0.866h-0.4v58.667H50.935z M50.62,60.159c0.195-0.158,0.315-0.382,0.315-0.627h-0.4c0,0.108-0.053,0.224-0.167,0.316L50.62,60.159z
	 M49.912,60.399c0.26,0,0.514-0.083,0.708-0.24l-0.252-0.311c-0.115,0.093-0.279,0.151-0.456,0.151V60.399z M49.912,59.999
	L49.912,59.999l-0.001,0.4h0.001V59.999z M1.023,60.399h48.889v-0.4H1.023V60.399z M0.315,60.159c0.194,0.157,0.448,0.24,0.708,0.24
	v-0.4c-0.178,0-0.341-0.057-0.456-0.151L0.315,60.159z M0,59.532c0,0.245,0.12,0.469,0.315,0.627l0.252-0.311
	C0.453,59.756,0.4,59.641,0.4,59.532H0z M0,0.866v58.667h0.4V0.866H0z M1.023-0.001C0.5-0.001,0,0.35,0,0.866h0.4
	c0-0.22,0.238-0.466,0.623-0.466V-0.001z M49.928-0.001H1.023v0.4h48.905V-0.001z M49.089,1.532l0.2,0l0-0.2h-0.2V1.532z
	 M1.846,1.532v-0.2h-0.2v0.2H1.846z M1.846,58.866h-0.2v0.2h0.2L1.846,58.866z M49.105,58.866l0,0.2l0.2,0l0-0.2L49.105,58.866z
	 M49.928,0.199v-0.2l-0.003,0.4L49.928,0.199z"/>
<path fill="#7B3DD9" d="M49.105,58.866l-47.259,0V1.532h47.243L49.105,58.866z M49.928,0.199H1.023C0.569,0.199,0.2,0.498,0.2,0.866
	v58.667c0,0.177,0.087,0.346,0.241,0.472s0.363,0.195,0.582,0.195h48.889h-0.001c0.219,0,0.428-0.07,0.582-0.195
	c0.154-0.125,0.241-0.295,0.241-0.472V0.866C50.735,0.503,50.377,0.206,49.928,0.199L49.928,0.199z"/>
<path fill="#7B3DD9" d="M25.124,11.237c0,0.565,0.458,1.023,1.023,1.023v-0.4c-0.344,0-0.623-0.279-0.623-0.623H25.124z
	 M26.147,10.214c-0.565,0-1.023,0.458-1.023,1.023h0.4c0-0.344,0.279-0.623,0.623-0.623V10.214z M36.023,10.214h-9.876v0.4h9.876
	V10.214z M37.047,11.237c0-0.565-0.458-1.023-1.023-1.023v0.4c0.344,0,0.623,0.279,0.623,0.623H37.047z M36.023,12.26
	c0.565,0,1.023-0.458,1.023-1.023h-0.4c0,0.344-0.279,0.623-0.623,0.623V12.26z M26.147,12.26h9.876v-0.4h-9.876V12.26z"/>
<path fill="#7B3DD9" d="M26.147,12.06h9.876c0.455,0,0.823-0.369,0.823-0.823c0-0.454-0.369-0.823-0.823-0.823h-9.876
	c-0.454,0-0.823,0.369-0.823,0.823C25.324,11.691,25.693,12.06,26.147,12.06z"/>
<path fill="#7B3DD9" d="M25.124,16.897c0,0.565,0.458,1.023,1.023,1.023v-0.4c-0.344,0-0.623-0.279-0.623-0.623H25.124z
	 M26.147,15.874c-0.565,0-1.023,0.458-1.023,1.023h0.4c0-0.344,0.279-0.623,0.623-0.623V15.874z M39.365,15.874H26.147v0.4h13.218
	V15.874z M40.389,16.897c0-0.565-0.458-1.023-1.023-1.023v0.4c0.344,0,0.623,0.279,0.623,0.623H40.389z M39.365,17.92
	c0.565,0,1.023-0.458,1.023-1.023h-0.4c0,0.344-0.279,0.623-0.623,0.623V17.92z M26.147,17.92h13.218v-0.4H26.147V17.92z"/>
<path fill="#7B3DD9" d="M26.147,17.72h13.218c0.455,0,0.823-0.369,0.823-0.823c0-0.454-0.369-0.823-0.823-0.823H26.147
	c-0.454,0-0.823,0.369-0.823,0.823C25.324,17.352,25.693,17.72,26.147,17.72z"/>
<path fill="#7B3DD9" d="M41.383,17.601c0.192,0.192,0.452,0.3,0.724,0.3v-0.4c-0.165,0-0.324-0.066-0.441-0.183L41.383,17.601z
	 M41.083,16.878c0,0.271,0.108,0.531,0.3,0.723l0.283-0.283c-0.117-0.117-0.183-0.275-0.183-0.44H41.083z M41.715,15.933
	c-0.383,0.158-0.632,0.532-0.632,0.945h0.4c0-0.252,0.152-0.479,0.385-0.576L41.715,15.933z M42.83,16.154
	c-0.293-0.293-0.733-0.38-1.115-0.222l0.153,0.37c0.233-0.096,0.501-0.043,0.679,0.135L42.83,16.154z M43.051,17.269
	c0.158-0.382,0.071-0.822-0.221-1.115l-0.283,0.283c0.178,0.178,0.231,0.446,0.135,0.679L43.051,17.269z M42.106,17.901
	c0.414,0,0.787-0.249,0.945-0.632l-0.37-0.153c-0.097,0.233-0.323,0.385-0.575,0.385V17.901z M41.524,17.46l-0.141,0.141h0
	L41.524,17.46z M42.688,16.296l0.141-0.141l0,0L42.688,16.296z M42.866,17.193l-0.185-0.077l0,0L42.866,17.193z"/>
<path fill="#7B3DD9" d="M42.106,17.701c0.333,0,0.633-0.2,0.76-0.508c0.127-0.307,0.057-0.661-0.178-0.897
	c-0.235-0.235-0.59-0.306-0.897-0.179c-0.308,0.127-0.508,0.428-0.508,0.761c0,0.218,0.087,0.427,0.241,0.582
	C41.679,17.614,41.888,17.701,42.106,17.701z"/>
<path fill="#7B3DD9" d="M12.765,12.332L12.765,12.332l-0.001,0.4h0.001V12.332z M13.796,14.514
	c-0.533-0.526-0.831-1.238-0.831-1.981h-0.4c0,0.851,0.342,1.665,0.95,2.266L13.796,14.514z M15.806,15.335
	c-0.754,0-1.477-0.296-2.009-0.822l-0.281,0.285c0.607,0.6,1.432,0.937,2.29,0.937V15.335z M17.815,14.514
	c-0.532,0.525-1.255,0.822-2.009,0.822v0.4c0.859,0,1.683-0.337,2.29-0.937L17.815,14.514z M18.646,12.532
	c0,0.743-0.298,1.455-0.831,1.981l0.281,0.285c0.608-0.601,0.95-1.415,0.95-2.266H18.646z M17.815,10.551
	c0.533,0.526,0.831,1.238,0.831,1.981h0.4c0-0.85-0.342-1.665-0.95-2.265L17.815,10.551z M15.806,9.73
	c0.754,0,1.477,0.296,2.009,0.822l0.281-0.284c-0.608-0.601-1.432-0.937-2.291-0.937V9.73z M13.797,10.551
	c0.532-0.526,1.255-0.822,2.009-0.822v-0.4c-0.858,0-1.683,0.336-2.291,0.937L13.797,10.551z M12.965,12.532
	c0-0.742,0.298-1.455,0.831-1.981l-0.281-0.285c-0.608,0.601-0.95,1.415-0.95,2.265H12.965z M12.765,12.732L12.765,12.732l0.001-0.4
	h-0.001V12.732z M8.601,23.352L8.601,23.352l0-0.4h0V23.352z M10.487,17.661c-1.368,1.509-2.112,3.469-2.087,5.494l0.4-0.005
	c-0.025-1.923,0.683-3.786,1.983-5.22L10.487,17.661z M12.34,16.218c-0.691,0.379-1.317,0.866-1.851,1.441l0.293,0.272
	c0.506-0.544,1.097-1.004,1.751-1.363L12.34,16.218z M10.407,12.798c0.085,1.456,0.773,2.812,1.902,3.749l0.256-0.308
	c-1.044-0.867-1.68-2.121-1.758-3.465L10.407,12.798z M11.862,8.857c-1.013,1.059-1.539,2.485-1.455,3.941l0.399-0.023
	c-0.078-1.344,0.408-2.661,1.345-3.641L11.862,8.857z M15.758,7.198c-1.474,0-2.883,0.6-3.896,1.659l0.289,0.277
	c0.937-0.979,2.241-1.535,3.607-1.535V7.198z M19.655,8.857c-1.013-1.059-2.422-1.659-3.897-1.659v0.4
	c1.366,0,2.671,0.556,3.608,1.535L19.655,8.857z M21.11,12.798c0.085-1.456-0.442-2.881-1.455-3.941l-0.289,0.276
	c0.937,0.98,1.423,2.297,1.345,3.641L21.11,12.798z M19.208,16.547c1.129-0.937,1.817-2.293,1.902-3.749l-0.399-0.023
	c-0.078,1.344-0.714,2.598-1.758,3.465L19.208,16.547z M21.028,17.659c-0.535-0.575-1.16-1.062-1.852-1.441l-0.192,0.351
	c0.654,0.358,1.245,0.819,1.751,1.363L21.028,17.659z M23.2,23.152c0.002-2.036-0.774-3.999-2.173-5.494l-0.292,0.273
	c1.33,1.421,2.067,3.286,2.065,5.22L23.2,23.152z M21.941,24.398c0.693,0,1.259-0.556,1.259-1.247h-0.4
	c0,0.465-0.383,0.847-0.859,0.847V24.398z M20.681,23.152c0,0.691,0.566,1.247,1.26,1.247v-0.4c-0.477,0-0.86-0.381-0.86-0.847
	H20.681z M19.218,19.353c0.953,1.04,1.475,2.395,1.463,3.797l0.4,0.004c0.014-1.503-0.546-2.957-1.568-4.071L19.218,19.353z
	 M15.806,17.826c1.307,0,2.549,0.556,3.411,1.525l0.299-0.266c-0.938-1.055-2.289-1.66-3.71-1.66V17.826z M12.395,19.351
	c0.861-0.969,2.104-1.525,3.411-1.525v-0.4c-1.42,0-2.772,0.604-3.71,1.66L12.395,19.351z M10.92,23.15
	c-0.014-1.403,0.512-2.759,1.472-3.796l-0.293-0.272c-1.029,1.111-1.594,2.566-1.579,4.072L10.92,23.15z M9.66,24.398
	c0.693,0,1.26-0.556,1.26-1.247h-0.4c0,0.465-0.383,0.847-0.86,0.847V24.398z M8.401,23.152c0,0.691,0.566,1.247,1.26,1.247v-0.4
	c-0.477,0-0.86-0.381-0.86-0.847H8.401z M12.765,12.532h0.2v-0.2h-0.2V12.532z M13.656,14.656l0.141-0.142l0,0L13.656,14.656z
	 M17.956,14.656l-0.141-0.142l0,0L17.956,14.656z M17.956,10.409l-0.141,0.142l0,0L17.956,10.409z M13.656,10.409l0.141,0.142l0,0
	L13.656,10.409z M12.765,12.532v0.2h0.2v-0.2H12.765z M8.601,23.152l-0.2,0.003l0.003,0.197h0.197V23.152z M10.635,17.795
	l-0.147-0.136l-0.002,0.002L10.635,17.795z M12.436,16.393l0.096,0.175l0.258-0.141l-0.226-0.188L12.436,16.393z M10.606,12.786
	l0.2-0.012L10.606,12.786z M12.006,8.995l-0.145-0.138l0,0L12.006,8.995z M19.51,8.995l0.145-0.138l0,0L19.51,8.995z M20.91,12.786
	l-0.2-0.012L20.91,12.786z M19.08,16.393l-0.128-0.154l-0.226,0.188l0.258,0.141L19.08,16.393z M20.881,17.795l-0.146,0.136l0,0
	L20.881,17.795z M23,23.152l-0.2,0v0H23z M20.881,23.152l-0.2-0.002v0.002H20.881z M19.366,19.218l-0.15,0.133l0.002,0.002
	L19.366,19.218z M12.246,19.218l0.147,0.136l0.003-0.003L12.246,19.218z M10.72,23.152h0.2l0-0.002L10.72,23.152z M8.601,23.152h0.2
	v-0.2h-0.2V23.152z"/>
<path fill="#7B3DD9" d="M12.765,12.532L12.765,12.532c0.001-0.796,0.321-1.56,0.891-2.123C14.226,9.846,15,9.53,15.806,9.53
	c0.806,0,1.58,0.316,2.15,0.879c0.571,0.563,0.891,1.327,0.891,2.123c0,0.797-0.32,1.56-0.891,2.124
	c-0.57,0.563-1.344,0.879-2.15,0.879c-0.806,0-1.58-0.317-2.15-0.879C13.085,14.092,12.765,13.329,12.765,12.532L12.765,12.532z
	 M8.601,23.152c0,0.578,0.474,1.047,1.06,1.047s1.06-0.469,1.06-1.047c-0.015-1.455,0.531-2.86,1.525-3.934
	c0.899-1.012,2.196-1.592,3.56-1.592s2.661,0.58,3.56,1.592c0.987,1.077,1.528,2.481,1.515,3.934c0,0.578,0.474,1.047,1.06,1.047
	c0.585,0,1.059-0.469,1.059-1.047c0.002-1.985-0.755-3.899-2.119-5.357c-0.52-0.56-1.129-1.033-1.801-1.402
	c1.086-0.902,1.749-2.207,1.83-3.607c0.081-1.4-0.425-2.771-1.4-3.791c-0.975-1.019-2.332-1.597-3.752-1.597
	c-1.42,0-2.777,0.578-3.752,1.597c-0.975,1.02-1.481,2.391-1.4,3.791c0.081,1.4,0.744,2.705,1.83,3.607
	c-0.673,0.369-1.281,0.842-1.801,1.402C9.301,19.266,8.575,21.178,8.601,23.152L8.601,23.152z"/>
<path fill="#7B3DD9" d="M6.586,31.257c0,0.565,0.458,1.023,1.023,1.023v-0.4c-0.344,0-0.623-0.279-0.623-0.623H6.586z M7.609,30.234
	c-0.565,0-1.023,0.458-1.023,1.023h0.4c0-0.344,0.279-0.623,0.623-0.623V30.234z M20.86,30.234H7.609v0.4H20.86V30.234z
	 M21.883,31.257c0-0.565-0.458-1.023-1.023-1.023v0.4c0.344,0,0.623,0.279,0.623,0.623H21.883z M20.86,32.28
	c0.565,0,1.023-0.458,1.023-1.023h-0.4c0,0.344-0.279,0.623-0.623,0.623V32.28z M7.609,32.28H20.86v-0.4H7.609V32.28z"/>
<path fill="#7B3DD9" d="M7.609,32.08H20.86c0.455,0,0.823-0.369,0.823-0.823c0-0.455-0.369-0.823-0.823-0.823H7.609
	c-0.454,0-0.823,0.369-0.823,0.823C6.786,31.711,7.154,32.08,7.609,32.08z"/>
<path fill="#7B3DD9" d="M22.859,31.972c0.192,0.192,0.452,0.3,0.724,0.3v-0.4c-0.166,0-0.324-0.066-0.441-0.183L22.859,31.972z
	 M22.559,31.249c0,0.271,0.108,0.532,0.3,0.724l0.283-0.283c-0.117-0.117-0.183-0.276-0.183-0.441H22.559z M23.191,30.304
	c-0.382,0.158-0.632,0.531-0.632,0.945h0.4c0-0.252,0.152-0.479,0.385-0.575L23.191,30.304z M24.305,30.526
	c-0.293-0.293-0.732-0.38-1.115-0.222l0.153,0.37c0.233-0.096,0.501-0.043,0.679,0.135L24.305,30.526z M24.527,31.64
	c0.158-0.383,0.071-0.822-0.222-1.115l-0.283,0.283c0.178,0.178,0.232,0.446,0.135,0.679L24.527,31.64z M23.582,32.272
	c0.413,0,0.786-0.249,0.945-0.632l-0.37-0.153c-0.096,0.233-0.324,0.385-0.575,0.385V32.272z M23.267,30.488l0.077,0.185
	L23.267,30.488z M24.164,30.667l0.141-0.141l0,0L24.164,30.667z M24.343,31.564l0.185,0.077l0,0L24.343,31.564z"/>
<path fill="#7B3DD9" d="M23.582,32.072c0.332,0,0.633-0.2,0.76-0.508c0.127-0.308,0.057-0.661-0.179-0.897
	c-0.235-0.235-0.589-0.306-0.897-0.179c-0.308,0.127-0.508,0.427-0.508,0.76c0,0.218,0.087,0.428,0.241,0.582
	S23.364,32.072,23.582,32.072z"/>
<path fill="#7B3DD9" d="M6.322,37.405c0,0.565,0.458,1.023,1.023,1.023v-0.4c-0.344,0-0.623-0.279-0.623-0.623H6.322z M7.345,36.382
	c-0.565,0-1.023,0.458-1.023,1.023h0.4c0-0.344,0.279-0.623,0.623-0.623V36.382z M43.32,36.382H7.345v0.4H43.32V36.382z
	 M44.343,37.405c0-0.565-0.458-1.023-1.023-1.023v0.4c0.344,0,0.623,0.279,0.623,0.623H44.343z M43.32,38.428
	c0.565,0,1.023-0.458,1.023-1.023h-0.4c0,0.344-0.279,0.623-0.623,0.623V38.428z M7.345,38.428H43.32v-0.4H7.345V38.428z"/>
<path fill="#7B3DD9" d="M7.345,38.228H43.32c0.455,0,0.823-0.369,0.823-0.823c0-0.455-0.369-0.823-0.823-0.823H7.345
	c-0.455,0-0.823,0.369-0.823,0.823C6.522,37.859,6.891,38.228,7.345,38.228z"/>
<path fill="#7B3DD9" d="M6.322,43.554c0,0.565,0.458,1.023,1.023,1.023v-0.4c-0.344,0-0.623-0.279-0.623-0.623H6.322z M7.345,42.53
	c-0.565,0-1.023,0.458-1.023,1.023h0.4c0-0.344,0.279-0.623,0.623-0.623V42.53z M43.32,42.53H7.345v0.4H43.32V42.53z M44.343,43.554
	c0-0.565-0.458-1.023-1.023-1.023v0.4c0.344,0,0.623,0.279,0.623,0.623H44.343z M43.32,44.576c0.565,0,1.023-0.458,1.023-1.023h-0.4
	c0,0.344-0.279,0.623-0.623,0.623V44.576z M7.345,44.576H43.32v-0.4H7.345V44.576z"/>
<path fill="#7B3DD9" d="M7.345,44.376H43.32c0.455,0,0.823-0.369,0.823-0.823c0-0.455-0.369-0.823-0.823-0.823H7.345
	c-0.455,0-0.823,0.369-0.823,0.823C6.522,44.008,6.891,44.376,7.345,44.376z"/>
<path fill="#7B3DD9" d="M43.898,52.487c0-0.565-0.458-1.023-1.023-1.023v0.4c0.344,0,0.623,0.279,0.623,0.623H43.898z M42.875,53.51
	c0.565,0,1.023-0.458,1.023-1.023h-0.4c0,0.344-0.279,0.623-0.623,0.623V53.51z M31.015,53.51h11.86v-0.4h-11.86V53.51z
	 M29.992,52.487c0,0.565,0.458,1.023,1.023,1.023v-0.4c-0.344,0-0.623-0.279-0.623-0.623H29.992z M31.015,51.464
	c-0.565,0-1.023,0.458-1.023,1.023h0.4c0-0.344,0.279-0.623,0.623-0.623V51.464z M42.875,51.464h-11.86v0.4h11.86V51.464z"/>
<path fill="#7B3DD9" d="M42.875,51.664h-11.86c-0.455,0-0.823,0.369-0.823,0.823c0,0.455,0.369,0.823,0.823,0.823h11.86
	c0.455,0,0.823-0.369,0.823-0.823C43.698,52.033,43.33,51.664,42.875,51.664z"/>
</svg>
