<?xml version="1.0" encoding="utf-8"?>
<!-- Generator: Adobe Illustrator 17.0.0, SVG Export Plug-In . SVG Version: 6.00 Build 0)  -->
<!DOCTYPE svg PUBLIC "-//W3C//DTD SVG 1.1//EN" "http://www.w3.org/Graphics/SVG/1.1/DTD/svg11.dtd">
<svg version="1.1" id="Layer_1" xmlns="http://www.w3.org/2000/svg" xmlns:xlink="http://www.w3.org/1999/xlink" x="0px" y="0px"
	 width="69.701px" height="60.4px" viewBox="0 0 69.701 60.4" enable-background="new 0 0 69.701 60.4" xml:space="preserve">
<path fill="#7B3DD9" d="M57.191,32.039L57.191,32.039l-0.196-0.349l-0.001,0.001L57.191,32.039z M57.998,32.569
	c0-0.5-0.405-0.904-0.904-0.904v0.4c0.279,0,0.504,0.225,0.504,0.504H57.998z M57.997,57.89l0.001-25.322l-0.4,0L57.597,57.89
	L57.997,57.89z M55.487,60.4c1.383,0,2.51-1.126,2.51-2.51h-0.4c0,1.163-0.947,2.11-2.11,2.11V60.4z M2.509,60.4h52.978V60H2.509
	V60.4z M0,57.89c0,1.383,1.126,2.51,2.51,2.51V60c-1.163,0-2.11-0.947-2.11-2.11H0z M0,21.498V57.89h0.4V21.498H0z M2.509,18.989
	c-1.383,0-2.51,1.126-2.51,2.51h0.4c0-1.163,0.947-2.11,2.11-2.11V18.989z M44.549,18.988L2.509,18.989l0,0.4l42.039-0.001
	L44.549,18.988z M45.453,19.891c0-0.499-0.404-0.904-0.904-0.904v0.4c0.279,0,0.504,0.226,0.504,0.504H45.453z M44.549,20.795
	c0.499,0,0.904-0.404,0.904-0.904h-0.4c0,0.279-0.226,0.504-0.504,0.504V20.795z M2.511,20.795h42.038v-0.4H2.511V20.795z
	 M1.809,21.497c0-0.387,0.315-0.702,0.702-0.702v-0.4c-0.608,0-1.102,0.495-1.102,1.102H1.809z M1.809,57.889l0.001-36.392l-0.4,0
	L1.409,57.889L1.809,57.889z M2.51,58.591c-0.387,0-0.702-0.315-0.702-0.702h-0.4c0,0.608,0.495,1.102,1.102,1.102V58.591z
	 M55.488,58.591L2.51,58.591l0,0.4l52.978,0.001L55.488,58.591z M56.19,57.89c0,0.387-0.315,0.702-0.702,0.702v0.4
	c0.608,0,1.102-0.495,1.102-1.102H56.19z M56.19,32.568V57.89h0.4V32.568H56.19z M57.094,31.664c-0.499,0-0.904,0.404-0.904,0.904
	h0.4c0-0.279,0.226-0.504,0.504-0.504V31.664z M57.093,31.865l-0.098-0.174l-0.663,0.374h0.761V31.865z M57.798,32.569h0.2l0,0
	H57.798z M57.797,57.89l-0.2,0v0H57.797z M2.509,19.189v0.2h0L2.509,19.189z M44.549,19.188v-0.2h0L44.549,19.188z M1.609,21.497
	h0.2H1.609z M1.609,57.889l-0.2,0v0H1.609z M2.51,58.791l0-0.2h0V58.791z M55.488,58.791l0,0.2h0V58.791z M57.094,31.864
	l0.098,0.174l0.663-0.374h-0.761V31.864z"/>
<path fill="#7B3DD9" d="M57.094,31.864c-0.389,0-0.704,0.315-0.704,0.704V57.89c0,0.497-0.404,0.902-0.902,0.902L2.51,58.791
	c-0.497,0-0.902-0.404-0.902-0.902l0.001-36.392c0-0.497,0.404-0.902,0.902-0.902h42.038c0.389,0,0.704-0.315,0.704-0.704
	c0-0.389-0.315-0.704-0.704-0.704L2.509,19.189c-1.273,0-2.31,1.036-2.31,2.31V57.89c0,1.273,1.036,2.31,2.31,2.31h52.978
	c1.273,0,2.31-1.036,2.31-2.31l0.001-25.322C57.798,32.179,57.482,31.865,57.094,31.864L57.094,31.864z"/>
<path fill="#7B3DD9" d="M66.987,4.209l-2.578,4.279l0.343,0.206l2.578-4.279L66.987,4.209z M67.01,4.063
	c0.012,0.048,0.005,0.099-0.023,0.147l0.343,0.206c0.082-0.135,0.108-0.297,0.068-0.454L67.01,4.063z M66.921,3.94
	c0.045,0.027,0.076,0.069,0.088,0.12l0.389-0.094c-0.037-0.155-0.135-0.287-0.272-0.369L66.921,3.94z M63.474,1.864l3.446,2.075
	l0.206-0.343l-3.446-2.075L63.474,1.864z M63.203,1.931c0.057-0.095,0.182-0.122,0.27-0.068l0.209-0.341
	c-0.277-0.17-0.65-0.083-0.822,0.203L63.203,1.931z M60.627,6.209l2.576-4.278L62.86,1.725l-2.576,4.278L60.627,6.209z
	 M64.683,8.421l-4.125-2.486l-0.206,0.343l4.125,2.486L64.683,8.421z M65.158,11.154L65.158,11.154l-0.396-0.055l0,0L65.158,11.154z
	 M64.795,11.038c-0.005-0.003-0.007-0.007-0.007-0.009c0-0.002,0-0.004,0.001-0.007l0.342,0.208
	c0.111-0.182,0.056-0.425-0.131-0.536L64.795,11.038z M58.196,7.064l6.599,3.974l0.206-0.343l-6.599-3.974L58.196,7.064z
	 M58.202,7.064c-0.007,0-0.008-0.002-0.003,0.001l0.2-0.346c-0.057-0.033-0.125-0.055-0.197-0.055V7.064z M58.208,7.061
	C58.208,7.061,58.208,7.061,58.208,7.061c-0.002,0.002-0.002,0.002-0.003,0.003c-0.002,0.001-0.003,0.001-0.003,0.001v-0.4
	c-0.133,0-0.262,0.067-0.336,0.189L58.208,7.061z M44.057,30.553L58.208,7.06l-0.343-0.206L43.715,30.347L44.057,30.553z
	 M50.911,34.448l-6.921-4.169l-0.206,0.343l6.921,4.169L50.911,34.448z M64.125,12.124L50.636,34.516l0.343,0.206l13.489-22.392
	L64.125,12.124z M64.169,12c-0.026,0.043-0.038,0.084-0.046,0.109c-0.009,0.032-0.01,0.036-0.013,0.044l0.372,0.148
	c0.007-0.019,0.013-0.036,0.017-0.049c0.002-0.007,0.004-0.013,0.005-0.018c0.002-0.006,0.003-0.01,0.004-0.014
	c0.005-0.017,0.006-0.017,0.004-0.014L64.169,12z M64.277,11.878c-0.005,0.005-0.008,0.008-0.031,0.03
	c-0.018,0.017-0.049,0.047-0.075,0.089l0.339,0.212c-0.002,0.003-0.002,0.002,0.011-0.011c0.004-0.003,0.017-0.016,0.025-0.024
	c0.01-0.01,0.023-0.023,0.037-0.039L64.277,11.878z M64.789,11.023l-0.53,0.881l0.343,0.206l0.53-0.881L64.789,11.023z
	 M49.416,35.347l-6.127,3.584l0.202,0.345l6.127-3.584L49.416,35.347z M43.59,32.183l5.824,3.508l0.206-0.343l-5.824-3.508
	L43.59,32.183z M43.59,39.112l0.304-7.092l-0.4-0.017l-0.304,7.092L43.59,39.112z M20.909,46.287L20.909,46.287l0.395-0.066l0,0
	L20.909,46.287z M21.788,39.775c0.141,0.19,0.255,0.485,0.317,0.882c0.062,0.395,0.071,0.88,0.015,1.44
	c-0.112,1.119-0.483,2.521-1.194,4.074l0.364,0.167c0.727-1.586,1.112-3.031,1.229-4.201c0.059-0.585,0.05-1.105-0.018-1.541
	c-0.068-0.434-0.197-0.798-0.391-1.059L21.788,39.775z M21.024,39.439c0.243,0,0.405,0.051,0.518,0.113
	c0.113,0.063,0.188,0.143,0.246,0.223l0.322-0.237c-0.08-0.108-0.195-0.236-0.374-0.336c-0.179-0.1-0.41-0.164-0.712-0.164V39.439z
	 M20.736,39.459c0.108-0.015,0.202-0.021,0.288-0.021v-0.4c-0.105,0-0.217,0.007-0.342,0.024L20.736,39.459z M19.076,41.415
	c0.058-0.42,0.186-0.873,0.441-1.237c0.251-0.358,0.631-0.639,1.219-0.719l-0.054-0.396c-0.705,0.096-1.181,0.442-1.492,0.885
	c-0.306,0.437-0.448,0.959-0.51,1.412L19.076,41.415z M21.115,46.285c-0.73-0.435-1.301-1.225-1.66-2.132
	c-0.358-0.906-0.495-1.906-0.38-2.737l-0.396-0.055c-0.126,0.909,0.024,1.979,0.404,2.939c0.379,0.959,0.997,1.834,1.827,2.329
	L21.115,46.285z M20.925,46.17c-0.032,0.069-0.062,0.133-0.094,0.202l0.363,0.168c0.031-0.066,0.063-0.136,0.094-0.202L20.925,46.17
	z M68.486,13.484L68.486,13.484l0.066,0.395l0,0L68.486,13.484z M69.383,16.572c0.633-1.056,0.293-2.426-0.76-3.061l-0.207,0.343
	c0.864,0.521,1.144,1.646,0.624,2.513L69.383,16.572z M62.765,27.556l6.618-10.984l-0.343-0.206L62.422,27.35L62.765,27.556z
	 M61.905,28.042c0.339,0,0.67-0.173,0.859-0.485l-0.342-0.208c-0.115,0.188-0.313,0.292-0.517,0.292V28.042z M61.387,27.897
	c0.161,0.098,0.341,0.145,0.518,0.145v-0.4c-0.106,0-0.214-0.028-0.31-0.086L61.387,27.897z M61.046,26.522
	c-0.285,0.474-0.131,1.089,0.342,1.375l0.207-0.342c-0.285-0.172-0.377-0.543-0.206-0.827L61.046,26.522z M67.663,15.536
	l-6.618,10.985l0.343,0.206l6.618-10.985L67.663,15.536z M67.59,15.231c0.104,0.062,0.139,0.199,0.074,0.305l0.342,0.208
	c0.179-0.295,0.085-0.679-0.21-0.856L67.59,15.231z M65.176,13.777l2.413,1.453l0.206-0.343l-2.413-1.453L65.176,13.777z
	 M52.173,35.751l13.277-22.042l-0.343-0.206L51.831,35.544L52.173,35.751z M51.506,36.416c0.273-0.164,0.503-0.395,0.667-0.664
	l-0.342-0.208c-0.131,0.216-0.315,0.4-0.53,0.529L51.506,36.416z M43.228,41.226l8.276-4.809l-0.201-0.346l-8.276,4.809
	L43.228,41.226z M36.678,44.71c2.925-0.087,4.913-1.764,6.593-3.518l-0.289-0.277c-1.666,1.738-3.558,3.313-6.316,3.395
	L36.678,44.71z M32.799,42.193c0.611,0.986,1.577,2.595,3.88,2.517l-0.013-0.4c-2.053,0.069-2.909-1.332-3.527-2.328L32.799,42.193z
	 M32.18,41.36c-0.015-0.001,0.001-0.005,0.054,0.041c0.047,0.041,0.104,0.105,0.167,0.188c0.128,0.167,0.264,0.386,0.398,0.603
	l0.34-0.211c-0.131-0.212-0.278-0.449-0.42-0.635c-0.071-0.093-0.146-0.18-0.222-0.247c-0.071-0.062-0.171-0.132-0.291-0.139
	L32.18,41.36z M28.383,44.953c1.362-1.669,2.266-2.57,2.862-3.054c0.599-0.486,0.866-0.534,0.957-0.538l-0.017-0.4
	c-0.218,0.009-0.568,0.12-1.192,0.627c-0.627,0.509-1.551,1.434-2.92,3.112L28.383,44.953z M21.777,48.604
	c1.595,0.203,3.91-0.352,6.605-3.651l-0.31-0.253c-2.632,3.223-4.821,3.689-6.245,3.508L21.777,48.604z M13.959,54.698
	c3.476-0.255,6.285-3.178,8.016-6.193l-0.347-0.199c-1.712,2.981-4.428,5.753-7.699,5.993L13.959,54.698z M13.21,54.725
	c0.247,0,0.496-0.01,0.748-0.027l-0.027-0.399c-0.245,0.017-0.485,0.026-0.721,0.026V54.725z M6.983,51.54
	c1.412,2.094,3.561,3.185,6.227,3.185v-0.4c-2.543,0-4.563-1.033-5.896-3.009L6.983,51.54z M7.112,37.002
	c-1.041,2.114-1.74,4.752-1.847,7.355c-0.108,2.601,0.375,5.188,1.719,7.183l0.332-0.224c-1.281-1.901-1.756-4.394-1.651-6.943
	c0.105-2.547,0.79-5.131,1.807-7.195L7.112,37.002z M14.807,30.917c-3.103,0.194-5.898,2.437-7.695,6.085l0.359,0.177
	c1.758-3.569,4.449-5.681,7.361-5.862L14.807,30.917z M15.87,31.855c-0.035-0.555-0.518-0.967-1.061-0.938l0.021,0.399
	c0.331-0.017,0.62,0.234,0.641,0.564L15.87,31.855z M14.932,32.919c0.552-0.035,0.973-0.51,0.938-1.063l-0.399,0.026
	c0.021,0.332-0.231,0.618-0.563,0.639L14.932,32.919z M8.91,37.888c1.5-3.044,3.706-4.826,6.023-4.97l-0.025-0.399
	c-2.516,0.156-4.822,2.08-6.357,5.192L8.91,37.888z M8.646,50.42c-0.961-1.426-1.426-3.484-1.381-5.735
	c0.044-2.247,0.596-4.666,1.646-6.797l-0.359-0.177c-1.076,2.186-1.641,4.662-1.687,6.966c-0.045,2.3,0.427,4.449,1.45,5.967
	L8.646,50.42z M13.814,52.697c-2.331,0.174-4.042-0.603-5.168-2.277l-0.332,0.223c1.218,1.811,3.077,2.636,5.53,2.452L13.814,52.697
	z M20.079,47.771c-0.731,1.214-1.661,2.404-2.73,3.311c-1.069,0.908-2.266,1.524-3.534,1.616l0.029,0.399
	c1.38-0.1,2.654-0.768,3.764-1.71c1.11-0.942,2.067-2.168,2.814-3.409L20.079,47.771z M17.089,41.144
	c-0.166,1.197,0.022,2.588,0.535,3.842c0.513,1.255,1.359,2.392,2.527,3.061L20.35,47.7c-1.071-0.614-1.867-1.67-2.356-2.866
	c-0.489-1.196-0.664-2.515-0.509-3.636L17.089,41.144z M20.464,37.475c-1.838,0.251-3.094,1.642-3.375,3.669l0.396,0.055
	c0.26-1.88,1.401-3.105,3.033-3.327L20.464,37.475z M23.399,38.582c-0.467-0.629-1.367-1.318-2.934-1.108l0.053,0.396
	c1.4-0.188,2.165,0.418,2.56,0.95L23.399,38.582z M22.79,46.913c0.591-1.312,1.105-2.893,1.293-4.39
	c0.188-1.489,0.059-2.937-0.685-3.94l-0.321,0.238c0.651,0.878,0.793,2.196,0.609,3.652c-0.182,1.448-0.682,2.99-1.261,4.276
	L22.79,46.913z M26.827,43.685c-1.523,1.868-2.988,2.845-4.235,2.947l0.032,0.399c1.415-0.115,2.97-1.201,4.513-3.092L26.827,43.685
	z M32.305,39.36c-0.686-0.034-1.42,0.278-2.29,0.968c-0.871,0.691-1.902,1.783-3.188,3.357l0.31,0.253
	c1.281-1.567,2.29-2.632,3.127-3.296c0.838-0.665,1.477-0.909,2.022-0.882L32.305,39.36z M34.502,41.135
	c-0.458-0.736-1.04-1.701-2.194-1.775l-0.026,0.399c0.915,0.059,1.397,0.811,1.88,1.587L34.502,41.135z M36.615,42.704
	c-0.506,0.025-0.866-0.111-1.179-0.369c-0.324-0.267-0.605-0.67-0.934-1.2l-0.34,0.211c0.328,0.529,0.639,0.985,1.019,1.298
	c0.391,0.322,0.849,0.489,1.453,0.459L36.615,42.704z M41.654,39.974c-1.585,1.624-3.05,2.673-5.035,2.73l0.011,0.4
	c2.144-0.062,3.704-1.205,5.31-2.85L41.654,39.974z M41.975,30.685l-0.378,9.42l0.4,0.016l0.378-9.42L41.975,30.685z M42.255,29.767
	c-0.168,0.275-0.264,0.588-0.28,0.917l0.4,0.019c0.012-0.262,0.089-0.51,0.221-0.727L42.255,29.767z M56.538,6.052L42.254,29.768
	l0.343,0.206L56.881,6.258L56.538,6.052z M59.203,5.392c-0.913-0.553-2.111-0.256-2.664,0.66l0.342,0.207
	c0.44-0.728,1.391-0.963,2.115-0.525L59.203,5.392z M59.215,5.4L59.21,5.396l-0.222,0.333l0.005,0.004L59.215,5.4z M61.631,0.983
	l-2.697,4.481l0.343,0.206l2.697-4.481L61.631,0.983z M64.425,0.29c-0.963-0.579-2.213-0.266-2.794,0.692l0.342,0.207
	c0.467-0.771,1.472-1.022,2.246-0.556L64.425,0.29z M67.869,2.366L64.425,0.29l-0.206,0.343l3.444,2.075L67.869,2.366z
	 M68.794,3.618c-0.131-0.526-0.459-0.972-0.925-1.252l-0.206,0.343c0.374,0.225,0.638,0.582,0.743,1.006L68.794,3.618z
	 M68.561,5.158c0.282-0.466,0.364-1.013,0.233-1.541l-0.388,0.096c0.105,0.425,0.04,0.863-0.187,1.237L68.561,5.158z M65.863,9.637
	l2.698-4.479l-0.343-0.206L65.52,9.43L65.863,9.637z M65.801,9.366l-0.006-0.004l-0.206,0.343l0.006,0.004L65.801,9.366z
	 M66.462,12.028c0.551-0.916,0.255-2.11-0.661-2.662l-0.206,0.343c0.726,0.437,0.961,1.386,0.524,2.113L66.462,12.028z
	 M66.279,12.332l0.183-0.304l-0.343-0.206l-0.183,0.304L66.279,12.332z M68.622,13.51l-2.412-1.453L66.004,12.4l2.412,1.453
	L68.622,13.51z M67.158,4.312l-0.171-0.103l0,0L67.158,4.312z M67.204,4.012l-0.194,0.047l0.001,0.003L67.204,4.012z M67.023,3.768
	L66.92,3.939l0.001,0L67.023,3.768z M63.577,1.692l-0.105,0.17l0.002,0.001L63.577,1.692z M63.031,1.828l0.171,0.103l0,0
	L63.031,1.828z M60.456,6.106l-0.171-0.103l-0.103,0.171l0.171,0.103L60.456,6.106z M64.58,8.592l-0.103,0.171l0.171,0.103
	l0.103-0.171L64.58,8.592z M64.96,11.126l-0.198-0.027l0.369,0.131L64.96,11.126z M64.898,10.866l-0.103,0.171l0.001,0
	L64.898,10.866z M58.299,6.892l0.103-0.171l-0.003-0.002L58.299,6.892z M58.037,6.957l-0.171-0.104l0,0L58.037,6.957z M43.886,30.45
	l-0.171-0.103l-0.103,0.171l0.171,0.103L43.886,30.45z M50.808,34.619l-0.103,0.171l0.171,0.103l0.103-0.171L50.808,34.619z
	 M64.296,12.227l0.171,0.103l0.008-0.014l0.006-0.015L64.296,12.227z M64.34,12.103l-0.17-0.106L64.169,12L64.34,12.103z
	 M64.43,12.006l0.153,0.129l0.01-0.012l0.008-0.013L64.43,12.006z M64.96,11.126l0.198,0.027l-0.369-0.13L64.96,11.126z
	 M49.517,35.519l0.101,0.173l0.291-0.17l-0.289-0.174L49.517,35.519z M43.694,32.012l0.103-0.171l-0.289-0.174l-0.014,0.337
	L43.694,32.012z M43.39,39.103l-0.2-0.009l-0.016,0.366l0.316-0.185L43.39,39.103z M21.107,46.254l-0.182-0.083l-0.026,0.056
	l0.01,0.06L21.107,46.254z M21.948,39.656l-0.161,0.119l0.001,0.001L21.948,39.656z M20.709,39.261l-0.027-0.198l0,0L20.709,39.261z
	 M18.878,41.388l0.198,0.027l0,0L18.878,41.388z M21.013,46.457l-0.102,0.172l0.19,0.114l0.093-0.201L21.013,46.457z M21.107,46.254
	l0.181,0.084l0.026-0.056l-0.01-0.061L21.107,46.254z M68.519,13.682l0.103-0.171l-0.063-0.038l-0.073,0.012L68.519,13.682z
	 M69.211,16.469l0.171,0.103l0,0L69.211,16.469z M62.594,27.453l0.171,0.104l0-0.001L62.594,27.453z M61.491,27.726l0.104-0.171
	l-0.001,0L61.491,27.726z M61.217,26.625l-0.171-0.103l0,0L61.217,26.625z M67.835,15.64l-0.171-0.104l0,0.001L67.835,15.64z
	 M67.693,15.059l-0.103,0.171l0,0L67.693,15.059z M65.28,13.606l0.103-0.171l-0.171-0.103l-0.103,0.171L65.28,13.606z
	 M52.002,35.648l0.171,0.104l0-0.001L52.002,35.648z M51.404,36.244l0.1,0.173l0.002-0.001L51.404,36.244z M43.127,41.054
	l-0.1-0.173l-0.024,0.014l-0.02,0.02L43.127,41.054z M36.672,44.51l-0.006-0.2l-0.001,0L36.672,44.51z M32.969,42.087l-0.17,0.105
	l0,0L32.969,42.087z M32.193,41.161l0.013-0.2l-0.011-0.001l-0.011,0L32.193,41.161z M28.228,44.826l0.155,0.127l0,0L28.228,44.826z
	 M21.803,48.406l0.025-0.198l-0.132-0.017l-0.066,0.116L21.803,48.406z M13.945,54.499l0.014,0.2l0.001,0L13.945,54.499z
	 M7.149,51.428L6.983,51.54l0,0L7.149,51.428z M7.291,37.091l-0.179-0.088l0,0L7.291,37.091z M14.819,31.117l-0.011-0.2l-0.002,0
	L14.819,31.117z M15.67,31.868l-0.2,0.013l0,0L15.67,31.868z M14.92,32.719l0.012,0.2l0,0L14.92,32.719z M8.73,37.8l-0.179-0.088
	l0,0L8.73,37.8z M8.48,50.532l0.166-0.112l0,0L8.48,50.532z M13.829,52.897l-0.014-0.199l0,0L13.829,52.897z M20.25,47.874
	l0.171,0.103l0.105-0.175L20.35,47.7L20.25,47.874z M17.287,41.171l-0.198-0.027l0,0L17.287,41.171z M20.491,37.673l-0.027-0.198
	l0,0L20.491,37.673z M23.238,38.702l0.161-0.119l0,0L23.238,38.702z M22.608,46.831l-0.182-0.082l-0.139,0.309l0.338-0.027
	L22.608,46.831z M26.982,43.811l-0.155-0.127l0,0L26.982,43.811z M32.295,39.559l0.013-0.2l-0.003,0L32.295,39.559z M34.332,41.241
	l0.17-0.105l0,0L34.332,41.241z M36.624,42.904l-0.006-0.2l-0.004,0L36.624,42.904z M41.797,40.114l0.143,0.14l0.054-0.055
	l0.003-0.077L41.797,40.114z M42.175,30.693l-0.2-0.009l0,0.001L42.175,30.693z M42.426,29.872l0.171,0.104l0.001-0.001
	L42.426,29.872z M56.709,6.155l-0.171-0.103l0,0L56.709,6.155z M59.099,5.563l0.111-0.167l-0.007-0.004L59.099,5.563z M59.104,5.566
	l-0.111,0.166l0.174,0.116l0.108-0.179L59.104,5.566z M61.802,1.086l-0.171-0.104l0,0.001L61.802,1.086z M64.321,0.462l0.103-0.171
	l0,0L64.321,0.462z M67.766,2.537l-0.103,0.171l0,0L67.766,2.537z M68.6,3.666l0.194-0.048l0,0L68.6,3.666z M68.39,5.055
	l-0.171-0.104l0,0L68.39,5.055z M65.692,9.534L65.52,9.43l-0.103,0.172l0.172,0.103L65.692,9.534z M65.698,9.537l0.103-0.171l0,0
	L65.698,9.537z M66.29,11.925l0.171,0.103l0,0L66.29,11.925z M66.107,12.229l-0.171-0.103l-0.103,0.171l0.171,0.103L66.107,12.229z
	 M68.519,13.682l-0.103,0.171l0.063,0.038l0.073-0.012L68.519,13.682z"/>
<path fill="#7B3DD9" d="M64.58,8.592l-4.125-2.486l2.576-4.278c0.114-0.19,0.364-0.248,0.546-0.136l3.446,2.075
	c0.091,0.054,0.156,0.142,0.18,0.245c0.027,0.102,0.01,0.209-0.045,0.3L64.58,8.592z M64.96,11.126l-0.53,0.881
	c-0.028,0.034-0.065,0.057-0.09,0.096c-0.024,0.039-0.028,0.084-0.044,0.125L50.808,34.619l-6.921-4.169L58.037,6.957
	c0.036-0.06,0.099-0.093,0.165-0.093c0.033,0,0.066,0.01,0.097,0.028l6.599,3.974C64.986,10.919,65.015,11.037,64.96,11.126
	L64.96,11.126z M43.39,39.103l0.304-7.092l5.824,3.508L43.39,39.103z M21.107,46.254c-0.031,0.068-0.062,0.134-0.094,0.202
	c-1.56-0.93-2.377-3.328-2.135-5.069c0.12-0.873,0.538-1.951,1.831-2.127c0.116-0.016,0.22-0.022,0.315-0.022
	c0.544,0,0.787,0.23,0.925,0.418C22.619,40.559,22.545,43.116,21.107,46.254L21.107,46.254z M68.519,13.682l-2.412-1.453
	l0.183-0.304c0.494-0.822,0.229-1.893-0.593-2.388l-0.006-0.004l2.698-4.479c0.254-0.42,0.328-0.913,0.21-1.389
	c-0.118-0.474-0.414-0.876-0.834-1.129l-3.444-2.075c-0.869-0.522-1.995-0.24-2.52,0.624l-2.697,4.481l-0.005-0.004
	c-0.818-0.496-1.893-0.23-2.389,0.593L42.426,29.872c-0.15,0.246-0.237,0.527-0.251,0.822l-0.378,9.42
	c-1.595,1.635-3.108,2.731-5.172,2.79c-1.11,0.054-1.635-0.604-2.293-1.663c-0.47-0.756-1.002-1.615-2.037-1.681
	c-1.23-0.061-2.747,1.111-5.313,4.252c-1.533,1.879-3.043,2.911-4.374,3.019c1.171-2.598,2.025-6.248,0.63-8.129
	c-0.431-0.58-1.263-1.228-2.747-1.029c-1.735,0.237-2.934,1.545-3.204,3.498c-0.321,2.319,0.724,5.419,2.963,6.703
	c-1.479,2.455-3.774,4.83-6.421,5.023c-2.392,0.179-4.177-0.622-5.349-2.365C6.496,47.589,6.605,42.117,8.73,37.8
	c1.517-3.078,3.774-4.931,6.19-5.081c0.442-0.028,0.779-0.409,0.75-0.851c-0.028-0.442-0.414-0.774-0.851-0.751
	c-3.007,0.188-5.751,2.365-7.528,5.974c-2.058,4.178-2.767,10.442-0.142,14.338c1.372,2.035,3.457,3.097,6.061,3.097
	c0.241,0,0.486-0.01,0.735-0.027c3.373-0.248,6.136-3.095,7.858-6.093c1.509,0.192,3.761-0.318,6.425-3.579
	c2.731-3.347,3.656-3.653,3.965-3.666c0.21,0.014,0.511,0.499,0.776,0.927c0.614,0.991,1.525,2.496,3.703,2.423
	c2.842-0.084,4.782-1.71,6.455-3.457l8.276-4.809c0.245-0.146,0.451-0.354,0.599-0.597L65.28,13.606l2.413,1.453
	c0.2,0.12,0.264,0.38,0.142,0.58l-6.618,10.985c-0.228,0.379-0.105,0.872,0.274,1.101c0.128,0.078,0.272,0.116,0.414,0.116
	c0.272,0,0.536-0.139,0.688-0.389l6.618-10.984C69.788,15.507,69.477,14.26,68.519,13.682L68.519,13.682z"/>
</svg>
