<svg width="79" height="74" viewBox="0 0 79 74" fill="none" xmlns="http://www.w3.org/2000/svg">
<path d="M24.0042 68.2271C24.0053 69.2168 24.3482 70.1759 24.9749 70.942C25.6026 71.7091 26.4762 72.2356 27.4477 72.4322C28.4192 72.6287 29.4288 72.4832 30.3053 72.0204C31.1817 71.5575 31.8712 70.8057 32.2566 69.8926C32.6421 68.9794 32.6998 67.961 32.4201 67.0101C32.1404 66.0592 31.5405 65.2343 30.722 64.6753C29.9034 64.1162 28.9168 63.8575 27.9293 63.9429C26.9435 64.0282 26.0174 64.4512 25.3075 65.1403C24.8916 65.5392 24.5615 66.0188 24.3373 66.5498C24.1134 67.0804 24 67.6512 24.0042 68.2271ZM24.0042 68.2271C24.0042 68.2257 24.0042 68.2244 24.0042 68.223L25.0042 68.2228L24.0042 68.231C24.0042 68.2297 24.0042 68.2284 24.0042 68.2271ZM53.5417 3.16248C53.5495 3.17058 53.5575 3.17855 53.5656 3.18638C54.2619 3.85972 54.813 4.66845 55.185 5.56278L56.1083 5.17872L55.185 5.56278C55.557 6.45711 55.742 7.41812 55.7287 8.38665L55.7286 8.38665V8.40044V20.6909H52.658L52.658 8.40043L52.6579 8.39397C52.6506 7.24985 52.1928 6.15469 51.3837 5.34565C50.5747 4.53661 49.4796 4.07883 48.3354 4.07142H48.329H8.39925V4.0714L8.39303 4.07144C7.2488 4.07855 6.15348 4.53636 5.34453 5.34562C4.53557 6.15489 4.07819 7.25038 4.07152 8.39462H4.0715V8.40044L4.07148 58.792L4.07152 58.7985C4.07891 59.9423 4.53647 61.0373 5.34515 61.8463C6.15384 62.6552 7.24858 63.1132 8.39242 63.121H8.39925H41.9207V68.2554C41.909 69.9065 42.3531 71.5139 43.1845 72.9092H8.39921L8.38483 72.9093C7.41667 72.9232 6.45592 72.7386 5.56188 72.3668L5.1779 73.2901L5.56187 72.3668C4.66783 71.995 3.85946 71.4439 3.18666 70.7476C3.1787 70.7394 3.17061 70.7313 3.16237 70.7233C2.46618 70.0507 1.9152 69.2425 1.54342 68.3486C1.17164 67.4548 0.986939 66.4942 1.00072 65.5262L1.00082 65.512V8.40044L1.00072 8.3862C0.986926 7.4178 1.17163 6.45684 1.54344 5.56256C1.91524 4.66828 2.46628 3.85963 3.16258 3.18646C3.17068 3.17863 3.17865 3.17066 3.18648 3.16256C3.8595 2.46636 4.66797 1.91539 5.56206 1.54358C6.45615 1.17178 7.41691 0.987029 8.38513 1.00072L8.38513 1.00082H8.39927H48.329L48.3432 1.00072C49.3114 0.986934 50.2722 1.17163 51.1662 1.54343C52.0603 1.91523 52.8687 2.46624 53.5417 3.16248Z" stroke="#6A4EEE" stroke-width="2" stroke-linejoin="round"/>
<path d="M76.2966 26.535C76.3045 26.5432 76.3125 26.5512 76.3207 26.5591C76.757 26.981 77.1024 27.4877 77.3356 28.0481C77.5687 28.6086 77.6846 29.2108 77.6762 29.8177L77.6761 29.8177V29.8315L77.6761 68.2558C77.6761 68.2562 77.6761 68.2566 77.6761 68.257C77.6721 69.4898 77.1805 70.6709 76.3087 71.5425C75.4369 72.4141 74.2557 72.9054 73.023 72.9092C73.0225 72.9092 73.0221 72.9092 73.0217 72.9092L63.6223 72.9092C63.8777 72.7705 64.1149 72.597 64.3264 72.3919C64.6382 72.0931 64.8858 71.7338 65.0538 71.336C65.222 70.9381 65.307 70.5101 65.3039 70.0782C65.3028 69.3375 65.0463 68.6199 64.5774 68.0465C64.1512 67.5253 63.5734 67.1524 62.9268 66.9776L73.0245 66.9776L73.031 66.9776C73.8869 66.972 74.7061 66.6295 75.3113 66.0242C75.9164 65.419 76.2588 64.5998 76.2644 63.7439V63.7375L76.2644 29.8316L76.2643 29.825C76.2587 28.9692 75.9162 28.1501 75.3111 27.545C74.7059 26.9398 73.8868 26.5974 73.0311 26.5917V26.5917H73.0245H51.0613V26.5917L51.0544 26.5917C50.1988 26.5977 49.38 26.9402 48.775 27.5452C48.17 28.1502 47.8275 28.9691 47.8216 29.8247H47.8216V29.8316L47.8216 63.7375L47.8216 63.7441C47.8273 64.5998 48.1697 65.4189 48.7748 66.024C49.3798 66.6292 50.1988 66.9717 51.0545 66.9776H51.0613H61.248C61.0199 67.0393 60.7979 67.1263 60.5862 67.238L61.0529 68.1224L60.5862 67.238C59.9298 67.5844 59.4134 68.1471 59.1246 68.8308C58.8357 69.5145 58.7922 70.277 59.0013 70.9891C59.2105 71.7012 59.6595 72.3191 60.2722 72.7379C60.363 72.8 60.4566 72.8571 60.5525 72.9092L51.0641 72.9092C51.0636 72.9092 51.0632 72.9092 51.0627 72.9092C49.8301 72.9055 48.6489 72.4142 47.7772 71.5426C46.9055 70.671 46.414 69.4899 46.4102 68.2573V29.8329C46.414 28.6002 46.9054 27.419 47.7772 26.5472C48.6489 25.6755 49.8301 25.1841 51.0628 25.1802H73.0246L73.0389 25.1801C73.6457 25.1715 74.2478 25.2872 74.808 25.5202L75.1897 24.6024L74.808 25.5202C75.3683 25.7533 75.8749 26.0986 76.2966 26.535Z" stroke="#6A4EEE" stroke-width="2" stroke-linejoin="round"/>
</svg>
