<svg width="104" height="78" viewBox="0 0 104 78" fill="none" xmlns="http://www.w3.org/2000/svg">
<path d="M36.7826 58.5217C36.7826 63.3261 43.5956 67.2174 52 67.2174C60.4043 67.2174 67.2174 63.3261 67.2174 58.5217H88.9565V9.24783C88.9565 7.32558 88.1929 5.48207 86.8337 4.12284C85.4744 2.76361 83.6309 2 81.7087 2H22.2913C20.369 2 18.5255 2.76361 17.1663 4.12284C15.8071 5.48207 15.0435 7.32558 15.0435 9.24783V58.5217H36.7826Z" stroke="#6A4EEE" stroke-width="2.5" stroke-linecap="round" stroke-linejoin="round"/>
<path d="M67.2174 58.5215C67.2174 63.3258 60.4043 67.2171 52 67.2171C43.5957 67.2171 36.7826 63.3258 36.7826 58.5215H2C3.24202 63.4888 6.10875 67.8985 10.1446 71.0497C14.1804 74.2008 19.1536 75.9125 24.2739 75.9128H79.7261C84.8464 75.9125 89.8196 74.2008 93.8554 71.0497C97.8912 67.8985 100.758 63.4888 102 58.5215H67.2174Z" stroke="#6A4EEE" stroke-width="2.5" stroke-linecap="round" stroke-linejoin="round"/>
<path d="M41.1304 19.3906V28.0863" stroke="#6A4EEE" stroke-width="2.5" stroke-linecap="round" stroke-linejoin="round"/>
<path d="M62.8696 19.3906V28.0863" stroke="#6A4EEE" stroke-width="2.5" stroke-linecap="round" stroke-linejoin="round"/>
<path d="M69.391 38.9551C64.5731 43.1602 58.3947 45.4773 51.9997 45.4773C45.6047 45.4773 39.4263 43.1602 34.6084 38.9551" stroke="#6A4EEE" stroke-width="2.5" stroke-linecap="round" stroke-linejoin="round"/>
</svg>
