<svg width="74" height="74" viewBox="0 0 74 74" fill="none" xmlns="http://www.w3.org/2000/svg">
<path d="M58.4835 0.0792027C57.5532 0.203001 55.6772 0.729143 54.7779 1.13149C47.3047 4.42761 44.3899 13.5732 48.5761 20.5833C49.5839 22.2546 51.584 24.2508 53.2584 25.2567C58.623 28.4445 65.4915 27.5934 69.8948 23.1985C71.6313 21.4653 72.8561 19.2834 73.5383 16.7455C73.957 15.1516 73.9415 11.9174 73.4918 10.2616C72.0654 5.00018 67.8792 1.11601 62.6697 0.203001C61.4138 -0.0136452 59.5998 -0.06007 58.4835 0.0792027ZM59.0261 5.07755C59.0261 7.0738 58.9796 7.55352 58.8091 7.55352C58.7005 7.55352 58.1114 7.80112 57.5222 8.09514C56.1888 8.76055 55.2895 9.68904 54.6383 11.0818C54.1887 12.0257 54.1422 12.2579 54.1422 13.6042C54.1422 14.9969 54.1732 15.1362 54.7159 16.2503C55.4136 17.6585 56.3128 18.5251 57.7548 19.206C58.7005 19.6548 58.9331 19.7012 60.2665 19.7012C61.5534 19.7012 61.8635 19.6393 62.7162 19.2525L63.693 18.8037L65.4295 20.5369L67.166 22.27L66.7009 22.6569C66.0497 23.1985 64.2356 24.0496 63.0573 24.3746C61.6929 24.746 58.8556 24.746 57.4757 24.3746C55.5841 23.8794 53.9717 22.9354 52.4987 21.4808C51.0258 20.0262 50.2351 18.7573 49.5994 16.8693C49.2583 15.8325 49.1963 15.3992 49.1963 13.5887C49.1963 11.6389 49.2273 11.4067 49.6769 10.1378C49.9405 9.39502 50.3901 8.38916 50.6692 7.90944C51.3669 6.74883 53.4445 4.67521 54.6073 3.99432C55.6772 3.35986 57.8013 2.61707 58.53 2.60159H59.0261V5.07755ZM64.2977 3.23606C65.6 3.73125 66.9334 4.58236 68.0032 5.58822C69.5692 7.08928 70.9646 9.67356 71.2127 11.546L71.3212 12.3507H68.8095C66.9179 12.3507 66.3132 12.3043 66.3132 12.1495C66.3132 11.7162 65.352 9.99854 64.7473 9.34859C64.1426 8.68318 62.2201 7.55352 61.7239 7.55352C61.5534 7.55352 61.5068 7.05833 61.5068 5.06208V2.55517L62.3131 2.66349C62.7472 2.72539 63.6465 2.98846 64.2977 3.23606ZM61.4138 10.0604C62.7472 10.4628 63.9876 12.165 63.9876 13.5887C63.9876 15.5076 62.189 17.3026 60.2665 17.3026C59.2897 17.3026 58.499 16.9467 57.7082 16.142C56.1268 14.5791 56.1268 12.5983 57.7082 11.0353C58.7936 9.93664 59.9564 9.64261 61.4138 10.0604ZM71.2747 15.1826C71.2747 16.2813 70.1894 18.9894 69.3521 20.0107L68.9645 20.475L67.228 18.7418L65.4915 17.0086L65.8946 16.0956C66.1272 15.5849 66.3132 15.0897 66.3132 14.9969C66.3132 14.8731 67.0575 14.8267 68.794 14.8267H71.2747V15.1826Z" fill="#6A4EEE"/>
<path d="M25.3034 16.4359C24.4351 16.8383 24.156 17.1168 23.2413 18.4941L22.5901 19.4535H21.7528C20.3729 19.4535 19.5047 20.088 19.1636 21.3724C18.993 22.0378 19.1481 22.7032 20.0628 24.9625L20.3729 25.7363L17.1325 29.3728C13.4579 33.4891 12.7292 34.4176 11.954 36.1044C11.0082 38.147 10.7601 39.3541 10.7601 41.9074C10.7601 43.7644 10.8221 44.3679 11.1012 45.3892C11.3028 46.0701 11.4733 46.7201 11.4733 46.8439C11.4888 46.9677 8.99262 49.0103 5.75217 51.4863L0 55.9121L0.449631 56.5311C0.682198 56.8715 1.0233 57.3203 1.17834 57.5369L1.47293 57.9083L2.7443 56.9334C3.442 56.3918 4.06218 56.0204 4.1397 56.0823C4.49631 56.4846 13.6285 68.7252 13.6905 68.9109C13.7525 69.0502 13.0858 69.6382 11.8454 70.5667L9.90738 72.0213L10.5896 72.9189C10.9617 73.4295 11.3028 73.8628 11.3338 73.9092C11.3803 73.9402 12.4811 73.1819 13.768 72.2225L16.1247 70.4584L20.6365 68.524L25.1483 66.5897L26.4042 64.1292L27.66 61.6687L32.9161 60.0903C35.7999 59.2237 38.3892 58.4035 38.6527 58.2642C39.7226 57.7071 40.4203 56.5001 40.4203 55.2002C40.4203 54.4884 39.7381 53.1421 39.1644 52.7243L38.7148 52.4148L39.5055 51.2387C40.1567 50.2793 40.3272 50.109 40.4978 50.2793C40.6063 50.4031 41.7847 51.8113 43.1335 53.4361C44.4824 55.0455 45.7228 56.5001 45.8934 56.6394C46.1724 56.9025 47.0717 56.9179 60.049 56.9179H73.91V55.68V54.442H72.6696H71.4293V42.449V30.4406L71.0417 30.0692L70.6696 29.6823H66.4678H62.2661L61.894 30.0692C61.5064 30.4406 61.5064 30.487 61.5064 33.1642V35.8722H58.1729C54.824 35.8722 54.824 35.8722 54.4518 36.2591C54.0797 36.615 54.0642 36.7079 54.0642 38.7351V40.8242H50.7463C47.7074 40.8242 47.3973 40.8551 47.0717 41.1182L46.6996 41.4122L46.6221 47.5402L46.5445 53.6682L44.0948 50.7435L41.6606 47.8188L42.1103 46.4415C43.2886 42.9287 43.1025 39.385 41.5676 36.0425C41.2265 35.2997 41.0559 34.7271 41.1335 34.6497C41.211 34.5878 42.2963 33.7058 43.5367 32.7154L45.8003 30.9203H49.94H54.0642V29.6823V28.4443H49.5059H44.9631L42.2188 30.6263L39.49 32.8082L38.8853 32.1428C38.5597 31.7714 37.1333 30.1775 35.7379 28.5991L33.1797 25.7363L33.4897 24.9625C34.389 22.7032 34.5596 22.0378 34.389 21.3724C34.0479 20.088 33.1797 19.4535 31.7998 19.4535H30.9625L30.3113 18.4941C29.9702 17.9679 29.5361 17.3644 29.35 17.1632C28.8694 16.6216 27.5825 16.0645 26.7763 16.0645C26.3732 16.0645 25.753 16.2193 25.3034 16.4359ZM27.381 18.8036C27.5515 18.9583 28.0322 19.5618 28.4353 20.1653C29.4121 21.5735 29.9702 21.9449 31.1331 21.9449H32.0168L31.4587 23.3377L30.9005 24.7304H26.7763H22.6521L22.0939 23.3377L21.5358 21.9449H22.4195C23.5824 21.9449 24.1405 21.5735 25.1173 20.1653C25.9235 18.9583 26.3577 18.5405 26.7763 18.5405C26.9313 18.5405 27.1949 18.6643 27.381 18.8036ZM23.5048 28.0884C22.9622 29.1871 22.7451 30.1775 22.7451 31.431C22.7451 32.3749 22.9312 33.4891 23.1172 33.6748C23.1792 33.7212 23.6909 33.6129 24.2646 33.4117L25.3189 33.0713L25.3034 31.5703C25.3034 30.2394 25.3499 29.9763 25.722 29.2026C25.9701 28.7229 26.2957 28.2122 26.4662 28.0575C26.7608 27.7944 26.7918 27.7944 27.0864 28.0575C27.2569 28.2122 27.5825 28.7229 27.8306 29.2026C28.2027 29.9763 28.2492 30.2394 28.2492 31.5548L28.2337 33.0404L29.1795 33.3653C29.6911 33.551 30.1873 33.7058 30.2803 33.7058C30.5439 33.7058 30.8075 32.4833 30.8075 31.3536C30.8075 30.2239 30.5129 29.0169 29.9857 27.9492L29.6136 27.2064H30.4043H31.1951L34.6681 31.106C36.5751 33.257 38.4047 35.4699 38.7303 36.0115C40.7924 39.4005 40.9474 43.5323 39.1489 47.076C38.9008 47.5712 38.0946 48.8711 37.3659 49.9698L36.0325 51.966H28.0787H20.1249L20.9311 50.3102C21.6908 48.7318 21.7373 48.5925 21.7373 47.4164C21.7373 45.9927 21.4427 45.2809 20.5435 44.4453C19.8303 43.7644 19.1326 43.4394 18.1713 43.3466C17.0705 43.2382 16.1557 43.5632 14.8378 44.5381C14.2642 44.9559 13.7525 45.3119 13.706 45.3119C13.4734 45.3119 13.2098 43.4858 13.2098 41.83C13.2253 39.7874 13.5199 38.472 14.3727 36.8007C15.0394 35.5008 15.582 34.82 19.1016 30.8584L22.3575 27.2064H23.1482H23.939L23.5048 28.0884ZM68.9486 43.3001V54.442H66.4678H63.9871V43.3001V32.1583H66.4678H68.9486V43.3001ZM61.5064 46.3951V54.442H59.0257H56.545V46.3951V38.3482H59.0257H61.5064V46.3951ZM54.0642 48.8711V54.442H51.5835H49.1028V48.8711V43.3001H51.5835H54.0642V48.8711ZM18.5434 45.9927C19.024 46.2403 19.3341 46.8284 19.3341 47.4628C19.3341 47.7104 18.776 49.0413 18.0938 50.4031C17.4116 51.7803 16.8534 53.0802 16.8534 53.2968C16.8534 53.5135 17.024 53.8539 17.241 54.0551L17.6131 54.442H27.4895C36.4666 54.442 37.3969 54.4729 37.6605 54.705C38.0016 55.0145 38.0171 55.5716 37.707 55.8966C37.5829 56.0204 36.9007 56.2989 36.1875 56.5156C35.4898 56.7322 32.9316 57.4905 30.4974 58.2178C28.0787 58.9606 26.0166 59.626 25.9235 59.7189C25.846 59.7962 25.2103 60.9569 24.5281 62.2877L23.2878 64.7017L19.6597 66.2338C17.6751 67.0849 15.9852 67.7193 15.9231 67.642C15.8611 67.5801 13.613 64.578 10.9152 61.0033L6.01575 54.4729L6.35685 54.1789C6.884 53.7147 16.7139 46.1939 17.0705 45.9773C17.5046 45.7297 18.0162 45.7297 18.5434 45.9927Z" fill="#6A4EEE"/>
<path d="M31 38.0047V37H23V38.0047H25.414C26.4849 38.0047 27.4003 38.5922 27.7555 39.4194H23.0018V40.4241H27.9004C27.7643 41.5175 26.704 42.3678 25.414 42.3678H23V43.3724H24.6823L28.3369 48H29.9203L26.2675 43.3724H30.9982V42.3678H28.6037C29.0915 41.8246 29.4025 41.1554 29.459 40.4241H31V39.4194H29.3724C29.2399 38.894 28.9731 38.4129 28.6037 38.0047H31Z" fill="#6A4EEE"/>
</svg>
