<?xml version="1.0" encoding="utf-8"?>
<!-- Generator: Adobe Illustrator 17.0.0, SVG Export Plug-In . SVG Version: 6.00 Build 0)  -->
<!DOCTYPE svg PUBLIC "-//W3C//DTD SVG 1.1//EN" "http://www.w3.org/Graphics/SVG/1.1/DTD/svg11.dtd">
<svg version="1.1" id="Layer_1" xmlns="http://www.w3.org/2000/svg" xmlns:xlink="http://www.w3.org/1999/xlink" x="0px" y="0px"
	 width="31.667px" height="41px" viewBox="0 0 31.667 41" enable-background="new 0 0 31.667 41" xml:space="preserve">
<path fill="#FFFFFF" d="M29.333,34.471V36.5h1v-2.029H29.333z M27.022,30.732c1.427,0.713,2.311,2.144,2.311,3.739h1
	c0-1.974-1.098-3.751-2.864-4.634L27.022,30.732z M20.654,27.548l6.369,3.184l0.447-0.894l-6.369-3.184L20.654,27.548z
	 M18.667,24.332c0,1.369,0.762,2.603,1.987,3.216l0.447-0.894c-0.886-0.443-1.434-1.331-1.434-2.322H18.667z M18.667,21.582v2.75h1
	v-2.75H18.667z M18.957,21.063l-0.166,0.189l0.752,0.659l0.166-0.189L18.957,21.063z M19.482,20.385
	c-0.191,0.271-0.373,0.505-0.525,0.677l0.75,0.661c0.183-0.207,0.387-0.471,0.591-0.762L19.482,20.385z M21.304,16.712
	c-0.431,1.341-1.044,2.576-1.821,3.673l0.816,0.578c0.839-1.183,1.497-2.511,1.957-3.945L21.304,16.712z M21.411,16.381l-0.107,0.33
	l0.952,0.308l0.107-0.33L21.411,16.381z M22.072,15.955l-0.332,0.102l0.294,0.956l0.332-0.102L22.072,15.955z M22.667,15.167
	c0,0.357-0.233,0.676-0.595,0.788l0.295,0.956c0.771-0.238,1.301-0.937,1.301-1.744H22.667z M22.667,12.5v2.667h1V12.5H22.667z
	 M22.385,11.888c0.188,0.169,0.282,0.385,0.282,0.612h1c0-0.522-0.223-1.003-0.612-1.354L22.385,11.888z M22.165,11.69l0.22,0.199
	l0.67-0.742l-0.22-0.199L22.165,11.69z M22.006,7.079L22,11.318l1,0.001l0.006-4.239L22.006,7.079z M21.049,4.05
	c1.147,1.296,0.959,2.975,0.958,2.988l0.997,0.083c-0.001,0.013,0.004-0.037,0.008-0.099c0.004-0.065,0.008-0.156,0.008-0.268
	c0-0.223-0.015-0.533-0.074-0.892c-0.119-0.716-0.418-1.65-1.147-2.474L21.049,4.05z M15.833,2.333c2.54,0,4.247,0.62,5.216,1.716
	l0.749-0.662c-1.243-1.407-3.298-2.054-5.965-2.054V2.333z M10.607,4.062c0.967-1.103,2.678-1.728,5.227-1.728v-1
	c-2.677,0-4.737,0.652-5.979,2.069L10.607,4.062z M9.658,7.024c0-0.001-0.003-0.023-0.006-0.068
	C9.648,6.911,9.645,6.842,9.644,6.754c-0.001-0.176,0.01-0.427,0.057-0.719c0.095-0.587,0.335-1.322,0.905-1.973L9.855,3.402
	c-0.728,0.831-1.025,1.76-1.14,2.472C8.656,6.231,8.643,6.539,8.644,6.76c0.001,0.111,0.005,0.201,0.01,0.266
	C8.656,7.058,8.659,7.084,8.66,7.104c0.002,0.019,0.003,0.033,0.003,0.031L9.658,7.024z M9.665,7.132L9.659,7.045L8.662,7.114
	l0.006,0.087L9.665,7.132z M9.667,11.319V7.167h-1v4.152H9.667z M9.281,11.888l0.22-0.198l-0.669-0.743l-0.22,0.198L9.281,11.888z
	 M9,12.5c0-0.226,0.094-0.442,0.282-0.613l-0.671-0.741C8.223,11.497,8,11.978,8,12.5H9z M9,15.167V12.5H8v2.667H9z M9.388,15.865
	C9.141,15.705,9,15.443,9,15.167H8c0,0.625,0.32,1.199,0.845,1.538L9.388,15.865z M9.615,16.011l-0.227-0.147l-0.542,0.84
	l0.227,0.147L9.615,16.011z M9.892,16.583l-0.061-0.264l-0.975,0.224l0.061,0.264L9.892,16.583z M12.063,21.087
	c-0.002-0.002-1.575-1.905-2.171-4.503l-0.975,0.224c0.65,2.83,2.345,4.88,2.375,4.917L12.063,21.087z M12.217,21.269l-0.155-0.185
	l-0.766,0.642l0.155,0.185L12.217,21.269z M12.333,24.27v-2.679h-1v2.679H12.333z M10.46,27.427
	c1.156-0.631,1.874-1.841,1.874-3.157h-1c0,0.95-0.518,1.823-1.353,2.279L10.46,27.427z M4.512,30.671l5.947-3.244l-0.479-0.878
	l-5.947,3.244L4.512,30.671z M2.333,34.341c0-1.531,0.835-2.938,2.179-3.67l-0.479-0.878c-1.666,0.908-2.7,2.652-2.7,4.548H2.333z
	 M2.333,36.5v-2.159h-1V36.5H2.333z M15.833,38.667c-4.499,0-7.96-0.438-10.283-0.981c-1.164-0.272-2.026-0.567-2.586-0.838
	c-0.282-0.136-0.465-0.256-0.571-0.349C2.27,36.39,2.333,36.39,2.333,36.5h-1c0,0.336,0.218,0.589,0.399,0.749
	c0.2,0.177,0.474,0.343,0.797,0.499c0.65,0.314,1.59,0.63,2.793,0.911c2.412,0.564,5.952,1.007,10.511,1.007V38.667z M29.333,36.5
	c0-0.11,0.063-0.11-0.061-0.001c-0.105,0.093-0.289,0.213-0.571,0.349c-0.559,0.27-1.421,0.565-2.586,0.838
	c-2.323,0.543-5.784,0.981-10.283,0.981v1c4.559,0,8.098-0.443,10.511-1.007c1.203-0.281,2.143-0.597,2.793-0.911
	c0.323-0.156,0.596-0.322,0.797-0.499c0.182-0.16,0.399-0.414,0.399-0.749H29.333z M31.667,34.471c0-2.481-1.381-4.716-3.6-5.826
	l-0.447,0.894c1.881,0.941,3.048,2.829,3.048,4.931H31.667z M31.667,36.5v-2.029h-1V36.5H31.667z M15.833,41
	c2.669,0,6.537-0.21,9.749-0.822c1.602-0.305,3.076-0.717,4.162-1.273c1.057-0.541,1.922-1.313,1.922-2.405h-1
	c0,0.49-0.388,1.009-1.378,1.515c-0.96,0.491-2.325,0.882-3.894,1.181C22.267,39.792,18.467,40,15.833,40V41z M0,36.5
	c0,1.092,0.865,1.864,1.922,2.405c1.086,0.556,2.56,0.967,4.162,1.273C9.297,40.79,13.164,41,15.833,41v-1
	c-2.634,0-6.433-0.208-9.562-0.805c-1.569-0.299-2.934-0.69-3.894-1.181C1.388,37.509,1,36.99,1,36.5H0z M0,34.341V36.5h1v-2.159H0z
	 M3.395,28.622C1.301,29.765,0,31.956,0,34.341h1c0-2.02,1.101-3.874,2.874-4.842L3.395,28.622z M9.343,25.378l-5.947,3.244
	L3.874,29.5l5.947-3.244L9.343,25.378z M10,24.27c0,0.462-0.252,0.886-0.658,1.108l0.48,0.878C10.548,25.859,11,25.099,11,24.27H10z
	 M10,22.064v2.206h1v-2.206H10z M7.68,17.362c0.634,2.512,1.957,4.396,2.423,5.006l0.795-0.607c-0.428-0.56-1.661-2.319-2.248-4.644
	L7.68,17.362z M6.667,15.167c0,0.965,0.439,1.864,1.185,2.463l0.626-0.78c-0.512-0.411-0.811-1.025-0.811-1.683H6.667z M6.667,12.5
	v2.667h1V12.5H6.667z M7.458,10.42c-0.504,0.575-0.791,1.313-0.791,2.08h1c0-0.517,0.194-1.023,0.542-1.42L7.458,10.42z
	 M7.333,7.204v3.546h1V7.204H7.333z M8.852,2.524c-1.72,1.962-1.557,4.325-1.516,4.731l0.995-0.101
	c-0.033-0.327-0.164-2.331,1.273-3.97L8.852,2.524z M15.833,0c-3.092,0-5.481,0.813-6.981,2.524l0.752,0.659
	C10.842,1.771,12.897,1,15.833,1V0z M22.815,2.524C21.314,0.813,18.925,0,15.833,0v1c2.936,0,4.991,0.771,6.229,2.184L22.815,2.524z
	 M24.331,7.255c0.041-0.406,0.204-2.769-1.516-4.73l-0.752,0.659c1.438,1.64,1.307,3.642,1.273,3.97L24.331,7.255z M24.333,10.75
	V7.204h-1v3.546H24.333z M25,12.5c0-0.767-0.286-1.505-0.791-2.08l-0.751,0.66C23.806,11.477,24,11.983,24,12.5H25z M25,15.167V12.5
	h-1v2.667H25z M23.157,18.032C24.273,17.521,25,16.415,25,15.167h-1c0,0.851-0.494,1.606-1.26,1.957L23.157,18.032z M21.387,21.733
	c0.854-1.207,1.538-2.548,2.034-3.992l-0.946-0.325c-0.466,1.357-1.107,2.613-1.905,3.74L21.387,21.733z M20.887,22.395
	c0.161-0.197,0.329-0.42,0.5-0.662l-0.816-0.578c-0.161,0.227-0.314,0.43-0.458,0.606L20.887,22.395z M21,24.332v-2.254h-1v2.254H21
	z M21.698,25.462C21.266,25.246,21,24.815,21,24.332h-1c0,0.861,0.48,1.638,1.25,2.024L21.698,25.462z M28.066,28.645l-6.369-3.184
	l-0.447,0.894l6.369,3.184L28.066,28.645z M27.246,30.285l0.224-0.447l0,0L27.246,30.285z M20.877,27.101l-0.224,0.447l0,0
	L20.877,27.101z M19.167,21.582l-0.376-0.33l-0.124,0.141v0.188H19.167z M19.333,21.393l-0.375-0.33l-0.001,0.001L19.333,21.393z
	 M19.891,20.673l-0.408-0.289l-0.001,0.001L19.891,20.673z M21.78,16.865l-0.476-0.154l0,0.001L21.78,16.865z M21.887,16.535
	l-0.147-0.478l-0.249,0.076l-0.08,0.248L21.887,16.535z M22.219,16.433l0.147,0.478l0,0L22.219,16.433z M22.72,11.517l-0.335,0.371
	l0,0L22.72,11.517z M22.5,11.319L22,11.318l0,0.223l0.165,0.149L22.5,11.319z M22.506,7.079l-0.498-0.042l-0.002,0.02l0,0.02
	L22.506,7.079z M21.424,3.719L21.049,4.05l0,0L21.424,3.719z M10.231,3.732l-0.376-0.33l0,0L10.231,3.732z M9.161,7.079l0.499-0.034
	l-0.001-0.01l-0.001-0.01L9.161,7.079z M9.167,7.167h0.5V7.15L9.665,7.132L9.167,7.167z M9.167,11.319l0.334,0.372l0.166-0.149
	v-0.223H9.167z M8.947,11.517l-0.334-0.372l-0.001,0.001L8.947,11.517z M9.117,16.285l-0.271,0.42l0,0L9.117,16.285z M9.344,16.431
	l0.487-0.112l-0.046-0.198l-0.171-0.11L9.344,16.431z M9.405,16.695l0.487-0.112l0,0L9.405,16.695z M11.678,21.405l-0.385,0.319
	l0.002,0.002L11.678,21.405z M11.833,21.591h0.5v-0.182l-0.117-0.139L11.833,21.591z M10.22,26.988l0.239,0.439l0,0L10.22,26.988z
	 M4.273,30.232l0.239,0.439l0,0L4.273,30.232z M3.635,29.061l-0.239-0.439l0,0L3.635,29.061z M9.582,25.817l0.239,0.439l0,0
	L9.582,25.817z M10.5,22.064H11v-0.169l-0.103-0.134L10.5,22.064z M8.165,17.239l0.485-0.122l-0.041-0.163l-0.131-0.105
	L8.165,17.239z M7.833,10.75l0.376,0.33l0.124-0.142V10.75H7.833z M7.833,7.204h0.5V7.179L8.331,7.153L7.833,7.204z M9.228,2.853
	l-0.376-0.33l0,0L9.228,2.853z M22.439,2.854l-0.376,0.33l0,0L22.439,2.854z M23.833,7.204l-0.497-0.051l-0.003,0.025v0.025H23.833z
	 M23.833,10.75h-0.5v0.188l0.124,0.142L23.833,10.75z M22.949,17.578l-0.208-0.454l-0.195,0.089l-0.07,0.203L22.949,17.578z
	 M20.979,21.444l-0.408-0.289l0,0L20.979,21.444z M20.5,22.078l-0.387-0.317L20,21.9v0.178H20.5z M21.474,25.909l-0.224,0.447l0,0
	L21.474,25.909z M27.843,29.093l0.224-0.447l0,0L27.843,29.093z"/>
<path fill="#FFFFFF" d="M29.833,36.5c0,0.905-4.941,2.667-14,2.667s-14-1.762-14-2.667v-2.159c0-1.714,0.935-3.289,2.439-4.109
	l5.947-3.244c0.995-0.543,1.613-1.585,1.613-2.718v-2.679l-0.155-0.185c-0.016-0.019-1.65-1.996-2.273-4.71l-0.061-0.264
	l-0.227-0.147C8.731,16.035,8.5,15.617,8.5,15.167V12.5c0-0.374,0.159-0.723,0.447-0.983l0.22-0.198V7.167L9.161,7.079
	c-0.002-0.018-0.229-1.866,1.07-3.347c1.105-1.26,2.99-1.899,5.603-1.899c2.603,0,4.485,0.634,5.591,1.885
	c1.298,1.467,1.083,3.345,1.082,3.361L22.5,11.319l0.22,0.199c0.288,0.26,0.447,0.609,0.447,0.983v2.667
	c0,0.582-0.381,1.091-0.948,1.266l-0.332,0.102l-0.107,0.33c-0.446,1.387-1.081,2.669-1.889,3.809
	c-0.198,0.281-0.391,0.529-0.558,0.719l-0.166,0.189v2.75c0,1.18,0.655,2.241,1.711,2.769l6.369,3.184
	c1.596,0.798,2.587,2.402,2.587,4.187V36.5z M27.843,29.093l-6.369-3.184c-0.601-0.301-0.974-0.905-0.974-1.577v-2.254
	c0.153-0.187,0.313-0.399,0.479-0.634c0.826-1.167,1.488-2.465,1.969-3.866c0.941-0.431,1.551-1.361,1.551-2.411V12.5
	c0-0.642-0.24-1.264-0.667-1.75V7.204c0.037-0.367,0.184-2.549-1.395-4.35C21.069,1.292,18.847,0.5,15.833,0.5
	s-5.236,0.792-6.605,2.353C7.649,4.654,7.796,6.837,7.833,7.204v3.546c-0.427,0.486-0.667,1.108-0.667,1.75v2.667
	c0,0.811,0.369,1.568,0.998,2.073c0.611,2.418,1.889,4.24,2.335,4.825v2.206c0,0.645-0.352,1.237-0.918,1.547l-5.947,3.244
	C1.701,30.116,0.5,32.139,0.5,34.341V36.5c0,3.164,10.03,4,15.333,4s15.333-0.836,15.333-4v-2.029
	C31.167,32.179,29.893,30.118,27.843,29.093z"/>
</svg>
