<svg width="34" height="39" viewBox="0 0 34 39" fill="none" xmlns="http://www.w3.org/2000/svg">
<path d="M1.83203 12.6775C1.83203 9.94049 2.65312 7.5557 4.2953 5.52308C6.25027 3.02127 9.10481 1.77009 12.8589 1.76953C18.4892 2.31803 21.9694 4.85978 23.2993 9.39476C23.5426 10.4748 23.6995 11.5725 23.7685 12.6775V26.0503C23.7685 27.3026 23.182 28.2019 22.009 28.7482C21.5398 28.9828 21.1097 29.1001 20.7187 29.1001C19.3877 29.1001 18.4881 28.4745 18.0201 27.2233C17.8673 26.851 17.7876 26.4527 17.7855 26.0503V12.6775C17.6291 9.78409 15.9869 8.18074 12.8589 7.86739C10.1968 7.86739 8.59375 9.11885 8.04968 11.6218C7.97581 11.9689 7.93651 12.3225 7.93238 12.6775V26.0503C7.93238 27.3026 7.30679 28.2019 6.05561 28.7482C5.74198 28.9828 5.35182 29.1001 4.88179 29.1001C3.55074 29.1001 2.61236 28.4745 2.06663 27.2233C1.91386 26.851 1.83421 26.4527 1.83203 26.0503V12.6775Z" stroke="#6A4EEE" stroke-width="2" stroke-miterlimit="10"/>
<path d="M20.7186 30.0027C19.0382 30.0027 17.8361 29.1708 17.2413 27.5901C17.0512 27.1215 16.9523 26.6209 16.9501 26.1152V12.7681C16.8103 10.3223 15.4968 9.05117 12.8172 8.77082C10.5835 8.78246 9.32736 9.7691 8.86648 11.8605C8.80502 12.1514 8.77187 12.4475 8.76749 12.7448V26.1177C8.76749 27.675 7.97385 28.858 6.47226 29.5443C6.00167 29.8567 5.44634 30.0167 4.88166 30.0027C3.21786 30.0027 1.98081 29.1807 1.30448 27.6251L1.29533 27.6018C1.10232 27.1307 1.00204 26.6268 1 26.1177V12.7448C1 9.82733 1.89014 7.2451 3.64462 5.06967C5.75766 2.36931 8.85816 1 12.8621 1H12.9029L12.9428 1.00416C18.92 1.58649 22.6761 4.35174 24.1036 9.22504L24.1103 9.24916L24.1161 9.27245C24.3691 10.3966 24.5324 11.5391 24.6044 12.6891V12.7165V26.1177C24.6044 27.69 23.8324 28.8829 22.3724 29.5676C21.7918 29.8563 21.2352 30.0027 20.7186 30.0027Z" stroke="#6A4EEE" stroke-width="2" stroke-miterlimit="10"/>
<path d="M20.7371 37.9993C16.8147 37.9993 13.7 36.5019 11.4797 33.5528C11.0669 33.0541 10.6981 32.5205 10.3774 31.9581L10.3624 31.9306C9.38575 30.0646 8.8916 28.1172 8.8916 26.1547V13.0797C8.8916 11.3967 9.64032 10.1514 11.0546 9.47419C11.556 9.18149 12.127 9.02919 12.7075 9.03328C13.7549 9.03328 14.7133 9.41263 15.556 10.1613L15.5751 10.178L15.5926 10.1955C16.3629 10.9675 16.7573 11.9375 16.7573 13.0797V26.1547C16.7573 27.0773 16.9153 27.8277 17.2256 28.3867L17.2314 28.3967C17.6632 29.1995 18.1682 29.7277 18.7339 29.9582C19.3828 30.1609 20.0597 30.2597 20.7396 30.251C22.351 30.251 23.3917 29.8209 23.9224 28.9366L24.2411 28.405C24.557 27.6969 24.7197 26.9301 24.7186 26.1547V13.0797C24.7186 11.5623 25.4199 10.3593 26.7451 9.60147C27.4056 9.22462 28.0653 9.03328 28.7076 9.03328C29.3756 9.03787 30.0273 9.24053 30.5802 9.61562C31.8904 10.3751 32.5826 11.5723 32.5826 13.0797V26.1905V26.2262C32.0967 31.825 29.5178 35.5369 24.9299 37.2573C23.5883 37.7549 22.1679 38.0063 20.7371 37.9993V37.9993Z" stroke="#6A4EEE" stroke-width="2" stroke-miterlimit="10"/>
<path d="M12.7081 9.86728C13.5494 9.86728 14.314 10.1723 15.0017 10.7824C15.6117 11.3924 15.9168 12.1572 15.9168 13.0768V26.1543C15.9168 27.2252 16.1081 28.1046 16.4908 28.7923C17.026 29.7867 17.676 30.4364 18.4408 30.7414C19.1817 30.9792 19.9562 31.0955 20.7343 31.0858C22.6455 31.0858 23.9452 30.5124 24.6334 29.3654L24.9779 28.7923C25.3575 27.9646 25.5538 27.0648 25.5535 26.1543V13.0793C25.5535 11.8553 26.0887 10.9377 27.1591 10.3265C28.2295 9.71532 29.2233 9.71532 30.1407 10.3265C31.2105 10.9366 31.7459 11.8541 31.7471 13.0793V26.1543C31.2878 31.4302 28.9175 34.871 24.6359 36.4766C23.3884 36.9393 22.0674 37.1724 20.7368 37.1645C17.0665 37.1645 14.1992 35.7883 12.1349 33.0358C11.7477 32.5699 11.4022 32.0707 11.1025 31.5442C10.1852 29.7861 9.72656 27.9895 9.72656 26.1543V13.0793C9.72656 11.7022 10.3 10.7463 11.4469 10.2117C11.8274 9.98252 12.264 9.8633 12.7081 9.86728V9.86728Z" stroke="#6A4EEE" stroke-width="2" stroke-miterlimit="10"/>
</svg>
