<svg width="129" height="39" viewBox="0 0 129 39" fill="none" xmlns="http://www.w3.org/2000/svg">
<path d="M47.4576 17.3978C47.4576 13.7437 49.6948 11.6556 52.7971 11.6556C55.8248 11.6556 57.6593 13.6393 57.6593 16.9653V31.0001H62.1188V16.4284C62.1188 10.7608 59.0016 7.79272 54.3184 7.79272C50.873 7.79272 48.6209 9.3886 47.562 11.8197H47.2786V8.09102H42.998V31.0001H47.4576V17.3978Z" fill="#6A4EEE"/>
<path d="M79.6717 21.4994C79.6866 25.3922 76.7931 27.2416 74.2875 27.2416C71.5282 27.2416 69.6191 25.243 69.6191 22.1258V8.09102H65.1596V22.6628C65.1596 28.3453 68.2768 31.2984 72.6767 31.2984C76.122 31.2984 78.4636 29.4788 79.5225 27.0328H79.7612V31.0001H84.1461V8.09102H79.6717V21.4994Z" fill="#6A4EEE"/>
<path d="M101.71 21.4994C101.725 25.3922 98.8316 27.2416 96.326 27.2416C93.5667 27.2416 91.6576 25.243 91.6576 22.1258V8.09102H87.1981V22.6628C87.1981 28.3453 90.3153 31.2984 94.7152 31.2984C98.1605 31.2984 100.502 29.4788 101.561 27.0328H101.8V31.0001H106.185V8.09102H101.71V21.4994Z" fill="#6A4EEE"/>
<path d="M123.749 21.4994C123.764 25.3922 120.87 27.2416 118.364 27.2416C115.605 27.2416 113.696 25.243 113.696 22.1258V8.09102H109.237V22.6628C109.237 28.3453 112.354 31.2984 116.754 31.2984C120.199 31.2984 122.541 29.4788 123.6 27.0328H123.838V31.0001H128.223V8.09102H123.749V21.4994Z" fill="#6A4EEE"/>
<path d="M1.83203 12.6784C1.83203 9.94147 2.65312 7.55668 4.2953 5.52406C6.25027 3.02225 9.10481 1.77106 12.8589 1.77051C18.4892 2.31901 21.9694 4.86075 23.2993 9.39574C23.5426 10.4758 23.6995 11.5735 23.7685 12.6784V26.0513C23.7685 27.3036 23.182 28.2029 22.009 28.7492C21.5398 28.9837 21.1097 29.101 20.7187 29.101C19.3877 29.101 18.4881 28.4755 18.0201 27.2243C17.8673 26.852 17.7876 26.4537 17.7855 26.0513V12.6784C17.6291 9.78507 15.9869 8.18171 12.8589 7.86836C10.1968 7.86836 8.59375 9.11982 8.04968 11.6227C7.97581 11.9699 7.93651 12.3235 7.93238 12.6784V26.0513C7.93238 27.3036 7.30679 28.2029 6.05561 28.7492C5.74198 28.9837 5.35182 29.101 4.88179 29.101C3.55074 29.101 2.61236 28.4755 2.06663 27.2243C1.91386 26.852 1.83421 26.4537 1.83203 26.0513V12.6784Z" stroke="#6A4EEE" stroke-width="2" stroke-miterlimit="10"/>
<path d="M20.7186 30.0027C19.0382 30.0027 17.8361 29.1708 17.2413 27.5901C17.0512 27.1215 16.9523 26.6209 16.9501 26.1152V12.7681C16.8103 10.3223 15.4968 9.05117 12.8172 8.77082C10.5835 8.78246 9.32736 9.7691 8.86648 11.8605C8.80502 12.1514 8.77187 12.4475 8.76749 12.7448V26.1177C8.76749 27.675 7.97385 28.858 6.47226 29.5443C6.00167 29.8567 5.44634 30.0167 4.88166 30.0027C3.21786 30.0027 1.98081 29.1807 1.30448 27.6251L1.29533 27.6018C1.10232 27.1307 1.00204 26.6268 1 26.1177V12.7448C1 9.82733 1.89014 7.2451 3.64462 5.06967C5.75766 2.36931 8.85816 1 12.8621 1H12.9029L12.9428 1.00416C18.92 1.58649 22.6761 4.35174 24.1036 9.22504L24.1103 9.24916L24.1161 9.27245C24.3691 10.3966 24.5324 11.5391 24.6044 12.6891V12.7165V26.1177C24.6044 27.69 23.8324 28.8829 22.3724 29.5676C21.7918 29.8563 21.2352 30.0027 20.7186 30.0027Z" stroke="#6A4EEE" stroke-width="2" stroke-miterlimit="10"/>
<path d="M20.7371 37.9998C16.8147 37.9998 13.7 36.5024 11.4797 33.5533C11.0669 33.0545 10.6981 32.521 10.3774 31.9585L10.3624 31.9311C9.38575 30.0651 8.8916 28.1176 8.8916 26.1552V13.0802C8.8916 11.3972 9.64032 10.1519 11.0546 9.47468C11.556 9.18198 12.127 9.02968 12.7075 9.03377C13.7549 9.03377 14.7133 9.41312 15.556 10.1618L15.5751 10.1785L15.5926 10.1959C16.3629 10.9679 16.7573 11.9379 16.7573 13.0802V26.1552C16.7573 27.0778 16.9153 27.8281 17.2256 28.3872L17.2314 28.3972C17.6632 29.2 18.1682 29.7282 18.7339 29.9586C19.3828 30.1614 20.0597 30.2602 20.7396 30.2515C22.351 30.2515 23.3917 29.8214 23.9224 28.9371L24.2411 28.4055C24.557 27.6974 24.7197 26.9305 24.7186 26.1552V13.0802C24.7186 11.5628 25.4199 10.3598 26.7451 9.60196C27.4056 9.22511 28.0653 9.03377 28.7076 9.03377C29.3756 9.03836 30.0273 9.24102 30.5802 9.6161C31.8904 10.3756 32.5826 11.5727 32.5826 13.0802V26.191V26.2267C32.0967 31.8254 29.5178 35.5374 24.9299 37.2578C23.5883 37.7554 22.1679 38.0068 20.7371 37.9998V37.9998Z" stroke="#6A4EEE" stroke-width="2" stroke-miterlimit="10"/>
<path d="M12.7081 9.86802C13.5494 9.86802 14.314 10.173 15.0017 10.7831C15.6117 11.3932 15.9168 12.158 15.9168 13.0775V26.155C15.9168 27.226 16.1081 28.1053 16.4908 28.793C17.026 29.7874 17.676 30.4371 18.4408 30.7421C19.1817 30.9799 19.9562 31.0963 20.7343 31.0866C22.6455 31.0866 23.9452 30.5131 24.6334 29.3662L24.9779 28.793C25.3575 27.9654 25.5538 27.0655 25.5535 26.155V13.08C25.5535 11.856 26.0887 10.9384 27.1591 10.3272C28.2295 9.71606 29.2233 9.71606 30.1407 10.3272C31.2105 10.9373 31.7459 11.8549 31.7471 13.08V26.155C31.2878 31.431 28.9175 34.8717 24.6359 36.4773C23.3884 36.9401 22.0674 37.1732 20.7368 37.1653C17.0665 37.1653 14.1992 35.789 12.1349 33.0365C11.7477 32.5706 11.4022 32.0715 11.1025 31.5449C10.1852 29.7868 9.72656 27.9902 9.72656 26.155V13.08C9.72656 11.7029 10.3 10.7471 11.4469 10.2124C11.8274 9.98325 12.264 9.86404 12.7081 9.86802V9.86802Z" stroke="#6A4EEE" stroke-width="2" stroke-miterlimit="10"/>
</svg>
