<svg width="198" height="134" viewBox="0 0 198 134" fill="none" xmlns="http://www.w3.org/2000/svg">
<path d="M45.9574 120.141H2.95261C1.32193 120.141 0 121.463 0 123.093V126.322C0 127.953 1.32193 129.275 2.95261 129.275H45.9574C47.5881 129.275 48.91 127.953 48.91 126.322V123.093C48.91 121.463 47.5881 120.141 45.9574 120.141Z" fill="#FCCB21"/>
<g style="mix-blend-mode:soft-light" opacity="0.5">
<path d="M47.9424 126.379V123.042C47.9424 121.977 47.0787 121.113 46.0132 121.113H2.89584C1.83038 121.113 0.966663 121.977 0.966663 123.042V126.379C0.966663 127.444 1.83038 128.308 2.89584 128.308H46.0132C47.0787 128.308 47.9424 127.444 47.9424 126.379Z" fill="#F9FBFC"/>
</g>
<path opacity="0.66" d="M7.12746 121.113H2.82391C2.34029 121.113 1.8764 121.305 1.53395 121.647C1.1915 121.988 0.998425 122.451 0.99707 122.935V126.481C0.99707 126.966 1.18954 127.43 1.53214 127.773C1.87474 128.116 2.3394 128.308 2.82391 128.308H7.15305L7.12746 121.113Z" fill="#FC9F21"/>
<path opacity="0.66" d="M26.5569 121.107H10.1768V128.302H26.5569V121.107Z" fill="#FC9F21"/>
<path opacity="0.66" d="M46.1214 121.113H45.3999V128.308H46.1214C46.6055 128.307 47.0694 128.114 47.4117 127.771C47.754 127.429 47.9469 126.965 47.9482 126.481V122.935C47.9456 122.452 47.7521 121.989 47.4099 121.648C47.0677 121.307 46.6046 121.115 46.1214 121.113Z" fill="#FC9F21"/>
<path opacity="0.66" d="M44.1144 121.107H28.4507V128.302H44.1144V121.107Z" fill="#FC9F21"/>
<path d="M50.8036 111.074H7.7988C6.16812 111.074 4.84619 112.396 4.84619 114.027V117.256C4.84619 118.886 6.16812 120.208 7.7988 120.208H50.8036C52.4343 120.208 53.7562 118.886 53.7562 117.256V114.027C53.7562 112.396 52.4343 111.074 50.8036 111.074Z" fill="#FCCB21"/>
<g style="mix-blend-mode:soft-light" opacity="0.5">
<path d="M52.7881 117.311V113.974C52.7881 112.909 51.9244 112.045 50.8589 112.045H7.74154C6.67608 112.045 5.81237 112.909 5.81237 113.974V117.311C5.81237 118.376 6.67608 119.24 7.74154 119.24H50.8589C51.9244 119.24 52.7881 118.376 52.7881 117.311Z" fill="#F9FBFC"/>
</g>
<path opacity="0.66" d="M11.968 112.045H7.63885C7.15523 112.045 6.69134 112.237 6.34889 112.578C6.00644 112.92 5.81337 113.383 5.81201 113.867V117.413C5.81201 117.897 6.00449 118.362 6.34708 118.705C6.68968 119.047 7.15434 119.24 7.63885 119.24H11.968V112.045Z" fill="#FC9F21"/>
<path opacity="0.66" d="M31.3977 112.045H15.0176V119.24H31.3977V112.045Z" fill="#FC9F21"/>
<path opacity="0.66" d="M50.9613 112.045H50.2397V119.24H50.9613C51.4458 119.24 51.9104 119.047 52.253 118.705C52.5956 118.362 52.7881 117.897 52.7881 117.413V113.867C52.7868 113.383 52.5937 112.92 52.2512 112.578C51.9088 112.237 51.4449 112.045 50.9613 112.045Z" fill="#FC9F21"/>
<path opacity="0.66" d="M48.9547 112.045H33.291V119.24H48.9547V112.045Z" fill="#FC9F21"/>
<path d="M105.895 120.141H62.8906C61.2599 120.141 59.938 121.463 59.938 123.093V126.322C59.938 127.953 61.2599 129.275 62.8906 129.275H105.895C107.526 129.275 108.848 127.953 108.848 126.322V123.093C108.848 121.463 107.526 120.141 105.895 120.141Z" fill="#FCCB21"/>
<g style="mix-blend-mode:soft-light" opacity="0.5">
<path d="M107.88 126.373V123.037C107.88 121.971 107.016 121.107 105.951 121.107H62.8333C61.7679 121.107 60.9042 121.971 60.9042 123.037V126.373C60.9042 127.438 61.7679 128.302 62.8333 128.302H105.951C107.016 128.302 107.88 127.438 107.88 126.373Z" fill="#F9FBFC"/>
</g>
<path opacity="0.66" d="M67.0659 121.113H62.7316C62.248 121.113 61.7841 121.305 61.4417 121.647C61.0992 121.988 60.9061 122.451 60.9048 122.935V126.481C60.9048 126.966 61.0973 127.43 61.4398 127.773C61.7824 128.116 62.2471 128.308 62.7316 128.308H67.0659V121.113Z" fill="#FC9F21"/>
<path opacity="0.66" d="M86.4895 121.107H70.1094V128.302H86.4895V121.107Z" fill="#FC9F21"/>
<path opacity="0.66" d="M106.053 121.113H105.332V128.308H106.053C106.538 128.308 107.002 128.116 107.345 127.773C107.687 127.43 107.88 126.966 107.88 126.481V122.935C107.879 122.451 107.685 121.988 107.343 121.647C107.001 121.305 106.537 121.113 106.053 121.113Z" fill="#FC9F21"/>
<path opacity="0.66" d="M104.048 121.107H88.3843V128.302H104.048V121.107Z" fill="#FC9F21"/>
<path d="M109.282 111.074H66.2773C64.6466 111.074 63.3247 112.396 63.3247 114.027V117.256C63.3247 118.886 64.6466 120.208 66.2773 120.208H109.282C110.913 120.208 112.235 118.886 112.235 117.256V114.027C112.235 112.396 110.913 111.074 109.282 111.074Z" fill="#FCCB21"/>
<g style="mix-blend-mode:soft-light" opacity="0.5">
<path d="M111.268 117.307V113.97C111.268 112.905 110.404 112.041 109.339 112.041H66.2215C65.1561 112.041 64.2923 112.905 64.2923 113.97V117.307C64.2923 118.372 65.1561 119.236 66.2215 119.236H109.339C110.404 119.236 111.268 118.372 111.268 117.307Z" fill="#F9FBFC"/>
</g>
<path opacity="0.66" d="M70.4538 112.045H66.1247C65.6411 112.045 65.1772 112.237 64.8347 112.578C64.4923 112.92 64.2992 113.383 64.2979 113.867V117.413C64.2979 117.897 64.4903 118.362 64.8329 118.705C65.1755 119.047 65.6402 119.24 66.1247 119.24H70.4538V112.045Z" fill="#FC9F21"/>
<path opacity="0.66" d="M89.8835 112.045H73.5034V119.24H89.8835V112.045Z" fill="#FC9F21"/>
<path opacity="0.66" d="M109.446 112.045H108.75V119.24H109.472C109.956 119.238 110.419 119.045 110.76 118.703C111.102 118.36 111.294 117.897 111.294 117.413V113.867C111.293 113.626 111.245 113.387 111.151 113.164C111.058 112.942 110.921 112.74 110.75 112.571C110.578 112.402 110.374 112.268 110.151 112.178C109.927 112.087 109.688 112.042 109.446 112.045Z" fill="#FC9F21"/>
<path opacity="0.66" d="M107.435 112.045H91.771V119.24H107.435V112.045Z" fill="#FC9F21"/>
<path d="M107.348 102.006H64.3432C62.7126 102.006 61.3906 103.328 61.3906 104.958V108.187C61.3906 109.818 62.7126 111.14 64.3432 111.14H107.348C108.979 111.14 110.301 109.818 110.301 108.187V104.958C110.301 103.328 108.979 102.006 107.348 102.006Z" fill="#FCCB21"/>
<g style="mix-blend-mode:soft-light" opacity="0.5">
<path d="M109.329 108.244V104.908C109.329 103.842 108.465 102.979 107.399 102.979H64.2821C63.2166 102.979 62.3529 103.842 62.3529 104.908V108.244C62.3529 109.31 63.2166 110.173 64.2821 110.173H107.399C108.465 110.173 109.329 109.31 109.329 108.244Z" fill="#F9FBFC"/>
</g>
<path opacity="0.66" d="M68.5149 102.979H64.1857C63.7012 102.979 63.2365 103.171 62.894 103.514C62.5514 103.856 62.3589 104.321 62.3589 104.805V108.352C62.3602 108.835 62.5533 109.299 62.8958 109.64C63.2382 109.982 63.7021 110.173 64.1857 110.173H68.5149V102.979Z" fill="#FC9F21"/>
<path opacity="0.66" d="M87.9446 102.979H71.5645V110.173H87.9446V102.979Z" fill="#FC9F21"/>
<path opacity="0.66" d="M107.507 102.979H106.785V110.194H107.507C107.99 110.194 108.454 110.002 108.797 109.66C109.139 109.319 109.332 108.856 109.334 108.372V104.826C109.336 104.584 109.291 104.344 109.2 104.12C109.11 103.896 108.976 103.693 108.806 103.521C108.636 103.349 108.434 103.213 108.211 103.12C107.988 103.026 107.748 102.979 107.507 102.979Z" fill="#FC9F21"/>
<path opacity="0.66" d="M105.501 102.979H89.8369V110.173H105.501V102.979Z" fill="#FC9F21"/>
<path d="M105.725 91.5369L62.7202 94.5472C61.0895 94.6614 59.8601 96.0758 59.9743 97.7065L60.2003 100.935C60.3144 102.566 61.7289 103.796 63.3596 103.681L106.364 100.671C107.995 100.557 109.224 99.1425 109.11 97.5118L108.884 94.2828C108.77 92.6521 107.356 91.4227 105.725 91.5369Z" fill="#FCCB21"/>
<g style="mix-blend-mode:soft-light" opacity="0.5">
<path d="M106.958 98.0979L106.738 94.7687C106.668 93.7056 105.749 92.9007 104.686 92.9709L61.6623 95.8135C60.5992 95.8837 59.7943 96.8025 59.8645 97.8656L60.0844 101.195C60.1547 102.258 61.0735 103.063 62.1366 102.993L105.16 100.15C106.223 100.08 107.028 99.161 106.958 98.0979Z" fill="#F9FBFC"/>
</g>
<path opacity="0.66" d="M65.8938 95.5488L61.5749 95.8354C61.0919 95.8669 60.6412 96.0889 60.3217 96.4525C60.0022 96.8162 59.84 97.2917 59.8709 97.7748L60.1063 101.316C60.1391 101.798 60.3617 102.247 60.7252 102.566C61.0886 102.884 61.5635 103.046 62.0457 103.015L66.3697 102.728L65.8938 95.5488Z" fill="#FC9F21"/>
<path opacity="0.66" d="M85.2761 94.2776L68.9316 95.3574L69.406 102.537L85.7504 101.457L85.2761 94.2776Z" fill="#FC9F21"/>
<path opacity="0.66" d="M104.8 92.9748L104.084 93.026L104.555 100.19L105.276 100.144C105.76 100.111 106.211 99.8881 106.53 99.5236C106.849 99.1592 107.011 98.6831 106.98 98.1995L106.745 94.6635C106.71 94.1823 106.485 93.7346 106.121 93.4182C105.757 93.1018 105.282 92.9424 104.8 92.9748Z" fill="#FC9F21"/>
<path opacity="0.66" d="M102.788 93.1217L87.1587 94.1543L87.633 101.333L103.263 100.301L102.788 93.1217Z" fill="#FC9F21"/>
<path d="M161.094 120.141H118.089C116.459 120.141 115.137 121.463 115.137 123.093V126.322C115.137 127.953 116.459 129.275 118.089 129.275H161.094C162.725 129.275 164.047 127.953 164.047 126.322V123.093C164.047 121.463 162.725 120.141 161.094 120.141Z" fill="#FCCB21"/>
<g style="mix-blend-mode:soft-light" opacity="0.5">
<path d="M163.079 126.373V123.037C163.079 121.971 162.215 121.107 161.149 121.107H118.032C116.967 121.107 116.103 121.971 116.103 123.037V126.373C116.103 127.438 116.967 128.302 118.032 128.302H161.149C162.215 128.302 163.079 127.438 163.079 126.373Z" fill="#F9FBFC"/>
</g>
<path opacity="0.66" d="M122.266 121.113H117.932C117.449 121.115 116.986 121.307 116.645 121.648C116.304 121.99 116.111 122.452 116.11 122.935V126.481C116.11 126.965 116.302 127.429 116.643 127.771C116.985 128.114 117.448 128.307 117.932 128.308H122.266V121.113Z" fill="#FC9F21"/>
<path opacity="0.66" d="M141.694 121.107H125.313V128.302H141.694V121.107Z" fill="#FC9F21"/>
<path opacity="0.66" d="M161.258 121.113H160.531V128.308H161.258C161.742 128.307 162.205 128.114 162.546 127.771C162.888 127.429 163.08 126.965 163.08 126.481V122.935C163.078 122.452 162.886 121.99 162.545 121.648C162.203 121.307 161.741 121.115 161.258 121.113Z" fill="#FC9F21"/>
<path opacity="0.66" d="M159.247 121.107H143.583V128.302H159.247V121.107Z" fill="#FC9F21"/>
<path d="M165.94 111.074H122.935C121.304 111.074 119.982 112.396 119.982 114.027V117.256C119.982 118.886 121.304 120.208 122.935 120.208H165.94C167.571 120.208 168.892 118.886 168.892 117.256V114.027C168.892 112.396 167.571 111.074 165.94 111.074Z" fill="#FCCB21"/>
<g style="mix-blend-mode:soft-light" opacity="0.5">
<path d="M167.925 117.311V113.974C167.925 112.909 167.061 112.045 165.996 112.045H122.878C121.813 112.045 120.949 112.909 120.949 113.974V117.311C120.949 118.376 121.813 119.24 122.878 119.24H165.996C167.061 119.24 167.925 118.376 167.925 117.311Z" fill="#F9FBFC"/>
</g>
<path opacity="0.66" d="M127.105 112.045H122.776C122.292 112.045 121.829 112.237 121.486 112.578C121.144 112.92 120.951 113.383 120.949 113.867V117.413C120.949 117.897 121.142 118.362 121.484 118.705C121.827 119.047 122.292 119.24 122.776 119.24H127.105V112.045Z" fill="#FC9F21"/>
<path opacity="0.66" d="M146.534 112.045H130.154V119.24H146.534V112.045Z" fill="#FC9F21"/>
<path opacity="0.66" d="M166.098 112.045H165.376V119.24H166.098C166.582 119.24 167.047 119.047 167.389 118.705C167.732 118.362 167.924 117.897 167.924 117.413V113.867C167.923 113.383 167.73 112.92 167.387 112.578C167.045 112.237 166.581 112.045 166.098 112.045Z" fill="#FC9F21"/>
<path opacity="0.66" d="M164.091 112.045H148.428V119.24H164.091V112.045Z" fill="#FC9F21"/>
<path d="M168.361 102.006H125.356C123.725 102.006 122.403 103.328 122.403 104.958V108.187C122.403 109.818 123.725 111.14 125.356 111.14H168.361C169.991 111.14 171.313 109.818 171.313 108.187V104.958C171.313 103.328 169.991 102.006 168.361 102.006Z" fill="#FCCB21"/>
<g style="mix-blend-mode:soft-light" opacity="0.5">
<path d="M170.34 108.244V104.908C170.34 103.842 169.477 102.979 168.411 102.979H125.294C124.228 102.979 123.365 103.842 123.365 104.908V108.244C123.365 109.31 124.228 110.173 125.294 110.173H168.411C169.477 110.173 170.34 109.31 170.34 108.244Z" fill="#F9FBFC"/>
</g>
<path opacity="0.66" d="M129.525 102.979H125.196C124.711 102.979 124.247 103.171 123.904 103.514C123.562 103.856 123.369 104.321 123.369 104.805V108.352C123.37 108.835 123.564 109.299 123.906 109.64C124.248 109.982 124.712 110.173 125.196 110.173H129.525V102.979Z" fill="#FC9F21"/>
<path opacity="0.66" d="M148.956 102.979H132.576V110.173H148.956V102.979Z" fill="#FC9F21"/>
<path opacity="0.66" d="M168.517 102.979H167.796V110.194H168.517C169.001 110.194 169.465 110.002 169.807 109.66C170.15 109.319 170.343 108.856 170.344 108.372V104.826C170.347 104.584 170.302 104.344 170.211 104.12C170.121 103.896 169.986 103.693 169.816 103.521C169.647 103.349 169.444 103.213 169.221 103.12C168.998 103.026 168.759 102.979 168.517 102.979Z" fill="#FC9F21"/>
<path opacity="0.66" d="M166.513 102.979H150.85V110.173H166.513V102.979Z" fill="#FC9F21"/>
<path d="M162.547 92.9434H119.542C117.911 92.9434 116.589 94.2653 116.589 95.896V99.1249C116.589 100.756 117.911 102.078 119.542 102.078H162.547C164.177 102.078 165.499 100.756 165.499 99.1249V95.896C165.499 94.2653 164.177 92.9434 162.547 92.9434Z" fill="#FCCB21"/>
<g style="mix-blend-mode:soft-light" opacity="0.5">
<path d="M164.532 99.1757V95.8393C164.532 94.7739 163.668 93.9102 162.603 93.9102H119.485C118.42 93.9102 117.556 94.7739 117.556 95.8393V99.1757C117.556 100.241 118.42 101.105 119.485 101.105H162.603C163.668 101.105 164.532 100.241 164.532 99.1757Z" fill="#F9FBFC"/>
</g>
<path opacity="0.66" d="M123.718 93.9102H119.384C118.901 93.9115 118.437 94.1046 118.096 94.447C117.754 94.7895 117.562 95.2534 117.563 95.737V99.2832C117.562 99.7668 117.754 100.231 118.096 100.573C118.437 100.916 118.901 101.109 119.384 101.11H123.718V93.9102Z" fill="#FC9F21"/>
<path opacity="0.66" d="M143.149 93.9102H126.769V101.105H143.149V93.9102Z" fill="#FC9F21"/>
<path opacity="0.66" d="M162.706 93.9102H161.969V101.11H162.69C163.175 101.11 163.639 100.918 163.982 100.575C164.325 100.232 164.517 99.7677 164.517 99.2832V95.737C164.517 95.2551 164.327 94.7928 163.987 94.4506C163.648 94.1085 163.187 93.9142 162.706 93.9102Z" fill="#FC9F21"/>
<path opacity="0.66" d="M160.7 93.9102H145.037V101.105H160.7V93.9102Z" fill="#FC9F21"/>
<path d="M167.874 83.875H124.869C123.238 83.875 121.917 85.1969 121.917 86.8276V90.0566C121.917 91.6872 123.238 93.0092 124.869 93.0092H167.874C169.505 93.0092 170.827 91.6872 170.827 90.0566V86.8276C170.827 85.1969 169.505 83.875 167.874 83.875Z" fill="#FCCB21"/>
<g style="mix-blend-mode:soft-light" opacity="0.5">
<path d="M169.859 90.1093V86.7729C169.859 85.7075 168.996 84.8438 167.93 84.8438H124.813C123.747 84.8438 122.884 85.7075 122.884 86.7729V90.1093C122.884 91.1748 123.747 92.0385 124.813 92.0385H167.93C168.996 92.0385 169.859 91.1748 169.859 90.1093Z" fill="#F9FBFC"/>
</g>
<path opacity="0.66" d="M129.046 84.8477H124.711C124.229 84.849 123.766 85.0414 123.425 85.3827C123.083 85.7241 122.891 86.1866 122.89 86.6694V90.236C122.89 90.7197 123.081 91.1836 123.423 91.526C123.764 91.8685 124.228 92.0615 124.711 92.0629H129.046V84.8477Z" fill="#FC9F21"/>
<path opacity="0.66" d="M148.469 84.8438H132.089V92.0385H148.469V84.8438Z" fill="#FC9F21"/>
<path opacity="0.66" d="M168.033 84.8477H167.311V92.0424H168.033C168.517 92.0424 168.982 91.8499 169.324 91.5073C169.667 91.1647 169.859 90.7001 169.859 90.2156V86.654C169.854 86.1731 169.659 85.7136 169.317 85.3755C168.975 85.0373 168.514 84.8476 168.033 84.8477Z" fill="#FC9F21"/>
<path opacity="0.66" d="M166.027 84.8438H150.364V92.0385H166.027V84.8438Z" fill="#FC9F21"/>
<path d="M171.747 74.8086H128.743C127.112 74.8086 125.79 76.1305 125.79 77.7612V80.9901C125.79 82.6208 127.112 83.9428 128.743 83.9428H171.747C173.378 83.9428 174.7 82.6208 174.7 80.9901V77.7612C174.7 76.1305 173.378 74.8086 171.747 74.8086Z" fill="#FCCB21"/>
<g style="mix-blend-mode:soft-light" opacity="0.5">
<path d="M173.733 81.041V77.7046C173.733 76.6391 172.87 75.7754 171.804 75.7754H128.687C127.621 75.7754 126.758 76.6391 126.758 77.7046V81.041C126.758 82.1064 127.621 82.9701 128.687 82.9701H171.804C172.87 82.9701 173.733 82.1064 173.733 81.041Z" fill="#F9FBFC"/>
</g>
<path opacity="0.66" d="M132.918 75.7793H128.584C128.1 75.7807 127.637 75.9737 127.295 76.3162C126.954 76.6586 126.762 77.1225 126.762 77.6061V81.1523C126.764 81.6351 126.956 82.0976 127.297 82.439C127.639 82.7803 128.101 82.9727 128.584 82.9741H132.918V75.7793Z" fill="#FC9F21"/>
<path opacity="0.66" d="M152.348 75.7793H135.968V82.9741H152.348V75.7793Z" fill="#FC9F21"/>
<path opacity="0.66" d="M171.906 75.7793H171.18V82.9741H171.901C172.385 82.9741 172.849 82.7823 173.191 82.4408C173.534 82.0993 173.727 81.636 173.728 81.1523V77.6061C173.728 77.1225 173.536 76.6586 173.195 76.3162C172.853 75.9737 172.39 75.7807 171.906 75.7793Z" fill="#FC9F21"/>
<path opacity="0.66" d="M169.9 75.7793H154.236V82.9741H169.9V75.7793Z" fill="#FC9F21"/>
<path d="M167.389 65.7461H124.384C122.753 65.7461 121.431 67.068 121.431 68.6987V71.9276C121.431 73.5583 122.753 74.8803 124.384 74.8803H167.389C169.019 74.8803 170.341 73.5583 170.341 71.9276V68.6987C170.341 67.068 169.019 65.7461 167.389 65.7461Z" fill="#FCCB21"/>
<g style="mix-blend-mode:soft-light" opacity="0.5">
<path d="M169.374 71.9726V68.6362C169.374 67.5707 168.51 66.707 167.444 66.707H124.327C123.262 66.707 122.398 67.5707 122.398 68.6362V71.9726C122.398 73.0381 123.262 73.9018 124.327 73.9018H167.444C168.51 73.9018 169.374 73.0381 169.374 71.9726Z" fill="#F9FBFC"/>
</g>
<path opacity="0.66" d="M128.559 66.6973H124.23C123.746 66.6973 123.281 66.8897 122.938 67.2323C122.596 67.5749 122.403 68.0396 122.403 68.5241V72.0703C122.405 72.5544 122.598 73.0183 122.94 73.3606C123.282 73.7029 123.746 73.8958 124.23 73.8971H128.559V66.6973Z" fill="#FC9F21"/>
<path opacity="0.66" d="M147.987 66.7129H131.607V73.9076H147.987V66.7129Z" fill="#FC9F21"/>
<path opacity="0.66" d="M167.552 66.6973H166.83V73.9125H167.552C168.035 73.9098 168.497 73.7163 168.839 73.3741C169.18 73.032 169.372 72.5689 169.373 72.0857V68.5395C169.375 68.2987 169.33 68.0599 169.239 67.8368C169.149 67.6137 169.015 67.4108 168.845 67.2396C168.676 67.0684 168.475 66.9323 168.253 66.8392C168.031 66.7462 167.792 66.6979 167.552 66.6973Z" fill="#FC9F21"/>
<path opacity="0.66" d="M165.539 66.7129H149.875V73.9076H165.539V66.7129Z" fill="#FC9F21"/>
<path d="M171.921 54.9551L129.054 58.3965C127.429 58.527 126.217 59.9505 126.347 61.576L126.606 64.7945C126.736 66.42 128.159 67.6319 129.785 67.5014L172.652 64.0599C174.277 63.9294 175.489 62.506 175.359 60.8805L175.1 57.6619C174.97 56.0365 173.546 54.8246 171.921 54.9551Z" fill="#FCCB21"/>
<g style="mix-blend-mode:soft-light" opacity="0.5">
<path d="M174.406 61.0339L174.139 57.7082C174.054 56.6461 173.124 55.8543 172.062 55.9395L129.083 59.39C128.021 59.4753 127.229 60.4053 127.314 61.4674L127.581 64.7931C127.666 65.8551 128.597 66.6469 129.659 66.5617L172.638 63.1112C173.7 63.026 174.492 62.0959 174.406 61.0339Z" fill="#F9FBFC"/>
</g>
<path opacity="0.66" d="M133.311 59.0469L128.992 59.3897C128.51 59.4289 128.063 59.6578 127.749 60.0262C127.436 60.3946 127.281 60.8724 127.319 61.3547L127.606 64.8907C127.624 65.1298 127.69 65.3628 127.799 65.5763C127.908 65.7899 128.058 65.9799 128.241 66.1354C128.423 66.2908 128.635 66.4087 128.863 66.4823C129.091 66.5558 129.332 66.5836 129.571 66.564L133.885 66.2161L133.311 59.0469Z" fill="#FC9F21"/>
<path opacity="0.66" d="M152.659 57.4743L136.332 58.7852L136.907 65.9568L153.235 64.646L152.659 57.4743Z" fill="#FC9F21"/>
<path opacity="0.66" d="M172.152 55.9522L171.436 56.0085L172.009 63.1726L172.715 63.1163C173.197 63.0758 173.643 62.8466 173.957 62.4785C174.27 62.1104 174.425 61.6333 174.389 61.1513L174.102 57.6153C174.062 57.1372 173.834 56.6944 173.469 56.383C173.104 56.0716 172.631 55.9168 172.152 55.9522Z" fill="#FC9F21"/>
<path opacity="0.66" d="M170.164 56.0688L154.55 57.3223L155.126 64.4939L170.74 63.2405L170.164 56.0688Z" fill="#FC9F21"/>
<path d="M192.543 111.313C195.556 98.7825 187.841 86.1825 175.311 83.1696C162.78 80.1568 150.18 87.872 147.168 100.402C144.155 112.932 151.87 125.532 164.4 128.545C176.93 131.558 189.53 123.843 192.543 111.313Z" fill="#FCCB21"/>
<path d="M169.306 124.363C179.517 124.363 187.794 116.086 187.794 105.875C187.794 95.6642 179.517 87.3867 169.306 87.3867C159.095 87.3867 150.817 95.6642 150.817 105.875C150.817 116.086 159.095 124.363 169.306 124.363Z" fill="#FC9F21"/>
<g style="mix-blend-mode:multiply" opacity="0.08">
<path d="M169.307 87.3867C168.954 87.3867 168.601 87.3867 168.253 87.4174C172.964 87.6893 177.393 89.7523 180.632 93.184C183.872 96.6156 185.676 101.156 185.676 105.875C185.676 110.594 183.872 115.135 180.632 118.566C177.393 121.998 172.964 124.061 168.253 124.333C168.601 124.333 168.954 124.363 169.307 124.363C174.21 124.363 178.913 122.416 182.38 118.948C185.848 115.481 187.795 110.779 187.795 105.875C187.795 100.972 185.848 96.2691 182.38 92.8018C178.913 89.3346 174.21 87.3867 169.307 87.3867Z" fill="#A5681E"/>
</g>
<path d="M177.908 114.472C182.658 109.722 182.658 102.02 177.908 97.2702C173.158 92.52 165.457 92.52 160.706 97.2702C155.956 102.02 155.956 109.722 160.706 114.472C165.457 119.222 173.158 119.222 177.908 114.472Z" fill="#FCCB21"/>
<path d="M21.9075 108.782C21.9075 108.782 19.8044 102.083 18.0287 103.153C16.253 104.222 21.9075 108.782 21.9075 108.782Z" fill="#FC9F21"/>
<path d="M28.2729 108.782C28.2729 108.782 30.371 102.083 32.1518 103.153C33.9325 104.222 28.2729 108.782 28.2729 108.782Z" fill="#FC9F21"/>
<path d="M73.7176 93.0108C73.7176 93.0108 68.8358 87.9857 67.7049 89.7256C66.574 91.4654 73.7176 93.0108 73.7176 93.0108Z" fill="#FC9F21"/>
<path d="M140.477 54.3704C140.477 54.3704 136.844 48.3628 135.36 49.8058C133.876 51.2489 140.477 54.3704 140.477 54.3704Z" fill="#FC9F21"/>
<path d="M77.4385 91.479C77.4385 91.479 79.5365 84.7806 81.3173 85.8501C83.0981 86.9195 77.4385 91.479 77.4385 91.479Z" fill="#FC9F21"/>
<path d="M144.503 54.6772C144.503 54.6772 147.251 48.2142 148.919 49.4321C150.587 50.65 144.503 54.6772 144.503 54.6772Z" fill="#FC9F21"/>
<path d="M25.2422 106.555C25.4553 101.054 27.2951 95.74 30.5289 91.2851C33.7627 86.8301 38.2452 83.4344 43.4093 81.5275C48.5734 79.6207 54.187 79.2883 59.5401 80.5724C64.8931 81.8566 69.7449 84.6996 73.4819 88.7418" stroke="#FC9F21" stroke-miterlimit="10"/>
<path d="M142.744 52.7268C143.501 48.3823 146.377 42.4925 151.412 37.1348" stroke="#FC9F21" stroke-miterlimit="10"/>
<path d="M73.5798 88.7012C70.504 79.7445 70.744 69.9815 74.2563 61.1868C77.7686 52.3922 84.3199 45.1497 92.7194 40.7758C101.119 36.402 110.809 35.1872 120.028 37.3522C129.248 39.5172 137.384 44.9184 142.959 52.5739" stroke="#FC9F21" stroke-miterlimit="10"/>
<path d="M159.8 21.2718C162.87 18.2015 164.098 14.4302 162.532 12.8643C160.966 11.2985 157.195 12.5163 154.119 15.5969C150.471 19.2403 148.398 26.8956 148.398 26.8956C148.398 26.8956 156.264 24.8078 159.8 21.2718Z" fill="#280DA7"/>
<path d="M170.408 31.9009C173.478 28.8306 174.711 25.0592 173.14 23.4933C171.57 21.9275 167.808 23.1454 164.733 26.2208C161.084 29.854 159.007 37.5298 159.007 37.5298C159.007 37.5298 166.872 35.4215 170.408 31.9009Z" fill="#280DA7"/>
<path d="M166.574 27.6784C170.346 23.2828 171.584 18.1605 169.343 16.2415C167.101 14.3226 162.23 16.3285 158.464 20.7242C153.996 25.9335 152.021 36.3009 152.021 36.3009C152.021 36.3009 162.266 32.7342 166.574 27.6784Z" fill="#FFE10A"/>
<path d="M164.567 9.71241C158.273 16.0065 155.771 23.7079 158.979 26.9113C162.188 30.1146 169.884 27.6174 176.178 21.3284C183.634 13.8676 186.106 0 186.106 0C186.106 0 171.798 2.48183 164.567 9.71241Z" fill="#6A4EEE"/>
<path d="M183.615 8.76061C184.679 5.91191 185.512 2.98227 186.107 0C182.833 0.634196 179.617 1.5379 176.492 2.70187C178.825 4.76921 181.199 6.78879 183.615 8.76061Z" fill="#280DA7"/>
<path d="M177.832 13.7712C177.268 14.3364 176.548 14.7215 175.765 14.8778C174.981 15.034 174.169 14.9544 173.431 14.649C172.693 14.3436 172.062 13.8261 171.618 13.162C171.174 12.4979 170.937 11.7171 170.938 10.9183C170.937 10.1195 171.174 9.3387 171.618 8.67461C172.062 8.01053 172.693 7.49304 173.431 7.18763C174.169 6.88222 174.981 6.80261 175.765 6.95887C176.548 7.11514 177.268 7.50025 177.832 8.06549C178.588 8.82249 179.012 9.84854 179.012 10.9183C179.012 11.9881 178.588 13.0142 177.832 13.7712Z" fill="#F9FBFC"/>
<path d="M183.572 6.88363C183.572 7.00714 183.523 7.12558 183.436 7.21291C183.349 7.30023 183.23 7.3493 183.107 7.3493C182.983 7.3493 182.865 7.30023 182.777 7.21291C182.69 7.12558 182.641 7.00714 182.641 6.88363C182.641 6.76013 182.69 6.64169 182.777 6.55436C182.865 6.46703 182.983 6.41797 183.107 6.41797C183.23 6.41797 183.349 6.46703 183.436 6.55436C183.523 6.64169 183.572 6.76013 183.572 6.88363Z" fill="#F9FBFC"/>
<path d="M161.078 17.9352C161.335 17.9352 161.544 17.7267 161.544 17.4696C161.544 17.2124 161.335 17.0039 161.078 17.0039C160.821 17.0039 160.612 17.2124 160.612 17.4696C160.612 17.7267 160.821 17.9352 161.078 17.9352Z" fill="#2627A1"/>
<path d="M162.194 16.2516C162.451 16.2516 162.66 16.0432 162.66 15.786C162.66 15.5288 162.451 15.3203 162.194 15.3203C161.937 15.3203 161.729 15.5288 161.729 15.786C161.729 16.0432 161.937 16.2516 162.194 16.2516Z" fill="#2627A1"/>
</svg>
