<svg width="201" height="135" viewBox="0 0 201 135" fill="none" xmlns="http://www.w3.org/2000/svg">
<path d="M33.8726 115.207L71.7763 134.48V107.598L33.8726 115.207Z" fill="url(#paint0_linear_1511_212)"/>
<path d="M161.823 26.1621V99.2784L61.7209 111.738L33.8726 115.2L36.0194 45.3434L115.815 33.1777L161.823 26.1621Z" fill="#FFC800"/>
<path d="M50.3818 57.8036L66.3642 55.6445V60.8496L58.0458 61.9812V72.0306L65.0614 71.0764V76.3733L58.003 77.3274V94.111L50.3818 95.1508V57.8036Z" fill="white"/>
<path d="M73.9532 54.6112L83.7702 53.2839C87.8478 52.7334 90.9061 53.0555 92.9449 54.2503C94.9837 55.445 96.0031 57.857 96.0031 61.4861C96.0701 63.5411 95.7205 65.5883 94.9756 67.5047C94.2139 69.167 92.9235 70.5305 91.3057 71.3825L96.5414 88.8879L88.645 89.9583L84.3635 73.6212L81.556 74.0004V90.9186L73.8921 91.9522L73.9532 54.6112ZM83.9109 69.1684C85.7458 68.9237 86.9691 68.3182 87.7153 67.3334C88.4615 66.3487 88.8163 64.9358 88.8163 63.0519C88.8163 61.168 88.486 59.9019 87.8315 59.1312C87.1771 58.3606 85.9966 58.0853 84.284 58.3177L81.6172 58.6786V69.5109L83.9109 69.1684Z" fill="white"/>
<path d="M104.941 50.42L121.455 48.1875V53.4416L112.623 54.6648V64.5797L119.449 63.6561V68.959L112.623 69.8826V81.559L121.553 80.3357V85.498L104.959 87.7427L104.941 50.42Z" fill="white"/>
<path d="M129.2 47.1368L145.714 44.9043V50.1583L136.882 51.3816V61.2903L143.69 60.3362V65.6391L136.864 66.5627V78.2697L145.788 77.0464V82.2087L129.2 84.4534V47.1368Z" fill="white"/>
<path d="M161.824 26.1621L164.173 29.5568L169.916 107.854L161.824 99.2784V26.1621Z" fill="#FF9900"/>
<path d="M169.915 107.855L33.8726 115.207L161.823 99.2793L169.915 107.855Z" fill="#D96900"/>
<g style="mix-blend-mode:overlay">
<path d="M161.823 26.1621L160.325 97.8105L33.8726 115.206L161.823 99.2784V26.1621Z" fill="#CCCCCC"/>
</g>
<path style="mix-blend-mode:screen" d="M115.827 33.1719C78.2173 62.8612 65.6724 96.5814 61.7211 111.714L33.8667 115.2L36.0136 45.3437L115.827 33.1719Z" fill="url(#paint1_radial_1511_212)"/>
<path d="M139.027 0.730469L137.106 17.3917L148.917 4.43705L139.027 0.730469Z" fill="#FFC800"/>
<path d="M176.178 33.2817L194.681 24.3027L196.314 35.4592L176.178 33.2817Z" fill="#FFC800"/>
<path d="M179.805 92.3008L200.999 92.7779L197.17 105.91L179.805 92.3008Z" fill="#FFC800"/>
<path d="M143.682 133.041L141.73 120.906L152.691 131.867L143.682 133.041Z" fill="#FFC800"/>
<path d="M84.9585 132.651L85.7414 123.256L91.6132 131.085L84.9585 132.651Z" fill="#FFC800"/>
<path d="M1.17383 126.387L23.4928 115.035L11.3516 134.999L1.17383 126.387Z" fill="#FFC800"/>
<path d="M2.74018 62.9648L21.1385 71.9683L0 75.0999L2.74018 62.9648Z" fill="#FFC800"/>
<path d="M22.5767 22.7675L32.4242 26.682L28.583 17.2871L22.5767 22.7675Z" fill="#FFC800"/>
<path d="M79.6616 13.2946L86.5671 26.6958C86.5671 26.6958 90.1208 10.793 89.4908 10.793C88.8608 10.793 79.6616 13.2946 79.6616 13.2946Z" fill="#FFC800"/>
<defs>
<linearGradient id="paint0_linear_1511_212" x1="52.8214" y1="113.861" x2="52.8214" y2="132.718" gradientUnits="userSpaceOnUse">
<stop stop-color="#AD3A00"/>
<stop offset="1" stop-color="#FF9900"/>
</linearGradient>
<radialGradient id="paint1_radial_1511_212" cx="0" cy="0" r="1" gradientUnits="userSpaceOnUse" gradientTransform="translate(83.0003 18.3272) scale(120.225)">
<stop offset="0.13" stop-color="#7D7D7D"/>
<stop offset="0.19" stop-color="#717171"/>
<stop offset="0.45" stop-color="#414141"/>
<stop offset="0.69" stop-color="#1D1D1D"/>
<stop offset="0.88" stop-color="#080808"/>
<stop offset="1"/>
</radialGradient>
</defs>
</svg>
