<svg width="467" height="418" viewBox="0 0 467 418" fill="none" xmlns="http://www.w3.org/2000/svg">
<g opacity="0.5">
<g opacity="0.5">
<path opacity="0.5" d="M87.4518 325.956C86.8258 325.98 86.2016 325.876 85.617 325.651C85.0324 325.426 84.4999 325.084 84.0518 324.647C82.4768 323.047 82.2228 320.193 83.3518 316.81L95.5748 280.177C97.5205 274.844 101.34 270.403 106.321 267.681C108.96 266.353 111.368 266.108 113.104 266.997L134.618 278.004C135.366 278.419 135.988 279.028 136.419 279.767C136.85 280.506 137.074 281.348 137.067 282.204C137.377 286.867 133.697 293.373 128.506 297.318L94.7648 322.941C92.1518 324.927 89.5658 325.956 87.4518 325.956ZM110.752 267.413C109.305 267.472 107.89 267.862 106.618 268.554C101.837 271.16 98.1692 275.417 96.2978 280.531L84.0698 317.165C83.0618 320.183 83.2338 322.583 84.5518 323.923C86.4858 325.888 90.3328 325.188 94.3518 322.136L128.092 296.509C133.734 292.216 136.535 285.974 136.299 282.278C136.314 281.584 136.137 280.9 135.788 280.3C135.439 279.7 134.932 279.208 134.322 278.878L112.807 267.871C112.168 267.556 111.463 267.399 110.752 267.413Z" fill="white" fill-opacity="0.4"/>
<path opacity="0.5" d="M86.6982 330.434C85.4915 330.473 84.3141 330.058 83.3982 329.271C81.6452 327.715 81.2072 324.876 82.1692 321.28L92.7792 281.491C95.2272 272.296 105.311 263.615 111.061 265.74L135.75 274.904C136.579 275.185 137.296 275.725 137.796 276.443C138.351 277.229 138.692 278.146 138.786 279.104C139.443 283.959 135.886 291.137 130.513 295.797L95.2302 326.421C92.1912 329.045 89.1522 330.434 86.6982 330.434ZM109.14 266.371C103.678 266.371 95.5892 274.03 93.5192 281.796L82.9202 321.584C82.0692 324.764 82.4072 327.226 83.8692 328.523C86.1232 330.523 90.5042 329.372 94.7692 325.669L130.069 295.044C135.934 289.955 138.532 283.12 138.019 279.271C137.947 278.482 137.669 277.727 137.212 277.08C136.801 276.49 136.209 276.049 135.526 275.824L110.838 266.676C110.294 266.474 109.718 266.373 109.138 266.376L109.14 266.371Z" fill="white" fill-opacity="0.4"/>
<path opacity="0.5" d="M86.1659 335.184C85.044 335.216 83.9436 334.872 83.0399 334.206C81.1159 332.728 80.4749 329.85 81.2159 326.094L89.7819 283.194C91.7569 273.296 102.192 263.082 108.706 264.67L136.776 271.537C137.743 271.778 138.614 272.307 139.275 273.053C139.935 273.8 140.354 274.729 140.476 275.718C141.502 280.818 138.214 288.5 132.631 293.993L95.9989 330.027C92.6009 333.365 89.0159 335.184 86.1659 335.184ZM107.283 265.463C101.183 265.463 92.2669 274.745 90.5339 283.43L81.9679 326.33C81.3039 329.654 81.8289 332.172 83.4499 333.406C85.6499 335.094 90.2309 334.475 95.5039 329.3L132.129 293.253C138.138 287.347 140.518 279.921 139.71 275.939C139.604 275.115 139.252 274.342 138.701 273.72C138.149 273.099 137.422 272.659 136.616 272.457L108.565 265.606C108.145 265.506 107.715 265.458 107.283 265.463Z" fill="white" fill-opacity="0.4"/>
<path opacity="0.5" d="M85.9961 340.253C84.9445 340.275 83.9099 339.986 83.0211 339.423C80.9131 338.046 80.0341 335.146 80.5471 331.251L86.6041 285.322C87.9971 274.735 98.7041 262.876 106.018 263.818L137.629 267.878C138.713 268.006 139.727 268.476 140.526 269.219C141.324 269.963 141.866 270.941 142.071 272.012C143.494 277.247 140.435 285.593 134.8 291.857L97.1401 333.722C93.3671 337.912 89.2541 340.253 85.9961 340.253ZM105.187 264.716C98.3631 264.716 88.6411 275.857 87.3711 285.478L81.3191 331.403C80.8631 334.869 81.5991 337.421 83.3941 338.59C85.9591 340.272 91.0541 339.212 96.6091 333.029L134.275 291.165C140.351 284.41 142.446 276.412 141.333 272.312C141.154 271.405 140.691 270.578 140.011 269.951C139.331 269.324 138.469 268.929 137.55 268.824L105.939 264.76C105.691 264.729 105.441 264.713 105.19 264.713L105.187 264.716Z" fill="white" fill-opacity="0.4"/>
<path opacity="0.5" d="M86.2029 345.587C85.2368 345.599 84.2836 345.365 83.4319 344.909C81.1239 343.669 79.9879 340.753 80.2369 336.731L83.2679 287.899C83.9659 276.653 94.8239 263.003 103.003 263.209L138.314 263.957C139.518 263.948 140.691 264.341 141.648 265.073C142.604 265.804 143.29 266.834 143.597 267.998C145.426 273.348 142.674 282.341 137.06 289.385L98.7029 337.471C94.5859 342.634 89.9099 345.587 86.2029 345.587ZM102.836 264.144C95.1879 264.144 84.6919 277.402 84.0359 287.958L81.0029 336.815C80.7799 340.408 81.7519 342.982 83.7389 344.064C87.2839 345.991 93.2029 343.009 98.1399 336.827L136.486 288.727C142.613 281.039 144.333 272.661 142.864 268.359C142.593 267.356 141.997 266.472 141.168 265.846C140.339 265.22 139.325 264.888 138.286 264.902L102.974 264.159L102.836 264.144Z" fill="white" fill-opacity="0.4"/>
<path opacity="0.5" d="M86.8359 351.161C85.9631 351.168 85.0983 350.994 84.2969 350.648C81.7659 349.535 80.3479 346.643 80.3039 342.516L79.7569 290.971C79.6319 279.112 90.5649 263.643 99.5849 262.917L138.733 259.768L138.757 260.243L138.733 259.768C140.06 259.61 141.402 259.909 142.537 260.616C143.671 261.323 144.53 262.396 144.973 263.657C147.258 269.187 144.94 278.597 139.331 286.539L100.731 341.249C96.3129 347.49 91.0569 351.161 86.8359 351.161ZM139.364 260.703C139.17 260.7 138.977 260.707 138.784 260.725L99.6389 263.862C91.1289 264.543 80.4199 279.743 80.5379 290.959L81.0839 342.504C81.1249 346.268 82.3279 348.777 84.5639 349.759C88.6639 351.559 95.0789 347.798 100.136 340.617L138.736 285.907C144.765 277.365 146.086 268.453 144.27 264.067C143.918 263.055 143.252 262.182 142.37 261.575C141.488 260.968 140.435 260.658 139.364 260.691V260.703Z" fill="white" fill-opacity="0.4"/>
<path opacity="0.5" d="M87.8614 356.919C87.1401 356.924 86.4229 356.811 85.7384 356.583C82.9524 355.651 81.2214 352.806 80.8524 348.576L76.1284 294.584C75.0404 282.169 85.8884 264.742 95.8014 262.983L138.886 255.33C140.342 254.983 141.874 255.159 143.212 255.829C144.55 256.5 145.609 257.62 146.202 258.994C148.938 264.594 147.061 274.594 141.634 283.309L103.274 344.951C98.6754 352.34 92.6524 356.919 87.8614 356.919ZM138.937 255.799L138.993 256.265L95.9084 263.918C86.5304 265.585 75.8714 282.725 76.9004 294.484L81.6364 348.476C81.9754 352.349 83.4704 354.836 85.9554 355.676C90.6694 357.258 97.5374 352.614 102.661 344.383L141.007 282.728C146.246 274.307 148.107 264.739 145.526 259.464C144.998 258.239 144.05 257.243 142.852 256.655C141.655 256.067 140.287 255.925 138.994 256.256L138.937 255.799Z" fill="white" fill-opacity="0.4"/>
<path opacity="0.5" d="M89.5009 362.856C88.9381 362.858 88.377 362.794 87.8289 362.666C84.7669 361.954 82.6769 359.181 81.9429 354.866L72.4049 298.774C70.2149 285.883 80.8149 266.417 91.6269 263.47L138.7 250.654C142.4 249.647 145.435 250.831 147.235 253.993C150.446 259.632 149.084 270.193 143.924 279.663L106.386 348.569C101.642 357.279 94.9429 362.856 89.5009 362.856ZM138.782 251.117L138.867 251.58L91.7939 264.387C81.5349 267.185 71.0869 286.349 73.1669 298.581L82.7069 354.671C83.3839 358.647 85.2069 361.087 87.9769 361.734C93.3629 362.977 100.659 357.36 105.734 348.057L143.268 279.14C148.256 269.979 149.62 259.867 146.587 254.53C144.956 251.667 142.287 250.647 138.868 251.58L138.782 251.117Z" fill="white" fill-opacity="0.4"/>
<path opacity="0.5" d="M91.7238 368.898C91.3704 368.899 91.0174 368.877 90.6668 368.833C87.2838 368.392 84.7918 365.724 83.6478 361.338L68.6078 303.582C67.0698 297.676 68.1538 289.808 71.5758 281.962C75.3688 273.262 81.2958 266.547 87.0398 264.446L138.119 245.773L138.232 246.227L138.119 245.773C142.281 244.253 145.795 245.279 148.019 248.667C151.789 254.408 151.043 265.226 146.157 275.584L110.119 352.015C105.333 362.162 97.9238 368.898 91.7238 368.898ZM141.673 246.046C140.533 246.063 139.404 246.279 138.339 246.686L87.2788 265.353C81.7268 267.383 75.9788 273.917 72.2788 282.403C69.0058 289.917 67.9178 297.728 69.3648 303.296L84.3958 361.062C85.4548 365.131 87.6528 367.494 90.7538 367.901C96.8468 368.691 104.531 361.97 109.442 351.556L145.479 275.114C150.131 265.247 150.924 254.613 147.408 249.257C146.814 248.27 145.972 247.454 144.966 246.891C143.961 246.328 142.825 246.037 141.673 246.046Z" fill="white" fill-opacity="0.4"/>
<path opacity="0.5" d="M94.5941 374.995H94.3681C90.6211 374.902 87.6681 372.395 86.0611 367.942L64.7961 309.048C62.7111 303.273 63.1701 295.2 66.0501 286.897C69.5071 276.95 75.6361 268.924 82.0501 265.98L137.1 240.717C141.744 238.588 145.8 239.402 148.525 243.017C152.834 248.74 152.749 260.011 148.312 271.065L114.529 355.219C109.848 366.91 101.67 374.995 94.5941 374.995ZM137.238 241.162L137.377 241.603L82.3281 266.875C76.1061 269.729 70.1461 277.547 66.7711 287.273C63.9731 295.355 63.5141 303.127 65.5121 308.675L86.7671 367.555C88.2671 371.714 90.8991 373.955 94.3741 374.039C101.216 374.191 109.2 366.296 113.816 354.8L147.606 270.649C151.906 259.943 152.04 249.095 147.945 243.658C145.455 240.347 141.701 239.617 137.377 241.603L137.238 241.162Z" fill="white" fill-opacity="0.4"/>
<path opacity="0.5" d="M98.2119 381.068C94.4119 381.068 91.2539 378.793 89.2539 374.59L61.0129 315.195C58.3329 309.563 58.1199 301.321 60.4279 292.581C63.3769 281.412 69.5939 272.046 76.6539 268.139L135.568 235.527L135.73 235.956L135.568 235.527C140.72 232.673 145.38 233.214 148.688 237.053C153.648 242.804 154.294 254.196 150.332 266.08L119.662 358.092C115.38 370.944 106.898 380.378 99.0379 381.04C98.7609 381.056 98.4839 381.068 98.2119 381.068ZM141.759 234.676C139.689 234.742 137.67 235.331 135.891 236.389L76.9769 269C70.1119 272.8 64.0569 281.947 61.1709 292.87C58.9299 301.356 59.1199 309.321 61.6849 314.721L89.9309 374.121C91.9469 378.358 95.0729 380.421 98.9839 380.096C106.557 379.456 114.761 370.264 118.936 357.736L149.609 265.721C153.389 254.378 152.809 243.128 148.15 237.744C147.381 236.789 146.408 236.018 145.302 235.487C144.196 234.956 142.985 234.679 141.759 234.676Z" fill="white" fill-opacity="0.4"/>
<path opacity="0.5" d="M102.631 387.036C98.8936 387.036 95.6416 385.019 93.3186 381.204L57.3156 322.065C53.9786 316.594 53.0476 308.189 54.7476 299.006C56.9916 286.898 63.3136 275.906 70.8536 271.006L133.46 230.256C139.051 226.616 144.519 226.812 148.46 230.794C154.043 236.436 155.502 248.152 152.179 260.636L125.579 360.528C121.907 374.317 113.366 385.128 104.806 386.823C104.091 386.966 103.364 387.039 102.636 387.041L102.631 387.036ZM133.645 230.678L133.83 231.095L71.2296 271.848C63.8776 276.628 57.7096 287.39 55.5156 299.227C53.8576 308.139 54.7426 316.265 57.9426 321.515L93.9426 380.645C96.5586 384.945 100.27 386.756 104.671 385.886C112.952 384.248 121.238 373.701 124.824 360.235L151.424 260.346C154.65 248.223 153.286 236.914 147.949 231.518C144.221 227.743 139.205 227.591 133.83 231.088L133.645 230.678Z" fill="white" fill-opacity="0.4"/>
<path opacity="0.5" d="M107.891 392.812C104.242 392.812 100.941 391.065 98.3463 387.689L53.7683 329.667C49.7063 324.382 47.9853 315.812 49.0473 306.157C50.4913 293.064 56.6203 280.689 64.6683 274.633L130.709 224.953L130.917 225.353L130.709 224.953C136.818 220.359 143.019 220.101 147.758 224.244C154.008 229.721 156.37 241.686 153.775 254.707L132.314 362.421C129.403 377.031 120.961 389.263 111.797 392.182C110.536 392.593 109.218 392.806 107.891 392.813V392.812ZM131.134 225.758L65.0813 275.451C57.2233 281.357 51.2323 293.48 49.8213 306.294C48.7963 315.669 50.4403 323.956 54.3403 329.032L98.9203 387.043C102.205 391.317 106.704 392.819 111.589 391.264C120.501 388.432 128.71 376.48 131.557 362.199L153.017 254.499C155.538 241.841 153.294 230.268 147.301 225.012C142.84 221.102 136.946 221.375 131.122 225.758H131.134Z" fill="white" fill-opacity="0.4"/>
<path opacity="0.5" d="M114.049 398.292C112.232 398.268 110.439 397.869 108.784 397.12C107.128 396.371 105.645 395.288 104.427 393.94L50.4469 338.062C45.5559 332.998 42.9689 324.262 43.3469 314.08C43.8589 300.135 49.6599 286.429 58.1099 279.162L127.244 219.702L127.47 220.087L127.244 219.702C133.853 214.029 140.88 213.193 146.522 217.448C153.605 222.779 156.886 234.619 155.08 248.348L139.931 363.67C137.895 379.17 129.931 392.539 120.109 396.931C118.207 397.806 116.142 398.27 114.049 398.293V398.292ZM138.764 215.711C135.174 215.711 131.373 217.311 127.695 220.473L58.5569 279.93C50.2909 287.036 44.6229 300.446 44.1159 314.123C43.7519 324.011 46.2389 332.463 50.9459 337.344L104.936 393.207C106.762 395.253 109.212 396.639 111.906 397.149C114.601 397.66 117.388 397.266 119.836 396.03C129.399 391.759 137.165 378.691 139.158 363.515L154.303 248.189C156.055 234.847 152.913 223.374 146.096 218.248C143.999 216.616 141.421 215.724 138.764 215.711Z" fill="white" fill-opacity="0.4"/>
<path opacity="0.5" d="M121.152 403.363C117.661 403.33 114.293 402.063 111.643 399.788L47.4335 347.199C41.5965 342.412 38.0335 333.499 37.6645 322.723C37.1545 308.112 42.4815 293.14 51.2185 284.609L122.988 214.577C130.064 207.677 137.955 206.156 144.638 210.415C152.519 215.432 156.874 227.344 155.999 241.5L148.446 364.118C147.461 380.105 139.983 394.846 129.846 400.798C127.229 402.417 124.224 403.303 121.146 403.363H121.152ZM123.233 214.963L123.489 215.333L51.7085 285.346C43.1585 293.692 37.9525 308.346 38.4475 322.682C38.8095 333.155 42.2475 341.79 47.8745 346.415L112.086 399.002C117.215 403.202 123.396 403.534 129.507 399.935C139.407 394.125 146.707 379.699 147.667 364.035L155.223 241.416C156.072 227.64 151.889 216.079 144.277 211.24C137.877 207.168 130.3 208.648 123.477 215.306L123.233 214.963Z" fill="white" fill-opacity="0.4"/>
<path opacity="0.5" d="M129.255 407.908C126 407.877 122.824 406.905 120.11 405.108L44.8312 357.121C37.9072 352.708 33.2362 343.599 32.0312 332.147C30.4312 316.999 35.1472 300.885 44.0312 291.093L117.87 209.678C125.356 201.425 134.163 199.066 142.031 203.208C150.784 207.815 156.321 219.702 156.482 234.237L157.916 363.66C158.101 380.188 151.505 395.86 141.103 403.583C137.723 406.264 133.567 407.781 129.255 407.908ZM118.135 210.026L118.391 210.377L44.5542 291.793C35.8542 301.38 31.2442 317.177 32.8062 332.03C33.9812 343.171 38.4942 352.012 45.1962 356.276L120.474 404.29C126.774 408.312 133.956 407.768 140.696 402.767C150.865 395.21 157.317 379.86 157.138 363.662L155.703 234.235C155.544 220.088 150.187 208.528 141.718 204.082C134.145 200.094 125.643 202.391 118.396 210.382L118.135 210.026Z" fill="white" fill-opacity="0.4"/>
<path opacity="0.5" d="M138.279 411.732C135.372 411.725 132.506 411.057 129.895 409.78L42.7348 367.815C34.5468 363.867 28.6148 354.6 26.4658 342.384C23.6958 326.642 27.5738 309.9 36.5858 298.69L111.818 205.102C119.512 195.531 129.518 192.084 138.562 195.879C148.428 200.016 155.109 211.479 156.435 226.544L168.363 362.1C169.825 378.718 164.152 395.551 153.906 404.979C149.058 409.441 143.639 411.732 138.279 411.732ZM112.097 205.435L112.377 205.765L37.1448 299.353C28.3148 310.338 24.5138 326.753 27.2298 342.185C29.3298 354.085 35.0798 363.108 43.0228 366.935L130.183 408.9C137.764 412.549 146.24 410.843 153.434 404.237C163.464 395.005 169.019 378.511 167.585 362.216L155.657 226.648C154.375 211.957 147.879 200.788 138.308 196.775C129.549 193.104 119.842 196.467 112.377 205.767L112.097 205.435Z" fill="white" fill-opacity="0.4"/>
<path opacity="0.5" d="M148.362 414.808C145.886 414.8 143.429 414.38 141.091 413.565L41.2619 379.256C31.6219 375.942 24.2379 366.542 21.0019 353.456C17.0599 337.521 20.1069 319.902 28.9519 307.468L104.752 200.968C112.652 189.868 123.622 185.205 134.093 188.5C145.049 191.944 153.15 203.154 155.766 218.485L179.799 359.301C182.664 376.087 178.237 393.495 168.258 404.754C162.421 411.348 155.438 414.808 148.362 414.808ZM105.046 201.284L105.346 201.595L29.5469 308.102C20.8739 320.29 17.8859 337.568 21.7469 353.194C24.9069 365.939 32.0969 375.122 41.4749 378.345L141.307 412.668C150.463 415.814 160.093 412.668 167.722 404.082C177.511 393.047 181.845 375.987 179.037 359.512L155.002 218.692C152.437 203.721 144.556 192.783 133.902 189.428C123.723 186.228 113.049 190.777 105.348 201.601L105.046 201.284Z" fill="white" fill-opacity="0.4"/>
<path opacity="0.5" d="M159.433 416.923C157.536 416.92 155.644 416.712 153.791 416.301L40.5423 391.417C29.2423 388.93 20.1823 379.471 15.6913 365.458C10.5623 349.49 12.6913 331.134 21.2153 317.553L96.6143 197.445L96.9273 197.734L96.6143 197.445C104.58 184.754 116.487 178.683 128.474 181.207C140.648 183.772 150.34 194.574 154.399 210.132L192.237 355.132C196.548 371.648 193.437 389.885 184.107 402.726C177.409 411.945 168.64 416.923 159.433 416.923ZM123.114 181.593C113.251 181.593 103.846 187.462 97.2143 198.015L21.8133 318.125C13.4753 331.445 11.4003 349.453 16.4193 365.104C20.8103 378.804 29.6523 388.051 40.6803 390.473L153.922 415.36C164.86 417.76 175.649 412.926 183.522 402.087C192.67 389.487 195.722 371.605 191.495 355.403L153.64 210.418C149.67 195.214 140.207 184.645 128.328 182.131C126.614 181.771 124.866 181.591 123.114 181.593Z" fill="white" fill-opacity="0.4"/>
<path opacity="0.5" d="M171.219 417.92C170.158 417.919 169.097 417.863 168.041 417.752L40.7094 404.252C27.7144 402.872 16.4534 393.214 10.5884 378.414C7.42262 370.416 6.05002 361.82 6.56742 353.234C7.01923 344.738 9.37204 336.452 13.4524 328.986L87.3134 194.651L87.6394 194.912L87.3134 194.651C95.1674 180.352 107.94 172.696 121.489 174.135C135.038 175.574 146.514 185.814 152.203 201.535L205.667 349.353C208.603 357.457 209.731 366.106 208.973 374.692C208.287 383.146 205.698 391.336 201.399 398.648C194.156 410.895 183.047 417.917 171.219 417.92ZM118.255 174.89C106.201 174.89 95.0304 182.282 87.9554 195.158L14.0914 329.495C10.0862 336.819 7.77604 344.949 7.33142 353.285C6.82296 361.707 8.16789 370.139 11.2714 377.985C17.0164 392.485 28.0384 401.939 40.7644 403.285L168.096 416.785C180.811 418.131 193.024 411.14 200.759 398.075C204.976 390.902 207.515 382.868 208.188 374.575C208.931 366.15 207.823 357.665 204.942 349.714L151.474 201.906C145.904 186.507 134.667 176.476 121.407 175.063C120.361 174.947 119.308 174.889 118.255 174.89Z" fill="white" fill-opacity="0.4"/>
<path opacity="0.5" d="M183.936 417.684H41.9137C26.8267 417.684 13.3137 408.228 5.77065 392.39C2.04508 384.476 0.113281 375.837 0.113281 367.09C0.113281 358.343 2.04508 349.704 5.77065 341.79L76.7797 192.724C84.3247 176.886 97.8377 167.43 112.925 167.43C128.012 167.43 141.525 176.886 149.07 192.724L220.079 341.79C223.805 349.701 225.737 358.338 225.737 367.084C225.737 375.829 223.805 384.466 220.079 392.378C212.534 408.215 199.024 417.684 183.936 417.684ZM77.1137 192.96L77.4527 193.196L6.44565 342.278C2.79008 350.041 0.894557 358.517 0.894557 367.098C0.894557 375.679 2.79008 384.154 6.44565 391.918C13.8477 407.46 27.1137 416.739 41.9137 416.739H183.936C198.741 416.739 212 407.46 219.402 391.918C223.058 384.154 224.954 375.679 224.954 367.098C224.954 358.516 223.058 350.041 219.402 342.278L148.394 193.203C140.99 177.66 127.731 168.384 112.925 168.384C98.1187 168.384 84.8607 177.66 77.4567 193.203L77.1137 192.96Z" fill="white" fill-opacity="0.4"/>
</g>
<g opacity="0.5">
<path opacity="0.5" d="M365.559 96.0542C364.666 96.0945 363.787 95.8159 363.08 95.2682C361.934 94.3092 361.749 92.5932 362.57 90.5632L371.47 68.5632C373.067 65.1875 375.851 62.5177 379.29 61.0632C380.82 60.2906 382.59 60.1442 384.226 60.6552L399.884 67.2632C400.393 67.4661 400.832 67.8121 401.148 68.2594C401.464 68.7066 401.644 69.236 401.665 69.7832C401.891 72.5832 399.213 76.4892 395.435 78.8572L370.88 94.2392C369.304 95.3167 367.465 95.9441 365.559 96.0542ZM382.515 60.9052C381.477 60.9372 380.455 61.1698 379.506 61.5902C376.205 62.9837 373.531 65.5434 371.996 68.7812L363.096 90.7812C362.365 92.5882 362.489 94.0292 363.446 94.8342C364.853 96.0142 367.653 95.5942 370.577 93.7612L395.134 78.3742C399.24 75.7972 401.278 72.0492 401.106 69.8302C401.095 69.3851 400.953 68.9532 400.696 68.5892C400.44 68.2253 400.081 67.9458 399.665 67.7862L384.01 61.1772C383.535 60.9879 383.027 60.8954 382.515 60.9052Z" fill="white" fill-opacity="0.8"/>
<path opacity="0.5" d="M365.008 98.7434C364.154 98.7725 363.313 98.5272 362.608 98.0434C361.33 97.1104 361.008 95.4044 361.708 93.2434L369.431 69.3574C371.215 63.8364 378.554 58.6224 382.738 59.9054L400.706 65.4054C401.283 65.5579 401.802 65.8793 402.196 66.3284C402.59 66.7775 402.84 67.334 402.916 67.9264C403.394 70.8414 400.805 75.1514 396.895 77.9484L371.217 96.3344C369.434 97.7393 367.272 98.5783 365.008 98.7434ZM381.34 60.2794C377.365 60.2794 371.478 64.8794 369.972 69.5404L362.258 93.4304C361.642 95.3394 361.885 96.8174 362.948 97.5954C364.589 98.7954 367.776 98.1054 370.882 95.8824L396.575 77.4954C400.843 74.4404 402.734 70.3364 402.361 68.0254C402.303 67.5379 402.098 67.0794 401.775 66.7101C401.451 66.3407 401.024 66.0777 400.548 65.9554L382.576 60.4624C382.176 60.3397 381.759 60.2781 381.34 60.2794Z" fill="white" fill-opacity="0.8"/>
<path opacity="0.5" d="M364.621 101.595C363.822 101.618 363.033 101.413 362.346 101.005C360.946 100.12 360.48 98.392 361.019 96.137L367.252 70.381C368.689 64.437 376.284 58.304 381.024 59.259L401.452 63.38C402.102 63.4766 402.707 63.7683 403.187 64.2166C403.667 64.6648 404 65.2484 404.141 65.89C404.888 68.951 402.495 73.565 398.432 76.862L371.776 98.498C369.3 100.503 366.694 101.595 364.621 101.595ZM379.989 59.734C375.547 59.734 369.061 65.307 367.8 70.521L361.565 96.277C361.082 98.277 361.465 99.786 362.644 100.529C364.244 101.542 367.579 101.171 371.416 98.064L398.07 76.419C402.443 72.873 404.17 68.419 403.587 66.019C403.466 65.4843 403.187 64.9985 402.785 64.6255C402.383 64.2525 401.878 64.0097 401.336 63.929L380.922 59.821C380.615 59.76 380.302 59.7305 379.989 59.733V59.734Z" fill="white" fill-opacity="0.8"/>
<path opacity="0.5" d="M364.498 104.639C363.746 104.654 363.002 104.482 362.333 104.139C360.799 103.315 360.159 101.573 360.528 99.2335L364.938 71.6575C365.954 65.3005 373.744 58.1805 379.069 58.7465L402.074 61.1835C402.803 61.2141 403.504 61.4689 404.083 61.9131C404.661 62.3573 405.089 62.9693 405.307 63.6655C406.343 66.8085 404.116 71.8195 400.016 75.5805L372.607 100.715C369.862 103.234 366.868 104.639 364.498 104.639ZM378.464 59.2855C373.498 59.2855 366.422 65.9745 365.498 71.7515L361.094 99.3245C360.762 101.406 361.294 102.938 362.604 103.64C364.47 104.65 368.179 104.013 372.221 100.301L399.628 75.1625C404.049 71.1065 405.574 66.3045 404.764 63.8425C404.576 63.253 404.21 62.7356 403.718 62.361C403.225 61.9863 402.629 61.7725 402.011 61.7485L379.011 59.3145C378.83 59.2957 378.648 59.2864 378.466 59.2865L378.464 59.2855Z" fill="white" fill-opacity="0.8"/>
<path opacity="0.5" d="M364.65 107.84C363.956 107.85 363.268 107.712 362.632 107.435C360.952 106.688 360.125 104.935 360.306 102.523L362.513 73.2043C363.02 66.4523 370.922 58.2563 376.872 58.3803L402.572 58.8283C403.386 58.7811 404.194 58.9896 404.883 59.4246C405.573 59.8597 406.109 60.4994 406.417 61.2543C407.748 64.4663 405.745 69.8653 401.66 74.0953L373.744 102.967C370.749 106.067 367.346 107.84 364.65 107.84ZM376.75 58.9403C371.184 58.9403 363.55 66.9003 363.068 73.2403L360.865 102.574C360.703 104.732 361.41 106.274 362.856 106.926C365.435 108.083 369.745 106.295 373.336 102.581L401.242 73.6993C405.701 69.0853 406.953 64.0553 405.884 61.4723C405.614 60.8224 405.148 60.273 404.55 59.901C403.953 59.5289 403.254 59.3528 402.552 59.3973L376.854 58.9513L376.75 58.9403Z" fill="white" fill-opacity="0.8"/>
<path opacity="0.5" d="M365.108 111.187C364.477 111.193 363.851 111.089 363.256 110.879C361.418 110.211 360.386 108.477 360.356 105.999L359.956 75.0494C359.865 67.9284 367.822 58.6394 374.386 58.2044L402.876 56.3144L402.895 56.5994L402.876 56.3144C403.781 56.1842 404.705 56.339 405.519 56.7574C406.333 57.1758 406.996 57.837 407.417 58.6494C409.08 61.9694 407.393 67.6194 403.311 72.3874L375.22 105.235C372.004 108.983 368.176 111.187 365.108 111.187ZM403.335 56.8764C403.199 56.8764 403.057 56.8764 402.913 56.8894L374.425 58.7724C368.232 59.1824 360.438 68.3054 360.524 75.0414L360.924 105.989C360.954 108.249 361.829 109.755 363.457 110.345C366.443 111.424 371.109 109.167 374.79 104.856L402.88 72.0084C407.268 66.8794 408.229 61.5294 406.907 58.8994C406.578 58.2468 406.063 57.7059 405.428 57.3446C404.792 56.9833 404.064 56.8176 403.335 56.8684V56.8764Z" fill="white" fill-opacity="0.8"/>
<path opacity="0.5" d="M365.856 114.644C365.334 114.648 364.814 114.58 364.311 114.444C362.286 113.884 361.024 112.176 360.756 109.636L357.317 77.2168C356.526 69.7668 364.42 59.2998 371.634 58.2428L402.989 53.6478C405.374 53.2988 407.267 54.0788 408.314 55.8478C410.305 59.2068 408.939 65.2118 404.99 70.4478L377.073 107.458C373.726 111.894 369.34 114.644 365.856 114.644ZM403.026 53.9298L403.067 54.2098L371.712 58.8048C364.887 59.8058 357.13 70.0968 357.879 77.1568L361.326 109.575C361.572 111.901 362.66 113.394 364.469 113.896C367.899 114.846 372.898 112.058 376.627 107.115L404.533 70.0988C408.346 65.0428 409.699 59.2988 407.822 56.1308C406.888 54.5518 405.24 53.8908 403.068 54.2048L403.026 53.9298Z" fill="white" fill-opacity="0.8"/>
<path opacity="0.5" d="M367.047 118.21C366.638 118.211 366.231 118.173 365.83 118.096C363.602 117.669 362.08 116.004 361.547 113.411L354.605 79.733C353.005 71.993 360.723 60.306 368.594 58.533L402.851 50.843C405.551 50.243 407.751 50.949 409.062 52.843C411.399 56.229 410.408 62.567 406.652 68.256L379.335 109.633C375.882 114.862 371.007 118.21 367.047 118.21ZM402.911 51.121L402.973 51.399L368.715 59.089C361.25 60.768 353.646 72.275 355.16 79.619L362.103 113.296C362.596 115.683 363.921 117.148 365.938 117.536C369.857 118.283 375.167 114.91 378.861 109.324L406.175 67.947C409.805 62.447 410.798 56.375 408.59 53.171C407.403 51.451 405.46 50.839 402.973 51.399L402.911 51.121Z" fill="white" fill-opacity="0.8"/>
<path opacity="0.5" d="M368.668 121.837C368.411 121.838 368.154 121.825 367.899 121.798C366.689 121.662 365.55 121.157 364.636 120.353C363.723 119.548 363.078 118.482 362.791 117.298L351.846 82.6214C350.726 79.0754 351.516 74.3514 354.005 69.6404C356.765 64.4144 361.079 60.3854 365.259 59.1234L402.43 47.9124L402.512 48.1844L402.43 47.9124C405.459 46.9994 408.016 47.6124 409.63 49.6504C412.374 53.0974 411.83 59.5924 408.275 65.8114L382.053 111.7C378.571 117.793 373.177 121.837 368.668 121.837ZM405.017 48.0764C404.194 48.0851 403.376 48.2145 402.591 48.4604L365.431 59.6684C361.391 60.8874 357.208 64.8104 354.515 69.9054C352.133 74.4164 351.346 79.1064 352.395 82.4494L363.333 117.132C363.582 118.213 364.161 119.189 364.99 119.925C365.82 120.66 366.857 121.12 367.96 121.238C372.395 121.712 377.986 117.677 381.56 111.425L407.786 65.5254C411.172 59.6004 411.746 53.2204 409.19 50.0004C408.692 49.377 408.055 48.8784 407.331 48.5444C406.606 48.2104 405.814 48.0501 405.017 48.0764Z" fill="white" fill-opacity="0.8"/>
<path opacity="0.5" d="M370.753 125.497H370.589C369.272 125.482 367.99 125.069 366.912 124.313C365.833 123.558 365.008 122.494 364.544 121.262L349.068 85.9011C347.551 82.4331 347.885 77.5861 349.981 72.6011C352.496 66.6291 356.957 61.8101 361.629 60.0431L401.687 44.8771C405.067 43.5991 408.02 44.0881 410.002 46.2581C413.138 49.6941 413.076 56.4581 409.847 63.0981L385.261 113.623C381.855 120.642 375.903 125.497 370.753 125.497ZM401.788 45.1421L401.888 45.4071L361.829 60.5771C357.301 62.2941 352.961 66.9881 350.505 72.8271C348.469 77.6771 348.135 82.3461 349.589 85.6771L365.057 121.032C365.472 122.168 366.225 123.151 367.214 123.847C368.204 124.542 369.383 124.919 370.593 124.925C375.572 125.016 381.383 120.276 384.742 113.374L409.335 62.8461C412.463 56.4181 412.562 49.9051 409.581 46.6401C407.767 44.6531 405.035 44.2141 401.888 45.4071L401.788 45.1421Z" fill="white" fill-opacity="0.8"/>
<path opacity="0.5" d="M373.389 129.145C372.05 129.156 370.734 128.8 369.584 128.114C368.434 127.428 367.495 126.438 366.87 125.255L346.317 89.5946C344.367 86.2126 344.212 81.2626 345.891 76.0166C348.034 69.3106 352.562 63.6876 357.7 61.3416L400.574 41.7616L400.692 42.0196L400.574 41.7616C404.324 40.0476 407.715 40.3766 410.123 42.6766C413.733 46.1296 414.203 52.9696 411.323 60.1046L388.999 115.351C385.882 123.067 379.71 128.731 373.991 129.129C373.788 129.138 373.586 129.145 373.389 129.145ZM405.08 41.2496C403.599 41.2825 402.143 41.6327 400.809 42.2766L357.934 61.8586C352.934 64.1396 348.534 69.6316 346.434 76.1906C344.803 81.2906 344.941 86.0676 346.807 89.3116L367.362 124.977C367.977 126.163 368.933 127.139 370.107 127.778C371.281 128.418 372.619 128.691 373.95 128.564C379.461 128.18 385.432 122.664 388.47 115.139L410.793 59.8896C413.544 53.0766 413.118 46.3246 409.734 43.0916C408.488 41.8854 406.814 41.2229 405.08 41.2496Z" fill="white" fill-opacity="0.8"/>
<path opacity="0.5" d="M376.603 132.728C375.275 132.737 373.964 132.423 372.784 131.813C371.603 131.204 370.588 130.316 369.826 129.228L343.622 93.719C341.196 90.435 340.518 85.388 341.755 79.874C343.389 72.605 347.989 66.005 353.476 63.06L399.038 38.594C403.107 36.408 407.086 36.526 409.95 38.917C414.014 42.304 415.076 49.335 412.657 56.835L393.299 116.81C390.626 125.089 384.411 131.581 378.181 132.598C377.659 132.684 377.131 132.728 376.602 132.729L376.603 132.728ZM399.173 38.849L399.307 39.099L353.75 63.568C348.4 66.435 343.911 72.9 342.312 80.007C341.108 85.358 341.75 90.235 344.081 93.389L370.281 128.889C371.133 130.12 372.326 131.073 373.714 131.633C375.102 132.192 376.624 132.332 378.09 132.035C384.117 131.054 390.15 124.722 392.756 116.635L412.116 56.661C414.464 49.382 413.471 42.592 409.587 39.352C406.87 37.088 403.219 36.996 399.307 39.096L399.173 38.849Z" fill="white" fill-opacity="0.8"/>
<path opacity="0.5" d="M380.43 136.195C379.121 136.201 377.825 135.929 376.628 135.399C375.431 134.869 374.359 134.092 373.483 133.119L341.042 98.2814C338.083 95.1084 336.834 89.9634 337.606 84.1664C338.657 76.3044 343.118 68.8744 348.975 65.2394L397.036 35.4104L397.187 35.6534L397.036 35.4104C401.483 32.6524 405.994 32.4974 409.443 34.9854C413.991 38.2744 415.71 45.4574 413.822 53.2764L398.204 117.947C396.083 126.724 389.942 134.063 383.273 135.816C382.346 136.064 381.391 136.192 380.431 136.195H380.43ZM397.345 35.8944L349.275 65.7304C343.556 69.2764 339.197 76.5554 338.17 84.2484C337.423 89.8774 338.618 94.8484 341.457 97.9014L373.9 132.731C375.041 133.981 376.512 134.882 378.144 135.331C379.776 135.78 381.501 135.757 383.12 135.266C389.606 133.566 395.58 126.39 397.652 117.815L413.269 53.1484C415.104 45.5484 413.469 38.6004 409.109 35.4484C405.866 33.0984 401.575 33.2624 397.336 35.8944H397.345Z" fill="white" fill-opacity="0.8"/>
<path opacity="0.5" d="M384.913 139.486C382.34 139.493 379.852 138.564 377.913 136.873L338.626 103.321C335.067 100.281 333.184 95.0329 333.458 88.9219C333.831 80.5509 338.058 72.3219 344.205 67.9569L394.515 32.2569L394.679 32.4879L394.515 32.2569C399.325 28.8509 404.439 28.3489 408.545 30.9039C413.7 34.1039 416.087 41.2139 414.773 49.4539L403.748 118.699C402.266 128.007 396.469 136.032 389.323 138.669C387.913 139.199 386.42 139.476 384.913 139.486ZM402.899 29.8629C399.982 29.957 397.167 30.9562 394.844 32.7219L344.532 68.4199C338.512 72.6869 334.388 80.7379 334.018 88.9499C333.753 94.8869 335.564 99.9619 338.988 102.893L378.279 136.433C379.751 137.692 381.544 138.518 383.459 138.817C385.373 139.116 387.332 138.878 389.119 138.128C396.079 135.564 401.73 127.717 403.18 118.606L414.207 49.3629C415.482 41.3519 413.196 34.4629 408.232 31.3859C406.633 30.3863 404.784 29.8583 402.899 29.8629Z" fill="white" fill-opacity="0.8"/>
<path opacity="0.5" d="M390.082 142.53C387.61 142.532 385.197 141.783 383.161 140.384L336.435 108.808C332.187 105.934 329.601 100.581 329.326 94.1118C328.953 85.3398 332.826 76.3478 339.188 71.2278L391.418 29.1808C396.568 25.0358 402.311 24.1248 407.174 26.6818C412.909 29.6938 416.074 36.8458 415.442 45.3458L409.942 118.967C409.225 128.567 403.783 137.416 396.407 140.99C394.441 141.976 392.277 142.503 390.078 142.53H390.082ZM391.596 29.4118L391.783 29.6338L339.544 71.6708C333.322 76.6818 329.533 85.4818 329.893 94.0878C330.156 100.376 332.657 105.556 336.754 108.338L383.484 139.912C387.217 142.432 391.715 142.633 396.162 140.472C403.362 136.984 408.676 128.322 409.378 118.917L414.878 45.2958C415.496 37.0258 412.452 30.0828 406.912 27.1768C402.256 24.7318 396.739 25.6198 391.775 29.6178L391.596 29.4118Z" fill="white" fill-opacity="0.8"/>
<path opacity="0.5" d="M395.979 145.254C393.656 145.248 391.37 144.671 389.323 143.574L334.54 114.766C329.501 112.114 326.101 106.647 325.224 99.7712C324.063 90.6762 327.492 81.0012 333.955 75.1222L387.694 26.2402C393.142 21.2842 399.551 19.8682 405.277 22.3542C411.647 25.1202 415.677 32.2542 415.794 40.9842L416.837 118.691C416.971 128.615 412.171 138.023 404.601 142.661C402.02 144.304 399.037 145.201 395.979 145.254ZM387.886 26.4492L388.073 26.6602L334.338 75.5422C328.007 81.2982 324.652 90.7832 325.788 99.7002C326.643 106.389 329.928 111.7 334.804 114.258L389.588 143.086C394.174 145.501 399.4 145.174 404.304 142.171C411.704 137.634 416.404 128.418 416.269 118.692L415.227 40.9842C415.111 32.4902 411.212 25.5492 405.05 22.8842C399.538 20.4862 393.351 21.8652 388.077 26.6632L387.886 26.4492Z" fill="white" fill-opacity="0.8"/>
<path opacity="0.5" d="M402.546 147.555C400.457 147.555 398.387 147.157 396.446 146.383L333.015 121.183C327.054 118.818 322.733 113.252 321.173 105.918C320.176 101.276 320.325 96.4613 321.607 91.8902C322.89 87.319 325.267 83.1293 328.533 79.6839L383.288 23.4929C388.887 17.7469 396.166 15.6759 402.751 17.9549C409.933 20.4389 414.793 27.3219 415.758 36.3669L424.439 117.756C425.503 127.734 421.374 137.84 413.918 143.501C410.676 146.064 406.679 147.489 402.546 147.555ZM383.492 23.6919L383.692 23.8919L328.945 80.0809C325.744 83.4589 323.415 87.5662 322.158 92.0472C320.901 96.5282 320.756 101.248 321.733 105.798C323.258 112.944 327.446 118.361 333.226 120.658L396.657 145.858C402.174 148.049 408.342 147.024 413.578 143.058C420.878 137.515 424.92 127.612 423.878 117.828L415.197 36.4279C414.259 27.6079 409.533 20.9019 402.566 18.4929C396.192 16.2929 389.128 18.3059 383.695 23.8929L383.492 23.6919Z" fill="white" fill-opacity="0.8"/>
<path opacity="0.5" d="M409.885 149.404C408.095 149.401 406.315 149.15 404.594 148.657L331.943 128.057C324.927 126.067 319.554 120.424 317.199 112.566C315.789 107.846 315.58 102.849 316.59 98.0271C317.6 93.2056 319.798 88.7125 322.984 84.9553L378.147 21.0133C383.897 14.3483 391.88 11.5483 399.5 13.5273C407.473 15.5953 413.369 22.3273 415.273 31.5273L432.763 116.074C433.809 120.962 433.585 126.036 432.115 130.813C430.645 135.59 427.976 139.911 424.363 143.364C420.485 147.151 415.305 149.312 409.885 149.404ZM378.365 21.2043L378.582 21.3913L323.417 85.3343C320.294 89.018 318.139 93.423 317.148 98.15C316.158 102.877 316.362 107.776 317.744 112.404C320.044 120.056 325.273 125.569 332.098 127.504L404.749 148.104C411.412 149.993 418.42 148.104 423.973 142.949C427.516 139.563 430.133 135.326 431.575 130.641C433.016 125.957 433.234 120.982 432.207 116.189L414.717 31.6513C412.851 22.6633 407.117 16.0953 399.359 14.0813C391.951 12.1603 384.183 14.8913 378.579 21.3903L378.365 21.2043Z" fill="white" fill-opacity="0.8"/>
<path opacity="0.5" d="M417.938 150.671C416.561 150.67 415.186 150.546 413.832 150.298L331.418 135.358C323.193 133.865 316.601 128.185 313.333 119.772C311.502 115.032 310.91 109.902 311.614 104.869C312.317 99.8362 314.292 95.0657 317.353 91.0084L372.226 18.8924L372.454 19.0664L372.226 18.8924C378.026 11.2754 386.687 7.63044 395.411 9.14644C404.271 10.6854 411.326 17.1714 414.278 26.5084L441.815 113.565C443.359 118.436 443.626 123.622 442.59 128.626C441.554 133.63 439.25 138.284 435.899 142.141C433.695 144.772 430.95 146.896 427.85 148.369C424.75 149.841 421.369 150.626 417.938 150.671ZM391.51 9.37744C384.332 9.37744 377.488 12.9014 372.66 19.2374L317.788 91.3524C314.795 95.3353 312.864 100.014 312.178 104.948C311.491 109.883 312.071 114.911 313.863 119.559C317.063 127.784 323.494 133.337 331.519 134.791L413.926 149.733C421.886 151.176 429.738 148.272 435.466 141.764C438.752 137.98 441.012 133.416 442.027 128.508C443.043 123.6 442.781 118.513 441.266 113.735L413.726 26.6844C410.836 17.5564 403.95 11.2084 395.304 9.70044C394.051 9.48427 392.781 9.37621 391.51 9.37744Z" fill="white" fill-opacity="0.8"/>
<path opacity="0.5" d="M426.52 151.271C425.753 151.271 424.983 151.238 424.208 151.171L331.54 143.063C326.847 142.624 322.353 140.96 318.506 138.237C314.659 135.514 311.594 131.829 309.62 127.549C307.337 122.854 306.329 117.641 306.694 112.433C307.06 107.225 308.788 102.204 311.704 97.8741L365.456 17.2181L365.693 17.3751L365.456 17.2181C368.072 13.0805 371.776 9.74252 376.163 7.56987C380.549 5.39722 385.449 4.47366 390.326 4.90036C395.203 5.32707 399.868 7.08756 403.811 9.98904C407.753 12.8905 410.821 16.821 412.679 21.3501L451.591 110.102C453.713 114.875 454.543 120.123 453.998 125.318C453.453 130.513 451.552 135.473 448.485 139.702C446.016 143.247 442.733 146.147 438.911 148.16C435.089 150.173 430.84 151.24 426.52 151.271ZM387.974 5.35413C383.575 5.38614 379.255 6.51593 375.403 8.64098C371.552 10.766 368.292 13.8191 365.92 17.5231L312.169 98.1801C309.306 102.428 307.61 107.354 307.25 112.465C306.891 117.575 307.88 122.69 310.12 127.297C312.052 131.488 315.053 135.097 318.82 137.763C322.587 140.429 326.988 142.058 331.583 142.487L424.249 150.595C428.848 150.969 433.464 150.127 437.636 148.156C441.807 146.184 445.388 143.152 448.019 139.361C451.027 135.212 452.891 130.345 453.426 125.249C453.96 120.152 453.145 115.005 451.063 110.322L412.153 21.5761C410.318 17.1515 407.31 13.312 403.453 10.4718C399.596 7.63164 395.037 5.89874 390.267 5.46013C389.498 5.38946 388.734 5.35413 387.974 5.35413Z" fill="white" fill-opacity="0.8"/>
<path opacity="0.5" d="M435.773 151.129H332.416C327.084 151.128 321.846 149.723 317.229 147.056C312.612 144.39 308.778 140.554 306.112 135.936C303.447 131.318 302.044 126.08 302.045 120.748C302.046 115.416 303.45 110.178 306.116 105.561L357.792 16.0606C360.458 11.4431 364.292 7.60855 368.91 4.94256C373.527 2.27658 378.765 0.873047 384.097 0.873047C389.429 0.873047 394.667 2.27658 399.284 4.94256C403.902 7.60855 407.736 11.4431 410.402 16.0606L462.078 105.561C464.743 110.178 466.146 115.416 466.146 120.747C466.146 126.079 464.743 131.317 462.078 135.934C459.413 140.552 455.58 144.387 450.963 147.054C446.347 149.721 441.11 151.126 435.778 151.129H435.773ZM358.036 16.2026L358.282 16.3446L306.604 105.854C303.988 110.385 302.611 115.524 302.611 120.756C302.611 125.988 303.989 131.127 306.605 135.658C309.22 140.189 312.983 143.952 317.514 146.568C322.045 149.183 327.184 150.561 332.416 150.561H435.773C441.005 150.56 446.144 149.183 450.675 146.567C455.205 143.951 458.968 140.188 461.583 135.657C464.199 131.127 465.576 125.987 465.576 120.756C465.576 115.524 464.199 110.384 461.583 105.854L409.907 16.3476C407.291 11.8172 403.528 8.05511 398.997 5.43952C394.466 2.82393 389.327 1.44695 384.095 1.44695C378.863 1.44695 373.724 2.82393 369.193 5.43952C364.662 8.05511 360.899 11.8172 358.283 16.3476L358.036 16.2026Z" fill="white" fill-opacity="0.8"/>
</g>
</g>
</svg>
