<svg width="1852" height="445" viewBox="0 0 1852 445" fill="none" xmlns="http://www.w3.org/2000/svg">
<g opacity="0.12">
<g style="mix-blend-mode:color-dodge">
<g style="mix-blend-mode:color-dodge">
<path d="M1845.32 76.0781H1844V321.188H1845.32V76.0781Z" fill="black"/>
</g>
<g style="mix-blend-mode:color-dodge">
<path d="M1813.63 67.0898H1812.31V241.427H1813.63V67.0898Z" fill="black"/>
</g>
<g style="mix-blend-mode:color-dodge">
<path d="M1781.93 94.4707H1780.62V161.219H1781.93V94.4707Z" fill="black"/>
</g>
<g style="mix-blend-mode:color-dodge">
<path d="M1750.24 71.127H1748.93V164.336H1750.24V71.127Z" fill="black"/>
</g>
<g style="mix-blend-mode:color-dodge">
<path d="M1718.55 58.0898H1717.23V188.704H1718.55V58.0898Z" fill="black"/>
</g>
<g style="mix-blend-mode:color-dodge">
<path d="M1686.86 124.256H1685.54V207.109H1686.86V124.256Z" fill="black"/>
</g>
<g style="mix-blend-mode:color-dodge">
<path d="M1655.16 83.7637H1653.85V228.758H1655.16V83.7637Z" fill="black"/>
</g>
<g style="mix-blend-mode:color-dodge">
<path d="M1623.47 128.148H1622.15V171.303H1623.47V128.148Z" fill="black"/>
</g>
<g style="mix-blend-mode:color-dodge">
<path d="M1591.78 99.1562H1590.46V158.707H1591.78V99.1562Z" fill="black"/>
</g>
<g style="mix-blend-mode:color-dodge">
<path d="M1560.08 60.3555H1558.77V179.457H1560.08V60.3555Z" fill="black"/>
</g>
<g style="mix-blend-mode:color-dodge">
<path d="M1528.39 43.4902H1527.08V153.961H1528.39V43.4902Z" fill="black"/>
</g>
<g style="mix-blend-mode:color-dodge">
<path d="M1496.7 51.0703H1495.38V178.803H1496.7V51.0703Z" fill="black"/>
</g>
<g style="mix-blend-mode:color-dodge">
<path d="M1465.01 12H1463.7V170.807H1465.01V12Z" fill="black"/>
</g>
<g style="mix-blend-mode:color-dodge">
<path d="M1433.32 41.3496H1432V172.968H1433.32V41.3496Z" fill="black"/>
</g>
<g style="mix-blend-mode:color-dodge">
<path d="M1401.63 109.029H1400.31V181.527H1401.63V109.029Z" fill="black"/>
</g>
<g style="mix-blend-mode:color-dodge">
<path d="M1369.93 74.0234H1368.62V180.179H1369.93V74.0234Z" fill="black"/>
</g>
<g style="mix-blend-mode:color-dodge">
<path d="M1338.24 56.7734H1336.93V243.198H1338.24V56.7734Z" fill="black"/>
</g>
<g style="mix-blend-mode:color-dodge">
<path d="M1306.55 49.2402H1305.23V332.33H1306.55V49.2402Z" fill="black"/>
</g>
<g style="mix-blend-mode:color-dodge">
<path d="M1274.86 87.4785H1273.54V484.489H1274.86V87.4785Z" fill="black"/>
</g>
<g style="mix-blend-mode:color-dodge">
<path d="M1243.16 260.461H1241.85V419.268H1243.16V260.461Z" fill="black"/>
</g>
<g style="mix-blend-mode:color-dodge">
<path d="M1211.47 219.453H1210.15V405.878H1211.47V219.453Z" fill="black"/>
</g>
<g style="mix-blend-mode:color-dodge">
<path d="M1179.78 187.725H1178.46V358.612H1179.78V187.725Z" fill="black"/>
</g>
<g style="mix-blend-mode:color-dodge">
<path d="M1148.08 191.209H1146.77V377.634H1148.08V191.209Z" fill="black"/>
</g>
<g style="mix-blend-mode:color-dodge">
<path d="M1116.39 187.422H1115.08V269.125H1116.39V187.422Z" fill="black"/>
</g>
<path d="M1851.24 161.496H1838.08V235.771H1851.24V161.496Z" fill="#FF0606"/>
<path d="M1819.55 127.844H1806.38V180.674H1819.55V127.844Z" fill="#FF0606"/>
<path d="M1787.86 117.732H1774.7V137.955H1787.86V117.732Z" fill="#FF0606"/>
<path d="M1756.16 103.609H1743V131.855H1756.16V103.609Z" fill="#00B123"/>
<path d="M1724.47 103.609H1711.31V143.189H1724.47V103.609Z" fill="#00B123"/>
<path d="M1692.78 153.123H1679.61V178.229H1692.78V153.123Z" fill="#FF0606"/>
<path d="M1661.09 134.293H1647.93V178.234H1661.09V134.293Z" fill="#00B123"/>
<path d="M1629.39 143.189H1616.23V156.268H1629.39V143.189Z" fill="#FF0606"/>
<path d="M1597.71 119.914H1584.54V137.962H1597.71V119.914Z" fill="#FF0606"/>
<path d="M1566.01 101.865H1552.85V137.955H1566.01V101.865Z" fill="#FF0606"/>
<path d="M1534.32 81.9863H1521.16V115.466H1534.32V81.9863Z" fill="#00B123"/>
<path d="M1502.63 95.5859H1489.46V134.293H1502.63V95.5859Z" fill="#FF0606"/>
<path d="M1470.93 67.3418H1457.77V115.466H1470.93V67.3418Z" fill="#00B123"/>
<path d="M1439.24 87.2207H1426.08V127.104H1439.24V87.2207Z" fill="#00B123"/>
<path d="M1407.55 134.293H1394.38V156.26H1407.55V134.293Z" fill="#FF0606"/>
<path d="M1375.86 111.018H1362.7V143.189H1375.86V111.018Z" fill="#00B123"/>
<path d="M1344.16 121.744H1331V178.235H1344.16V121.744Z" fill="#00B123"/>
<path d="M1312.48 147.895H1299.31V233.682H1312.48V147.895Z" fill="#00B123"/>
<path d="M1280.78 225.832H1267.61V346.137H1280.78V225.832Z" fill="#00B123"/>
<path d="M1249.09 315.803H1235.93V363.927H1249.09V315.803Z" fill="#FF0606"/>
<path d="M1217.4 284.418H1204.23V340.909H1217.4V284.418Z" fill="#FF0606"/>
<path d="M1185.71 247.275H1172.54V299.061H1185.71V247.275Z" fill="#00B123"/>
<path d="M1154.01 256.172H1140.85V312.663H1154.01V256.172Z" fill="#FF0606"/>
</g>
<g style="mix-blend-mode:color-dodge">
<g style="mix-blend-mode:color-dodge">
<path d="M7.23701 297.49H5.92188V440.185H7.23701V297.49Z" fill="black"/>
</g>
<g style="mix-blend-mode:color-dodge">
<path d="M1116.32 64.0781H1115V309.188H1116.32V64.0781Z" fill="black"/>
</g>
<g style="mix-blend-mode:color-dodge">
<path d="M1084.78 55.0898H1083.46V229.427H1084.78V55.0898Z" fill="black"/>
</g>
<g style="mix-blend-mode:color-dodge">
<path d="M1053.08 82.4707H1051.77V149.219H1053.08V82.4707Z" fill="black"/>
</g>
<g style="mix-blend-mode:color-dodge">
<path d="M1021.39 59.1289H1020.08V152.338H1021.39V59.1289Z" fill="black"/>
</g>
<g style="mix-blend-mode:color-dodge">
<path d="M989.698 46.0898H988.383V176.704H989.698V46.0898Z" fill="black"/>
</g>
<g style="mix-blend-mode:color-dodge">
<path d="M958.01 112.256H956.695V195.109H958.01V112.256Z" fill="black"/>
</g>
<g style="mix-blend-mode:color-dodge">
<path d="M926.315 71.7637H925V216.758H926.315V71.7637Z" fill="black"/>
</g>
<g style="mix-blend-mode:color-dodge">
<path d="M894.62 116.148H893.305V159.303H894.62V116.148Z" fill="black"/>
</g>
<g style="mix-blend-mode:color-dodge">
<path d="M862.932 87.1562H861.617V146.707H862.932V87.1562Z" fill="black"/>
</g>
<g style="mix-blend-mode:color-dodge">
<path d="M831.237 48.3555H829.922V167.457H831.237V48.3555Z" fill="black"/>
</g>
<g style="mix-blend-mode:color-dodge">
<path d="M799.546 31.4902H798.23V141.961H799.546V31.4902Z" fill="black"/>
</g>
<g style="mix-blend-mode:color-dodge">
<path d="M767.85 39.0703H766.535V166.803H767.85V39.0703Z" fill="black"/>
</g>
<g style="mix-blend-mode:color-dodge">
<path d="M736.163 0H734.848V158.807H736.163V0Z" fill="black"/>
</g>
<g style="mix-blend-mode:color-dodge">
<path d="M704.467 29.3496H703.152V160.968H704.467V29.3496Z" fill="black"/>
</g>
<g style="mix-blend-mode:color-dodge">
<path d="M672.78 97.0293H671.465V169.527H672.78V97.0293Z" fill="black"/>
</g>
<g style="mix-blend-mode:color-dodge">
<path d="M641.085 62.0234H639.77V168.179H641.085V62.0234Z" fill="black"/>
</g>
<g style="mix-blend-mode:color-dodge">
<path d="M609.393 44.7734H608.078V231.198H609.393V44.7734Z" fill="black"/>
</g>
<g style="mix-blend-mode:color-dodge">
<path d="M577.698 37.2402H576.383V320.33H577.698V37.2402Z" fill="black"/>
</g>
<g style="mix-blend-mode:color-dodge">
<path d="M546.01 75.4785H544.695V472.489H546.01V75.4785Z" fill="black"/>
</g>
<g style="mix-blend-mode:color-dodge">
<path d="M514.315 248.461H513V407.268H514.315V248.461Z" fill="black"/>
</g>
<g style="mix-blend-mode:color-dodge">
<path d="M482.62 207.453H481.305V393.878H482.62V207.453Z" fill="black"/>
</g>
<g style="mix-blend-mode:color-dodge">
<path d="M450.932 175.725H449.617V346.612H450.932V175.725Z" fill="black"/>
</g>
<g style="mix-blend-mode:color-dodge">
<path d="M419.237 179.209H417.922V365.634H419.237V179.209Z" fill="black"/>
</g>
<g style="mix-blend-mode:color-dodge">
<path d="M387.546 175.422H386.23V257.125H387.546V175.422Z" fill="black"/>
</g>
<g style="mix-blend-mode:color-dodge">
<path d="M355.85 153.078H354.535V327.422H355.85V153.078Z" fill="black"/>
</g>
<g style="mix-blend-mode:color-dodge">
<path d="M324.163 241.688H322.848V319.366H324.163V241.688Z" fill="black"/>
</g>
<g style="mix-blend-mode:color-dodge">
<path d="M292.467 229.58H291.152V378.031H292.467V229.58Z" fill="black"/>
</g>
<g style="mix-blend-mode:color-dodge">
<path d="M260.78 218.438H259.465V439.386H260.78V218.438Z" fill="black"/>
</g>
<g style="mix-blend-mode:color-dodge">
<path d="M229.085 297.49H227.77V440.185H229.085V297.49Z" fill="black"/>
</g>
<g style="mix-blend-mode:color-dodge">
<path d="M197.389 355.971H196.074V408.906H197.389V355.971Z" fill="black"/>
</g>
<g style="mix-blend-mode:color-dodge">
<path d="M165.702 215.609H164.387V533.223H165.702V215.609Z" fill="black"/>
</g>
<g style="mix-blend-mode:color-dodge">
<path d="M134.007 298.363H132.691V406.534H134.007V298.363Z" fill="black"/>
</g>
<g style="mix-blend-mode:color-dodge">
<path d="M102.315 271.822H101V488.165H102.315V271.822Z" fill="black"/>
</g>
<g style="mix-blend-mode:color-dodge">
<path d="M70.6198 292.641H69.3047V511.283H70.6198V292.641Z" fill="black"/>
</g>
<g style="mix-blend-mode:color-dodge">
<path d="M38.9323 286.328H37.6172V429.023H38.9323V286.328Z" fill="black"/>
</g>
<path d="M1122 148H1109V240H1122V148Z" fill="#FF0606"/>
<path d="M1090.7 115.844H1077.54V168.674H1090.7V115.844Z" fill="#FF0606"/>
<path d="M1059.01 105.732H1045.85V125.955H1059.01V105.732Z" fill="#FF0606"/>
<path d="M1027.32 91.6094H1014.15V119.855H1027.32V91.6094Z" fill="#00B123"/>
<path d="M995.625 91.6094H982.461V131.189H995.625V91.6094Z" fill="#00B123"/>
<path d="M963.93 141.123H950.766V166.229H963.93V141.123Z" fill="#FF0606"/>
<path d="M932.243 122.295H919.078V166.236H932.243V122.295Z" fill="#00B123"/>
<path d="M900.547 131.189H887.383V144.268H900.547V131.189Z" fill="#FF0606"/>
<path d="M868.856 107.914H855.691V125.962H868.856V107.914Z" fill="#FF0606"/>
<path d="M837.165 89.8652H824V125.955H837.165V89.8652Z" fill="#FF0606"/>
<path d="M805.473 69.9863H792.309V103.466H805.473V69.9863Z" fill="#00B123"/>
<path d="M773.778 83.5859H760.613V122.293H773.778V83.5859Z" fill="#FF0606"/>
<path d="M742.083 55.3418H728.918V103.466H742.083V55.3418Z" fill="#00B123"/>
<path d="M710.395 75.2207H697.23V115.104H710.395V75.2207Z" fill="#00B123"/>
<path d="M678.7 122.295H665.535V144.262H678.7V122.295Z" fill="#FF0606"/>
<path d="M647.012 99.0176H633.848V131.189H647.012V99.0176Z" fill="#00B123"/>
<path d="M615.317 109.744H602.152V166.235H615.317V109.744Z" fill="#00B123"/>
<path d="M583.629 135.895H570.465V221.682H583.629V135.895Z" fill="#00B123"/>
<path d="M551.93 213.832H538.766V334.137H551.93V213.832Z" fill="#00B123"/>
<path d="M520.243 303.803H507.078V351.927H520.243V303.803Z" fill="#FF0606"/>
<path d="M488.547 272.418H475.383V328.909H488.547V272.418Z" fill="#FF0606"/>
<path d="M456.86 235.277H443.695V287.063H456.86V235.277Z" fill="#FF0606"/>
<path d="M425.165 244.172H412V300.663H425.165V244.172Z" fill="#FF0606"/>
<path d="M393.469 203.891H380.305V228.653H393.469V203.891Z" fill="#00B123"/>
<path d="M361.778 213.832H348.613V266.662H361.778V213.832Z" fill="#00B123"/>
<path d="M330.086 268.756H316.922V292.296H330.086V268.756Z" fill="#00B123"/>
<path d="M298.395 281.312H285.23V326.298H298.395V281.312Z" fill="#00B123"/>
<path d="M266.7 295.436H253.535V362.388H266.7V295.436Z" fill="#00B123"/>
<path d="M235.012 347.215H221.848V390.456H235.012V347.215Z" fill="#FF0606"/>
<path d="M203.317 374.416H190.152V390.455H203.317V374.416Z" fill="#FF0606"/>
<path d="M171.629 326.291H158.465V422.533H171.629V326.291Z" fill="#00B123"/>
<path d="M139.934 336.059H126.77V368.838H139.934V336.059Z" fill="#00B123"/>
<path d="M108.243 347.215H95.0781V412.773H108.243V347.215Z" fill="#00B123"/>
<path d="M76.5473 368.838H63.3828V435.097H76.5473V368.838Z" fill="#FF0606"/>
<path d="M44.852 336.059H31.6875V379.299H44.852V336.059Z" fill="#00B123"/>
<path d="M13.1645 347.215H0V390.456H13.1645V347.215Z" fill="#FF0606"/>
</g>
</g>
</svg>
