<svg width="350" height="187" viewBox="0 0 350 187" fill="none" xmlns="http://www.w3.org/2000/svg">
<path d="M147.238 99.0742H135.675V182.896H147.238V99.0742Z" fill="#E0D9FF"/>
<path d="M116.277 108.342H104.714V182.898H116.277V108.342Z" fill="#E0D9FF"/>
<path d="M85.3225 129.846H73.7596V182.897H85.3225V129.846Z" fill="#E0D9FF"/>
<path d="M54.3685 153.691H42.8057V182.891H54.3685V153.691Z" fill="#E0D9FF"/>
<path d="M177.184 88.3574H165.621V182.897H177.184V88.3574Z" fill="#E0D9FF"/>
<path d="M207.13 76.084H195.568V182.898H207.13V76.084Z" fill="#E0D9FF"/>
<path d="M237.077 79.1348H225.514V182.897H237.077V79.1348Z" fill="#E0D9FF"/>
<path d="M267.031 54.5352H255.468V182.896H267.031V54.5352Z" fill="#E0D9FF"/>
<path d="M296.977 41.4727H285.414V182.897H296.977V41.4727Z" fill="#E0D9FF"/>
<path d="M326.923 6.83984H315.361V182.897H326.923V6.83984Z" fill="#E0D9FF"/>
<path d="M350 178.727H0V186.062H350V178.727Z" fill="#280DA7"/>
<path d="M115.129 166.24H55.9121C53.6667 166.24 51.8464 168.061 51.8464 170.306V174.752C51.8464 176.997 53.6667 178.818 55.9121 178.818H115.129C117.374 178.818 119.194 176.997 119.194 174.752V170.306C119.194 168.061 117.374 166.24 115.129 166.24Z" fill="#FCCB21"/>
<g style="mix-blend-mode:soft-light" opacity="0.5">
<path d="M117.862 174.829V170.235C117.862 168.767 116.673 167.578 115.205 167.578H55.8339C54.3668 167.578 53.1775 168.767 53.1775 170.235V174.829C53.1775 176.296 54.3668 177.485 55.8339 177.485H115.205C116.673 177.485 117.862 176.296 117.862 174.829Z" fill="#F9FBFC"/>
</g>
<path opacity="0.66" d="M61.6617 167.578H55.7358C55.0699 167.578 54.4311 167.842 53.9596 168.312C53.4881 168.783 53.2222 169.421 53.2203 170.087V174.97C53.2203 175.637 53.4854 176.277 53.9571 176.748C54.4289 177.22 55.0687 177.485 55.7358 177.485H61.697L61.6617 167.578Z" fill="#FC9F21"/>
<path opacity="0.66" d="M88.4156 167.572H65.8606V177.479H88.4156V167.572Z" fill="#FC9F21"/>
<path opacity="0.66" d="M115.354 167.578H114.36V177.485H115.354C116.02 177.483 116.659 177.218 117.13 176.746C117.602 176.275 117.867 175.636 117.869 174.97V170.087C117.865 169.421 117.599 168.784 117.128 168.314C116.657 167.845 116.019 167.58 115.354 167.578Z" fill="#FC9F21"/>
<path opacity="0.66" d="M112.591 167.572H91.0228V177.479H112.591V167.572Z" fill="#FC9F21"/>
<path d="M121.801 153.754H62.5846C60.3392 153.754 58.5189 155.574 58.5189 157.82V162.266C58.5189 164.511 60.3392 166.331 62.5846 166.331H121.801C124.046 166.331 125.867 164.511 125.867 162.266V157.82C125.867 155.574 124.046 153.754 121.801 153.754Z" fill="#FCCB21"/>
<g style="mix-blend-mode:soft-light" opacity="0.5">
<path d="M124.535 162.342V157.748C124.535 156.281 123.346 155.092 121.879 155.092H62.5073C61.0401 155.092 59.8508 156.281 59.8508 157.748V162.342C59.8508 163.809 61.0401 164.999 62.5073 164.999H121.879C123.346 164.999 124.535 163.809 124.535 162.342Z" fill="#F9FBFC"/>
</g>
<path opacity="0.66" d="M68.3274 155.092H62.3663C61.7004 155.092 61.0616 155.356 60.5901 155.826C60.1185 156.296 59.8527 156.934 59.8508 157.6V162.483C59.8508 163.15 60.1159 163.79 60.5876 164.262C61.0594 164.734 61.6992 164.999 62.3663 164.999H68.3274V155.092Z" fill="#FC9F21"/>
<path opacity="0.66" d="M95.0815 155.092H72.5265V164.999H95.0815V155.092Z" fill="#FC9F21"/>
<path opacity="0.66" d="M122.02 155.092H121.026V164.999H122.02C122.687 164.999 123.326 164.734 123.798 164.262C124.27 163.79 124.535 163.15 124.535 162.483V157.6C124.533 156.934 124.267 156.296 123.796 155.826C123.324 155.356 122.685 155.092 122.02 155.092Z" fill="#FC9F21"/>
<path opacity="0.66" d="M119.257 155.092H97.6887V164.999H119.257V155.092Z" fill="#FC9F21"/>
<path d="M197.661 166.24H138.444C136.199 166.24 134.378 168.061 134.378 170.306V174.752C134.378 176.997 136.199 178.818 138.444 178.818H197.661C199.906 178.818 201.726 176.997 201.726 174.752V170.306C201.726 168.061 199.906 166.24 197.661 166.24Z" fill="#FCCB21"/>
<g style="mix-blend-mode:soft-light" opacity="0.5">
<path d="M200.395 174.823V170.229C200.395 168.762 199.205 167.572 197.738 167.572H138.367C136.9 167.572 135.71 168.762 135.71 170.229V174.823C135.71 176.29 136.9 177.479 138.367 177.479H197.738C199.205 177.479 200.395 176.29 200.395 174.823Z" fill="#F9FBFC"/>
</g>
<path opacity="0.66" d="M144.194 167.578H138.226C137.56 167.578 136.921 167.842 136.45 168.312C135.978 168.783 135.712 169.421 135.71 170.087V174.97C135.71 175.637 135.975 176.277 136.447 176.748C136.919 177.22 137.559 177.485 138.226 177.485H144.194V167.578Z" fill="#FC9F21"/>
<path opacity="0.66" d="M170.941 167.572H148.386V177.479H170.941V167.572Z" fill="#FC9F21"/>
<path opacity="0.66" d="M197.879 167.578H196.885V177.485H197.879C198.546 177.485 199.186 177.22 199.658 176.748C200.129 176.277 200.395 175.637 200.395 174.97V170.087C200.393 169.421 200.127 168.783 199.655 168.312C199.184 167.842 198.545 167.578 197.879 167.578Z" fill="#FC9F21"/>
<path opacity="0.66" d="M195.117 167.572H173.548V177.479H195.117V167.572Z" fill="#FC9F21"/>
<path d="M202.325 153.754H143.109C140.863 153.754 139.043 155.574 139.043 157.82V162.266C139.043 164.511 140.863 166.331 143.109 166.331H202.325C204.571 166.331 206.391 164.511 206.391 162.266V157.82C206.391 155.574 204.571 153.754 202.325 153.754Z" fill="#FCCB21"/>
<g style="mix-blend-mode:soft-light" opacity="0.5">
<path d="M205.059 162.337V157.742C205.059 156.275 203.869 155.086 202.402 155.086H143.031C141.564 155.086 140.374 156.275 140.374 157.742V162.337C140.374 163.804 141.564 164.993 143.031 164.993H202.402C203.869 164.993 205.059 163.804 205.059 162.337Z" fill="#F9FBFC"/>
</g>
<path opacity="0.66" d="M148.859 155.092H142.898C142.232 155.092 141.593 155.356 141.122 155.826C140.65 156.296 140.384 156.934 140.383 157.6V162.483C140.383 163.15 140.648 163.79 141.119 164.262C141.591 164.734 142.231 164.999 142.898 164.999H148.859V155.092Z" fill="#FC9F21"/>
<path opacity="0.66" d="M175.613 155.092H153.058V164.999H175.613V155.092Z" fill="#FC9F21"/>
<path opacity="0.66" d="M202.551 155.092H201.592V164.999H202.586C203.252 164.997 203.89 164.731 204.36 164.26C204.83 163.788 205.094 163.149 205.094 162.483V157.6C205.093 157.268 205.027 156.94 204.898 156.633C204.769 156.327 204.582 156.049 204.345 155.816C204.109 155.583 203.828 155.399 203.52 155.275C203.212 155.15 202.883 155.088 202.551 155.092Z" fill="#FC9F21"/>
<path opacity="0.66" d="M199.782 155.092H178.213V164.999H199.782V155.092Z" fill="#FC9F21"/>
<path d="M199.662 141.268H140.445C138.2 141.268 136.38 143.088 136.38 145.333V149.779C136.38 152.025 138.2 153.845 140.445 153.845H199.662C201.907 153.845 203.727 152.025 203.727 149.779V145.333C203.727 143.088 201.907 141.268 199.662 141.268Z" fill="#FCCB21"/>
<g style="mix-blend-mode:soft-light" opacity="0.5">
<path d="M202.389 149.858V145.264C202.389 143.797 201.2 142.607 199.733 142.607H140.361C138.894 142.607 137.705 143.797 137.705 145.264V149.858C137.705 151.325 138.894 152.514 140.361 152.514H199.733C201.2 152.514 202.389 151.325 202.389 149.858Z" fill="#F9FBFC"/>
</g>
<path opacity="0.66" d="M146.188 142.607H140.227C139.56 142.607 138.92 142.872 138.448 143.344C137.976 143.816 137.711 144.456 137.711 145.123V150.006C137.713 150.672 137.979 151.31 138.451 151.78C138.922 152.25 139.561 152.514 140.227 152.514H146.188V142.607Z" fill="#FC9F21"/>
<path opacity="0.66" d="M172.942 142.607H150.387V152.514H172.942V142.607Z" fill="#FC9F21"/>
<path opacity="0.66" d="M199.88 142.607H198.887V152.543H199.88C200.546 152.543 201.185 152.279 201.656 151.808C202.128 151.338 202.394 150.7 202.396 150.034V145.151C202.399 144.818 202.337 144.488 202.212 144.18C202.088 143.871 201.903 143.591 201.669 143.354C201.435 143.118 201.156 142.93 200.849 142.802C200.542 142.673 200.213 142.607 199.88 142.607Z" fill="#FC9F21"/>
<path opacity="0.66" d="M197.118 142.607H175.549V152.514H197.118V142.607Z" fill="#FC9F21"/>
<path d="M197.426 126.853L138.209 130.999C135.964 131.156 134.271 133.103 134.428 135.349L134.739 139.795C134.897 142.04 136.844 143.733 139.09 143.576L198.306 139.431C200.552 139.274 202.244 137.326 202.087 135.081L201.776 130.635C201.619 128.389 199.671 126.696 197.426 126.853Z" fill="#FCCB21"/>
<g style="mix-blend-mode:soft-light" opacity="0.5">
<path d="M199.124 135.887L198.821 131.303C198.725 129.839 197.459 128.731 195.995 128.827L136.753 132.742C135.289 132.838 134.181 134.103 134.278 135.567L134.581 140.151C134.677 141.615 135.942 142.724 137.406 142.627L196.649 138.713C198.113 138.616 199.221 137.351 199.124 135.887Z" fill="#F9FBFC"/>
</g>
<path opacity="0.66" d="M142.58 132.375L136.633 132.77C135.968 132.813 135.347 133.119 134.907 133.619C134.467 134.12 134.244 134.775 134.287 135.44L134.611 140.316C134.656 140.98 134.962 141.599 135.463 142.037C135.963 142.476 136.617 142.698 137.281 142.655L143.235 142.261L142.58 132.375Z" fill="#FC9F21"/>
<path opacity="0.66" d="M169.269 130.628L146.763 132.115L147.416 142.001L169.922 140.514L169.269 130.628Z" fill="#FC9F21"/>
<path opacity="0.66" d="M196.153 128.832L195.167 128.902L195.815 138.767L196.809 138.704C197.474 138.658 198.095 138.351 198.535 137.849C198.975 137.348 199.198 136.692 199.155 136.026L198.831 131.157C198.782 130.494 198.473 129.878 197.972 129.442C197.47 129.007 196.816 128.787 196.153 128.832Z" fill="#FC9F21"/>
<path opacity="0.66" d="M193.384 129.033L171.862 130.455L172.515 140.341L194.037 138.919L193.384 129.033Z" fill="#FC9F21"/>
<path d="M273.668 166.24H214.452C212.206 166.24 210.386 168.061 210.386 170.306V174.752C210.386 176.997 212.206 178.818 214.452 178.818H273.668C275.914 178.818 277.734 176.997 277.734 174.752V170.306C277.734 168.061 275.914 166.24 273.668 166.24Z" fill="#FCCB21"/>
<g style="mix-blend-mode:soft-light" opacity="0.5">
<path d="M276.402 174.823V170.229C276.402 168.762 275.213 167.572 273.746 167.572H214.374C212.907 167.572 211.718 168.762 211.718 170.229V174.823C211.718 176.29 212.907 177.479 214.374 177.479H273.746C275.213 177.479 276.402 176.29 276.402 174.823Z" fill="#F9FBFC"/>
</g>
<path opacity="0.66" d="M220.202 167.578H214.234C213.569 167.58 212.932 167.845 212.462 168.315C211.992 168.785 211.727 169.422 211.725 170.087V174.97C211.725 175.636 211.99 176.274 212.46 176.746C212.93 177.217 213.568 177.483 214.234 177.485H220.202V167.578Z" fill="#FC9F21"/>
<path opacity="0.66" d="M246.956 167.572H224.401V177.479H246.956V167.572Z" fill="#FC9F21"/>
<path opacity="0.66" d="M273.894 167.578H272.893V177.485H273.894C274.56 177.483 275.198 177.217 275.668 176.746C276.138 176.274 276.402 175.636 276.402 174.97V170.087C276.4 169.422 276.135 168.785 275.665 168.315C275.195 167.845 274.558 167.58 273.894 167.578Z" fill="#FC9F21"/>
<path opacity="0.66" d="M271.124 167.572H249.556V177.479H271.124V167.572Z" fill="#FC9F21"/>
<path d="M280.341 153.754H221.124C218.879 153.754 217.059 155.574 217.059 157.82V162.266C217.059 164.511 218.879 166.331 221.124 166.331H280.341C282.586 166.331 284.406 164.511 284.406 162.266V157.82C284.406 155.574 282.586 153.754 280.341 153.754Z" fill="#FCCB21"/>
<g style="mix-blend-mode:soft-light" opacity="0.5">
<path d="M283.075 162.342V157.748C283.075 156.281 281.885 155.092 280.418 155.092H221.047C219.58 155.092 218.39 156.281 218.39 157.748V162.342C218.39 163.809 219.58 164.999 221.047 164.999H280.418C281.885 164.999 283.075 163.809 283.075 162.342Z" fill="#F9FBFC"/>
</g>
<path opacity="0.66" d="M226.868 155.092H220.907C220.241 155.092 219.602 155.356 219.131 155.826C218.659 156.296 218.393 156.934 218.391 157.6V162.483C218.391 163.15 218.656 163.79 219.128 164.262C219.6 164.734 220.24 164.999 220.907 164.999H226.868V155.092Z" fill="#FC9F21"/>
<path opacity="0.66" d="M253.621 155.092H231.066V164.999H253.621V155.092Z" fill="#FC9F21"/>
<path opacity="0.66" d="M280.559 155.092H279.566V164.999H280.559C281.226 164.999 281.866 164.734 282.338 164.262C282.81 163.79 283.075 163.15 283.075 162.483V157.6C283.073 156.934 282.807 156.296 282.335 155.826C281.864 155.356 281.225 155.092 280.559 155.092Z" fill="#FC9F21"/>
<path opacity="0.66" d="M277.797 155.092H256.228V164.999H277.797V155.092Z" fill="#FC9F21"/>
<path d="M283.674 141.268H224.457C222.212 141.268 220.391 143.088 220.391 145.333V149.779C220.391 152.025 222.212 153.845 224.457 153.845H283.674C285.919 153.845 287.739 152.025 287.739 149.779V145.333C287.739 143.088 285.919 141.268 283.674 141.268Z" fill="#FCCB21"/>
<g style="mix-blend-mode:soft-light" opacity="0.5">
<path d="M286.401 149.858V145.264C286.401 143.797 285.212 142.607 283.745 142.607H224.373C222.906 142.607 221.717 143.797 221.717 145.264V149.858C221.717 151.325 222.906 152.514 224.373 152.514H283.745C285.212 152.514 286.401 151.325 286.401 149.858Z" fill="#F9FBFC"/>
</g>
<path opacity="0.66" d="M230.2 142.607H224.239C223.572 142.607 222.932 142.872 222.46 143.344C221.988 143.816 221.723 144.456 221.723 145.123V150.006C221.725 150.672 221.991 151.31 222.463 151.78C222.934 152.25 223.573 152.514 224.239 152.514H230.2V142.607Z" fill="#FC9F21"/>
<path opacity="0.66" d="M256.955 142.607H234.4V152.514H256.955V142.607Z" fill="#FC9F21"/>
<path opacity="0.66" d="M283.892 142.607H282.899V152.543H283.892C284.558 152.543 285.197 152.279 285.668 151.808C286.14 151.338 286.406 150.7 286.408 150.034V145.151C286.411 144.818 286.349 144.488 286.224 144.18C286.1 143.871 285.915 143.591 285.681 143.354C285.447 143.118 285.168 142.93 284.861 142.802C284.554 142.673 284.225 142.607 283.892 142.607Z" fill="#FC9F21"/>
<path opacity="0.66" d="M281.131 142.607H259.562V152.514H281.131V142.607Z" fill="#FC9F21"/>
<path d="M275.669 128.789H216.453C214.207 128.789 212.387 130.609 212.387 132.855V137.301C212.387 139.546 214.207 141.367 216.453 141.367H275.669C277.915 141.367 279.735 139.546 279.735 137.301V132.855C279.735 130.609 277.915 128.789 275.669 128.789Z" fill="#FCCB21"/>
<g style="mix-blend-mode:soft-light" opacity="0.5">
<path d="M278.403 137.372V132.778C278.403 131.31 277.214 130.121 275.747 130.121H216.375C214.908 130.121 213.719 131.31 213.719 132.778V137.372C213.719 138.839 214.908 140.028 216.375 140.028H275.747C277.214 140.028 278.403 138.839 278.403 137.372Z" fill="#F9FBFC"/>
</g>
<path opacity="0.66" d="M222.203 130.121H216.235C215.569 130.123 214.931 130.389 214.461 130.86C213.991 131.332 213.727 131.971 213.727 132.637V137.52C213.727 138.186 213.991 138.824 214.461 139.296C214.931 139.767 215.569 140.033 216.235 140.035H222.203V130.121Z" fill="#FC9F21"/>
<path opacity="0.66" d="M248.957 130.121H226.402V140.028H248.957V130.121Z" fill="#FC9F21"/>
<path opacity="0.66" d="M275.887 130.121H274.873V140.035H275.866C276.533 140.035 277.173 139.77 277.645 139.298C278.117 138.827 278.382 138.187 278.382 137.52V132.637C278.382 131.973 278.12 131.336 277.653 130.865C277.185 130.394 276.551 130.127 275.887 130.121Z" fill="#FC9F21"/>
<path opacity="0.66" d="M273.125 130.121H251.557V140.028H273.125V130.121Z" fill="#FC9F21"/>
<path d="M283.004 116.303H223.788C221.543 116.303 219.722 118.123 219.722 120.368V124.815C219.722 127.06 221.543 128.88 223.788 128.88H283.004C285.25 128.88 287.07 127.06 287.07 124.815V120.368C287.07 118.123 285.25 116.303 283.004 116.303Z" fill="#FCCB21"/>
<g style="mix-blend-mode:soft-light" opacity="0.5">
<path d="M285.739 124.885V120.291C285.739 118.824 284.549 117.635 283.082 117.635H223.711C222.244 117.635 221.054 118.824 221.054 120.291V124.885C221.054 126.352 222.244 127.542 223.711 127.542H283.082C284.549 127.542 285.739 126.352 285.739 124.885Z" fill="#F9FBFC"/>
</g>
<path opacity="0.66" d="M229.538 117.643H223.57C222.905 117.644 222.268 117.909 221.798 118.379C221.328 118.849 221.064 119.486 221.062 120.151V125.062C221.062 125.728 221.326 126.367 221.796 126.838C222.266 127.31 222.904 127.576 223.57 127.578H229.538V117.643Z" fill="#FC9F21"/>
<path opacity="0.66" d="M256.285 117.635H233.73V127.542H256.285V117.635Z" fill="#FC9F21"/>
<path opacity="0.66" d="M283.223 117.643H282.229V127.55H283.223C283.89 127.55 284.53 127.285 285.002 126.813C285.473 126.341 285.738 125.701 285.738 125.034V120.13C285.731 119.468 285.463 118.835 284.992 118.369C284.521 117.904 283.885 117.643 283.223 117.643Z" fill="#FC9F21"/>
<path opacity="0.66" d="M280.461 117.635H258.892V127.542H280.461V117.635Z" fill="#FC9F21"/>
<path d="M288.339 103.818H229.122C226.877 103.818 225.056 105.639 225.056 107.884V112.33C225.056 114.576 226.877 116.396 229.122 116.396H288.339C290.584 116.396 292.404 114.576 292.404 112.33V107.884C292.404 105.639 290.584 103.818 288.339 103.818Z" fill="#FCCB21"/>
<g style="mix-blend-mode:soft-light" opacity="0.5">
<path d="M291.073 112.399V107.805C291.073 106.338 289.883 105.148 288.416 105.148H229.045C227.578 105.148 226.388 106.338 226.388 107.805V112.399C226.388 113.866 227.578 115.055 229.045 115.055H288.416C289.883 115.055 291.073 113.866 291.073 112.399Z" fill="#F9FBFC"/>
</g>
<path opacity="0.66" d="M234.871 105.156H228.903C228.237 105.158 227.599 105.424 227.129 105.896C226.659 106.367 226.395 107.006 226.395 107.672V112.555C226.397 113.219 226.661 113.856 227.132 114.326C227.602 114.796 228.239 115.061 228.903 115.063H234.871V105.156Z" fill="#FC9F21"/>
<path opacity="0.66" d="M261.626 105.156H239.071V115.063H261.626V105.156Z" fill="#FC9F21"/>
<path opacity="0.66" d="M288.557 105.156H287.556V115.063H288.55C289.215 115.063 289.854 114.799 290.326 114.329C290.797 113.859 291.063 113.221 291.065 112.555V107.672C291.065 107.006 290.801 106.367 290.331 105.896C289.861 105.424 289.223 105.158 288.557 105.156Z" fill="#FC9F21"/>
<path opacity="0.66" d="M285.795 105.156H264.226V115.063H285.795V105.156Z" fill="#FC9F21"/>
<path d="M282.335 91.3379H223.119C220.873 91.3379 219.053 93.1582 219.053 95.4036V99.8497C219.053 102.095 220.873 103.915 223.119 103.915H282.335C284.581 103.915 286.401 102.095 286.401 99.8497V95.4036C286.401 93.1582 284.581 91.3379 282.335 91.3379Z" fill="#FCCB21"/>
<g style="mix-blend-mode:soft-light" opacity="0.5">
<path d="M285.069 99.9146V95.3205C285.069 93.8534 283.88 92.6641 282.413 92.6641H223.041C221.574 92.6641 220.385 93.8534 220.385 95.3205V99.9146C220.385 101.382 221.574 102.571 223.041 102.571H282.413C283.88 102.571 285.069 101.382 285.069 99.9146Z" fill="#F9FBFC"/>
</g>
<path opacity="0.66" d="M228.868 92.6484H222.907C222.24 92.6484 221.6 92.9135 221.128 93.3852C220.657 93.857 220.391 94.4968 220.391 95.1639V100.047C220.393 100.714 220.659 101.352 221.13 101.824C221.602 102.295 222.24 102.561 222.907 102.562H228.868V92.6484Z" fill="#FC9F21"/>
<path opacity="0.66" d="M255.622 92.6699H233.067V102.577H255.622V92.6699Z" fill="#FC9F21"/>
<path opacity="0.66" d="M282.56 92.6484H281.567V102.584H282.56C283.226 102.58 283.863 102.313 284.332 101.842C284.802 101.371 285.067 100.733 285.069 100.068V95.1851C285.072 94.8536 285.009 94.5248 284.884 94.2176C284.759 93.9104 284.575 93.6309 284.342 93.3952C284.109 93.1594 283.831 92.9721 283.526 92.8439C283.22 92.7158 282.892 92.6494 282.56 92.6484Z" fill="#FC9F21"/>
<path opacity="0.66" d="M279.791 92.6699H258.223V102.577H279.791V92.6699Z" fill="#FC9F21"/>
<path d="M288.577 76.4808L229.551 81.2196C227.313 81.3993 225.644 83.3593 225.824 85.5975L226.179 90.0295C226.359 92.2677 228.319 93.9364 230.557 93.7567L289.584 89.0179C291.822 88.8382 293.491 86.8782 293.311 84.6399L292.955 80.208C292.776 77.9698 290.816 76.3011 288.577 76.4808Z" fill="#FCCB21"/>
<g style="mix-blend-mode:soft-light" opacity="0.5">
<path d="M291.999 84.8523L291.631 80.2729C291.514 78.8105 290.233 77.7202 288.77 77.8376L229.589 82.5888C228.127 82.7062 227.037 83.9869 227.154 85.4493L227.522 90.0287C227.639 91.4911 228.92 92.5814 230.382 92.464L289.563 87.7128C291.026 87.5954 292.116 86.3147 291.999 84.8523Z" fill="#F9FBFC"/>
</g>
<path opacity="0.66" d="M235.414 82.1152L229.467 82.5873C228.803 82.6413 228.188 82.9564 227.756 83.4637C227.324 83.971 227.111 84.6289 227.163 85.2931L227.558 90.162C227.584 90.4912 227.674 90.812 227.824 91.1061C227.974 91.4002 228.181 91.6618 228.432 91.8759C228.684 92.09 228.975 92.2523 229.289 92.3536C229.603 92.4549 229.934 92.4931 230.263 92.4661L236.203 91.987L235.414 82.1152Z" fill="#FC9F21"/>
<path opacity="0.66" d="M262.055 79.9489L239.572 81.7539L240.365 91.6291L262.847 89.8242L262.055 79.9489Z" fill="#FC9F21"/>
<path opacity="0.66" d="M288.895 77.8525L287.908 77.93L288.697 87.7948L289.67 87.7173C290.333 87.6615 290.948 87.3459 291.379 86.839C291.811 86.3322 292.025 85.6753 291.974 85.0115L291.579 80.1426C291.524 79.4842 291.21 78.8745 290.708 78.4457C290.205 78.0169 289.554 77.8038 288.895 77.8525Z" fill="#FC9F21"/>
<path opacity="0.66" d="M286.157 78.0123L264.658 79.7383L265.451 89.6135L286.95 87.8875L286.157 78.0123Z" fill="#FC9F21"/>
<path d="M316.973 154.082C321.122 136.828 310.498 119.478 293.244 115.33C275.991 111.181 258.641 121.805 254.492 139.058C250.344 156.312 260.968 173.662 278.221 177.811C295.475 181.959 312.825 171.335 316.973 154.082Z" fill="#FCCB21"/>
<path d="M284.977 172.053C299.037 172.053 310.435 160.655 310.435 146.595C310.435 132.535 299.037 121.137 284.977 121.137C270.917 121.137 259.519 132.535 259.519 146.595C259.519 160.655 270.917 172.053 284.977 172.053Z" fill="#FC9F21"/>
<g style="mix-blend-mode:multiply" opacity="0.08">
<path d="M284.977 121.137C284.491 121.137 284.005 121.137 283.526 121.179C290.013 121.553 296.112 124.394 300.572 129.119C305.033 133.845 307.517 140.097 307.517 146.595C307.517 153.093 305.033 159.345 300.572 164.07C296.112 168.795 290.013 171.636 283.526 172.01C284.005 172.01 284.491 172.053 284.977 172.053C291.729 172.053 298.205 169.371 302.979 164.596C307.753 159.822 310.435 153.347 310.435 146.595C310.435 139.843 307.753 133.368 302.979 128.593C298.205 123.819 291.729 121.137 284.977 121.137Z" fill="#A5681E"/>
</g>
<path d="M296.822 158.435C303.363 151.894 303.363 141.289 296.822 134.749C290.281 128.208 279.676 128.208 273.135 134.749C266.595 141.289 266.595 151.894 273.135 158.435C279.676 164.976 290.281 164.976 296.822 158.435Z" fill="#FCCB21"/>
<path d="M82.0113 150.598C82.0113 150.598 79.1153 141.374 76.6703 142.847C74.2252 144.319 82.0113 150.598 82.0113 150.598Z" fill="#FC9F21"/>
<path d="M90.7767 150.598C90.7767 150.598 93.6657 141.374 96.1178 142.847C98.5698 144.319 90.7767 150.598 90.7767 150.598Z" fill="#FC9F21"/>
<path d="M153.354 128.881C153.354 128.881 146.632 121.962 145.075 124.358C143.518 126.753 153.354 128.881 153.354 128.881Z" fill="#FC9F21"/>
<path d="M245.279 75.6754C245.279 75.6754 240.276 67.4032 238.233 69.3902C236.189 71.3772 245.279 75.6754 245.279 75.6754Z" fill="#FC9F21"/>
<path d="M158.477 126.773C158.477 126.773 161.366 117.55 163.818 119.023C166.27 120.495 158.477 126.773 158.477 126.773Z" fill="#FC9F21"/>
<path d="M250.824 76.0968C250.824 76.0968 254.608 67.1974 256.905 68.8744C259.202 70.5514 250.824 76.0968 250.824 76.0968Z" fill="#FC9F21"/>
<path d="M86.605 147.531C86.8984 139.957 89.4318 132.64 93.8847 126.505C98.3375 120.371 104.51 115.695 111.621 113.07C118.731 110.444 126.461 109.986 133.832 111.754C141.203 113.523 147.884 117.437 153.03 123.003" stroke="#FC9F21" stroke-miterlimit="10"/>
<path d="M248.401 73.4132C249.444 67.431 253.404 59.3208 260.337 51.9434" stroke="#FC9F21" stroke-miterlimit="10"/>
<path d="M153.163 122.947C148.928 110.614 149.259 97.1709 154.095 85.0609C158.931 72.9509 167.952 62.9781 179.518 56.9555C191.084 50.9328 204.427 49.26 217.122 52.2412C229.817 55.2224 241.02 62.6597 248.696 73.2011" stroke="#FC9F21" stroke-miterlimit="10"/>
<path d="M271.885 30.099C276.113 25.8713 277.804 20.6782 275.648 18.522C273.492 16.3659 268.299 18.0429 264.064 22.2847C259.04 27.3016 256.186 37.8428 256.186 37.8428C256.186 37.8428 267.016 34.9679 271.885 30.099Z" fill="#280DA7"/>
<path d="M286.492 44.7359C290.72 40.5082 292.418 35.3151 290.255 33.1589C288.092 31.0028 282.913 32.6798 278.678 36.9146C273.654 41.9174 270.793 52.4867 270.793 52.4867C270.793 52.4867 281.623 49.5837 286.492 44.7359Z" fill="#280DA7"/>
<path d="M281.215 38.9224C286.408 32.8697 288.113 25.8165 285.027 23.1741C281.941 20.5318 275.233 23.2939 270.047 29.3466C263.895 36.5197 261.176 50.7953 261.176 50.7953C261.176 50.7953 275.282 45.8841 281.215 38.9224Z" fill="#FFE10A"/>
<path d="M278.453 14.1823C269.786 22.8492 266.34 33.4537 270.758 37.8647C275.176 42.2756 285.774 38.8371 294.44 30.1772C304.707 19.9039 308.11 0.808594 308.11 0.808594C308.11 0.808594 288.409 4.22601 278.453 14.1823Z" fill="#6A4EEE"/>
<path d="M304.679 12.8717C306.144 8.94913 307.292 4.9151 308.11 0.808594C303.602 1.68186 299.174 2.92623 294.871 4.529C298.084 7.37567 301.353 10.1566 304.679 12.8717Z" fill="#280DA7"/>
<path d="M296.717 19.771C295.94 20.5493 294.949 21.0796 293.87 21.2947C292.792 21.5099 291.673 21.4003 290.657 20.9797C289.641 20.5592 288.772 19.8466 288.161 18.9322C287.55 18.0178 287.223 16.9426 287.223 15.8427C287.223 14.7428 287.55 13.6676 288.161 12.7532C288.772 11.8387 289.641 11.1262 290.657 10.7056C291.673 10.2851 292.792 10.1755 293.87 10.3906C294.949 10.6058 295.94 11.1361 296.717 11.9144C297.758 12.9568 298.342 14.3696 298.342 15.8427C298.342 17.3157 297.758 18.7286 296.717 19.771Z" fill="#F9FBFC"/>
<path d="M304.622 10.2857C304.622 10.4558 304.555 10.6189 304.435 10.7391C304.314 10.8594 304.151 10.9269 303.981 10.9269C303.811 10.9269 303.648 10.8594 303.528 10.7391C303.408 10.6189 303.34 10.4558 303.34 10.2857C303.34 10.1157 303.408 9.95259 303.528 9.83234C303.648 9.71209 303.811 9.64453 303.981 9.64453C304.151 9.64453 304.314 9.71209 304.435 9.83234C304.555 9.95259 304.622 10.1157 304.622 10.2857Z" fill="#F9FBFC"/>
<path d="M273.647 25.5051C274.001 25.5051 274.288 25.218 274.288 24.8639C274.288 24.5097 274.001 24.2227 273.647 24.2227C273.293 24.2227 273.006 24.5097 273.006 24.8639C273.006 25.218 273.293 25.5051 273.647 25.5051Z" fill="#2627A1"/>
<path d="M275.183 23.1867C275.537 23.1867 275.824 22.8996 275.824 22.5455C275.824 22.1914 275.537 21.9043 275.183 21.9043C274.829 21.9043 274.542 22.1914 274.542 22.5455C274.542 22.8996 274.829 23.1867 275.183 23.1867Z" fill="#2627A1"/>
</svg>
