<svg width="995" height="611" viewBox="0 0 995 611" fill="none" xmlns="http://www.w3.org/2000/svg">
<path d="M482.241 498C483.609 490.82 490.434 485 497.481 485C504.528 485 509.128 490.82 507.759 498C506.391 505.18 499.567 511 492.519 511C485.472 511 480.872 505.18 482.241 498Z" fill="#E1B1FD"/>
<path d="M913.583 609.164C913.583 609.164 1104.38 316.603 901.816 236.586C850.793 216.43 832.993 -65.7409 606.353 75.3443C516.221 131.451 386.438 63.5543 262.155 100.665C148.012 134.748 145.388 233.061 159.823 268.453C175.591 307.127 112.71 353.362 48.3051 385.12C-52.7159 434.932 21.569 609.991 117.004 610.829C212.439 611.666 913.583 609.16 913.583 609.16V609.164Z" fill="#EBF3FA"/>
<path d="M679.004 196.636C679.004 196.636 750.141 82.0312 788.08 95.0273C826.018 108.023 695.599 199 695.599 199L679 196.636H679.004Z" fill="#E1B1FD"/>
<path d="M739 192C739 192 788.383 139.665 811.902 151.836C835.417 164.006 797.792 187.134 739 192Z" fill="#E1B1FD"/>
<path d="M268.648 608.214L782 609C782 609 744.825 579.936 717.929 590.148C691.037 600.36 638.04 593.291 630.922 572.081C623.804 550.871 597.7 528.876 530.467 525.736C463.235 522.593 433.174 560.301 399.955 570.513C379.389 576.836 360.951 575.931 349.884 574.327C336.269 525.545 302.273 429.261 246.409 431.024C171.652 433.381 235.73 464.021 258.274 478.162C272.666 487.188 303.01 537.505 323.078 572.723C314.785 573.534 307.743 575.055 301.772 577.034C287.134 551.726 259.439 513.102 227.426 514.691C179.96 517.049 212 544.152 236.917 558.293C249.864 565.64 269.853 576.165 286.074 584.586C270.63 595.032 268.652 608.221 268.652 608.221L268.648 608.214Z" fill="#E1B1FD"/>
<path d="M936.912 610H19.0878C18.4895 610 18 609.55 18 609C18 608.45 18.4895 608 19.0878 608H936.912C937.51 608 938 608.45 938 609C938 609.55 937.51 610 936.912 610Z" fill="#C36BFD"/>
<path d="M611.071 241.281L597.652 240.973C601.963 246.561 602.932 251.711 600.246 256.065C597.561 260.511 591.138 264.161 581.543 266.934C588.805 247.617 592.455 227.241 592.455 206.343C592.455 182.933 587.879 160.228 578.814 138.886C570.102 118.249 557.604 99.6804 541.677 83.7934C525.746 67.8628 507.221 55.3687 486.584 46.6123C465.199 37.591 442.493 33.015 419.127 33.015C395.761 33.015 373.012 37.591 351.627 46.6123C349.076 47.7118 346.521 48.8549 344.057 50.0452L344.036 50.056C336.582 47.7808 329.321 45.9155 322.313 44.4967C286.947 37.3188 261.85 42.2794 251.656 58.4641C241.956 73.854 247.236 97.0241 266.487 124.044L266.48 124.059C263.885 128.856 261.552 133.784 259.397 138.886C257.767 142.715 256.316 146.543 254.995 150.459C218.826 152.614 199.463 158.979 192.423 170.508C184.24 183.928 195.416 201.941 231.19 219.454C236.118 221.874 241.398 224.251 246.942 226.628C248.789 242.864 252.97 258.664 259.397 273.799C268.109 294.437 280.607 313.005 296.534 328.936C312.465 344.82 330.99 357.317 351.627 366.074C373.012 375.095 395.718 379.671 419.127 379.671C442.537 379.671 465.199 375.095 486.584 366.074C507.221 357.317 525.746 344.82 541.677 328.936C557.165 313.448 569.441 295.406 578.11 275.429C595.754 271.778 607.373 266.056 611.993 258.489C615.204 253.253 614.809 247.443 611.068 241.285L611.071 241.281ZM569.662 269.663C557.912 271.775 543.259 273.005 526.145 273.183C499.586 273.506 469.078 271.408 436.934 267.173C439.637 261.284 442.29 255.234 444.878 249.044C454.853 252.382 464.535 255.024 473.767 256.896C484.345 259.045 493.997 260.104 502.612 260.104C522.807 260.104 537.279 254.273 544.424 242.929C545.6 241.06 546.558 239.079 547.298 236.985H537.003C536.832 237.297 536.651 237.609 536.462 237.91C531.153 246.336 519.291 250.687 502.638 250.684C494.672 250.684 485.604 249.689 475.636 247.665C466.948 245.901 457.84 243.426 448.445 240.309C450.923 234.107 453.333 227.786 455.662 221.37C461.937 204.068 467.311 186.914 471.655 170.443C491.461 173.364 512.719 174.83 535.308 174.83C549.37 174.83 563.954 174.264 579.018 173.128C581.253 183.971 582.385 195.068 582.385 206.339C582.385 228.297 578.118 249.595 569.67 269.659L569.662 269.663ZM355.176 355.59C350.168 353.775 347.628 346.587 346.376 340.879C344.399 331.857 344.043 319.185 345.342 304.231C345.999 296.668 347.059 288.627 348.481 280.219C369.006 285.688 389.327 292.724 409.119 301.201C404.663 308.887 400.152 316.014 395.645 322.477C387.059 334.786 378.658 344.282 371.361 349.94C366.741 353.521 360.184 357.408 355.176 355.59ZM413.651 293.156C392.938 284.229 371.64 276.851 350.129 271.158C350.887 267.253 351.718 263.283 352.622 259.251C358.602 260.612 364.669 261.93 370.809 263.196C388.783 266.872 406.713 269.993 424.266 272.518C420.789 279.711 417.24 286.606 413.648 293.156H413.651ZM374.772 256.682C367.826 255.252 360.982 253.761 354.258 252.212C357.426 239.035 361.313 225.3 365.856 211.304C389.462 225.815 413.466 237.62 436.197 245.995C433.345 252.803 430.417 259.44 427.426 265.867C410.16 263.392 392.499 260.318 374.776 256.686L374.772 256.682ZM317.117 78.8291C318.619 81.91 320.699 85.7312 323.5 90.0568C335.435 108.499 351.195 121.867 362.314 129.836C368.701 134.412 375.512 138.651 382.737 142.552C376.144 156.918 369.866 172.25 364.092 188.166C363.015 191.134 361.969 194.096 360.946 197.053C326.461 174.605 297.264 148.848 278.111 123.921L278.103 123.91C282.897 115.731 288.395 107.99 294.553 100.733C297.104 97.739 299.746 94.8359 302.518 92.02C302.914 91.6244 303.266 91.2724 303.661 90.8769C307.943 86.5948 312.436 82.5777 317.117 78.8291ZM464.575 53.9534C469.583 55.7678 472.123 62.9566 473.375 68.6647C475.353 77.686 475.708 90.3579 474.409 105.312C472.987 121.678 469.71 140.269 464.829 160.061C458.939 159.048 453.184 157.902 447.581 156.613C428.221 152.161 410.574 146.072 394.814 138.422C404.216 118.812 414.163 101.321 424.106 87.0666C432.692 74.7576 441.093 65.2609 448.39 59.6035C452.201 56.6533 457.324 53.4926 461.813 53.4926C462.768 53.4926 463.697 53.6341 464.571 53.9534H464.575ZM444.896 165.417C450.633 166.749 456.522 167.932 462.546 168.98C458.315 184.907 453.1 201.495 447.026 218.246C444.685 224.701 442.261 231.055 439.764 237.286C416.946 228.907 392.724 216.925 368.911 202.123C370.142 198.526 371.412 194.916 372.725 191.298C378.368 175.737 384.494 160.761 390.917 146.732C407.101 154.578 425.151 160.83 444.896 165.417ZM534.546 90.8769C549.551 105.882 561.345 123.351 569.572 142.802C572.507 149.751 574.942 156.853 576.873 164.078C539.238 166.829 504.753 165.965 473.926 161.505C478.818 141.517 482.113 122.716 483.557 106.107C485.15 87.767 484.958 66.0447 477.523 53.8192C479.246 54.4832 480.963 55.1727 482.668 55.8949C502.119 64.1251 519.588 75.8716 534.546 90.8769ZM419.127 43.0451C430.438 43.0451 441.561 44.1846 452.436 46.4417C439.612 52.0265 426.516 67.5652 416.576 81.812C406.405 96.3963 396.244 114.243 386.649 134.22C380.175 130.703 374.053 126.904 368.302 122.822C349.221 109.286 337.79 95.1081 331.56 85.6042C328.254 80.5564 326.022 76.2563 324.603 73.1718C331.302 68.4071 338.342 64.1541 345.705 60.4382H345.712C348.71 58.9286 351.769 57.5097 354.871 56.1815C355.096 56.0872 355.318 55.9856 355.543 55.8912C355.594 55.8695 355.648 55.8477 355.699 55.8259C356.359 55.5465 357.023 55.2743 357.691 55.0058C357.869 54.9368 358.05 54.8643 358.228 54.7917C377.544 47.0042 398.051 43.0415 419.127 43.0415V43.0451ZM259.618 63.4791C264.927 55.053 276.79 50.7056 293.442 50.7056C301.408 50.7056 310.476 51.6999 320.445 53.7248C324.229 54.4905 328.094 55.3941 332.024 56.4283H332.035C319.102 63.911 307.225 73.0593 296.534 83.7934C294.292 85.9925 292.132 88.2823 290.02 90.6591C287.382 93.5622 284.871 96.5996 282.451 99.6804C278.579 104.608 275.015 109.758 271.713 115.038L271.706 115.052C256.987 93.1993 252.563 74.6705 259.614 63.4828L259.618 63.4791ZM268.636 142.802C270.087 139.456 271.582 136.158 273.212 132.946V132.939C293.384 158.145 323.108 183.917 357.84 206.263C352.915 221.25 348.713 235.983 345.324 250.1C320.056 243.985 296.639 237.068 276.118 229.666C271.807 228.127 267.627 226.541 263.621 224.955C261.244 224.03 258.914 223.065 256.624 222.096C256.272 218.576 256.007 215.012 255.92 211.445C255.877 209.729 255.833 208.056 255.833 206.339C255.833 204.358 255.877 202.333 255.92 200.355C256.494 185.528 259.001 171.049 263.399 157.056C264.147 154.679 264.938 152.349 265.82 150.016C266.701 147.596 267.623 145.175 268.636 142.798V142.802ZM239.198 214.261C208.001 199.034 193.744 184.338 200.123 173.912C205.272 165.464 224.015 159.741 252.709 157.629C249.189 169.51 247.033 181.787 246.195 194.241C245.93 197.935 245.799 201.633 245.756 205.374V206.343C245.756 210.084 245.886 213.822 246.108 217.52C243.731 216.464 241.445 215.364 239.198 214.265V214.261ZM262.873 232.964C267.097 234.55 271.408 236.132 275.853 237.674C296.284 244.754 319.185 251.333 343.684 257.172C342.795 261.142 341.974 265.054 341.22 268.904C339.217 268.418 337.213 267.943 335.21 267.485C301.342 259.778 275.93 258.21 264.147 257.941C261.229 249.152 259.085 240.16 257.724 230.983C259.44 231.643 261.157 232.304 262.873 232.964ZM268.636 269.884C268.262 268.999 267.899 268.109 267.543 267.217C281.87 267.801 305.679 270.156 333.516 276.517C335.53 276.978 337.544 277.457 339.554 277.947C338.023 286.878 336.894 295.416 336.194 303.436C334.873 318.637 334.778 336.161 339.017 348.673C326.113 341.408 314.279 332.423 303.661 321.805C288.656 306.8 276.862 289.331 268.636 269.88V269.884ZM482.665 356.791C462.51 365.326 441.169 369.641 419.124 369.641C402.141 369.641 385.55 367.079 369.612 362.002C381.692 355.67 393.827 341.133 403.171 327.735C407.99 320.826 412.809 313.18 417.563 304.924C444.983 317.342 471.35 332.598 496.117 350.368C491.748 352.705 487.262 354.85 482.661 356.795L482.665 356.791ZM534.543 321.809C525.518 330.859 515.578 338.723 504.844 345.349C478.829 326.334 451.032 310.059 422.074 296.886C426.055 289.592 429.977 281.885 433.81 273.843C460.318 277.356 485.8 279.464 509.064 280.008C515.135 280.183 521.032 280.183 526.755 280.139C541.582 279.961 554.784 279.083 566.095 277.497C558.174 293.911 547.57 308.781 534.546 321.809H534.543Z" fill="#BC58FE"/>
<path d="M381.567 22.6984L340.558 29.6621L367.382 10.3168L368.928 16.2499L378.987 17.7958L381.567 22.6984Z" fill="#E118FD"/>
<path d="M340.558 29.6623L374.346 11.0899L407.873 8.50977L340.558 29.6623Z" fill="#8F52FD"/>
<path d="M367.382 10.3168L340.558 29.6621L360.934 0L367.382 10.3168Z" fill="#8F52FD"/>
<path d="M201.491 122.742L240.305 137.693L217.846 113.416L215.157 118.924L204.989 118.449L201.491 122.742Z" fill="#E118FD"/>
<path d="M240.308 137.693L210.87 112.795L178.516 103.625L240.308 137.693Z" fill="#8F52FD"/>
<path d="M217.853 113.416L240.312 137.693L226.218 104.583L217.853 113.416Z" fill="#8F52FD"/>
<path d="M953.684 251.722H860.513C858.332 251.722 856.547 253.507 856.547 255.688V295.997C856.547 298.178 858.332 299.963 860.513 299.963H865.8V310.534L882.279 299.963H953.684C955.865 299.963 957.65 298.178 957.65 295.997V255.688C957.65 253.507 955.865 251.722 953.684 251.722Z" fill="#E1B1FD"/>
<path d="M944.428 267.91H869.761C868.306 267.91 867.12 266.72 867.12 265.268C867.12 263.813 868.31 262.626 869.761 262.626H944.428C945.884 262.626 947.07 263.817 947.07 265.268C947.07 266.723 945.88 267.91 944.428 267.91Z" fill="white"/>
<path d="M944.429 277.49H869.761C868.306 277.49 867.12 276.3 867.12 274.848C867.12 273.393 868.31 272.207 869.761 272.207H944.429C945.884 272.207 947.07 273.397 947.07 274.848C947.07 276.304 945.88 277.49 944.429 277.49Z" fill="white"/>
<path d="M944.429 287.074H869.761C868.306 287.074 867.12 285.884 867.12 284.432C867.12 282.977 868.31 281.79 869.761 281.79H944.429C945.884 281.79 947.07 282.981 947.07 284.432C947.07 285.887 945.88 287.074 944.429 287.074Z" fill="white"/>
<path d="M41.9507 133.088H135.121C137.302 133.088 139.088 134.873 139.088 137.054V177.363C139.088 179.544 137.302 181.329 135.121 181.329H129.834V191.9L113.352 181.329H41.9507C39.7698 181.329 37.9844 179.544 37.9844 177.363V137.054C37.9844 134.873 39.7698 133.088 41.9507 133.088Z" fill="#E1B1FD"/>
<path d="M51.1994 149.276H125.866C127.322 149.276 128.508 148.086 128.508 146.634C128.508 145.179 127.318 143.992 125.866 143.992H51.1994C49.7443 143.992 48.5576 145.183 48.5576 146.634C48.5576 148.089 49.7479 149.276 51.1994 149.276Z" fill="white"/>
<path d="M51.1994 158.86H125.866C127.322 158.86 128.508 157.67 128.508 156.218C128.508 154.763 127.318 153.576 125.866 153.576H51.1994C49.7443 153.576 48.5576 154.766 48.5576 156.218C48.5576 157.673 49.7479 158.86 51.1994 158.86Z" fill="white"/>
<path d="M51.1994 168.44H125.866C127.322 168.44 128.508 167.249 128.508 165.798C128.508 164.343 127.318 163.156 125.866 163.156H51.1994C49.7443 163.156 48.5576 164.346 48.5576 165.798C48.5576 167.253 49.7479 168.44 51.1994 168.44Z" fill="white"/>
<path d="M583.347 323.163L605.954 591.991C605.954 591.991 608.324 608.288 596.2 608.317C576.27 608.364 497.002 608.317 497.002 608.317C497.002 608.317 512 604.924 511.819 597.293C511.605 588.297 485.393 320.619 485.393 320.619L583.343 323.163H583.347Z" fill="#5100CC"/>
<path d="M589.617 603.44C570.206 603.69 494.498 603.451 490.575 603.44C492.048 603.44 503.436 603.16 505.047 594.589C505.174 593.918 505.239 593.192 505.235 592.415C505.228 590.739 504.306 580.103 502.811 563.896C501.476 549.363 499.676 530.351 497.658 509.308C489.849 427.764 478.81 315.745 478.81 315.745L576.76 318.289L592.825 509.308L595.96 546.59L598.78 580.132L599.368 587.117C599.368 587.117 602.133 603.28 589.613 603.44H589.617Z" fill="#8F52FD"/>
<path d="M821.223 176.877L766.151 398.087L758.61 428.385L732.962 531.418H256.43L350.968 176.877H821.223Z" fill="#8F52FD"/>
<path d="M821.225 176.877L828.856 179.421L743.11 539.115L732.961 531.422L821.225 176.877Z" fill="#5100CC"/>
<path d="M743.108 539.115H269.508L256.43 531.422H732.958L743.108 539.115Z" fill="#5100CC"/>
<path d="M576.788 603.545H474.248V608.419H576.788V603.545Z" fill="#5100CC"/>
<path d="M596.602 538.959L595.959 546.587L595.934 546.866C595.934 546.866 529.323 553.253 502.807 563.893C502.139 556.606 501.352 548.191 500.477 538.959H596.595H596.602Z" fill="#7631E9"/>
<path opacity="0.4" d="M589.615 603.44C570.204 603.69 494.496 603.451 490.573 603.44C492.047 603.44 503.434 603.16 505.045 594.589C512.843 594.992 556.197 596.374 598.778 580.128L599.366 587.114C599.366 587.114 602.131 603.277 589.612 603.436L589.615 603.44Z" fill="#5100CC"/>
<path opacity="0.4" d="M749.674 461.817L732.346 531.418H571.908C639.745 509.867 671.857 478.339 684.797 461.817H749.674Z" fill="#7631E9"/>
<path d="M350.973 176.873L274.88 461.817H274.673L350.305 176.873H350.973Z" fill="#9ED9F0"/>
<path d="M817.628 181.562L749.667 461.817H280.676L356.834 181.562H817.628Z" fill="#F8EEFE"/>
<path d="M360.719 441.086H535.502L594.082 206.133H419.299L360.719 441.086Z" fill="white"/>
<g opacity="0.5">
<path d="M422.403 314.425H538.188C539.622 314.425 541.091 313.249 541.447 311.815L541.69 310.836C542.049 309.399 541.168 308.227 539.731 308.227H423.949C422.512 308.227 421.046 309.402 420.69 310.836L420.447 311.815C420.088 313.253 420.97 314.425 422.407 314.425H422.403Z" fill="#E1B1FD"/>
<path d="M432.704 273.11H548.485C549.923 273.11 551.389 271.935 551.744 270.501L551.987 269.521C552.347 268.088 551.465 266.912 550.028 266.912H434.242C432.809 266.912 431.339 268.088 430.984 269.521L430.741 270.501C430.381 271.935 431.263 273.11 432.7 273.11H432.704Z" fill="#E1B1FD"/>
<path d="M429.122 287.462H544.907C546.344 287.462 547.81 286.287 548.166 284.853L548.409 283.873C548.768 282.436 547.887 281.264 546.45 281.264H430.664C429.231 281.264 427.761 282.44 427.406 283.873L427.162 284.853C426.803 286.29 427.685 287.462 429.122 287.462Z" fill="#E1B1FD"/>
<path d="M425.764 300.943H541.55C542.983 300.943 544.453 299.768 544.808 298.334L545.051 297.354C545.411 295.917 544.529 294.745 543.092 294.745H427.307C425.869 294.745 424.403 295.921 424.048 297.354L423.805 298.334C423.445 299.768 424.327 300.943 425.764 300.943Z" fill="#E1B1FD"/>
<path d="M415.552 341.898H531.333C532.77 341.898 534.236 340.723 534.592 339.289L534.835 338.309C535.194 336.872 534.313 335.7 532.876 335.7H417.094C415.66 335.7 414.191 336.876 413.835 338.309L413.592 339.289C413.233 340.726 414.114 341.898 415.552 341.898Z" fill="#E1B1FD"/>
<path d="M418.917 328.418H534.702C536.135 328.418 537.605 327.242 537.961 325.808L538.204 324.829C538.563 323.392 537.681 322.219 536.244 322.219H420.459C419.025 322.219 417.556 323.395 417.2 324.829L416.957 325.808C416.598 327.245 417.48 328.418 418.917 328.418Z" fill="#E1B1FD"/>
<path d="M432.406 273.425H548.192C549.625 273.425 551.095 272.249 551.451 270.815L551.694 269.836C552.053 268.399 551.171 267.226 549.734 267.226H433.952C432.515 267.226 431.049 268.402 430.694 269.836L430.45 270.815C430.091 272.252 430.973 273.425 432.41 273.425H432.406Z" fill="#E1B1FD"/>
<path d="M442.707 232.11H558.489C559.926 232.11 561.392 230.934 561.748 229.501L561.991 228.521C562.35 227.088 561.468 225.912 560.031 225.912H444.246C442.813 225.912 441.343 227.088 440.987 228.521L440.744 229.501C440.385 230.934 441.267 232.11 442.704 232.11H442.707Z" fill="#E1B1FD"/>
<path d="M439.125 246.462H554.911C556.348 246.462 557.814 245.286 558.17 243.853L558.413 242.873C558.772 241.436 557.89 240.264 556.453 240.264H440.668C439.234 240.264 437.765 241.44 437.409 242.873L437.166 243.853C436.807 245.29 437.688 246.462 439.125 246.462Z" fill="#E1B1FD"/>
<path d="M435.768 259.943H551.553C552.987 259.943 554.456 258.768 554.812 257.334L555.055 256.354C555.414 254.917 554.532 253.745 553.095 253.745H437.31C435.873 253.745 434.407 254.921 434.051 256.354L433.808 257.334C433.449 258.768 434.331 259.943 435.768 259.943Z" fill="#E1B1FD"/>
<path d="M425.555 300.898H541.337C542.774 300.898 544.24 299.722 544.596 298.289L544.839 297.309C545.198 295.872 544.316 294.7 542.879 294.7H427.097C425.664 294.7 424.194 295.876 423.839 297.309L423.595 298.289C423.236 299.726 424.118 300.898 425.555 300.898Z" fill="#E1B1FD"/>
<path d="M428.92 287.417H544.705C546.139 287.417 547.609 286.242 547.964 284.808L548.207 283.828C548.567 282.391 547.685 281.219 546.248 281.219H430.462C429.029 281.219 427.559 282.395 427.204 283.828L426.961 284.808C426.601 286.245 427.483 287.417 428.92 287.417Z" fill="#E1B1FD"/>
<path d="M405.475 384.265H433.595C435.3 384.265 437.042 382.872 437.467 381.166C437.891 379.461 436.846 378.067 435.141 378.067H407.021C405.315 378.067 403.573 379.461 403.149 381.166C402.724 382.872 403.769 384.265 405.475 384.265Z" fill="#E1B1FD"/>
<path d="M491.629 384.265H519.753C521.458 384.265 523.2 382.872 523.625 381.166C524.049 379.461 523.004 378.067 521.299 378.067H493.175C491.47 378.067 489.728 379.461 489.303 381.166C488.879 382.872 489.924 384.265 491.629 384.265Z" fill="#E1B1FD"/>
</g>
<path d="M429.668 417.615H388.659C387.578 417.615 386.656 417.194 386.061 416.432C385.44 415.637 385.251 414.581 385.534 413.456L388.492 401.597C389.051 399.347 391.341 397.518 393.591 397.518H434.6C435.681 397.518 436.603 397.939 437.198 398.701C437.819 399.496 438.008 400.552 437.724 401.677L434.767 413.536C434.208 415.786 431.918 417.615 429.668 417.615ZM393.587 397.852C391.479 397.852 389.334 399.568 388.808 401.68L385.85 413.539C385.596 414.563 385.759 415.521 386.318 416.232C386.852 416.914 387.683 417.288 388.659 417.288H429.668C431.777 417.288 433.921 415.572 434.448 413.46L437.405 401.601C437.659 400.577 437.496 399.619 436.937 398.908C436.404 398.226 435.573 397.852 434.596 397.852H393.587Z" fill="#476BA7"/>
<path d="M515.962 417.615H474.953C473.871 417.615 472.95 417.194 472.355 416.432C471.734 415.637 471.545 414.581 471.828 413.456L474.786 401.597C475.345 399.347 477.635 397.518 479.884 397.518H520.894C521.975 397.518 522.897 397.939 523.492 398.701C524.113 399.496 524.301 400.552 524.018 401.677L521.061 413.536C520.502 415.786 518.212 417.615 515.962 417.615ZM479.881 397.852C477.772 397.852 475.628 399.568 475.102 401.68L472.144 413.539C471.89 414.563 472.053 415.521 472.612 416.232C473.146 416.914 473.977 417.288 474.953 417.288H515.962C518.071 417.288 520.215 415.572 520.742 413.46L523.699 401.601C523.953 400.577 523.79 399.619 523.231 398.908C522.701 398.226 521.87 397.852 520.89 397.852H479.881Z" fill="#476BA7"/>
<path d="M524.841 395.95C518.61 398.523 512.423 401.339 506.294 404.387C506.537 403.701 506.755 403.012 506.947 402.323C507.103 401.771 506.356 401.401 505.895 402.01C505.692 402.279 505.474 402.537 505.245 402.783C505.401 402.29 504.817 402.014 504.316 402.373C504.284 402.399 504.255 402.424 504.222 402.45C504.465 401.785 503.431 401.684 503.043 402.33L502.466 403.291C501.979 403.872 501.304 404.315 500.608 404.533C500.462 404.217 500.368 403.872 500.335 403.498C500.31 403.215 500.107 403.063 499.856 403.059C499.846 402.722 499.541 402.522 499.091 402.722C498.543 402.965 498.064 403.331 497.679 403.763C497.371 403.19 496.387 403.6 495.857 404.151C495.872 404.119 495.886 404.09 495.901 404.057C496.151 403.524 495.687 402.918 495.063 403.455C493.952 404.413 493.147 405.614 492.769 406.815C492.403 407.221 492.015 407.613 491.597 407.973C491.394 408.147 490.443 409.029 490.225 408.952C490.019 408.88 490.128 408.332 490.222 407.947C490.255 407.9 490.291 407.853 490.323 407.806C491.115 406.706 494.925 401.528 492.24 401.575C491.956 401.579 491.666 401.767 491.492 402.029C490.512 403.538 489.754 405.131 489.293 406.717C489.206 407.022 489.082 407.414 488.981 407.827C488.905 407.933 488.825 408.038 488.745 408.14C487.678 409.537 486.205 411.554 484.477 412.244C484.318 410.056 485.421 407.465 486.259 405.168C486.618 404.177 486.996 403.186 487.384 402.199C487.5 402.177 487.624 402.116 487.754 402.007C489.619 400.436 490.382 398.106 489.54 396.538C489.296 396.088 488.553 396.498 488.339 396.977C487.054 399.862 485.882 402.758 484.844 405.661C483.922 408.234 482.873 410.956 483.258 413.329C483.298 413.579 483.592 413.674 483.864 413.612C485.835 413.184 487.551 411.427 488.934 409.682C489.035 409.907 489.206 410.077 489.474 410.157C490.392 410.429 491.644 409.41 492.544 408.557C492.562 408.854 492.617 409.145 492.704 409.424C492.802 409.725 493.114 409.794 493.481 409.646C494.333 409.304 495.128 408.756 495.799 408.096C496.692 407.82 497.469 407.087 498.122 406.234C498.532 405.875 498.913 405.494 499.265 405.095C499.341 405.316 499.443 405.516 499.584 405.679C499.918 406.064 500.764 405.715 501.304 405.469C501.823 405.233 502.299 404.914 502.723 404.536C503.053 404.511 503.384 404.416 503.699 404.271C503.757 404.366 503.834 404.449 503.932 404.514C504.269 404.739 504.665 404.649 505.057 404.409C504.969 404.66 504.879 404.91 504.781 405.16C503.888 405.61 502.995 406.068 502.103 406.528C501.515 406.833 501.377 407.733 502.037 407.682C502.857 407.621 503.674 407.559 504.494 407.494C504.868 407.465 505.158 407.229 505.318 406.873C505.463 406.546 505.601 406.216 505.735 405.89C512.14 402.682 518.61 399.724 525.124 397.032C525.955 396.687 525.679 395.62 524.848 395.961L524.841 395.95ZM496.3 405.374C496.246 405.545 496.177 405.719 496.097 405.886C496.043 406.002 495.981 406.115 495.916 406.227C496.01 405.94 496.137 405.65 496.3 405.371V405.374ZM494.497 406.909C494.428 407.254 494.348 407.595 494.475 407.842C494.279 407.991 494.072 408.129 493.862 408.248C493.822 407.882 493.847 407.494 493.931 407.102C494.214 406.768 494.482 406.419 494.729 406.067C494.627 406.358 494.547 406.644 494.497 406.909Z" fill="#365DA2"/>
<path d="M410.221 392.133C408.015 396.23 406.781 400.439 404.988 404.583C404.114 406.604 403.09 408.622 401.751 410.531C400.822 411.859 398.794 414.748 397.077 414.123C396.649 413.967 396.53 413.601 396.671 413.1C396.7 412.991 396.74 412.875 396.78 412.763C396.998 412.893 397.332 412.839 397.673 412.657C398.228 412.36 398.696 411.772 398.939 411.246C399.197 410.687 399.157 410.106 398.707 409.859C398.311 409.642 397.723 409.834 397.306 410.251C396.845 410.712 396.635 411.304 396.41 411.837C396.134 412.49 395.764 413.198 395.804 413.829C395.865 414.777 396.889 415.11 397.887 414.893C399.099 414.628 400.177 413.568 400.989 412.603C401.951 411.463 402.797 410.251 403.533 409.018C405.028 406.503 406.088 403.886 407.082 401.295C408.236 398.298 409.31 395.279 410.896 392.332C411.154 391.85 410.482 391.646 410.225 392.129L410.221 392.133ZM398.282 410.741C398.358 411.032 398.075 411.413 397.847 411.678C397.763 411.776 397.691 411.859 397.586 411.935C397.527 411.979 397.466 412.019 397.4 412.044C397.375 412.048 397.357 412.051 397.342 412.059C397.295 411.968 397.208 411.932 397.11 411.928C397.208 411.71 397.306 411.496 397.404 411.293C397.549 410.988 398.126 410.132 398.282 410.738V410.741Z" fill="#365DA2"/>
<path d="M424.989 404.935C424.539 405.171 424.056 405.443 423.588 405.516C423.475 405.534 423.348 405.541 423.229 405.527C423.559 405.193 423.867 404.805 423.922 404.442C424.005 403.847 423.348 403.712 422.797 404.017C422.3 404.289 421.984 404.841 421.948 405.298C421.937 405.458 421.962 405.599 422.017 405.719C421.538 406.064 420.717 406.535 420.209 406.445C420.852 406.002 421.429 405.44 421.871 404.801C421.955 404.681 421.962 404.514 421.897 404.427C421.617 404.061 421.051 404.035 420.496 404.318C419.901 404.623 419.527 405.218 419.295 405.766C419.219 405.951 419.164 406.129 419.143 406.296C418.555 406.565 417.938 406.71 417.364 406.699V406.688C417.549 406.514 417.735 406.34 417.912 406.162C418.181 405.893 418.021 405.617 417.771 405.585C417.208 405.509 416.791 405.991 416.628 406.477C415.757 407.25 414.806 407.943 413.812 408.517C413.561 408.662 413.224 408.952 413.057 408.767C413.467 408.466 413.852 408.125 414.2 407.758C414.879 407.044 415.546 405.77 414.748 405.327C414.606 405.247 414.331 405.262 414.178 405.465C413.826 405.933 413.474 406.401 413.122 406.869C412.814 407.276 412.495 407.682 412.309 408.129C412.251 408.27 412.211 408.422 412.193 408.568C411.834 408.793 411.457 408.985 411.076 409.145C411.047 409.159 411.014 409.17 410.981 409.185C411.188 409.018 411.395 408.854 411.602 408.684C412.182 408.208 412.712 407.653 412.745 406.993C412.774 406.376 412.378 405.944 412.008 405.577C411.907 405.479 411.671 405.527 411.526 405.639C410.401 406.496 409.479 407.646 409.022 408.854C408.877 409.239 408.822 409.638 408.985 409.907C407.984 410.672 406.968 411.42 405.941 412.149C405.832 412.226 405.567 412.469 405.462 412.432C405.364 412.4 405.404 412.167 405.404 412.059C405.404 411.776 405.418 411.489 405.451 411.199C405.523 410.567 405.687 409.918 405.919 409.272C406.122 408.709 406.387 408.15 406.699 407.606C406.819 407.657 406.979 407.65 407.127 407.526C407.897 406.898 408.285 406.075 408.209 405.302C408.183 405.033 407.748 405.073 407.548 405.302C405.636 407.472 404.5 410.164 404.602 412.501C404.624 413.017 404.859 413.452 405.549 413.162C405.865 413.031 406.159 412.792 406.445 412.588C406.819 412.32 407.193 412.051 407.567 411.779C408.267 411.267 408.964 410.749 409.653 410.222C410.041 410.233 410.488 410.092 410.887 409.947C411.37 409.769 411.849 409.54 412.309 409.264C412.444 409.504 412.687 409.656 413.057 409.62C413.431 409.584 413.953 409.203 414.305 408.989C414.723 408.738 415.133 408.473 415.532 408.187C415.92 407.911 416.294 407.617 416.66 407.308C416.744 407.425 416.889 407.461 417.143 407.468C417.481 407.479 417.84 407.435 418.195 407.356C418.58 407.269 418.961 407.131 419.331 406.956C419.382 407.004 419.444 407.051 419.516 407.083C419.937 407.287 420.518 407.192 421.055 406.989C421.556 406.797 422.053 406.517 422.503 406.176C422.63 406.234 422.775 406.271 422.927 406.289C423.646 406.369 424.437 405.984 425.17 405.599C425.671 405.334 425.504 404.67 424.999 404.939L424.989 404.935ZM409.983 408.412C410.364 407.671 410.912 406.996 411.58 406.43C411.863 406.746 412.121 407.174 411.736 407.679C411.522 407.958 411.184 408.19 410.909 408.408C410.593 408.658 410.277 408.909 409.958 409.159C409.874 409.224 409.791 409.286 409.708 409.351C409.599 409.134 409.864 408.647 409.987 408.412H409.983ZM414.291 406.39C414.204 406.782 413.728 407.312 413.467 407.57C413.416 407.621 413.365 407.668 413.311 407.715C413.598 407.265 413.95 406.822 414.291 406.387V406.39ZM420.993 404.87C420.71 405.218 420.376 405.527 420.017 405.788C420.217 405.349 420.685 404.844 420.993 404.87ZM422.833 404.848C422.88 404.772 423.098 404.525 423.062 404.692C423.044 404.779 422.877 404.95 422.75 405.077C422.757 405 422.786 404.921 422.833 404.848Z" fill="#365DA2"/>
<path d="M605.898 318.631H689.583L717.634 206.133H633.946L605.898 318.631Z" fill="white"/>
<g opacity="0.5">
<path d="M639.029 237.972H694.467C695.153 237.972 695.857 237.41 696.027 236.724L696.143 236.256C696.314 235.57 695.893 235.007 695.203 235.007H639.766C639.08 235.007 638.376 235.57 638.205 236.256L638.089 236.724C637.919 237.41 638.34 237.972 639.025 237.972H639.029Z" fill="#E1B1FD"/>
<path d="M643.963 218.188H699.401C700.086 218.188 700.79 217.625 700.961 216.939L701.077 216.471C701.248 215.785 700.827 215.223 700.141 215.223H644.703C644.017 215.223 643.313 215.785 643.143 216.471L643.027 216.939C642.856 217.625 643.277 218.188 643.963 218.188Z" fill="#E1B1FD"/>
<path d="M642.243 225.061H697.681C698.367 225.061 699.071 224.498 699.242 223.812L699.358 223.344C699.528 222.658 699.107 222.096 698.422 222.096H642.984C642.298 222.096 641.594 222.658 641.423 223.344L641.307 223.812C641.137 224.498 641.558 225.061 642.243 225.061Z" fill="#E1B1FD"/>
<path d="M640.634 231.517H696.072C696.758 231.517 697.462 230.954 697.633 230.268L697.749 229.8C697.919 229.114 697.498 228.552 696.812 228.552H641.375C640.689 228.552 639.985 229.114 639.814 229.8L639.698 230.268C639.528 230.954 639.949 231.517 640.634 231.517Z" fill="#E1B1FD"/>
<path d="M635.748 251.127H691.186C691.872 251.127 692.576 250.564 692.747 249.878L692.863 249.41C693.033 248.724 692.612 248.162 691.927 248.162H636.489C635.803 248.162 635.099 248.724 634.928 249.41L634.812 249.878C634.642 250.564 635.063 251.127 635.748 251.127Z" fill="#E1B1FD"/>
<path d="M637.358 244.671H692.795C693.481 244.671 694.185 244.109 694.356 243.423L694.472 242.955C694.642 242.269 694.221 241.706 693.536 241.706H638.098C637.412 241.706 636.708 242.269 636.537 242.955L636.421 243.423C636.251 244.109 636.672 244.671 637.361 244.671H637.358Z" fill="#E1B1FD"/>
<path d="M627.326 291.425H640.793C641.609 291.425 642.444 290.757 642.647 289.941C642.85 289.124 642.349 288.457 641.533 288.457H628.07C627.253 288.457 626.419 289.124 626.216 289.941C626.012 290.757 626.513 291.425 627.33 291.425H627.326Z" fill="#E1B1FD"/>
<path d="M668.57 291.425H682.033C682.849 291.425 683.684 290.757 683.887 289.941C684.09 289.124 683.59 288.457 682.773 288.457H669.31C668.494 288.457 667.659 289.124 667.456 289.941C667.253 290.757 667.753 291.425 668.57 291.425Z" fill="#E1B1FD"/>
</g>
<path d="M638.91 307.392H619.275C618.756 307.392 618.317 307.192 618.03 306.826C617.732 306.445 617.642 305.94 617.776 305.4L619.191 299.721C619.46 298.643 620.556 297.768 621.633 297.768H641.269C641.788 297.768 642.227 297.968 642.514 298.334C642.811 298.715 642.902 299.22 642.768 299.76L641.353 305.44C641.084 306.517 639.988 307.392 638.91 307.392ZM621.633 297.928C620.625 297.928 619.598 298.752 619.344 299.76L617.928 305.44C617.805 305.929 617.885 306.387 618.153 306.728C618.407 307.054 618.807 307.232 619.275 307.232H638.91C639.919 307.232 640.946 306.408 641.2 305.4L642.615 299.721C642.739 299.231 642.659 298.773 642.39 298.432C642.136 298.106 641.737 297.928 641.269 297.928H621.633Z" fill="#476BA7"/>
<path d="M680.231 307.392H660.596C660.077 307.392 659.638 307.192 659.351 306.826C659.054 306.445 658.963 305.94 659.097 305.4L660.512 299.721C660.781 298.643 661.877 297.768 662.955 297.768H682.59C683.109 297.768 683.548 297.968 683.835 298.334C684.132 298.715 684.223 299.22 684.089 299.76L682.674 305.44C682.405 306.517 681.309 307.392 680.231 307.392ZM662.955 297.928C661.946 297.928 660.919 298.752 660.665 299.76L659.249 305.44C659.126 305.929 659.206 306.387 659.474 306.728C659.728 307.054 660.128 307.232 660.596 307.232H680.231C681.24 307.232 682.267 306.408 682.521 305.4L683.936 299.721C684.06 299.231 683.98 298.773 683.712 298.432C683.457 298.106 683.058 297.928 682.59 297.928H662.955Z" fill="#476BA7"/>
<path d="M684.48 297.017C681.497 298.251 678.532 299.597 675.6 301.056C675.716 300.726 675.821 300.399 675.912 300.069C675.988 299.804 675.629 299.626 675.408 299.92C675.31 300.051 675.208 300.17 675.095 300.29C675.168 300.054 674.889 299.92 674.649 300.094C674.635 300.105 674.62 300.12 674.606 300.13C674.722 299.811 674.225 299.764 674.043 300.072L673.767 300.533C673.535 300.813 673.212 301.023 672.878 301.128C672.809 300.976 672.762 300.813 672.748 300.635C672.737 300.501 672.639 300.424 672.519 300.424C672.515 300.261 672.367 300.167 672.152 300.261C671.891 300.377 671.663 300.555 671.478 300.758C671.329 300.482 670.857 300.682 670.607 300.943C670.614 300.929 670.621 300.914 670.628 300.9C670.748 300.646 670.527 300.355 670.226 300.609C669.692 301.067 669.307 301.644 669.126 302.217C668.952 302.413 668.763 302.598 668.564 302.772C668.466 302.856 668.012 303.277 667.907 303.24C667.809 303.204 667.86 302.943 667.907 302.761C667.921 302.74 667.939 302.714 667.954 302.692C668.331 302.166 670.157 299.688 668.872 299.71C668.734 299.71 668.596 299.8 668.513 299.927C668.045 300.649 667.682 301.411 667.46 302.174C667.417 302.319 667.359 302.507 667.312 302.703C667.275 302.754 667.235 302.805 667.199 302.852C666.687 303.52 665.983 304.485 665.156 304.815C665.08 303.767 665.61 302.526 666.009 301.426C666.183 300.951 666.361 300.479 666.55 300.003C666.604 299.993 666.666 299.964 666.727 299.913C667.62 299.162 667.987 298.044 667.58 297.296C667.464 297.079 667.108 297.278 667.003 297.507C666.386 298.886 665.827 300.276 665.33 301.665C664.888 302.899 664.387 304.198 664.572 305.338C664.59 305.458 664.731 305.501 664.862 305.476C665.806 305.269 666.629 304.431 667.29 303.592C667.337 303.701 667.42 303.781 667.547 303.821C667.987 303.952 668.585 303.462 669.017 303.055C669.028 303.197 669.05 303.338 669.093 303.469C669.141 303.614 669.289 303.647 669.463 303.574C669.87 303.411 670.251 303.15 670.574 302.83C671.002 302.7 671.372 302.348 671.684 301.938C671.88 301.767 672.062 301.582 672.232 301.39C672.269 301.495 672.319 301.593 672.385 301.669C672.544 301.854 672.951 301.687 673.208 301.567C673.459 301.455 673.684 301.303 673.887 301.121C674.047 301.11 674.203 301.063 674.355 300.994C674.384 301.038 674.42 301.078 674.464 301.11C674.627 301.219 674.816 301.176 675.005 301.059C674.961 301.179 674.918 301.299 674.874 301.419C674.446 301.633 674.018 301.854 673.593 302.072C673.31 302.217 673.245 302.649 673.56 302.623C673.952 302.594 674.344 302.565 674.736 302.533C674.914 302.518 675.056 302.406 675.132 302.235C675.201 302.079 675.266 301.919 675.331 301.763C678.398 300.228 681.497 298.81 684.614 297.521C685.013 297.358 684.879 296.846 684.483 297.01L684.48 297.017ZM670.813 301.531C670.788 301.615 670.755 301.698 670.715 301.778C670.69 301.832 670.657 301.887 670.628 301.941C670.672 301.803 670.734 301.665 670.813 301.531ZM669.95 302.268C669.917 302.431 669.877 302.594 669.939 302.714C669.844 302.787 669.747 302.852 669.645 302.91C669.627 302.736 669.638 302.551 669.678 302.362C669.812 302.203 669.942 302.036 670.059 301.869C670.008 302.007 669.971 302.144 669.946 302.271L669.95 302.268Z" fill="#365DA2"/>
<path d="M629.607 295.192C628.551 297.155 627.959 299.169 627.099 301.154C626.682 302.123 626.189 303.088 625.55 304.003C625.104 304.638 624.135 306.024 623.311 305.723C623.104 305.646 623.05 305.472 623.115 305.233C623.129 305.178 623.148 305.124 623.166 305.069C623.271 305.131 623.431 305.106 623.594 305.019C623.859 304.877 624.084 304.594 624.2 304.344C624.323 304.075 624.305 303.799 624.087 303.68C623.899 303.574 623.616 303.669 623.416 303.868C623.195 304.09 623.097 304.373 622.988 304.627C622.854 304.939 622.679 305.28 622.698 305.581C622.727 306.035 623.217 306.194 623.696 306.089C624.276 305.962 624.791 305.454 625.183 304.993C625.644 304.449 626.047 303.868 626.403 303.277C627.118 302.072 627.626 300.82 628.101 299.579C628.653 298.142 629.168 296.698 629.926 295.286C630.05 295.054 629.73 294.956 629.603 295.188L629.607 295.192ZM623.892 304.101C623.928 304.238 623.793 304.42 623.685 304.551C623.645 304.598 623.608 304.638 623.561 304.674C623.532 304.696 623.503 304.714 623.471 304.728C623.456 304.728 623.449 304.732 623.442 304.736C623.42 304.692 623.376 304.674 623.329 304.674C623.376 304.569 623.423 304.467 623.471 304.369C623.539 304.224 623.815 303.814 623.892 304.104V304.101Z" fill="#365DA2"/>
<path d="M636.674 301.321C636.46 301.434 636.228 301.564 636.003 301.601C635.949 301.608 635.887 301.611 635.832 301.604C635.992 301.445 636.137 301.259 636.163 301.085C636.203 300.802 635.891 300.737 635.622 300.882C635.386 301.013 635.23 301.278 635.216 301.495C635.208 301.572 635.223 301.64 635.248 301.699C635.02 301.862 634.624 302.09 634.385 302.047C634.693 301.836 634.969 301.564 635.179 301.259C635.219 301.201 635.223 301.122 635.19 301.082C635.056 300.904 634.784 300.893 634.519 301.031C634.232 301.176 634.054 301.463 633.942 301.724C633.906 301.811 633.88 301.898 633.869 301.978C633.586 302.105 633.292 302.174 633.02 302.17C633.111 302.083 633.198 302 633.281 301.913C633.412 301.786 633.332 301.651 633.212 301.637C632.944 301.601 632.744 301.833 632.664 302.065C632.247 302.435 631.794 302.769 631.315 303.041C631.195 303.11 631.032 303.248 630.952 303.161C631.148 303.016 631.333 302.853 631.5 302.678C631.823 302.337 632.146 301.728 631.761 301.513C631.692 301.477 631.561 301.481 631.489 301.579C631.322 301.804 631.151 302.025 630.984 302.25C630.836 302.446 630.683 302.638 630.596 302.852C630.567 302.921 630.549 302.994 630.542 303.063C630.367 303.172 630.19 303.263 630.008 303.339C629.994 303.346 629.979 303.35 629.961 303.357C630.059 303.277 630.161 303.197 630.259 303.117C630.538 302.892 630.792 302.624 630.807 302.308C630.821 302.014 630.632 301.807 630.455 301.63C630.407 301.582 630.291 301.604 630.222 301.659C629.685 302.069 629.243 302.62 629.025 303.197C628.956 303.382 628.93 303.575 629.007 303.702C628.528 304.068 628.041 304.427 627.548 304.776C627.497 304.812 627.37 304.928 627.319 304.91C627.272 304.896 627.29 304.783 627.29 304.732C627.29 304.598 627.297 304.46 627.312 304.319C627.348 304.017 627.424 303.705 627.537 303.397C627.635 303.128 627.762 302.86 627.911 302.598C627.969 302.624 628.045 302.62 628.118 302.562C628.488 302.261 628.673 301.865 628.636 301.499C628.622 301.368 628.415 301.39 628.321 301.499C627.406 302.54 626.862 303.825 626.909 304.946C626.92 305.193 627.033 305.4 627.363 305.262C627.515 305.2 627.657 305.084 627.791 304.986C627.972 304.859 628.15 304.729 628.328 304.598C628.662 304.355 628.996 304.104 629.326 303.85C629.511 303.858 629.725 303.789 629.917 303.716C630.15 303.633 630.378 303.52 630.6 303.39C630.665 303.506 630.781 303.578 630.959 303.56C631.137 303.542 631.387 303.361 631.558 303.259C631.757 303.139 631.953 303.012 632.146 302.874C632.331 302.74 632.512 302.602 632.686 302.453C632.726 302.508 632.795 302.526 632.919 302.53C633.078 302.533 633.252 302.515 633.423 302.475C633.608 302.432 633.789 302.366 633.967 302.283C633.993 302.305 634.022 302.326 634.058 302.344C634.258 302.442 634.537 302.395 634.795 302.301C635.034 302.21 635.274 302.076 635.488 301.913C635.549 301.942 635.618 301.96 635.691 301.967C636.036 302.007 636.413 301.822 636.765 301.637C637.005 301.51 636.925 301.19 636.685 301.321H636.674ZM629.489 302.987C629.671 302.631 629.936 302.308 630.255 302.036C630.393 302.188 630.513 302.392 630.328 302.635C630.226 302.769 630.063 302.878 629.932 302.983C629.78 303.103 629.627 303.223 629.478 303.342C629.438 303.375 629.399 303.404 629.359 303.437C629.308 303.331 629.435 303.099 629.493 302.987H629.489ZM631.554 302.018C631.511 302.207 631.286 302.461 631.159 302.584C631.133 302.609 631.108 302.631 631.086 302.653C631.224 302.439 631.391 302.225 631.554 302.018ZM634.762 301.288C634.628 301.455 634.468 301.604 634.294 301.728C634.388 301.517 634.613 301.278 634.762 301.288ZM635.644 301.278C635.666 301.241 635.771 301.125 635.753 301.205C635.745 301.249 635.666 301.328 635.604 301.39C635.608 301.354 635.622 301.314 635.644 301.281V301.278Z" fill="#365DA2"/>
<path d="M574.391 442.483H658.075L686.123 329.985H602.438L574.391 442.483Z" fill="white"/>
<g opacity="0.5">
<path d="M609.181 362.855H664.619C665.305 362.855 666.009 362.293 666.18 361.607L666.296 361.139C666.466 360.453 666.045 359.89 665.359 359.89H609.922C609.236 359.89 608.532 360.453 608.361 361.139L608.245 361.607C608.075 362.293 608.496 362.855 609.185 362.855H609.181Z" fill="#E1B1FD"/>
<path d="M614.119 343.074H669.557C670.242 343.074 670.946 342.512 671.117 341.826L671.233 341.358C671.404 340.672 670.983 340.11 670.297 340.11H614.859C614.173 340.11 613.469 340.672 613.299 341.358L613.183 341.826C613.012 342.512 613.433 343.074 614.122 343.074H614.119Z" fill="#E1B1FD"/>
<path d="M612.4 349.944H667.837C668.523 349.944 669.227 349.381 669.398 348.696L669.514 348.227C669.684 347.542 669.263 346.979 668.578 346.979H613.14C612.454 346.979 611.75 347.542 611.579 348.227L611.463 348.696C611.293 349.381 611.714 349.944 612.403 349.944H612.4Z" fill="#E1B1FD"/>
<path d="M610.79 356.399H666.228C666.914 356.399 667.618 355.837 667.789 355.151L667.905 354.683C668.075 353.997 667.654 353.435 666.969 353.435H611.531C610.845 353.435 610.141 353.997 609.97 354.683L609.854 355.151C609.684 355.837 610.105 356.399 610.79 356.399Z" fill="#E1B1FD"/>
<path d="M605.904 376.01H661.342C662.028 376.01 662.732 375.447 662.903 374.761L663.019 374.293C663.189 373.607 662.768 373.045 662.083 373.045H606.645C605.959 373.045 605.255 373.607 605.084 374.293L604.968 374.761C604.798 375.447 605.219 376.01 605.904 376.01Z" fill="#E1B1FD"/>
<path d="M607.514 369.554H662.951C663.637 369.554 664.341 368.992 664.512 368.306L664.628 367.838C664.798 367.152 664.378 366.589 663.692 366.589H608.254C607.568 366.589 606.864 367.152 606.693 367.838L606.577 368.306C606.407 368.992 606.828 369.554 607.514 369.554Z" fill="#E1B1FD"/>
<path d="M595.816 415.274H609.282C610.099 415.274 610.933 414.606 611.137 413.79C611.34 412.973 610.839 412.305 610.022 412.305H596.559C595.743 412.305 594.908 412.973 594.705 413.79C594.502 414.606 595.003 415.274 595.819 415.274H595.816Z" fill="#E1B1FD"/>
<path d="M637.06 415.274H650.523C651.339 415.274 652.174 414.606 652.377 413.79C652.58 412.973 652.079 412.305 651.263 412.305H637.8C636.983 412.305 636.149 412.973 635.946 413.79C635.742 414.606 636.243 415.274 637.06 415.274Z" fill="#E1B1FD"/>
</g>
<path d="M607.397 431.244H587.762C587.243 431.244 586.804 431.045 586.517 430.678C586.219 430.297 586.129 429.793 586.263 429.252L587.678 423.573C587.947 422.495 589.043 421.62 590.12 421.62H609.756C610.275 421.62 610.714 421.82 611.001 422.187C611.298 422.568 611.389 423.072 611.255 423.613L609.839 429.292C609.571 430.37 608.475 431.244 607.397 431.244ZM590.12 421.78C589.112 421.78 588.085 422.604 587.831 423.613L586.415 429.292C586.292 429.782 586.372 430.239 586.64 430.58C586.894 430.907 587.293 431.084 587.762 431.084H607.397C608.406 431.084 609.433 430.261 609.687 429.252L611.102 423.573C611.226 423.083 611.146 422.626 610.877 422.285C610.623 421.958 610.224 421.78 609.756 421.78H590.12Z" fill="#476BA7"/>
<path d="M648.718 431.244H629.083C628.564 431.244 628.125 431.045 627.838 430.678C627.541 430.297 627.45 429.793 627.584 429.252L628.999 423.573C629.268 422.495 630.364 421.62 631.442 421.62H651.077C651.596 421.62 652.035 421.82 652.322 422.187C652.619 422.568 652.71 423.072 652.576 423.613L651.161 429.292C650.892 430.37 649.796 431.244 648.718 431.244ZM631.442 421.78C630.433 421.78 629.406 422.604 629.152 423.613L627.737 429.292C627.613 429.782 627.693 430.239 627.961 430.58C628.216 430.907 628.615 431.084 629.083 431.084H648.718C649.727 431.084 650.754 430.261 651.008 429.252L652.424 423.573C652.547 423.083 652.467 422.626 652.199 422.285C651.945 421.958 651.545 421.78 651.077 421.78H631.442Z" fill="#476BA7"/>
<path d="M652.97 420.869C649.987 422.103 647.023 423.45 644.091 424.908C644.207 424.578 644.312 424.252 644.403 423.921C644.479 423.656 644.12 423.482 643.898 423.773C643.8 423.903 643.699 424.023 643.586 424.143C643.659 423.907 643.379 423.773 643.14 423.947C643.125 423.958 643.111 423.972 643.096 423.983C643.212 423.664 642.719 423.616 642.534 423.925L642.258 424.386C642.026 424.665 641.703 424.876 641.369 424.981C641.3 424.829 641.253 424.665 641.238 424.487C641.227 424.353 641.129 424.277 641.01 424.277C641.006 424.114 640.857 424.019 640.643 424.114C640.382 424.23 640.153 424.408 639.968 424.611C639.819 424.335 639.348 424.535 639.097 424.796C639.105 424.781 639.112 424.767 639.119 424.752C639.239 424.498 639.017 424.208 638.716 424.466C638.183 424.923 637.798 425.5 637.617 426.073C637.443 426.269 637.254 426.454 637.054 426.628C636.956 426.712 636.503 427.133 636.397 427.097C636.299 427.06 636.35 426.799 636.397 426.618C636.412 426.596 636.43 426.57 636.445 426.549C636.822 426.022 638.647 423.544 637.363 423.566C637.225 423.566 637.087 423.656 637.003 423.783C636.535 424.506 636.172 425.268 635.951 426.03C635.908 426.175 635.849 426.364 635.802 426.559C635.766 426.61 635.726 426.661 635.69 426.708C635.178 427.376 634.474 428.341 633.647 428.671C633.571 427.623 634.1 426.382 634.5 425.282C634.674 424.807 634.852 424.335 635.04 423.86C635.095 423.849 635.156 423.82 635.218 423.769C636.111 423.018 636.477 421.9 636.071 421.153C635.955 420.935 635.599 421.134 635.497 421.363C634.881 422.742 634.322 424.132 633.825 425.522C633.382 426.755 632.881 428.055 633.066 429.194C633.084 429.314 633.226 429.357 633.356 429.332C634.3 429.125 635.124 428.287 635.784 427.449C635.831 427.557 635.915 427.637 636.042 427.677C636.481 427.808 637.08 427.318 637.511 426.911C637.522 427.053 637.544 427.195 637.588 427.325C637.635 427.47 637.784 427.503 637.958 427.43C638.364 427.267 638.745 427.006 639.068 426.686C639.496 426.556 639.867 426.204 640.179 425.794C640.375 425.623 640.556 425.438 640.727 425.246C640.763 425.351 640.814 425.449 640.879 425.525C641.039 425.71 641.445 425.543 641.703 425.424C641.95 425.311 642.178 425.159 642.381 424.977C642.541 424.966 642.697 424.919 642.85 424.85C642.879 424.894 642.915 424.934 642.958 424.966C643.122 425.075 643.31 425.032 643.499 424.916C643.455 425.035 643.412 425.155 643.368 425.275C642.94 425.489 642.512 425.71 642.087 425.928C641.804 426.073 641.739 426.505 642.055 426.48C642.447 426.451 642.839 426.422 643.231 426.389C643.408 426.374 643.55 426.262 643.626 426.091C643.695 425.935 643.76 425.776 643.826 425.62C646.892 424.085 649.991 422.666 653.108 421.377C653.507 421.214 653.373 420.703 652.978 420.866L652.97 420.869ZM639.304 425.384C639.279 425.467 639.246 425.551 639.206 425.631C639.181 425.685 639.148 425.739 639.119 425.794C639.163 425.656 639.224 425.518 639.304 425.384ZM638.44 426.12C638.408 426.284 638.368 426.451 638.43 426.567C638.335 426.639 638.237 426.705 638.136 426.763C638.118 426.589 638.128 426.403 638.168 426.215C638.306 426.055 638.433 425.888 638.549 425.721C638.498 425.859 638.462 425.997 638.437 426.124L638.44 426.12Z" fill="#365DA2"/>
<path d="M598.083 419.041C597.027 421.004 596.435 423.018 595.575 425.003C595.158 425.972 594.664 426.937 594.026 427.852C593.579 428.487 592.61 429.873 591.787 429.572C591.58 429.495 591.525 429.321 591.591 429.082C591.605 429.027 591.623 428.973 591.642 428.918C591.747 428.98 591.906 428.955 592.07 428.868C592.335 428.726 592.56 428.443 592.676 428.193C592.799 427.924 592.781 427.648 592.563 427.529C592.375 427.423 592.092 427.518 591.892 427.717C591.671 427.939 591.573 428.222 591.464 428.476C591.329 428.788 591.155 429.129 591.173 429.43C591.202 429.884 591.692 430.043 592.171 429.938C592.752 429.811 593.267 429.303 593.659 428.842C594.12 428.298 594.523 427.717 594.878 427.126C595.593 425.921 596.101 424.669 596.577 423.428C597.128 421.991 597.644 420.547 598.402 419.135C598.525 418.903 598.206 418.805 598.079 419.037L598.083 419.041ZM592.367 427.95C592.404 428.087 592.269 428.269 592.16 428.4C592.121 428.447 592.084 428.487 592.037 428.523C592.008 428.545 591.979 428.563 591.946 428.577C591.932 428.577 591.925 428.581 591.917 428.585C591.896 428.541 591.852 428.523 591.805 428.523C591.852 428.418 591.899 428.316 591.946 428.218C592.015 428.073 592.291 427.663 592.367 427.953V427.95Z" fill="#365DA2"/>
<path d="M605.157 425.174C604.943 425.286 604.711 425.417 604.486 425.453C604.432 425.46 604.37 425.464 604.316 425.457C604.475 425.297 604.62 425.112 604.646 424.938C604.686 424.655 604.374 424.589 604.105 424.734C603.869 424.865 603.713 425.13 603.699 425.348C603.691 425.424 603.706 425.493 603.731 425.551C603.503 425.714 603.107 425.943 602.864 425.899C603.173 425.689 603.448 425.417 603.662 425.112C603.702 425.054 603.706 424.974 603.673 424.934C603.539 424.756 603.267 424.745 603.002 424.883C602.715 425.028 602.537 425.315 602.425 425.576C602.389 425.663 602.363 425.751 602.352 425.83C602.069 425.957 601.775 426.026 601.503 426.023C601.594 425.936 601.681 425.852 601.765 425.765C601.895 425.638 601.815 425.504 601.696 425.489C601.427 425.453 601.227 425.685 601.148 425.917C600.73 426.288 600.277 426.621 599.798 426.894C599.678 426.963 599.515 427.1 599.435 427.013C599.631 426.868 599.816 426.705 599.983 426.531C600.306 426.19 600.629 425.58 600.244 425.366C600.175 425.33 600.044 425.333 599.972 425.431C599.805 425.656 599.634 425.878 599.467 426.103C599.319 426.298 599.166 426.491 599.079 426.705C599.05 426.774 599.032 426.846 599.025 426.915C598.851 427.024 598.673 427.115 598.491 427.191C598.477 427.198 598.462 427.202 598.444 427.209C598.542 427.13 598.644 427.05 598.742 426.97C599.021 426.745 599.275 426.476 599.29 426.161C599.304 425.867 599.115 425.66 598.938 425.482C598.891 425.435 598.774 425.457 598.705 425.511C598.168 425.921 597.726 426.473 597.508 427.05C597.439 427.235 597.414 427.427 597.49 427.554C597.011 427.921 596.525 428.28 596.031 428.628C595.98 428.665 595.853 428.781 595.802 428.762C595.755 428.748 595.773 428.635 595.773 428.585C595.773 428.45 595.781 428.313 595.795 428.171C595.831 427.87 595.908 427.558 596.02 427.249C596.118 426.981 596.245 426.712 596.394 426.451C596.452 426.476 596.528 426.473 596.601 426.415C596.971 426.113 597.156 425.718 597.12 425.351C597.105 425.221 596.898 425.243 596.804 425.351C595.889 426.393 595.345 427.677 595.392 428.799C595.403 429.046 595.516 429.252 595.846 429.114C595.998 429.053 596.14 428.937 596.274 428.839C596.456 428.712 596.633 428.581 596.811 428.45C597.145 428.207 597.479 427.957 597.809 427.703C597.994 427.71 598.208 427.641 598.401 427.569C598.633 427.485 598.861 427.373 599.083 427.242C599.148 427.358 599.264 427.431 599.442 427.413C599.62 427.394 599.87 427.213 600.041 427.111C600.24 426.992 600.436 426.865 600.629 426.727C600.814 426.592 600.995 426.455 601.169 426.306C601.209 426.36 601.278 426.378 601.398 426.382C601.558 426.386 601.732 426.367 601.902 426.328C602.087 426.284 602.269 426.219 602.447 426.135C602.472 426.157 602.501 426.179 602.537 426.197C602.737 426.295 603.016 426.248 603.274 426.153C603.514 426.063 603.753 425.928 603.967 425.765C604.029 425.794 604.098 425.812 604.17 425.82C604.515 425.856 604.893 425.674 605.245 425.489C605.484 425.362 605.404 425.043 605.165 425.174H605.157ZM597.972 426.839C598.154 426.484 598.419 426.161 598.738 425.888C598.876 426.041 598.996 426.244 598.811 426.487C598.709 426.621 598.546 426.73 598.415 426.836C598.263 426.955 598.114 427.075 597.962 427.195C597.922 427.227 597.882 427.257 597.842 427.286C597.791 427.18 597.918 426.948 597.976 426.836L597.972 426.839ZM600.037 425.87C599.994 426.059 599.769 426.313 599.642 426.436C599.616 426.462 599.591 426.484 599.565 426.505C599.703 426.291 599.87 426.077 600.034 425.87H600.037ZM603.245 425.145C603.111 425.311 602.951 425.46 602.777 425.584C602.871 425.373 603.096 425.134 603.245 425.145ZM604.127 425.134C604.149 425.097 604.254 424.981 604.236 425.061C604.229 425.105 604.149 425.184 604.087 425.246C604.091 425.21 604.105 425.17 604.127 425.137V425.134Z" fill="#365DA2"/>
<path d="M191.704 600.479L200.268 600.363C200.268 600.363 187.39 586.069 183.434 578.793L172.562 558.711L158.326 562.231L176.394 587.832L191.704 600.475V600.479Z" fill="#E5C5AD"/>
<path d="M111.358 209.671C108.074 207.806 104.141 207.602 101.39 207.762C102.097 207.029 103.491 206.764 103.491 206.764C101.785 206.51 97.9751 208.205 97.9751 208.205C74.2353 199.056 70.5048 234.013 71.002 242.131C71.4955 250.252 63.0258 252.901 50.6732 259.299C27.1075 271.506 25.0391 287.854 25.0391 287.854C25.2241 287.963 25.4128 288.086 25.6197 288.224C26.7882 286.243 29.1941 282.523 31.2262 281.961C31.15 282.142 28.8276 287.081 27.9603 289.912C34.9131 295.199 47.9189 306.92 56.9801 315.226C56.9402 313.604 57.0055 311.296 57.597 310.081L58.7183 316.823C63.5701 321.283 66.9123 324.418 66.9123 324.418C66.3135 317.857 96.5925 283.224 112.389 272.853C116.235 267.192 117.6 257.19 117.705 256.403C117.041 264.332 115.684 268.781 114.472 271.285C127.848 258.972 120.06 214.606 111.358 209.66V209.671Z" fill="#000230"/>
<path d="M111.458 273.379C111.538 273.415 103.831 277.414 98.0353 275.832C92.5812 274.344 89.0213 267.275 89.0939 267.26C91.4018 266.803 92.0695 263.628 92.0187 249.994L93.0638 250.201L110.617 253.678C110.617 253.678 110.217 259.201 110.206 264.404C110.196 268.774 110.46 272.918 111.458 273.386V273.379Z" fill="#E5C5AD"/>
<path d="M91.6056 215.393C91.6056 215.393 100.264 206.176 111.136 214.922C111.136 214.922 104.811 213.826 91.6056 215.393Z" fill="#EBA678"/>
<path d="M110.617 253.674C110.617 253.674 110.218 259.197 110.207 264.401C100.383 264.125 95.1942 255.165 93.0677 250.197L110.62 253.674H110.617Z" fill="#EBA678"/>
<path d="M91.2474 248.285C91.2474 248.285 86.1018 240.153 84.8643 233.197C83.9825 228.232 86.5118 209.827 105.004 212.479C105.004 212.479 110.375 213.009 115.423 216.42C119.436 219.131 125.232 224.988 118.754 241.046L117.07 246.471L91.2438 248.285H91.2474Z" fill="#000230"/>
<path d="M180.567 571.778L171.263 572.065L161.193 572.374C161.193 572.374 137.932 546.475 124.883 504.957C124.578 503.992 124.258 503.015 123.917 502.028C116.776 481.206 101.974 455.071 94.1717 431.415C92.9306 427.648 91.8165 424.099 90.815 420.742C90.4956 419.668 90.1836 418.612 89.886 417.571C84.1379 397.594 82.4723 384.479 80.9373 370.465L130.75 370.864C130.75 370.864 146.362 466.604 180.563 571.782L180.567 571.778Z" fill="#5100CC"/>
<path d="M129.388 338.542C130.048 365.341 133.322 376.848 133.322 376.848C133.322 376.848 109.201 389.102 80.5366 380.081C80.1991 379.976 82.3945 269.34 90.5231 266.292C92.392 268.621 97.9659 270.886 102.923 270.773C108.635 270.646 110.485 268.204 110.188 265.533C116.273 268.919 128.441 300.167 129.388 338.538V338.542Z" fill="#E7F1FD"/>
<path d="M113.893 258.598C113.893 258.598 90.6535 258.983 90.639 244.507C90.6245 230.032 87.6125 220.332 102.451 219.476C117.286 218.619 120.178 224.139 121.357 228.969C122.536 233.799 119.938 258.127 113.896 258.598H113.893Z" fill="#E6C5AD"/>
<path d="M120.664 220.92C117.079 216.573 114.365 217.52 112.844 218.823C107.822 211.318 91.9494 222.172 91.9494 222.172C84.1402 229.611 82.9064 238.509 82.9064 238.509C82.9064 238.509 87.1412 241.126 96.9064 238.614C104.592 236.637 110.166 225.699 112.195 221.131C113.577 222.357 116.491 225.199 117.366 227.978C118.523 231.665 119.046 239.253 121.256 238.995C121.256 238.995 126.05 227.452 120.661 220.924L120.664 220.92Z" fill="#000230"/>
<path d="M207.406 282.625C207.406 282.625 210.683 270.817 223.663 272.486C225.151 272.954 229.506 274.689 226.723 279.348C224.672 282.785 223.783 281.01 220.557 285.626C217.331 290.242 213.829 291.283 209.83 290.732L207.406 282.621V282.625Z" fill="#E5C5AD"/>
<path d="M96.4877 599.655C95.6966 595.304 94.1906 587.785 94.1906 587.785L94.539 561.095H78.329L84.3928 586.638C84.5162 587.825 84.85 592.426 83.1481 597.307C83.1481 597.307 81.5913 604.398 88.5768 604.532C95.5624 604.663 97.2752 604.006 96.4841 599.655H96.4877Z" fill="#E5C5AD"/>
<path d="M83.1488 597.307C83.1488 597.307 81.7662 604.793 82.5537 608.353H97.2287C97.2287 608.353 97.2904 600.225 96.0058 597.126C96.0058 597.126 91.0561 604.558 83.1452 597.307H83.1488Z" fill="#000230"/>
<path d="M200.415 600.439C200.368 600.421 200.321 600.395 200.274 600.363C196.844 600.468 193.393 599.212 190.265 595.692C180.751 584.973 175.405 583.775 173.536 583.779C171.932 587.088 170.158 590.808 172.44 594.999L175.848 608.346H179.52L179.557 595.743C181.977 596.378 184.336 597.539 185.388 599.641C187.957 604.783 189.743 608.342 192.131 608.342H208.642C208.642 608.342 208.322 603.988 200.415 600.432V600.439Z" fill="#000230"/>
<path d="M207.4 282.625C207.4 282.625 192.148 291.153 186.697 293.613C183.591 295.014 176.442 298.363 171.405 300.729C168.201 302.235 164.391 301.411 162.09 298.723C153.82 289.063 132.395 268.113 110.285 265.54L110.314 265.595L110.187 265.54C110.187 265.54 123.632 298.755 124.027 305.476C124.423 312.196 125.609 415.397 125.609 415.397C125.609 415.397 124.818 420.144 133.912 418.166C143.006 416.188 145.379 414.21 145.379 414.21C145.379 414.21 136.681 350.55 139.054 328.406C139.522 324.041 139.098 319.135 138.114 314.069C151.585 322.263 167.523 325.903 167.523 325.903C167.523 325.903 179.44 320.706 195.73 308.767C200.843 305.022 209.828 290.732 209.828 290.732L207.404 282.621L207.4 282.625Z" fill="#8F52FD"/>
<path d="M171.263 572.061L161.193 572.37C161.193 572.37 137.932 546.47 124.883 504.953C124.578 503.988 124.259 503.012 123.918 502.024C116.776 481.202 101.974 455.067 94.1719 431.411C92.9309 427.644 91.8168 424.095 90.8153 420.738C90.4959 419.664 90.1838 418.608 89.8863 417.567L98.1818 411.271C98.1818 411.271 123.087 451.602 130.798 489.556C137.497 522.524 164.321 562.194 171.263 572.061Z" fill="#8F52FD"/>
<path d="M144.822 322.245L144.332 323.747L118.259 315.274C118.259 315.274 117.914 314.871 118.092 314.345C118.288 313.764 118.745 313.768 118.745 313.768L144.818 322.241L144.822 322.245Z" fill="#163560"/>
<path d="M99.0569 493.094C99.1984 511.55 98.2658 553.986 95.8635 571.553H86.9438C82.0122 571.553 79.5518 571.481 79.5518 571.481C73.5207 540.937 69.2314 515.662 66.107 493.882C63.545 476.01 61.2661 460.689 59.517 447.498C57.7534 434.224 56.5268 423.108 56.0878 413.717C56.0188 412.24 55.968 410.799 55.9426 409.402C55.9136 407.998 55.9063 406.633 55.9172 405.309L104.591 400.562C103.978 432.903 98.977 482.36 99.0569 493.087V493.094Z" fill="#5100CC"/>
<path d="M86.9374 571.553C82.0058 571.553 79.5455 571.481 79.5455 571.481C73.5143 540.937 69.225 515.662 66.1006 493.882C63.5386 476.009 61.2597 460.689 59.5106 447.498C57.747 434.223 56.5205 423.108 56.0814 413.717L73.9425 424.222C73.9425 424.222 62.5443 428.243 66.8917 458.689C71.2427 489.135 80.8809 567.239 86.9338 571.55L86.9374 571.553Z" fill="#8F52FD"/>
<path d="M89.2362 413.419C89.2362 413.419 85.8069 425.808 73.9443 424.226C62.0816 422.644 45.2147 415.528 45.2147 415.528C45.2147 415.528 50.2842 399.51 56.5875 378.466C64.219 352.992 73.6648 320.147 78.1174 299.434C79.3658 293.628 80.2222 288.783 80.5379 285.31L90.5244 266.299C90.5244 266.299 105.051 299.151 105.842 307.454C106.633 315.756 89.2362 413.423 89.2362 413.423V413.419Z" fill="#8F52FD"/>
<path d="M88.7108 324.85C88.181 338.295 85.0167 364.39 56.8133 378.361C56.7371 378.397 56.6646 378.437 56.5883 378.466C64.2198 352.992 73.6657 320.147 78.1183 299.434C83.2966 307.174 89.0012 317.447 88.7108 324.85Z" fill="#681FDE"/>
<path d="M139.743 317.495C139.729 319.106 135.08 330.341 126.89 337.05C125.304 338.35 124.034 338.981 123.021 339.155C109.685 343.72 98.1131 346.09 88.7181 347.244V332.366C100.323 331.622 114.621 330.845 120.507 330.529C121.476 328.987 122.611 326.803 122.992 324.596C123.696 320.503 125.888 317.469 131.596 316.718C137.305 315.967 139.758 315.887 139.743 317.495Z" fill="#E5C5AD"/>
<path d="M218.586 268.668L244.953 285.815C245.287 286.032 245.527 286.784 245.414 287.165L232.728 330.097C232.55 330.7 231.94 330.798 231.436 330.424L205.86 311.271C205.562 311.05 205.341 310.803 205.443 310.444L217.091 269.347C217.258 268.763 218.078 268.334 218.586 268.665V268.668Z" fill="#163560"/>
<path d="M217.656 268.051L244.252 285.365C244.586 285.582 244.735 285.992 244.622 286.373L231.936 329.306C231.758 329.909 231.036 330.148 230.535 329.771L204.977 310.618C204.68 310.396 204.549 310.012 204.651 309.652L216.299 268.556C216.466 267.972 217.148 267.718 217.656 268.048V268.051Z" fill="#000230"/>
<path d="M217.502 269.938L243.303 286.395L231.589 324.19L207.269 306.593L217.502 269.938Z" fill="white"/>
<path d="M215.498 316.083C215.498 315.502 215.97 315.027 216.554 315.027C217.138 315.027 217.61 315.499 217.61 316.083C217.61 316.667 217.138 317.139 216.554 317.139C215.97 317.139 215.498 316.667 215.498 316.083Z" fill="#163560"/>
<path d="M226.236 318.307L213.793 309.613L222.371 274.87L234.815 283.568L226.236 318.307Z" fill="white"/>
<g opacity="0.5">
<path d="M228.716 298.08L220.471 292.317C220.37 292.245 220.33 292.012 220.381 291.802L220.417 291.657C220.468 291.446 220.595 291.33 220.696 291.399L228.941 297.162C229.043 297.234 229.083 297.467 229.032 297.677L228.995 297.822C228.945 298.036 228.818 298.149 228.716 298.08Z" fill="#F0D8FE"/>
<path d="M230.23 291.973L221.985 286.21C221.883 286.137 221.843 285.905 221.894 285.695L221.93 285.549C221.981 285.335 222.108 285.223 222.21 285.292L230.455 291.054C230.556 291.127 230.596 291.359 230.545 291.57L230.509 291.715C230.458 291.929 230.331 292.041 230.23 291.973Z" fill="#F0D8FE"/>
<path d="M229.693 294.096L221.449 288.333C221.347 288.26 221.307 288.028 221.358 287.818L221.394 287.673C221.445 287.462 221.572 287.346 221.674 287.415L229.918 293.177C230.02 293.25 230.06 293.482 230.009 293.693L229.973 293.838C229.922 294.048 229.795 294.165 229.693 294.096Z" fill="#F0D8FE"/>
<path d="M229.208 296.088L220.964 290.325C220.862 290.252 220.822 290.02 220.873 289.81L220.909 289.664C220.96 289.454 221.087 289.338 221.189 289.407L229.433 295.169C229.535 295.242 229.575 295.474 229.524 295.685L229.488 295.83C229.437 296.044 229.31 296.156 229.208 296.088Z" fill="#F0D8FE"/>
<path d="M227.709 302.144L219.465 296.382C219.363 296.309 219.323 296.077 219.374 295.866L219.41 295.721C219.461 295.511 219.588 295.395 219.69 295.464L227.934 301.226C228.036 301.299 228.076 301.531 228.025 301.742L227.989 301.887C227.938 302.097 227.811 302.213 227.709 302.144Z" fill="#F0D8FE"/>
<path d="M228.202 300.152L219.957 294.389C219.855 294.317 219.816 294.084 219.866 293.874L219.903 293.729C219.953 293.518 220.08 293.402 220.182 293.471L228.427 299.234C228.528 299.306 228.568 299.539 228.517 299.749L228.481 299.894C228.43 300.105 228.303 300.221 228.202 300.148V300.152Z" fill="#F0D8FE"/>
<path d="M226.128 308.382L224.125 306.982C224.005 306.898 223.954 306.622 224.016 306.368C224.077 306.118 224.23 305.98 224.35 306.064L226.353 307.464C226.472 307.548 226.523 307.824 226.462 308.078C226.4 308.328 226.247 308.466 226.128 308.382Z" fill="#F0D8FE"/>
<path d="M219.993 304.097L217.99 302.696C217.87 302.612 217.819 302.337 217.881 302.083C217.942 301.832 218.095 301.694 218.215 301.778L220.218 303.179C220.337 303.262 220.388 303.538 220.327 303.792C220.265 304.042 220.112 304.18 219.993 304.097Z" fill="#F0D8FE"/>
</g>
<path d="M225.623 313.768C225.586 313.768 225.55 313.757 225.517 313.731L222.596 311.692C222.437 311.579 222.371 311.22 222.451 310.89L222.883 309.137C222.948 308.88 223.086 308.702 223.231 308.702C223.268 308.702 223.304 308.713 223.34 308.738L226.261 310.777C226.421 310.89 226.486 311.249 226.407 311.579L225.975 313.332C225.909 313.593 225.771 313.768 225.626 313.768H225.623ZM223.231 308.742C223.108 308.742 222.977 308.909 222.919 309.148L222.487 310.901C222.411 311.209 222.469 311.561 222.618 311.663L225.539 313.702C225.568 313.72 225.594 313.731 225.626 313.731C225.75 313.731 225.88 313.564 225.938 313.325L226.37 311.572C226.446 311.264 226.388 310.912 226.24 310.81L223.318 308.771C223.289 308.753 223.264 308.742 223.231 308.742Z" fill="#F0D8FE"/>
<path d="M219.48 309.471C219.444 309.471 219.408 309.46 219.375 309.435L216.454 307.395C216.294 307.283 216.229 306.923 216.309 306.593L216.741 304.84C216.806 304.583 216.944 304.405 217.089 304.405C217.125 304.405 217.162 304.416 217.194 304.441L220.115 306.481C220.275 306.593 220.34 306.952 220.261 307.283L219.829 309.035C219.763 309.293 219.625 309.471 219.48 309.471ZM217.089 304.445C216.966 304.445 216.835 304.612 216.777 304.851L216.345 306.604C216.269 306.916 216.327 307.265 216.476 307.366L219.397 309.406C219.426 309.424 219.455 309.435 219.484 309.435C219.607 309.435 219.738 309.268 219.796 309.028L220.228 307.275C220.304 306.967 220.246 306.615 220.097 306.513L217.176 304.474C217.147 304.456 217.118 304.445 217.089 304.445Z" fill="#F0D8FE"/>
<path d="M223.278 279.667C223.434 279.039 223.79 278.684 224.116 278.912C224.316 279.054 224.392 279.29 224.439 279.558L224.218 279.794C224.174 279.584 224.127 279.442 224.004 279.355C223.826 279.228 223.619 279.449 223.525 279.834C223.43 280.212 223.481 280.618 223.663 280.745C223.782 280.828 223.884 280.781 224.007 280.683L224.073 281.119C223.902 281.286 223.75 281.333 223.543 281.188C223.231 280.97 223.122 280.306 223.278 279.664V279.667Z" fill="#F0D8FE"/>
<path d="M224.364 280.433C224.52 279.805 224.883 279.457 225.213 279.685C225.54 279.914 225.652 280.589 225.496 281.22C225.34 281.848 224.974 282.196 224.647 281.968C224.321 281.739 224.208 281.064 224.364 280.433ZM225.25 281.053C225.344 280.676 225.286 280.266 225.097 280.135C224.908 280.005 224.702 280.222 224.607 280.607C224.513 280.984 224.571 281.395 224.756 281.525C224.945 281.656 225.152 281.438 225.246 281.053H225.25Z" fill="#F0D8FE"/>
<path d="M225.985 280.262L226.199 280.415L226.363 282.124L226.7 280.763L226.932 280.927L226.388 283.136L226.188 282.999L226.021 281.235L225.673 282.639L225.441 282.48L225.985 280.27V280.262Z" fill="#F0D8FE"/>
<path d="M227.32 281.725L226.997 281.5L227.11 281.05L227.991 281.667L227.879 282.117L227.556 281.892L227.121 283.652L226.888 283.488L227.324 281.728L227.32 281.725Z" fill="#F0D8FE"/>
<path d="M228.167 281.79L228.654 282.131C228.788 282.226 228.875 282.378 228.908 282.57C228.937 282.734 228.926 282.93 228.871 283.144C228.784 283.499 228.635 283.659 228.476 283.67L228.541 284.639L228.269 284.446L228.211 283.579L228.029 283.452L227.855 284.16L227.623 283.996L228.167 281.786V281.79ZM228.374 283.191C228.487 283.271 228.585 283.191 228.632 282.999C228.683 282.792 228.639 282.636 228.527 282.556L228.294 282.393L228.138 283.028L228.374 283.194V283.191Z" fill="#F0D8FE"/>
<path d="M229.631 282.795L229.845 282.948L229.751 285.492L229.508 285.321L229.533 284.759L229.083 284.443L228.862 284.871L228.622 284.704L229.627 282.799L229.631 282.795ZM229.555 284.269L229.591 283.452L229.272 284.069L229.555 284.265V284.269Z" fill="#F0D8FE"/>
<path d="M230.074 284.421C230.23 283.793 230.586 283.438 230.912 283.666C231.112 283.808 231.188 284.044 231.235 284.312L231.014 284.548C230.97 284.338 230.923 284.196 230.8 284.109C230.622 283.982 230.415 284.203 230.321 284.588C230.227 284.965 230.277 285.372 230.459 285.499C230.579 285.582 230.68 285.535 230.804 285.437L230.869 285.873C230.698 286.04 230.546 286.087 230.339 285.942C230.027 285.724 229.918 285.06 230.074 284.417V284.421Z" fill="#F0D8FE"/>
<path d="M231.659 284.755L231.336 284.53L231.448 284.083L232.33 284.7L232.221 285.15L231.898 284.925L231.463 286.685L231.231 286.522L231.666 284.762L231.659 284.755Z" fill="#F0D8FE"/>
<path d="M226.577 310.723C226.098 310.835 225.622 310.991 225.143 311.184C225.169 311.082 225.194 310.981 225.216 310.879C225.234 310.795 225.187 310.698 225.147 310.774C225.129 310.806 225.111 310.839 225.089 310.868C225.107 310.795 225.067 310.719 225.027 310.756C225.027 310.756 225.023 310.759 225.02 310.763C225.045 310.665 224.973 310.596 224.936 310.683L224.882 310.814C224.838 310.886 224.788 310.923 224.733 310.926C224.726 310.868 224.726 310.806 224.726 310.745C224.726 310.698 224.715 310.661 224.697 310.65C224.7 310.596 224.682 310.545 224.646 310.556C224.603 310.57 224.566 310.607 224.534 310.658C224.519 310.549 224.443 310.567 224.399 310.632V310.618C224.428 310.541 224.403 310.422 224.352 310.476C224.261 310.578 224.189 310.734 224.145 310.915C224.113 310.962 224.08 311.01 224.047 311.046C224.029 311.064 223.953 311.162 223.935 311.137C223.92 311.115 223.935 311.031 223.949 310.973L223.96 310.955C224.029 310.814 224.37 310.153 224.178 310.026C224.156 310.012 224.134 310.026 224.12 310.062C224.029 310.262 223.957 310.487 223.902 310.723C223.891 310.77 223.877 310.828 223.866 310.89L223.844 310.93C223.75 311.108 223.619 311.365 223.485 311.391C223.503 311.024 223.615 310.654 223.706 310.316C223.746 310.171 223.786 310.03 223.826 309.885C223.833 309.885 223.844 309.885 223.855 309.87C224.007 309.707 224.094 309.362 224.055 309.061C224.044 308.974 223.986 309.006 223.964 309.072C223.833 309.482 223.713 309.899 223.601 310.324C223.503 310.701 223.39 311.093 223.387 311.503C223.387 311.547 223.405 311.576 223.427 311.579C223.572 311.608 223.717 311.405 223.84 311.187C223.844 311.231 223.855 311.267 223.873 311.293C223.935 311.383 224.036 311.278 224.113 311.184C224.113 311.235 224.113 311.285 224.113 311.333C224.113 311.387 224.138 311.412 224.163 311.409C224.229 311.394 224.294 311.343 224.348 311.271C224.417 311.271 224.479 311.187 224.537 311.082C224.57 311.042 224.603 310.999 224.635 310.952C224.635 310.991 224.642 311.031 224.65 311.064C224.668 311.144 224.733 311.129 224.777 311.115C224.817 311.1 224.857 311.071 224.889 311.031C224.915 311.042 224.936 311.046 224.962 311.035C224.962 311.053 224.969 311.071 224.976 311.086C224.998 311.14 225.027 311.144 225.056 311.126C225.045 311.162 225.038 311.198 225.027 311.235C224.958 311.264 224.889 311.296 224.82 311.325C224.773 311.347 224.751 311.489 224.798 311.51C224.857 311.539 224.918 311.572 224.976 311.601C225.002 311.616 225.027 311.59 225.042 311.539C225.056 311.492 225.071 311.445 225.085 311.398C225.582 311.191 226.083 311.028 226.584 310.908C226.649 310.893 226.642 310.705 226.577 310.719V310.723ZM224.421 310.85C224.414 310.875 224.407 310.901 224.399 310.922C224.392 310.937 224.388 310.955 224.381 310.97C224.392 310.926 224.403 310.886 224.421 310.85ZM224.272 311.013C224.261 311.068 224.254 311.118 224.258 311.166C224.243 311.18 224.225 311.191 224.207 311.202C224.207 311.14 224.214 311.079 224.229 311.017C224.254 310.977 224.276 310.933 224.298 310.886C224.287 310.93 224.276 310.973 224.269 311.013H224.272Z" fill="#365DA2"/>
<path d="M218.524 304.427C218.313 304.989 218.168 305.621 217.987 306.212C217.9 306.503 217.798 306.782 217.678 307.029C217.595 307.199 217.413 307.573 217.297 307.384C217.268 307.337 217.265 307.272 217.283 307.196C217.283 307.178 217.29 307.163 217.294 307.145C217.308 307.178 217.334 307.185 217.359 307.17C217.402 307.149 217.442 307.076 217.468 307.003C217.493 306.924 217.497 306.826 217.468 306.764C217.442 306.709 217.399 306.709 217.363 306.76C217.323 306.815 217.301 306.898 217.279 306.974C217.25 307.069 217.214 307.167 217.21 307.272C217.203 307.432 217.272 307.537 217.344 307.551C217.435 307.569 217.526 307.446 217.595 307.33C217.678 307.192 217.754 307.036 217.823 306.869C217.961 306.532 218.074 306.154 218.179 305.777C218.299 305.341 218.419 304.899 218.567 304.496C218.593 304.431 218.546 304.362 218.524 304.431V304.427ZM217.428 306.887C217.428 306.938 217.406 306.985 217.384 307.018C217.377 307.029 217.37 307.04 217.363 307.047C217.359 307.051 217.352 307.054 217.348 307.054C217.348 307.054 217.348 307.054 217.344 307.054C217.344 307.036 217.337 307.025 217.33 307.022C217.341 306.992 217.348 306.96 217.359 306.931C217.373 306.887 217.424 306.775 217.428 306.884V306.887Z" fill="#365DA2"/>
<path d="M219.41 307.265C219.374 307.283 219.337 307.301 219.301 307.29C219.294 307.29 219.283 307.283 219.276 307.276C219.305 307.239 219.33 307.189 219.341 307.13C219.356 307.036 219.308 306.982 219.265 307.003C219.225 307.025 219.196 307.098 219.189 307.17C219.189 307.196 219.189 307.221 219.189 307.243C219.149 307.276 219.083 307.312 219.051 307.272C219.102 307.232 219.152 307.167 219.192 307.083C219.2 307.069 219.203 307.04 219.2 307.022C219.185 306.945 219.145 306.916 219.102 306.934C219.054 306.956 219.022 307.032 218.996 307.112C218.989 307.138 218.982 307.167 218.978 307.192C218.931 307.207 218.887 307.199 218.848 307.17C218.862 307.149 218.88 307.13 218.895 307.109C218.916 307.08 218.909 307.025 218.895 307.007C218.855 306.967 218.818 307.025 218.8 307.098C218.728 307.181 218.652 307.247 218.572 307.294C218.554 307.305 218.525 307.337 218.514 307.294C218.546 307.265 218.579 307.228 218.608 307.185C218.666 307.101 218.731 306.924 218.681 306.811C218.673 306.793 218.652 306.778 218.637 306.804C218.604 306.862 218.575 306.924 218.543 306.982C218.514 307.032 218.488 307.083 218.467 307.149C218.459 307.17 218.456 307.192 218.452 307.214C218.423 307.232 218.394 307.247 218.365 307.254H218.358C218.358 307.254 218.39 307.221 218.408 307.203C218.456 307.156 218.503 307.091 218.514 306.982C218.525 306.884 218.503 306.793 218.481 306.713C218.474 306.691 218.459 306.688 218.445 306.699C218.354 306.782 218.274 306.927 218.223 307.101C218.209 307.156 218.198 307.221 218.205 307.272C218.125 307.348 218.042 307.421 217.958 307.49C217.951 307.497 217.929 307.522 217.922 307.511C217.915 307.501 217.922 307.464 217.922 307.446C217.926 307.399 217.929 307.352 217.937 307.308C217.951 307.207 217.969 307.109 217.995 307.014C218.017 306.931 218.042 306.855 218.071 306.778C218.078 306.793 218.089 306.8 218.104 306.786C218.165 306.72 218.205 306.604 218.209 306.474C218.209 306.426 218.18 306.412 218.162 306.441C217.998 306.702 217.882 307.087 217.857 307.475C217.853 307.562 217.864 307.642 217.915 307.631C217.94 307.624 217.962 307.602 217.987 307.58C218.017 307.555 218.049 307.53 218.078 307.504C218.136 307.453 218.191 307.406 218.249 307.352C218.278 307.374 218.31 307.37 218.339 307.366C218.376 307.363 218.412 307.348 218.448 307.326C218.456 307.374 218.47 307.41 218.496 307.421C218.525 307.432 218.564 307.395 218.594 307.381C218.626 307.359 218.659 307.337 218.691 307.312C218.724 307.286 218.753 307.257 218.782 307.225C218.786 307.247 218.797 307.261 218.815 307.276C218.84 307.294 218.866 307.305 218.891 307.308C218.92 307.312 218.949 307.308 218.978 307.297C218.978 307.308 218.985 307.319 218.989 307.326C219.018 307.381 219.058 307.395 219.102 307.388C219.141 307.381 219.178 307.359 219.214 307.326C219.221 307.341 219.232 307.355 219.243 307.366C219.294 307.413 219.356 307.392 219.41 307.366C219.45 307.348 219.446 307.232 219.41 307.25V307.265ZM218.296 307.087C218.332 306.985 218.379 306.902 218.437 306.84C218.452 306.905 218.466 306.989 218.43 307.054C218.412 307.091 218.383 307.112 218.361 307.134C218.336 307.159 218.31 307.185 218.285 307.21C218.278 307.218 218.271 307.225 218.263 307.228C218.26 307.189 218.285 307.12 218.296 307.087ZM218.63 306.971C218.619 307.032 218.579 307.094 218.554 307.123C218.55 307.13 218.546 307.134 218.539 307.138C218.564 307.08 218.597 307.022 218.626 306.967L218.63 306.971ZM219.127 307.054C219.102 307.098 219.076 307.13 219.043 307.156C219.065 307.094 219.102 307.032 219.127 307.054ZM219.258 307.141C219.258 307.141 219.279 307.101 219.276 307.127C219.276 307.141 219.258 307.159 219.247 307.174C219.247 307.163 219.25 307.149 219.254 307.141H219.258Z" fill="#365DA2"/>
<path d="M146.703 323.696L144.827 322.245L144.337 323.747L146.703 323.696Z" fill="#163560"/>
<path d="M90.5185 266.295C90.5185 266.295 66.296 267.91 60.4971 280.825C54.6982 293.74 52.8511 336.709 60.2322 349.363C60.2322 349.363 70.3929 352.259 88.3666 348.895C88.5879 348.855 88.8093 348.811 89.0306 348.768C89.0306 348.768 94.7642 334.731 89.6221 331.963C89.6221 331.963 74.4645 332.754 76.0467 327.746C77.6288 322.738 90.5148 266.292 90.5148 266.292L90.5185 266.295Z" fill="#8F52FD"/>
<path d="M671.526 591.04C671.526 591.04 672.556 608.128 669.446 608.375C669.033 608.408 653.657 608.408 653.657 608.408L634.032 608.284C634.032 608.284 634.159 603.204 639.897 602.133C645.634 601.059 655.711 597.122 657.417 588.355C659.122 579.587 671.526 591.04 671.526 591.04Z" fill="#000230"/>
<path d="M634.157 591.04C634.157 591.04 635.188 608.128 632.078 608.375C631.664 608.408 616.289 608.408 616.289 608.408L596.664 608.284C596.664 608.284 596.791 603.204 602.528 602.133C608.265 601.059 618.343 597.122 620.048 588.355C621.754 579.587 634.157 591.04 634.157 591.04Z" fill="#000230"/>
<path d="M716.146 467.191L733.346 473.121C733.346 473.121 744.291 450.84 746.955 447.817C749.996 444.366 752.18 417.806 753.559 393.78C754.76 372.769 755.344 353.699 755.344 353.699C755.344 353.699 749.491 355.031 745.67 364.916C739.12 381.859 739.167 414.943 735.52 432.002C733.423 441.822 719.688 465.798 716.146 467.195V467.191Z" fill="#8F52FD"/>
<path d="M733.342 473.124C739.899 465.497 744.287 450.843 746.95 447.821C749.991 444.369 764.379 424.756 750.935 393.914C744.345 413.419 749.842 424.048 747.77 435.562C745.713 446.982 733.937 465.497 733.338 473.124H733.342Z" fill="#4908AA"/>
<path d="M782.999 600.834C782.999 600.834 784.606 602.26 788.417 602.26C792.735 602.26 793.835 600.834 793.835 600.834V540.193H782.999V600.834Z" fill="#8200FF"/>
<path d="M723.373 515.556C723.38 515.6 723.384 515.647 723.391 515.694C723.765 518.394 724.302 520.909 724.948 523.206C726.189 527.67 727.811 531.306 729.328 533.857C735.195 543.756 746.329 554.773 773.015 558.37C774.307 558.54 775.642 558.703 777.011 558.841C779.5 559.095 782.12 559.288 784.867 559.411C785.041 559.418 785.215 559.426 785.393 559.429C785.567 559.44 785.742 559.444 785.923 559.447C793.685 559.255 802.373 557.832 812.062 555.532C831.948 550.814 844.902 541.1 853.093 529.288C853.093 529.288 853.096 529.288 853.096 529.284C853.793 528.279 854.454 527.263 855.085 526.233C856.718 523.547 858.133 520.775 859.345 517.937C863.896 507.308 865.638 495.852 865.801 485.227C865.649 475.142 864.088 466.041 862.346 459.567C860.993 454.519 858.888 449.718 856.025 445.494C855.277 444.384 854.472 443.31 853.608 442.283C850.883 439.006 847.617 436.197 843.799 434.024C834.299 428.609 803.055 423.217 776.59 437.181C727.876 462.884 720.542 494.636 723.373 515.56V515.556Z" fill="#E118FD"/>
<path d="M731.564 537.282C739.333 546.325 746.33 555.59 773.02 558.558C774.312 558.7 775.647 558.83 777.015 558.943C779.505 559.157 782.125 559.313 784.872 559.415C785.046 559.422 785.22 559.429 785.398 559.429C785.572 559.44 785.746 559.444 785.928 559.447C793.69 559.255 802.377 557.832 812.066 555.532C831.952 550.814 844.907 541.1 853.097 529.288C853.097 529.288 853.101 529.288 853.101 529.284C853.798 528.279 854.458 527.263 855.09 526.233C840.001 522.633 807.777 516.322 775.763 518.899C758.396 520.299 740.378 521.845 724.952 523.206C724.43 523.25 729.006 534.303 731.568 537.282H731.564Z" fill="#E118FD"/>
<path d="M822.943 378.72C822.693 377.697 822.428 376.688 822.148 375.697C818.334 362.205 812.118 352.426 802.349 350.822C801.123 354.16 789.166 359.701 778.704 359.161C777.55 359.103 775.844 357.531 775.826 357.528C767.563 356.363 763.633 351.932 764.018 351.337C763.67 351.366 755.341 353.696 755.341 353.696C748.113 385.303 747.249 402.866 755.947 447.944C759.123 464.408 754.267 473.353 755.341 474.431C757.225 476.318 778.047 476.859 794.787 477.508C796.797 477.584 798.779 477.653 800.709 477.719C812.946 478.118 823.027 478.259 823.027 478.259C823.858 477.225 825.389 467.67 826.43 454.218C828.103 432.739 828.542 401.321 822.94 378.717L822.943 378.72Z" fill="#8F52FD"/>
<path d="M796.601 352.342L786.651 360.587L771.493 358.246C771.634 356.788 772.389 350.462 773.039 345.063C773.572 340.654 774.037 336.869 774.037 336.869L792.141 329.626L792.685 329.408C792.678 329.499 792.674 329.589 792.671 329.68C792.62 330.402 792.587 331.11 792.573 331.807C792.264 344.177 796.601 352.339 796.601 352.339V352.342Z" fill="#E49963"/>
<path d="M754.819 522.6C704.153 526.236 688.382 525.583 686.604 528.018C675.42 543.343 674.288 545.988 651.6 576.699C647.271 582.559 642.161 589.44 636.04 597.623H612.351C612.351 597.623 637.905 548.858 658.339 515.821C666.402 502.779 673.671 492.19 678.254 488.017C694.09 473.585 757.174 473.923 757.174 473.923C757.174 473.923 811.948 472.598 816.259 480.712C817.195 482.476 792.965 519.857 754.819 522.6Z" fill="#5100CC"/>
<path d="M754.819 522.6C704.153 526.236 688.382 525.583 686.604 528.018C675.419 543.343 674.287 545.988 651.6 576.699L658.342 515.821C666.405 502.779 673.674 492.19 678.257 488.017C694.094 473.585 757.177 473.923 757.177 473.923C757.177 473.923 811.951 472.598 816.262 480.712C817.198 482.476 792.969 519.857 754.822 522.6H754.819Z" fill="#4909AA"/>
<path d="M783.919 359.36L773.95 358.301C773.95 358.301 772.702 358.573 772.941 360.144C773.181 361.715 776.469 365.965 777.706 366.179C778.944 366.393 786.622 362.249 783.919 359.36Z" fill="#365DA4"/>
<path d="M820.944 489.128C820.944 489.128 819.253 519.809 781.103 522.549C730.437 526.189 719.986 524.988 716.673 528.083C700.387 543.306 711.15 546.536 672.971 597.623H648.992C648.992 597.623 678.262 500.667 691.518 489.069C707.619 474.982 773.381 473.919 773.381 473.919C773.381 473.919 817.214 470.544 821.525 478.655C822.461 480.418 820.948 489.124 820.948 489.124L820.944 489.128Z" fill="#5100CC"/>
<path d="M773.011 558.37C773.011 558.522 778.266 559.273 781.136 559.404C782.298 559.458 783.473 559.476 784.678 559.466C784.78 559.469 784.885 559.469 784.987 559.466C785.295 559.458 785.607 559.455 785.919 559.447C793.681 559.251 802.369 557.833 812.058 555.532C838.033 549.37 852.182 534.681 859.345 517.937C863.896 507.308 865.637 495.852 865.801 485.227C865.648 475.142 864.088 466.041 862.346 459.567C860.993 454.52 858.888 449.722 856.025 445.495C855.462 444.66 854.864 443.84 854.232 443.049C854.029 442.791 853.822 442.537 853.608 442.279C835.71 460.997 781.626 520.506 773.019 558.37H773.011Z" fill="#5100CC"/>
<path d="M774.371 558.37C774.371 558.522 779.625 559.273 782.496 559.404C783.218 559.437 783.943 559.458 784.68 559.466C784.782 559.469 784.887 559.469 784.989 559.466C785.297 559.458 785.609 559.455 785.921 559.448C793.683 559.252 802.371 557.833 812.06 555.532C838.035 549.37 852.184 534.681 859.347 517.937C863.898 507.308 865.64 495.852 865.803 485.227C865.65 475.142 864.09 466.041 862.348 459.567C860.995 454.52 858.89 449.722 856.027 445.495C855.464 444.66 854.866 443.84 854.234 443.049C835.64 462.576 782.873 521.007 774.378 558.373L774.371 558.37Z" fill="#E1B1FD"/>
<path d="M772.667 348.173C772.667 348.173 774.325 355.579 778.702 359.164L771.952 367.943C771.952 367.943 763.776 358.265 764.016 351.341C764.016 351.341 770.5 348.43 772.663 348.176L772.667 348.173Z" fill="#4908AA"/>
<path d="M772.669 348.173C772.669 348.173 773.932 355.147 778.308 358.729L771.823 366.712C771.823 366.712 764.707 358.442 764.018 351.341C764.018 351.341 770.503 348.43 772.669 348.173Z" fill="#8F52FD"/>
<path d="M795.378 348.173C795.378 348.173 785.058 357.952 778.308 358.729L782.928 370.261C782.928 370.261 803.032 358.352 803.093 351.217C803.093 351.217 797.559 348.238 795.382 348.173H795.378Z" fill="#4908AA"/>
<path d="M794.642 347.781C794.642 347.781 785.058 357.952 778.308 358.729L782.05 369.358C782.05 369.358 802.295 357.96 802.357 350.825C802.357 350.825 796.823 347.846 794.645 347.781H794.642Z" fill="#8F52FD"/>
<path d="M826.436 454.222C825.39 467.674 825.673 474.703 821.522 478.659C821.522 478.659 813.121 481.823 800.714 477.722C796.48 475.559 793.174 472.584 791.537 468.509C783.365 448.213 798.918 431.342 799.706 417.897C800.497 404.452 812.82 394.633 812.82 394.633C812.82 394.633 828.105 432.743 826.436 454.222Z" fill="#4908AA"/>
<path d="M779.257 365.014C779.257 365.014 781.147 382.85 781.481 388.816C782.425 405.603 782.773 456.054 782.773 456.054C782.773 456.054 783.27 460.46 780.331 463.973C777.392 467.485 774.322 469.891 774.322 469.891C774.322 469.891 770.007 466.117 768.298 459.026C767.158 454.309 769.891 414.693 772.649 388.304C774.035 375.041 776.321 364.655 776.321 364.655C776.321 364.655 778.575 364.263 779.257 365.014Z" fill="#365DA4"/>
<path d="M849.751 608.35H731.215C736.858 596.012 761.247 586.733 790.481 586.733C819.715 586.733 844.105 596.012 849.748 608.35H849.751Z" fill="#8200FF"/>
<path d="M788.77 456.911C788.77 456.911 780.728 459.019 778.094 460.471C775.459 461.922 770.169 468.872 771.355 469.96C777.306 475.418 778.225 469.369 785.54 467.391C786.868 467.032 792.987 460.206 792.987 460.206L788.77 456.911Z" fill="#E49963"/>
<path d="M782.233 473.738L770.164 432.002H701.187L713.641 475.429H713.877H782.723H804.188V473.738H782.233Z" fill="#E118FD"/>
<path d="M735.574 453.01C735.135 451.482 736.021 450.245 737.545 450.245C739.069 450.245 740.666 451.482 741.101 453.01C741.54 454.538 740.655 455.775 739.131 455.775C737.606 455.775 736.01 454.538 735.574 453.01Z" fill="white"/>
<path d="M802.354 350.825C802.354 350.825 816.049 353.053 822.904 360.169C829.759 367.286 841.357 425.543 838.457 433.715C835.558 441.887 812.362 458.493 795.753 465.348C795.753 465.348 787.581 461.657 787.055 455.332C787.055 455.332 815.262 431.607 816.579 425.282C817.896 418.957 802.354 350.825 802.354 350.825Z" fill="#8F52FD"/>
<path d="M792.668 329.684C792.617 330.406 792.584 331.113 792.57 331.81C789.068 335.588 780.831 343.636 773.036 345.063C773.569 340.654 774.034 336.869 774.034 336.869L792.138 329.625L792.668 329.68V329.684Z" fill="#D68D5D"/>
<path d="M772.147 338.328C772.147 338.328 793.858 339.318 794.268 325.79C794.678 312.262 797.755 303.273 783.911 302.068C770.067 300.863 767.215 305.944 765.981 310.429C764.748 314.911 766.511 337.722 772.147 338.331V338.328Z" fill="#E49963"/>
<path d="M794.269 325.79C794.269 325.79 792.647 307.733 773.305 308.382C753.963 309.028 762.331 290.735 778.951 288.039C778.951 288.039 777.217 294.484 787.672 295.504C809.615 297.641 796.221 322.923 794.269 325.79Z" fill="#1C468A"/>
</svg>
