<svg width="900" height="584" viewBox="0 0 900 584" fill="none" xmlns="http://www.w3.org/2000/svg">
<path d="M256.933 78.7418C268.442 91.0979 267.348 110.077 254.485 121.137C241.622 132.193 221.864 131.142 210.35 118.785C198.841 106.429 199.936 87.4498 212.799 76.39C225.661 65.3345 245.419 66.3857 256.933 78.7418Z" fill="#D4DEFF"/>
<path d="M39.0054 571.376C39.0054 571.376 -38.5013 501.195 24.9925 431.25C41.092 413.513 74.5522 405.75 76.0778 382.623C79.2587 334.46 45.9793 298.585 81.4752 249.303C129.134 183.136 176.222 200.169 244.283 192.832C292.304 187.657 302.315 155.755 340.217 127.97C477.624 27.2416 591.373 118.162 662.059 183.416C715.036 232.319 763.743 155.564 842.126 255.308C890.308 316.62 844.847 349.599 841.277 390.748C837.424 435.148 887.609 456.577 893.93 485.342C905.179 536.557 882.889 570.445 882.889 570.445L39.01 571.376H39.0054Z" fill="#DDE8FD"/>
<path d="M670.892 450.226C666.102 462.573 651.807 468.854 638.953 464.253C626.099 459.651 619.561 445.919 624.351 433.572C629.141 421.225 643.437 414.944 656.291 419.545C669.144 424.147 675.682 437.879 670.892 450.226Z" fill="white"/>
<path d="M890.567 583.999H22.7194C17.5075 583.999 13.2832 579.737 13.2832 574.476C13.2832 569.216 17.5075 564.953 22.7194 564.953H890.567C895.779 564.953 900.003 569.216 900.003 574.476C900.003 579.737 895.779 583.999 890.567 583.999Z" fill="#95A6DB"/>
<path d="M172.808 542.504C195.72 574.775 241.523 583.096 275.118 561.092C308.713 539.083 317.375 495.084 294.468 462.813C271.557 430.542 225.753 422.222 192.158 444.226C158.564 466.234 149.902 510.233 172.808 542.504Z" fill="#6A86CE"/>
<path d="M183.672 535.391C202.489 561.898 240.113 568.731 267.712 550.656C270.592 548.767 273.254 546.687 275.679 544.433C279.792 540.629 283.237 536.353 286.005 531.752C287.053 530.006 288.004 528.215 288.852 526.389C295.08 512.982 295.905 497.548 290.698 483.357C288.996 478.711 286.636 474.199 283.608 469.932C269.576 450.164 245.079 441.335 222.085 445.62C214.248 447.081 206.583 450.07 199.568 454.662C193.493 458.64 188.411 463.495 184.382 468.929C183.162 470.569 182.04 472.261 181.015 474.003C178.233 478.72 176.174 483.771 174.862 488.987C170.976 504.399 173.643 521.267 183.672 535.396V535.391Z" fill="#92B5F8"/>
<path d="M184.383 468.928L288.853 526.388C295.081 512.981 295.906 497.547 290.699 483.355L222.086 445.619C214.249 447.08 206.585 450.069 199.569 454.661C193.494 458.639 188.412 463.494 184.383 468.928Z" fill="#D4DEFF"/>
<path d="M174.863 488.982L275.68 544.432C279.793 540.628 283.238 536.352 286.006 531.751L181.017 474.002C178.234 478.719 176.176 483.77 174.863 488.986V488.982Z" fill="#D4DEFF"/>
<path d="M250.172 439.299C256.812 444.604 257.299 446.247 254.535 454.007C259.942 447.664 261.658 447.192 269.846 449.815C263.206 444.51 262.719 442.867 265.483 435.107C259.96 441.486 258.249 441.954 250.172 439.299Z" fill="white"/>
<path d="M80.334 559.493V568.49C80.334 572.005 83.3016 574.855 86.9602 574.855H201.289C204.947 574.855 207.915 572.005 207.915 568.49V559.493C207.915 557.925 207.326 556.495 206.348 555.381C205.133 554.001 203.315 553.123 201.284 553.123H86.9648C84.9385 553.123 83.1208 554.001 81.9013 555.381C80.9229 556.49 80.334 557.925 80.334 559.493Z" fill="#92B5F8"/>
<path d="M201.582 553.123H198.262V574.855H201.582V553.123Z" fill="#6A86CE"/>
<path d="M187.656 553.123H184.336V574.855H187.656V553.123Z" fill="#6A86CE"/>
<path d="M173.732 553.123H170.412V574.855H173.732V553.123Z" fill="#6A86CE"/>
<path d="M159.802 553.123H156.482V574.855H159.802V553.123Z" fill="#6A86CE"/>
<path d="M145.877 553.123H142.557V574.855H145.877V553.123Z" fill="#6A86CE"/>
<path d="M131.953 553.123H128.633V574.855H131.953V553.123Z" fill="#6A86CE"/>
<path d="M118.027 553.123H114.707V574.855H118.027V553.123Z" fill="#6A86CE"/>
<path d="M104.097 553.123H100.777V574.855H104.097V553.123Z" fill="#6A86CE"/>
<path d="M90.1736 553.123H86.8535V574.855H90.1736V553.123Z" fill="#6A86CE"/>
<path d="M81.9004 555.381H206.352C205.137 554.001 203.319 553.123 201.288 553.123H86.9639C84.9376 553.123 83.1199 554.001 81.9004 555.381Z" fill="#6A86CE"/>
<path d="M81.9004 572.598H206.352C205.137 573.978 203.319 574.856 201.288 574.856H86.9639C84.9376 574.856 83.1199 573.978 81.9004 572.598Z" fill="#6A86CE"/>
<path d="M88.8289 537.76V546.758C88.8289 550.272 91.7965 553.123 95.4551 553.123H209.784C213.442 553.123 216.41 550.272 216.41 546.758V537.76C216.41 536.192 215.821 534.762 214.843 533.649C213.628 532.268 211.81 531.391 209.779 531.391H95.4551C93.4241 531.391 91.611 532.268 90.3915 533.649C89.4131 534.758 88.8242 536.192 88.8242 537.76H88.8289Z" fill="#92B5F8"/>
<path d="M210.076 531.395H206.756V553.127H210.076V531.395Z" fill="#6A86CE"/>
<path d="M196.146 531.395H192.826V553.127H196.146V531.395Z" fill="#6A86CE"/>
<path d="M182.222 531.395H178.902V553.127H182.222V531.395Z" fill="#6A86CE"/>
<path d="M168.297 531.395H164.977V553.127H168.297V531.395Z" fill="#6A86CE"/>
<path d="M154.367 531.395H151.047V553.127H154.367V531.395Z" fill="#6A86CE"/>
<path d="M140.443 531.395H137.123V553.127H140.443V531.395Z" fill="#6A86CE"/>
<path d="M126.517 531.395H123.197V553.127H126.517V531.395Z" fill="#6A86CE"/>
<path d="M112.594 531.395H109.273V553.127H112.594V531.395Z" fill="#6A86CE"/>
<path d="M98.6638 531.395H95.3438V553.127H98.6638V531.395Z" fill="#6A86CE"/>
<path d="M90.3906 533.649H214.846C213.632 532.268 211.814 531.391 209.783 531.391H95.4542C93.4232 531.391 91.6101 532.268 90.3906 533.649Z" fill="#6A86CE"/>
<path d="M90.3906 550.865H214.846C213.632 552.246 211.814 553.124 209.783 553.124H95.4542C93.4232 553.124 91.6101 552.246 90.3906 550.865Z" fill="#6A86CE"/>
<path d="M74.8113 516.028V525.025C74.8113 528.54 77.7789 531.391 81.4375 531.391H195.766C199.425 531.391 202.392 528.54 202.392 525.025V516.028C202.392 514.46 201.803 513.03 200.825 511.917C199.61 510.536 197.793 509.658 195.762 509.658H81.4375C79.4065 509.658 77.5935 510.536 76.3739 511.917C75.3955 513.026 74.8066 514.46 74.8066 516.028H74.8113Z" fill="#92B5F8"/>
<path d="M196.058 509.662H192.738V531.394H196.058V509.662Z" fill="#6A86CE"/>
<path d="M182.129 509.662H178.809V531.394H182.129V509.662Z" fill="#6A86CE"/>
<path d="M168.205 509.662H164.885V531.394H168.205V509.662Z" fill="#6A86CE"/>
<path d="M154.279 509.662H150.959V531.394H154.279V509.662Z" fill="#6A86CE"/>
<path d="M140.355 509.662H137.035V531.394H140.355V509.662Z" fill="#6A86CE"/>
<path d="M126.426 509.662H123.105V531.394H126.426V509.662Z" fill="#6A86CE"/>
<path d="M112.5 509.662H109.18V531.394H112.5V509.662Z" fill="#6A86CE"/>
<path d="M98.5759 509.662H95.2559V531.394H98.5759V509.662Z" fill="#6A86CE"/>
<path d="M84.6501 509.662H81.3301V531.394H84.6501V509.662Z" fill="#6A86CE"/>
<path d="M76.373 511.92H200.829C199.614 510.54 197.796 509.662 195.765 509.662H81.4366C79.4056 509.662 77.5926 510.54 76.373 511.92Z" fill="#6A86CE"/>
<path d="M76.373 529.137H200.829C199.614 530.518 197.796 531.395 195.765 531.395H81.4366C79.4056 531.395 77.5926 530.518 76.373 529.137Z" fill="#6A86CE"/>
<path d="M249.633 506.918L258.661 508.94C258.661 508.94 266.33 510.317 268.742 504.597C271.153 498.878 263.952 495.733 263.952 495.733L252.466 491.756L249.633 506.922V506.918Z" fill="#F37A50"/>
<path d="M264.281 493.89C264.281 493.89 269.047 490.718 273.054 485.618C275.293 482.763 280.955 475.022 286.204 478.915C286.988 479.494 287.609 480.62 287.303 483.146C286.853 486.874 285.453 491.565 279.481 498.745C272.312 507.359 272.674 509.377 269.789 512.459C266.799 515.653 262.213 511.613 258.062 508.611C259.277 509.021 262.602 509.823 268.514 504.241C270.281 502.575 260.233 500.237 264.281 493.894V493.89Z" fill="#08074A"/>
<path d="M180.106 473.574L254.947 489.69C254.947 489.69 256.268 505.796 249.939 509.119C230.682 505.734 200.337 508.308 187.46 494.46C170.211 475.913 180.102 473.574 180.102 473.574H180.106Z" fill="#6A86CE"/>
<path d="M130.556 382.284C129.42 371.492 124.491 362.619 114.767 359.318C104.913 355.973 94.5544 362.637 94.5544 362.637C94.5544 362.637 84.4551 360.993 77.5089 371.563C70.5628 382.133 78.5476 389.055 76.2384 396.297C74.8705 400.587 64.4095 403.193 69.4963 415.553C70.9662 419.116 76.0483 420.827 80.0175 420.408C86.9869 419.678 92.9361 416.039 96.1959 418.123C106.944 425.001 126.781 418.506 128.228 410.31C128.673 407.772 147.87 409.299 143.057 393.318C140.618 385.22 131.567 391.923 130.551 382.28L130.556 382.284Z" fill="#060534"/>
<path d="M88.7118 397.357C94.0072 409.094 106.082 416.252 115.676 412.256C125.27 408.261 129.707 393.669 124.412 381.932C119.116 370.195 106.091 364.877 96.4973 368.877C86.9034 372.876 83.4164 385.624 88.7118 397.357Z" fill="#F37A50"/>
<path d="M119.923 391.343C120.966 391.495 121.935 390.804 122.093 389.807C122.251 388.804 121.532 387.873 120.489 387.722C119.45 387.571 118.476 388.261 118.319 389.263C118.161 390.261 118.88 391.196 119.918 391.348L119.923 391.343Z" fill="black"/>
<path d="M103.593 391.589C104.237 392.43 105.471 392.609 106.347 391.985C107.223 391.366 107.409 390.181 106.76 389.339C106.115 388.497 104.882 388.319 104.005 388.943C103.129 389.562 102.943 390.747 103.593 391.589Z" fill="black"/>
<path d="M101.788 389.343C101.922 389.276 102.033 389.169 102.098 389.027C103.049 386.969 105.711 386.528 105.738 386.523C106.109 386.466 106.364 386.127 106.304 385.771C106.244 385.414 105.896 385.169 105.52 385.227C105.381 385.249 102.103 385.775 100.846 388.497C100.693 388.831 100.846 389.218 101.194 389.365C101.394 389.45 101.607 389.436 101.788 389.347V389.343Z" fill="#060534"/>
<path d="M123.707 387.263C123.776 387.237 123.836 387.197 123.897 387.148C124.175 386.903 124.198 386.488 123.948 386.221C121.982 384.128 119.362 384.809 119.25 384.836C118.889 384.934 118.675 385.299 118.777 385.647C118.879 385.994 119.255 386.199 119.621 386.101C119.709 386.079 121.55 385.629 122.932 387.099C123.132 387.312 123.447 387.37 123.711 387.263H123.707Z" fill="#060534"/>
<path d="M113.742 393.499C114.707 394.515 115.546 395.557 116.483 396.163C116.798 396.368 116.886 396.782 116.691 397.094C115.88 398.381 113.598 399.392 112.203 399.913C111.999 399.989 111.841 399.731 112.013 399.597C113.441 398.47 114.067 397.624 114.331 397.161C114.466 396.929 114.47 396.653 114.354 396.412C114.085 395.865 113.557 394.742 113.204 393.816C113.084 393.495 113.51 393.25 113.747 393.504L113.742 393.499Z" fill="#DE623C"/>
<path d="M106.003 403.267C105.915 402.791 106.017 402.332 106.518 402.381C107.798 402.514 109.912 402.693 111.929 402.67C113.946 402.648 116.056 402.425 117.331 402.269C117.832 402.207 117.962 402.666 117.869 403.142C117.484 405.12 115.198 407.365 112.11 407.396C109.017 407.427 106.337 405.049 106.003 403.267Z" fill="white"/>
<path d="M86.2359 394.338C97.9117 390.779 115.912 376.85 116.186 370.614C112.555 363.79 98.1807 363.63 91.8327 368.147C85.4893 372.663 79.5077 386.115 86.2313 394.338H86.2359Z" fill="#060534"/>
<path d="M90.5288 390.889C93.0745 392.64 93.9323 395.677 92.4439 397.682C90.9554 399.686 87.6817 399.891 85.136 398.141C82.5904 396.39 81.7325 393.352 83.221 391.348C84.7094 389.343 87.9831 389.143 90.5288 390.889Z" fill="#F37A50"/>
<path d="M89.3888 397.236C89.4769 397.187 89.5604 397.12 89.6207 397.036C90.5156 395.788 90.5481 394.421 89.7041 393.383C88.8417 392.319 87.3022 391.878 86.041 392.332C85.6885 392.461 85.5077 392.84 85.6422 393.178C85.7766 393.517 86.1708 393.69 86.5232 393.561C87.2141 393.312 88.1322 393.588 88.6237 394.189C89.0921 394.768 89.0457 395.512 88.4893 396.283C88.276 396.581 88.3548 396.991 88.6655 397.196C88.888 397.343 89.1663 397.347 89.3842 397.232L89.3888 397.236Z" fill="#DE623C"/>
<path d="M126.675 383.287C126.675 383.287 118.579 383.135 110.826 375.015C111.763 369.946 116.186 368.605 116.186 368.605L126.675 383.287Z" fill="#060534"/>
<path d="M153.949 409.615C155.665 412.43 165.941 412.252 166.525 411.255C169.168 397.259 158.452 372.779 158.452 372.779L153.068 371.545C153.068 371.545 155.336 391.62 153.949 409.615Z" fill="#F37A50"/>
<path d="M134.34 439.594C143.03 435.024 166.052 414.178 166.581 410.775L154.46 407.176C154.46 407.176 127.139 425.514 122.757 428.77C115.157 434.391 120.165 447.081 134.34 439.594Z" fill="#F37A50"/>
<path d="M162.951 368.815C161.471 370.575 159.06 372.018 159.273 374.232L153.046 374.085C151.02 367.127 155.731 359.083 156.32 358.343C157.841 356.428 158.434 355.439 158.81 355.519C159.19 355.595 161.244 356.602 159.12 359.457C156.459 363.038 161.179 363.247 164.842 354.464C165.761 352.263 169.521 349.907 169.707 352.116C169.911 354.548 169.67 360.811 162.946 368.815H162.951Z" fill="#F37A50"/>
<path d="M229.639 558.593L233.238 562.085C233.238 562.085 238.969 567.172 244.176 563.559C249.388 559.947 245.405 551.591 245.405 551.591L239.572 546.25L229.635 558.593H229.639Z" fill="#F37A50"/>
<path d="M116.464 407.67C116.464 407.67 117.702 417.394 118.105 421.314L103.555 424.459C103.93 416.481 104.389 408.325 104.389 408.325L116.469 407.666L116.464 407.67Z" fill="#F37A50"/>
<path d="M125.64 508.772L185.601 495.009C185.601 495.009 185.652 479.958 182.248 474.631C178.845 469.303 123.535 480.853 123.535 480.853L125.645 508.772H125.64Z" fill="#6A86CE"/>
<path d="M100.332 474.872C99.428 478.814 95.2316 490.831 97.6243 499.49C100.091 508.43 108.34 515.071 119.562 512.8C119.562 512.8 138.439 497.254 129.044 474.373C129.044 474.373 117.095 472.279 100.328 474.872H100.332Z" fill="#768FDB"/>
<path d="M118.305 515.181L172.539 510.068C172.539 510.068 189.311 499.253 187.934 492.981C186.557 486.71 129.415 479.516 129.415 479.516C96.1592 476.572 93.2564 516.054 118.305 515.177V515.181Z" fill="#768FDB"/>
<path d="M187.933 492.982L241.003 545.951C241.003 545.951 235.397 559.002 228.038 558.343C208.174 542.13 174.889 528.963 172.539 510.064C169.752 487.686 187.933 492.977 187.933 492.977V492.982Z" fill="#768FDB"/>
<path d="M103.917 418.436L119.761 417.83C128.488 425.714 137.038 432.262 138.133 437.616C139.575 444.662 130.25 478.35 130.25 478.35C117.341 482.501 106.221 482.902 97.0077 479.33C99.8872 460.778 81.7475 441.473 91.2161 427.554C93.5763 424.079 102.498 422.485 103.912 418.436H103.917Z" fill="#FD7166"/>
<path d="M245.03 550.681C245.03 550.681 250.747 549.746 256.622 546.748C259.91 545.073 268.446 540.352 271.493 546.013C271.947 546.86 272.012 548.129 270.626 550.294C268.576 553.487 265.247 557.176 256.673 561.256C246.388 566.151 247.056 568.436 243.082 570.062C238.969 571.741 235.357 565.91 232.918 561.501C233.841 562.369 236.498 564.445 244.311 561.786C246.643 560.993 238.566 554.797 245.03 550.69V550.681Z" fill="#08074A"/>
<path d="M26.9345 377.812C28.6502 379.358 31.2469 380.471 31.3489 382.694L37.4928 381.728C38.5083 374.57 32.6889 367.22 32.0027 366.57C30.2221 364.873 29.4941 363.973 29.1324 364.098C28.7707 364.222 26.8788 365.492 29.3874 368.035C32.5359 371.229 27.8897 372.062 23.007 363.844C21.7828 361.786 17.7209 359.946 17.8507 362.16C17.9944 364.597 19.1305 370.77 26.9299 377.808L26.9345 377.812Z" fill="#F37A50"/>
<path d="M54.5524 417.229C54.2417 420.886 43.7251 425.514 42.6308 424.779C32.8515 411.826 31.3027 381.978 31.3027 381.978L36.1344 378.205C36.1344 378.205 44.0173 399.626 54.5524 417.229Z" fill="#F37A50"/>
<path d="M87.6656 444.173C76.69 442.275 44.3797 427.932 42.5527 424.48L54.1451 416.48C54.1451 416.48 90.114 426.676 95.9982 428.649C106.195 432.039 105.574 447.299 87.661 444.173H87.6656Z" fill="#F37A50"/>
<path d="M765.532 239.848C759.049 252.075 743.474 256.939 730.745 250.708C718.017 244.481 712.953 229.519 719.44 217.292C725.923 205.065 741.498 200.201 754.227 206.433C766.955 212.66 772.019 227.621 765.532 239.848Z" fill="#D4DEFF"/>
<path d="M633.328 126.666L654.051 98.5996C654.051 98.5996 674.319 102.751 680.741 126.688C684.724 141.525 703.55 151.244 703.55 151.244L682.716 179.462C682.716 179.462 657.756 169.707 653.504 152.674C649.006 134.657 633.328 126.666 633.328 126.666Z" fill="#D4DEFF"/>
<path d="M676.957 150.568C670.804 154.394 662.049 151.9 657.403 145.005C652.757 138.105 653.981 129.415 660.139 125.593C666.292 121.767 675.046 124.261 679.693 131.157C684.339 138.052 683.115 146.746 676.957 150.568Z" fill="#E3EAFF"/>
<path d="M258.06 294.047C266.332 304.555 264.167 319.517 253.228 327.463C242.29 335.409 226.714 333.329 218.442 322.822C210.17 312.314 212.335 297.352 223.274 289.406C234.212 281.46 249.788 283.54 258.06 294.047Z" fill="white"/>
<path d="M548.907 118.751L520.742 127.552C521.224 128.969 521.702 130.389 522.184 131.806C522.88 133.864 529.784 133.548 537.607 131.102C545.429 128.657 551.202 125.009 550.507 122.951C550.442 122.764 548.907 118.746 548.907 118.746V118.751Z" fill="#C2D0FF"/>
<path d="M549.143 118.929C549.839 120.987 544.065 124.635 536.243 127.08C528.42 129.526 521.516 129.837 520.82 127.784C520.125 125.726 525.898 122.078 533.72 119.633C541.543 117.187 548.447 116.875 549.143 118.929Z" fill="#D4DEFF"/>
<path d="M754.886 127.978L728.803 114.504C728.066 115.818 727.334 117.132 726.596 118.446C725.53 120.352 730.538 124.927 737.781 128.673C745.023 132.414 751.761 133.907 752.828 132C752.925 131.826 754.886 127.982 754.886 127.982V127.978Z" fill="#C2D0FF"/>
<path d="M754.919 128.264C753.853 130.17 747.115 128.678 739.872 124.937C732.629 121.195 727.622 116.616 728.688 114.714C729.755 112.808 736.492 114.3 743.735 118.041C750.978 121.783 755.986 126.362 754.919 128.268V128.264Z" fill="#D4DEFF"/>
<path d="M750.528 305.949L724.519 292.332C723.777 293.642 723.035 294.951 722.289 296.261C721.213 298.158 726.193 302.764 733.413 306.545C740.637 310.327 747.361 311.85 748.441 309.953C748.538 309.779 750.523 305.949 750.523 305.949H750.528Z" fill="#C2D0FF"/>
<path d="M750.552 306.233C749.476 308.131 742.748 306.607 735.523 302.826C728.299 299.044 723.319 294.438 724.399 292.541C725.475 290.643 732.203 292.167 739.428 295.948C746.647 299.73 751.632 304.336 750.552 306.233Z" fill="#D4DEFF"/>
<path d="M826.781 276.867L799.789 288.577C800.429 289.936 801.069 291.294 801.709 292.657C802.636 294.626 809.462 293.588 816.96 290.337C824.453 287.085 829.781 282.849 828.853 280.88C828.77 280.698 826.785 276.867 826.785 276.867H826.781Z" fill="#C2D0FF"/>
<path d="M827.037 277.018C827.964 278.991 822.636 283.223 815.143 286.475C807.645 289.726 800.819 290.764 799.892 288.795C798.965 286.826 804.292 282.59 811.786 279.339C819.279 276.087 826.109 275.049 827.037 277.018Z" fill="#D4DEFF"/>
<path d="M230.784 242.404L203.969 230.324C203.31 231.674 202.652 233.023 201.989 234.378C201.034 236.337 206.297 240.645 213.739 243.999C221.186 247.353 227.998 248.484 228.953 246.529C229.041 246.351 230.78 242.409 230.78 242.409L230.784 242.404Z" fill="#C2D0FF"/>
<path d="M230.831 242.684C229.876 244.644 223.064 243.508 215.617 240.154C208.17 236.8 202.907 232.493 203.867 230.533C204.822 228.573 211.634 229.709 219.081 233.063C226.528 236.417 231.791 240.724 230.831 242.684Z" fill="#D4DEFF"/>
<path d="M485.96 261.294C560.558 261.294 621.03 203.204 621.03 131.546C621.03 59.8888 560.558 1.79883 485.96 1.79883C411.363 1.79883 350.891 59.8888 350.891 131.546C350.891 203.204 411.363 261.294 485.96 261.294Z" fill="white"/>
<path d="M485.961 263.094C467.473 263.094 449.537 259.615 432.654 252.756C416.346 246.128 401.703 236.645 389.127 224.565C376.552 212.485 366.675 198.414 359.78 182.753C352.639 166.535 349.018 149.306 349.018 131.547C349.018 113.788 352.639 96.559 359.78 80.3411C366.68 64.6756 376.552 50.6091 389.127 38.5292C401.703 26.4493 416.351 16.9618 432.654 10.3383C449.537 3.47876 467.473 0 485.961 0C504.448 0 522.379 3.47876 539.267 10.3383C555.575 16.9662 570.219 26.4493 582.794 38.5292C595.37 50.6091 605.246 64.6756 612.141 80.3411C619.282 96.559 622.904 113.788 622.904 131.547C622.904 149.306 619.282 166.535 612.141 182.753C605.242 198.419 595.37 212.485 582.794 224.565C570.219 236.645 555.571 246.128 539.267 252.756C522.384 259.615 504.448 263.094 485.961 263.094ZM485.961 3.60348C412.521 3.60348 352.769 61.0008 352.769 131.547C352.769 202.093 412.521 259.491 485.961 259.491C559.401 259.491 619.152 202.093 619.152 131.547C619.152 61.0008 559.401 3.60348 485.961 3.60348Z" fill="#D4DEFF"/>
<path d="M586.428 552.809C578.253 563.285 558.171 556.858 558.839 571.027C589.373 570.844 602.064 571.027 602.064 571.027C602.022 567.775 601.42 560.047 600.715 557.022L586.428 552.809Z" fill="black"/>
<path d="M632.118 553.084C623.943 563.56 603.865 557.133 604.528 571.302C635.062 571.119 647.753 571.302 647.753 571.302C647.712 568.046 647.109 560.322 646.404 557.298L632.118 553.084Z" fill="black"/>
<path d="M572.296 392.869C572.296 392.869 567.339 460.012 569.352 474.943C571.364 489.869 578.496 509.009 577.689 558.384C587.645 560.701 602.065 558.384 602.065 558.384C602.065 558.384 604.203 502.555 593.682 477.616C597.962 453.393 611.692 397.911 611.692 397.911L572.301 392.869H572.296Z" fill="#060534"/>
<path d="M591.135 394.705C591.135 394.705 601.146 470.089 606.047 484.387C610.948 498.685 620.505 510.774 629.376 559.414C639.605 559.891 651.795 557.472 651.795 557.472C651.795 557.472 647.752 497.718 631.819 483.683C631.281 459.118 634.398 395.191 634.398 395.191L591.139 394.705H591.135Z" fill="#08074A"/>
<path d="M631.907 271.381C626.482 284.405 613.452 291.643 602.801 287.55C592.15 283.456 587.916 269.581 593.341 256.557C598.767 243.533 611.796 236.295 622.448 240.388C633.094 244.482 637.332 258.361 631.902 271.385L631.907 271.381Z" fill="#F37A50"/>
<path d="M597.974 260.832C597.344 261.701 596.101 261.915 595.197 261.309C594.292 260.703 594.07 259.509 594.701 258.641C595.331 257.772 596.574 257.558 597.478 258.16C598.382 258.761 598.605 259.959 597.979 260.828L597.974 260.832Z" fill="black"/>
<path d="M612.915 266.69C612.233 267.63 610.888 267.862 609.91 267.207C608.931 266.552 608.69 265.26 609.372 264.321C610.054 263.381 611.398 263.149 612.377 263.804C613.355 264.459 613.596 265.75 612.915 266.69Z" fill="black"/>
<path d="M601.001 263.889C598.303 265.933 594.932 268.396 594.932 268.396C594.932 268.396 594.899 271.519 598.697 272.873C597.324 271.675 596.114 270.08 597.547 268.24C598.975 266.401 601.001 263.889 601.001 263.889Z" fill="#DE623C"/>
<path d="M616.847 265.438C616.397 265.438 615.989 265.144 615.878 264.703C615.85 264.6 615.182 262.11 612.961 262.097C612.409 262.097 611.969 261.665 611.969 261.135C611.969 260.605 612.423 260.182 612.97 260.182C616.008 260.195 617.468 262.85 617.816 264.253C617.946 264.765 617.612 265.282 617.079 265.406C617 265.424 616.926 265.433 616.847 265.433V265.438Z" fill="black"/>
<path d="M600.06 256.779C599.777 256.779 599.499 256.641 599.346 256.387C599.332 256.365 598.794 255.541 597.904 255.39C597.278 255.283 596.569 255.528 595.799 256.12C595.442 256.396 594.918 256.338 594.635 255.995C594.348 255.652 594.408 255.149 594.765 254.877C595.933 253.978 597.097 253.626 598.219 253.826C599.866 254.12 600.742 255.519 600.774 255.581C601.006 255.96 600.872 256.45 600.478 256.672C600.343 256.748 600.199 256.784 600.06 256.784V256.779Z" fill="black"/>
<path d="M628.119 272.739C624.196 260.619 629.158 254.183 629.158 254.183C625.791 253.532 624.479 254.655 624.479 254.655C622.643 251.029 624.062 248.432 624.062 248.432C617.097 245.826 613.633 250.156 607.35 251.617C598.749 253.617 588.121 250.321 587.124 240.232C586.98 238.771 588.649 237.827 589.92 238.642C591.098 239.399 592.66 240.009 594.608 239.956C594.608 239.956 592.804 238.005 592.711 235.301C592.66 233.809 594.478 233.007 595.67 233.96C597.46 235.39 600.775 236.74 606.692 235.675C610.629 234.967 619.643 228.909 625.258 230.09C629.849 231.056 633.489 234.811 635.061 240.183C635.061 240.183 646.342 241.305 647.474 253.234C648.587 264.953 634.453 273.946 634.453 273.946L628.11 272.739H628.119Z" fill="black"/>
<path d="M626.58 270.716C623.594 272.342 622.296 275.567 623.678 277.914C625.064 280.262 628.607 280.85 631.598 279.224C634.584 277.598 635.882 274.378 634.5 272.026C633.114 269.678 629.571 269.09 626.58 270.716Z" fill="#F37A50"/>
<path d="M627.067 277.767C626.974 277.704 626.895 277.62 626.835 277.522C626.005 276.061 626.135 274.569 627.178 273.531C628.249 272.466 629.979 272.154 631.3 272.791C631.671 272.97 631.82 273.402 631.634 273.758C631.449 274.114 630.999 274.257 630.628 274.079C629.905 273.731 628.866 273.932 628.263 274.533C627.684 275.112 627.642 275.927 628.157 276.831C628.356 277.183 628.222 277.62 627.855 277.811C627.596 277.945 627.294 277.923 627.067 277.771V277.767Z" fill="#DE623C"/>
<path d="M595.55 277.037C595.258 276.578 595.67 276.008 596.222 276.12C597.618 276.4 599.927 276.823 602.148 277.01C604.369 277.202 606.72 277.18 608.144 277.14C608.705 277.122 609.006 277.754 608.635 278.16C607.49 279.398 605.19 281.224 601.782 280.935C598.374 280.641 596.449 278.449 595.55 277.037Z" fill="white"/>
<path d="M581.222 294.102C581.222 294.102 581.732 292.774 537.788 293.117L526.01 306.493C538.2 315.883 579.038 317.553 579.038 317.553L581.222 294.102Z" fill="#060534"/>
<path d="M597.188 293.01L611.047 291.768L624.457 295.362L609.35 310.293L597.188 293.01Z" fill="#95A6DB"/>
<path d="M601.99 299.865C607.638 304.319 608.793 307.397 620.793 301.446L622.592 283.727L603.061 282.248L601.995 299.869L601.99 299.865Z" fill="#F37A50"/>
<path d="M628.012 302.493L623.904 300.93L624.451 295.358L613.058 304.146L609.84 304.636L606.766 303.602L597.181 293.006L596.69 298.583L593.064 299.282L579.997 301.313L578.443 370.991L573.287 394.696C590.629 400.237 610.021 401.618 629.088 399.097L628.448 375.298L641.988 307.197L628.008 302.484L628.012 302.493Z" fill="#95A6DB"/>
<path d="M607.341 311.682L599.152 364.883L603.687 370.932L609.595 366.571L611.607 312.123L607.341 311.682Z" fill="#08074A"/>
<path d="M606.855 305.398L609.846 304.641L612.893 305.919L611.604 312.226L607.315 311.856L606.855 305.398Z" fill="#08074A"/>
<path d="M596.997 293.455L594.943 357.721L586.086 399.105C586.086 399.105 572.083 397.747 563.477 389.885L574.503 358.732L578.273 293.629L596.992 293.455H596.997Z" fill="#08074A"/>
<path d="M596.998 293.455L594.958 356.861L584.766 308.27L596.998 293.455Z" fill="#494C7F"/>
<path d="M625.505 297.566L607.318 401.756C607.318 401.756 631.449 404.602 641.372 398.335L635.989 364.086L642.569 305.94L625.505 297.571V297.566Z" fill="#08074A"/>
<path d="M625.505 297.566L614.877 358.634L633.907 312.559L625.505 297.566Z" fill="#494C7F"/>
<path d="M505.338 236.294C506.307 239.545 506.595 243.051 510.888 244.801C510.888 244.801 510.253 255.59 510.726 264.44C510.726 264.44 521.113 253.189 521.113 253.18C520.519 249.612 520.037 242.868 520.607 239.038C520.756 238.044 520.96 237.056 521.122 236.058C521.567 233.639 522.309 231.163 520.774 228.245C514.848 216.967 516.842 213.252 516.026 212.704C514.7 212.143 511.579 214.41 513.341 219.956C515.048 225.319 514.626 227.951 514.626 227.951C514.626 227.951 510.147 227.14 508.556 228.646C507.833 229.332 504.207 232.499 505.338 236.298V236.294Z" fill="#F37A50"/>
<path d="M507.75 251.5C513.806 249.562 516.991 248.689 521.698 248.689C532.827 280.551 540.761 292.555 537.454 301.699C534.695 309.325 525.969 308.715 521.698 303C516.069 295.463 511.084 266.827 507.75 251.5Z" fill="#060534"/>
<path d="M642.568 305.939L677.633 358.633L719.277 381.221L706.442 393.496L664.659 375.907L635.988 337.043L642.568 305.939Z" fill="#060534"/>
<path d="M609.847 304.639C609.847 304.639 604.69 309.641 599.947 310.924L594.336 296.679L597.188 293.014L609.847 304.644V304.639Z" fill="white"/>
<path d="M609.846 304.639C609.846 304.639 612.786 309.49 618.424 312.515L626.585 299.499L624.457 295.361L609.846 304.644V304.639Z" fill="white"/>
<path d="M490.886 36.4439C486.838 45.3257 476.062 49.3701 466.82 45.4816C457.579 41.593 453.364 31.2414 457.412 22.3641C461.46 13.4823 472.236 9.43785 481.478 13.3264C490.724 17.215 494.934 27.5666 490.886 36.4439Z" fill="#6A86CE"/>
<path d="M487.9 35.1886C484.575 42.4846 475.723 45.8075 468.133 42.6138C467.34 42.2797 466.593 41.8877 465.893 41.4468C464.711 40.6985 463.663 39.8076 462.768 38.8099C462.429 38.4312 462.114 38.0348 461.817 37.625C459.661 34.6318 458.72 30.9036 459.313 27.211C459.508 26.0039 459.865 24.7968 460.403 23.6253C462.884 18.1867 468.434 14.9529 474.249 14.9886C476.229 15.0019 478.241 15.3895 480.17 16.2046C481.84 16.9084 483.314 17.866 484.557 19.0152C484.932 19.3626 485.285 19.7234 485.619 20.102C486.523 21.131 487.265 22.2713 487.835 23.4873C489.518 27.0729 489.671 31.3045 487.9 35.193V35.1886Z" fill="#92B5F8"/>
<path d="M457.003 107.146C452.18 117.725 439.345 122.544 428.332 117.912C417.319 113.279 412.302 100.95 417.125 90.3711C421.947 79.7923 434.782 74.9728 445.795 79.6052C456.808 84.2376 461.825 96.5669 457.003 107.146Z" fill="#6A86CE"/>
<path d="M453.442 105.649C449.482 114.339 438.937 118.299 429.891 114.49C428.945 114.094 428.054 113.626 427.22 113.101C425.81 112.21 424.563 111.15 423.496 109.956C423.093 109.502 422.717 109.034 422.365 108.548C419.791 104.98 418.674 100.54 419.383 96.1433C419.615 94.7045 420.042 93.2703 420.682 91.8716C423.635 85.3907 430.252 81.5423 437.175 81.5823C439.535 81.5957 441.933 82.0634 444.233 83.03C446.222 83.8674 447.975 85.0121 449.454 86.3796C449.899 86.7938 450.326 87.2259 450.72 87.6757C451.796 88.9007 452.681 90.2592 453.358 91.7068C455.361 95.9829 455.547 101.021 453.437 105.653L453.442 105.649Z" fill="#92B5F8"/>
<path d="M608.786 120.825C603.963 131.404 591.128 136.224 580.115 131.591C569.103 126.959 564.085 114.63 568.908 104.051C573.73 93.472 586.565 88.6525 597.578 93.2849C608.591 97.9173 613.608 110.247 608.786 120.825Z" fill="#6A86CE"/>
<path d="M605.224 119.33C601.264 128.02 590.72 131.98 581.673 128.176C580.727 127.779 579.837 127.312 579.007 126.786C577.597 125.895 576.35 124.835 575.283 123.641C574.88 123.187 574.504 122.719 574.152 122.234C571.578 118.666 570.461 114.225 571.17 109.829C571.402 108.39 571.829 106.956 572.469 105.557C575.422 99.0763 582.039 95.2278 588.962 95.2679C591.323 95.2813 593.72 95.7489 596.02 96.7155C598.009 97.5529 599.762 98.6977 601.241 100.065C601.686 100.479 602.113 100.911 602.507 101.361C603.583 102.586 604.468 103.945 605.145 105.392C607.148 109.668 607.334 114.706 605.224 119.339V119.33Z" fill="#92B5F8"/>
<path d="M586.922 130.202C584.989 129.814 584.613 129.966 583.561 131.547C583.973 129.712 583.816 129.351 582.16 128.318C584.094 128.705 584.469 128.554 585.522 126.973C585.119 128.83 585.276 129.191 586.922 130.202Z" fill="white"/>
<path d="M548.152 66.3684L535.799 98.0158L496.964 197.541L492.944 207.844L481.342 203.719L416.963 180.825L446.755 104.702L461.923 65.9452L462.099 65.4909L505.084 51.0547L548.152 66.3684Z" fill="#6A86CE"/>
<path d="M490.853 59.9673L520.001 70.3324C517.386 77.1162 520.993 84.6528 528.055 87.1649L491.794 179.488C484.728 176.976 476.882 180.441 474.267 187.225L445.119 176.86C447.734 170.076 444.127 162.54 437.064 160.023L473.325 67.6999C480.392 70.2121 488.238 66.7467 490.853 59.9629V59.9673Z" fill="#92B5F8"/>
<path d="M491.145 99.2762C502.872 103.445 508.858 115.957 504.518 127.222C500.178 138.487 487.152 144.237 475.426 140.068C463.699 135.899 457.712 123.387 462.053 112.122C466.393 100.857 479.418 95.1071 491.145 99.2762Z" fill="#6A86CE"/>
<path d="M505.084 51.0547L487.978 80.7823L461.923 65.9452L461.482 65.6958L462.099 65.4909L505.084 51.0547Z" fill="#6A86CE"/>
<g style="mix-blend-mode:color-burn" opacity="0.2">
<path d="M458.098 75.8738L487.978 80.7824L461.923 65.9453L458.098 75.8738Z" fill="#193F1E"/>
</g>
<g style="mix-blend-mode:color-burn" opacity="0.2">
<path d="M505.084 51.0547L487.979 80.7823L507.941 52.0703L505.084 51.0547Z" fill="#193F1E"/>
</g>
<g style="mix-blend-mode:color-burn" opacity="0.2">
<path d="M535.798 98.0156L496.964 197.537L481.342 203.715L416.967 180.824L446.759 104.701H460.573C465.789 104.701 470.231 112.461 471.882 123.298L535.803 98.0201L535.798 98.0156Z" fill="#193F1E"/>
</g>
<path d="M570.004 89.0263L395.066 158.221L425.913 230.183L600.851 160.989L570.004 89.0263Z" fill="#6A86CE"/>
<path d="M566.904 116.219L578.737 143.826C571.773 146.579 568.453 154.236 571.318 160.926L446.83 210.163C443.964 203.473 435.989 200.279 429.024 203.036L417.195 175.429C424.16 172.672 427.48 165.019 424.614 158.329L549.103 109.092C551.968 115.782 559.944 118.976 566.909 116.219H566.904Z" fill="#92B5F8"/>
<path d="M517.733 150.178C522.496 161.286 516.978 173.994 505.418 178.569C493.853 183.143 480.624 177.843 475.862 166.738C471.1 155.629 476.618 142.922 488.177 138.347C499.742 133.773 512.971 139.073 517.733 150.178Z" fill="#6A86CE"/>
<path d="M469.282 138.285V214.947H388.266V138.285H445.282C445.342 122.954 450.688 110.566 457.282 110.566C463.876 110.566 469.227 122.954 469.282 138.285Z" fill="#6A86CE"/>
<path d="M457.274 110.678H400.271V196.849H457.274V110.678Z" fill="#92B5F8"/>
<path d="M448.996 158.726C448.996 169.456 439.94 178.151 428.774 178.151C417.609 178.151 408.553 169.452 408.553 158.726C408.553 148 417.609 139.301 428.774 139.301C439.94 139.301 448.996 148 448.996 158.726Z" fill="#6A86CE"/>
<g style="mix-blend-mode:color-burn" opacity="0.2">
<path d="M469.282 138.285V146.137H388.266V110.57H457.282C463.876 110.57 469.227 122.958 469.282 138.289V138.285Z" fill="#193F1E"/>
</g>
<path d="M457.278 110.566C450.684 110.566 445.333 122.954 445.277 138.285H364.256C364.316 122.954 369.667 110.566 376.256 110.566H457.273H457.278Z" fill="#6A86CE"/>
<path d="M442.657 110.566C439.74 110.566 437.176 113.105 435.702 116.945C431.232 117.052 427.643 120.352 427.643 124.406V124.424H386.68V124.406C386.68 120.682 383.656 117.595 379.701 117.034C381.176 113.145 383.754 110.566 386.694 110.566H442.657Z" fill="#92B5F8"/>
<path d="M577.128 171.359C571.643 183.394 557.036 188.877 544.507 183.608C531.978 178.338 526.265 164.307 531.756 152.272C537.241 140.237 551.847 134.754 564.377 140.023C576.906 145.292 582.614 159.323 577.128 171.359Z" fill="#6A86CE"/>
<path d="M573.081 169.656C568.574 179.54 556.578 184.048 546.284 179.719C545.208 179.269 544.197 178.739 543.247 178.137C541.642 177.126 540.223 175.915 539.013 174.561C538.554 174.044 538.123 173.509 537.724 172.957C534.798 168.899 533.528 163.844 534.33 158.842C534.594 157.202 535.081 155.572 535.804 153.982C539.166 146.61 546.692 142.227 554.57 142.272C557.255 142.29 559.981 142.815 562.601 143.915C564.864 144.869 566.858 146.169 568.541 147.724C569.051 148.192 569.529 148.686 569.983 149.198C571.207 150.592 572.218 152.138 572.988 153.786C575.269 158.65 575.478 164.383 573.076 169.652L573.081 169.656Z" fill="#92B5F8"/>
<path d="M568.546 147.728L537.724 172.957C534.798 168.899 533.528 163.843 534.33 158.841L554.57 142.271C557.255 142.289 559.981 142.815 562.601 143.915C564.864 144.868 566.858 146.169 568.541 147.723L568.546 147.728Z" fill="#D4DEFF"/>
<path d="M572.987 153.787L543.245 178.134C541.641 177.123 540.222 175.911 539.012 174.557L569.982 149.199C571.206 150.593 572.217 152.139 572.987 153.787Z" fill="#D4DEFF"/>
<path d="M544.879 141.859C543.029 144.01 542.973 144.58 544.387 146.981C542.189 145.208 541.591 145.155 539.055 146.509C540.905 144.358 540.96 143.788 539.546 141.387C541.786 143.164 542.379 143.217 544.879 141.859Z" fill="white"/>
<path d="M353.632 46.4082L318.451 59.1162C319.147 60.8889 319.838 62.6617 320.533 64.4301C321.539 67.0002 330.275 66.2207 340.045 62.6929C349.816 59.1651 356.919 54.2209 355.913 51.6508C355.82 51.4148 353.636 46.4082 353.636 46.4082H353.632Z" fill="#C2D0FF"/>
<path d="M353.942 46.6223C354.948 49.1924 347.844 54.1366 338.074 57.6643C328.304 61.1921 319.568 61.9716 318.562 59.4015C317.555 56.8314 324.664 51.8872 334.429 48.3594C344.199 44.8317 352.935 44.0522 353.942 46.6223Z" fill="#D4DEFF"/>
<path d="M716.526 382.75C716.526 382.75 722.864 413.689 710.349 442.958C696.819 445.154 694.375 441.466 694.375 441.466L694.839 396.117L716.526 382.754V382.75Z" fill="#6A86CE"/>
<path d="M666.779 469.724L691.309 444.517C691.309 444.517 697.388 434.5 710.353 442.958C709.064 450.508 697.068 463.278 678.576 476.646C672.061 476.053 666.779 469.724 666.779 469.724Z" fill="#6A86CE"/>
<path d="M692.867 369.654L692.862 369.663L689.797 376.059L704.802 384.509L712.499 378.883L712.295 369.128L695.927 363.387L692.867 369.654Z" fill="#F37A50"/>
<path d="M753.32 561.73C745.623 570.848 728.814 562.506 728.67 575.378C755.425 576.608 766.531 577.352 766.531 577.352C766.66 574.403 766.531 567.374 766.067 564.603L753.315 561.735L753.32 561.73Z" fill="#060534"/>
<path d="M854.998 549.262C854.748 560.999 836.367 566.112 844.477 576.357C866.382 561.551 876.105 554.175 876.105 554.175C874.325 551.77 869.284 545.031 867.151 543.115L854.998 549.258V549.262Z" fill="#060534"/>
<path d="M769.181 412.953L805.53 429.006C805.53 429.006 779.559 482.756 763.867 499.789C761.136 502.755 744.355 499.21 742.983 495.896C737.97 483.811 769.181 412.953 769.181 412.953Z" fill="#2E5BE6"/>
<path d="M766.149 492.987C774.092 516.065 769.566 565.921 769.566 565.921C769.566 565.921 756.898 564.674 748.297 562.126C745.807 521.931 741.763 503.704 742.598 488.934C747.012 479.714 760.478 480.275 766.149 492.987Z" fill="#2E5BE6"/>
<path d="M777.432 420.624L819.224 408.629C819.224 408.629 824.65 474.614 820.704 497.037C820.017 500.939 805.355 506.061 802.365 503.945C791.458 496.235 777.432 420.624 777.432 420.624Z" fill="#4E73E6"/>
<path d="M818.417 488.4C839.914 499.05 868.542 543.681 868.542 543.681C868.542 543.681 860.483 548.256 852.188 551.601C820.759 524.697 812.329 513.464 802.368 503.945C794.634 494.177 805.573 482.15 818.422 488.4H818.417Z" fill="#4E73E6"/>
<path d="M720.739 357.107C720.739 357.107 712.666 364.114 710.441 368.555C709.147 383.726 702.558 382.96 702.558 382.96C699.066 386.572 694.842 396.113 694.842 396.113C711.322 407.066 755.516 448.005 755.516 448.005C755.516 448.005 788.142 440.802 799.503 432.344C815.087 420.732 819.228 408.629 819.228 408.629C805.535 390.866 790.219 379.37 764.693 363.388C754.941 357.281 729.647 350.898 720.739 357.107Z" fill="#768FDB"/>
<path d="M690.614 346.603C700.969 356.184 703.009 370.286 695.177 378.099C687.341 385.912 672.595 384.473 662.241 374.892C651.887 365.311 649.842 351.209 657.678 343.396C665.514 335.583 680.26 337.017 690.614 346.603Z" fill="#F37A50"/>
<path d="M674.668 367.912C675.609 371.035 676.699 374.901 676.699 374.901C676.699 374.901 679.653 376.09 682.347 373.262C680.701 374.023 678.739 374.487 677.524 372.553C676.309 370.616 674.673 367.912 674.673 367.912H674.668Z" fill="#DE623C"/>
<path d="M684.127 336.506C673.911 327.833 662.917 334.951 662.917 334.951C662.917 334.951 663.784 332.225 660.075 330.412C659.88 332.63 658.902 334.813 657.353 336.465C646.906 347.601 643.168 356.612 648.983 358.884C651.051 359.69 645.974 368.113 660.205 372.83C659.407 371.119 654.793 366.826 655.452 363.69C656.115 360.545 659.05 364.763 662.495 359.022C665.973 353.227 666.33 348.104 671.519 345.761C675.905 344.055 692.204 349.574 692.978 350.394C691.203 348.51 688.615 340.309 684.127 336.497V336.506Z" fill="#43429B"/>
<path d="M668.439 379.409C668.439 379.409 675.46 382.799 678.131 382.669C675.664 380.487 681.687 376.024 683.797 373.725C687.618 369.561 686.969 362.131 694.207 364.937C698.895 359.512 687.483 348.256 687.483 348.256C703.142 353.953 707.826 366.897 698.607 381.574C692.533 391.244 676.656 387.747 668.439 379.409Z" fill="#43429B"/>
<path d="M678.911 361.008C679.616 360.206 679.513 359.008 678.679 358.331C677.844 357.654 676.597 357.752 675.892 358.553C675.187 359.355 675.289 360.553 676.124 361.23C676.958 361.907 678.206 361.809 678.911 361.008Z" fill="black"/>
<path d="M668.737 373.301C669.442 372.499 669.34 371.301 668.505 370.624C667.67 369.947 666.423 370.049 665.718 370.847C665.013 371.649 665.115 372.847 665.95 373.524C666.785 374.201 668.032 374.103 668.737 373.301Z" fill="black"/>
<path d="M663.46 373.494C663.678 373.249 663.757 372.901 663.637 372.576C663.312 371.677 663.317 370.915 663.651 370.3C664.23 369.245 665.621 368.866 665.635 368.861C666.155 368.723 666.465 368.207 666.326 367.708C666.187 367.205 665.654 366.906 665.13 367.04C665.042 367.062 662.913 367.619 661.926 369.4C661.318 370.496 661.272 371.77 661.782 373.187C661.958 373.681 662.519 373.939 663.029 373.77C663.201 373.712 663.349 373.614 663.456 373.489L663.46 373.494Z" fill="#060534"/>
<path d="M679.012 355.757C679.151 355.601 679.239 355.396 679.244 355.174C679.257 354.652 678.831 354.22 678.288 354.207C676.225 354.154 674.634 354.657 673.559 355.704C672.172 357.053 672.223 358.799 672.228 358.875C672.246 359.396 672.706 359.801 673.248 359.779C673.786 359.757 674.208 359.325 674.189 358.808C674.189 358.773 674.189 357.757 674.973 357.013C675.655 356.363 676.749 356.055 678.237 356.091C678.548 356.1 678.826 355.966 679.012 355.757Z" fill="#060534"/>
<path d="M687.65 348.149C688.072 351.37 690.641 353.713 693.386 353.379C696.131 353.045 698.014 350.163 697.587 346.942C697.165 343.718 694.596 341.379 691.851 341.709C689.106 342.043 687.224 344.925 687.65 348.145V348.149Z" fill="#F37A50"/>
<path d="M694.514 350.364C694.421 350.422 694.31 350.462 694.194 350.471C692.497 350.649 691.133 349.976 690.54 348.676C689.932 347.344 690.285 345.709 691.379 344.796C691.69 344.538 692.153 344.569 692.422 344.867C692.691 345.161 692.659 345.611 692.348 345.869C691.75 346.368 691.551 347.353 691.894 348.11C692.223 348.836 692.983 349.175 694.036 349.063C694.439 349.019 694.806 349.304 694.852 349.691C694.885 349.967 694.745 350.226 694.518 350.364H694.514Z" fill="#DE623C"/>
<path d="M689.386 370.033C689.024 369.681 688.565 369.494 688.315 369.926C687.675 371.026 686.585 372.822 685.379 374.421C684.174 376.02 682.736 377.574 681.846 378.501C681.498 378.866 681.818 379.236 682.287 379.445C684.229 380.3 687.517 379.797 689.363 377.343C691.213 374.893 690.73 371.347 689.381 370.029L689.386 370.033Z" fill="white"/>
<path d="M608.085 564.295V573.23C608.085 576.723 605.141 579.551 601.505 579.551H487.988C484.353 579.551 481.408 576.718 481.408 573.23V564.295C481.408 562.741 481.993 561.315 482.962 560.215C484.172 558.843 485.976 557.975 487.988 557.975H601.505C603.518 557.975 605.322 558.843 606.532 560.215C607.501 561.315 608.085 562.741 608.085 564.295Z" fill="#92B5F8"/>
<path d="M490.998 557.975H487.701V579.551H490.998V557.975Z" fill="#6A86CE"/>
<path d="M504.824 557.975H501.527V579.551H504.824V557.975Z" fill="#6A86CE"/>
<path d="M518.652 557.975H515.355V579.551H518.652V557.975Z" fill="#6A86CE"/>
<path d="M532.48 557.975H529.184V579.551H532.48V557.975Z" fill="#6A86CE"/>
<path d="M546.307 557.975H543.01V579.551H546.307V557.975Z" fill="#6A86CE"/>
<path d="M560.135 557.975H556.838V579.551H560.135V557.975Z" fill="#6A86CE"/>
<path d="M573.961 557.975H570.664V579.551H573.961V557.975Z" fill="#6A86CE"/>
<path d="M587.785 557.975H584.488V579.551H587.785V557.975Z" fill="#6A86CE"/>
<path d="M601.611 557.975H598.314V579.551H601.611V557.975Z" fill="#6A86CE"/>
<path d="M606.531 560.215H482.961C484.171 558.843 485.975 557.975 487.987 557.975H601.505C603.517 557.975 605.321 558.843 606.531 560.215Z" fill="#6A86CE"/>
<path d="M606.531 577.311H482.961C484.171 578.682 485.975 579.551 487.987 579.551H601.505C603.517 579.551 605.321 578.682 606.531 577.311Z" fill="#6A86CE"/>
<path d="M616.029 542.719V551.654C616.029 555.146 613.079 557.975 609.449 557.975H495.931C492.296 557.975 489.352 555.146 489.352 551.654V542.719C489.352 541.164 489.936 539.739 490.905 538.639C492.115 537.267 493.919 536.398 495.931 536.398H609.449C611.461 536.398 613.265 537.267 614.475 538.639C615.444 539.739 616.029 541.164 616.029 542.719Z" fill="#92B5F8"/>
<path d="M498.936 536.398H495.639V557.975H498.936V536.398Z" fill="#6A86CE"/>
<path d="M512.764 536.398H509.467V557.975H512.764V536.398Z" fill="#6A86CE"/>
<path d="M526.592 536.398H523.295V557.975H526.592V536.398Z" fill="#6A86CE"/>
<path d="M540.418 536.398H537.121V557.975H540.418V536.398Z" fill="#6A86CE"/>
<path d="M554.246 536.398H550.949V557.975H554.246V536.398Z" fill="#6A86CE"/>
<path d="M568.072 536.398H564.775V557.975H568.072V536.398Z" fill="#6A86CE"/>
<path d="M581.9 536.398H578.604V557.975H581.9V536.398Z" fill="#6A86CE"/>
<path d="M595.729 536.398H592.432V557.975H595.729V536.398Z" fill="#6A86CE"/>
<path d="M609.555 536.398H606.258V557.975H609.555V536.398Z" fill="#6A86CE"/>
<path d="M614.471 538.639H490.9C492.111 537.267 493.914 536.398 495.927 536.398H609.444C611.456 536.398 613.26 537.267 614.471 538.639Z" fill="#6A86CE"/>
<path d="M614.471 555.73H490.9C492.111 557.102 493.914 557.971 495.927 557.971H609.444C611.456 557.971 613.26 557.102 614.471 555.73Z" fill="#6A86CE"/>
<path d="M735.505 534.18C724.302 567.498 687.104 585.787 652.415 575.03C617.731 564.268 598.691 528.537 609.89 495.219C621.092 461.897 658.29 443.612 692.974 454.369C727.659 465.13 746.698 500.862 735.5 534.18H735.505Z" fill="#6A86CE"/>
<path d="M724.287 530.702C715.087 558.073 684.53 573.088 656.04 564.251C653.068 563.329 650.23 562.184 647.55 560.834C643.011 558.563 638.921 555.721 635.327 552.438C633.968 551.191 632.679 549.881 631.465 548.518C622.58 538.505 617.804 525.432 618.546 511.963C618.787 507.553 619.626 503.099 621.106 498.693C627.968 478.284 646.706 464.739 667.61 462.837C674.732 462.191 682.114 462.895 689.357 465.14C695.626 467.086 701.278 470.021 706.17 473.718C707.65 474.832 709.064 476.017 710.399 477.264C714.035 480.645 717.137 484.484 719.636 488.653C727.037 500.965 729.188 516.114 724.282 530.702H724.287Z" fill="#92B5F8"/>
<path d="M706.17 473.718L631.465 548.518C622.58 538.505 617.804 525.432 618.546 511.963L667.61 462.837C674.732 462.191 682.114 462.895 689.357 465.14C695.626 467.086 701.278 470.021 706.17 473.718Z" fill="#D4DEFF"/>
<path d="M719.642 488.653L647.551 560.839C643.012 558.567 638.922 555.725 635.328 552.442L710.405 477.264C714.04 480.644 717.142 484.484 719.642 488.653Z" fill="#D4DEFF"/>
<path d="M676.332 465.198C669.929 464.552 668.76 465.158 665.881 470.614C666.595 464.539 665.964 463.412 660.242 460.575C666.646 461.22 667.814 460.615 670.694 455.158C670.022 461.31 670.652 462.436 676.332 465.198Z" fill="white"/>
<path d="M653.667 563.013C648.26 562.47 647.277 562.977 644.847 567.583C645.45 562.456 644.917 561.507 640.09 559.111C645.492 559.654 646.48 559.147 648.909 554.541C648.344 559.735 648.877 560.683 653.667 563.013Z" fill="white"/>
<path d="M696.299 471.82C700.226 469.66 705.8 465.874 704.487 463.999C702.382 460.992 699.739 463.117 697.88 461.063C696.229 459.246 701.687 455.491 711.967 459.143L713.112 457.834L721.361 463.268L720.017 464.386C719.437 471.575 709.259 481.121 699.716 482.314C690.053 483.526 691.059 474.698 696.294 471.816L696.299 471.82Z" fill="#F37A50"/>
<path d="M728.835 354.7C746.293 357.092 751.621 377.461 757.455 416.24C744.462 426.765 736.644 420.035 736.644 420.035C736.644 420.035 722.269 394.998 718.082 386.169C708.039 364.972 720.415 353.551 728.835 354.705V354.7Z" fill="#6A86CE"/>
<path d="M711.234 457.354L733.965 421.176C733.965 421.176 738.792 411.114 757.456 416.241C758.986 425.599 752.564 442.659 721.468 465.376C716.646 464.342 711.234 457.349 711.234 457.349V457.354Z" fill="#6A86CE"/>
<path d="M369.625 273.463H369.634L379.144 273.499L381.3 295.07L370.199 300.701L358.361 295.133L360.272 273.499L369.625 273.463Z" fill="#F37A50"/>
<path d="M343.501 263.94C349.353 277.989 363.407 285.797 374.898 281.383C386.383 276.969 390.951 261.998 385.099 247.95C379.247 233.901 365.193 226.093 353.707 230.507C342.221 234.921 337.654 249.892 343.506 263.94H343.501Z" fill="#F37A50"/>
<path d="M380.099 252.565C380.776 253.5 382.121 253.732 383.095 253.082C384.068 252.431 384.31 251.144 383.633 250.204C382.956 249.269 381.611 249.037 380.637 249.687C379.663 250.338 379.422 251.63 380.099 252.565Z" fill="black"/>
<path d="M363.987 258.88C364.724 259.896 366.171 260.145 367.228 259.442C368.286 258.738 368.545 257.344 367.808 256.328C367.075 255.313 365.624 255.063 364.567 255.767C363.509 256.471 363.25 257.865 363.982 258.88H363.987Z" fill="black"/>
<path d="M376.836 255.86C379.743 258.065 383.383 260.72 383.383 260.72C383.383 260.72 383.42 264.087 379.321 265.548C380.805 264.256 382.104 262.537 380.564 260.55C379.02 258.564 376.836 255.855 376.836 255.855V255.86Z" fill="#DE623C"/>
<path d="M359.743 257.536C359.66 257.536 359.576 257.527 359.493 257.51C358.918 257.376 358.561 256.819 358.7 256.267C359.076 254.752 360.652 251.888 363.926 251.875C364.524 251.879 365.002 252.334 365.006 252.899C365.006 253.47 364.529 253.933 363.94 253.937C361.515 253.946 360.801 256.717 360.791 256.744C360.675 257.216 360.235 257.536 359.748 257.536H359.743Z" fill="#060534"/>
<path d="M377.846 248.19C377.693 248.19 377.535 248.15 377.396 248.074C376.97 247.834 376.826 247.308 377.076 246.898C377.113 246.836 378.055 245.321 379.835 245.005C381.05 244.791 382.302 245.17 383.563 246.141C383.948 246.435 384.013 246.978 383.702 247.348C383.392 247.718 382.831 247.78 382.446 247.482C381.611 246.84 380.841 246.573 380.16 246.693C379.195 246.867 378.625 247.753 378.62 247.767C378.453 248.038 378.157 248.19 377.846 248.19Z" fill="#060534"/>
<path d="M335.506 253.451C330.554 239.914 342.614 232.128 342.614 232.128C342.614 232.128 339.378 231.848 338.993 227.487C341.413 228.213 344.131 228.16 346.514 227.331C362.586 221.741 373.654 221.817 373.654 228.422C373.654 230.774 384.268 229.162 383.378 244.979C383.443 243.861 379.65 237.358 376.065 236.712C372.467 236.062 375.718 240.663 368.229 241.652C360.671 242.649 355.116 240.885 350.497 244.979C346.885 248.551 345.99 266.72 346.537 267.816C345.276 265.308 337.685 259.402 335.511 253.451H335.506Z" fill="#060534"/>
<path d="M387.311 255.861C387.311 255.861 387.997 264.106 386.759 266.654C385.47 263.349 382.706 266.854 380.109 267.184C373.836 267.981 362.512 265.972 361.39 275.015C353.72 277.344 346.538 261.576 346.538 261.576C346.097 279.193 359.517 289.197 378.83 286.266C391.553 284.337 392.731 267.318 387.311 255.866V255.861Z" fill="#060534"/>
<path d="M374.081 272.75C372.843 272.465 371.549 271.98 370.209 271.289C369.861 271.111 369.727 270.693 369.917 270.358C370.102 270.024 370.538 269.895 370.886 270.078C373.858 271.601 376.52 272.038 378.801 271.37C381.62 270.541 382.909 268.261 382.923 268.238C383.109 267.904 383.54 267.775 383.888 267.953C384.236 268.131 384.37 268.541 384.189 268.88C384.129 268.991 382.636 271.672 379.242 272.679C377.651 273.151 375.921 273.174 374.081 272.755V272.75Z" fill="#DE623C"/>
<path d="M346.357 261.687C349.584 263.429 351.003 266.903 349.514 269.438C348.031 271.977 344.21 272.622 340.978 270.881C337.75 269.139 336.332 265.669 337.82 263.13C339.304 260.592 343.125 259.946 346.357 261.687Z" fill="#F37A50"/>
<path d="M345.866 269.295C345.963 269.228 346.051 269.139 346.112 269.028C346.997 267.451 346.854 265.838 345.722 264.725C344.563 263.58 342.694 263.255 341.275 263.941C340.877 264.137 340.719 264.605 340.918 264.988C341.122 265.371 341.609 265.522 342.008 265.331C342.787 264.952 343.904 265.161 344.563 265.812C345.194 266.431 345.235 267.313 344.688 268.293C344.475 268.671 344.623 269.143 345.017 269.348C345.296 269.491 345.625 269.464 345.866 269.299V269.295Z" fill="#DE623C"/>
<path d="M380.627 561.587C382.648 556.309 386.975 555.721 386.975 555.721C395.382 566.865 416.03 560.028 415.348 575.097C383.951 574.905 370.898 575.097 370.898 575.097C370.94 571.636 371.562 563.418 372.285 560.202L373.922 560.491L380.627 561.587Z" fill="black"/>
<path d="M333.646 561.88C335.668 556.602 339.994 556.014 339.994 556.014C348.401 567.158 369.049 560.321 368.368 575.39C336.966 575.198 323.918 575.39 323.918 575.39C323.96 571.929 324.581 563.711 325.304 560.495L326.941 560.784L333.646 561.88Z" fill="black"/>
<path d="M401.513 385.596C401.513 385.596 406.609 457.019 404.541 472.899C402.468 488.778 395.137 509.134 395.967 561.658C385.729 564.122 370.9 561.658 370.9 561.658C370.9 561.658 368.702 502.27 379.52 475.745C375.119 449.977 361 390.963 361 390.963L401.508 385.6L401.513 385.596Z" fill="#060534"/>
<path d="M382.14 387.545C382.14 387.545 371.846 467.73 366.805 482.937C361.765 498.144 351.939 511.008 342.818 562.748C332.297 563.251 322.504 562.748 322.504 562.748C322.504 562.748 323.923 497.115 340.305 482.193C340.862 456.065 337.657 388.062 337.657 388.062L382.14 387.545Z" fill="#08074A"/>
<path d="M334.684 296.542C334.684 296.542 352.565 290.529 358.528 293.286C377.052 301.856 381.3 293.286 381.3 293.286C387.221 293.776 405.087 296.542 405.087 296.542C405.087 315.713 406.418 334.946 406.056 349.454C405.801 362.086 408.305 396.464 408.305 396.464C408.305 396.464 388.594 401.426 369.948 401.555C351.303 401.439 332.324 396.664 332.324 396.664C332.324 396.664 333.321 361.846 334.147 348.902C333.878 334.394 334.684 315.655 334.684 296.537V296.542Z" fill="#FD7166"/>
<path d="M436.869 325.034C429.487 308.121 407.591 297.365 405.087 296.545L400.01 318.259C410.531 324.237 418.168 330.7 418.168 330.7C416.874 336.744 417.088 342.678 413.448 350.321C413.448 350.321 416.61 346.125 420.514 348.611C424.307 351.025 431.291 346.098 431.291 346.098C431.291 346.098 442.512 337.956 436.874 325.039L436.869 325.034Z" fill="#C4204A"/>
<path d="M432.757 367.773C432.883 367.813 433.012 367.835 433.142 367.849H433.56C434.329 367.769 435.016 367.265 435.257 366.512L454.931 305.583C454.973 305.463 454.996 305.338 455.01 305.213C455.019 305.133 455.01 305.053 455.01 304.973C455.01 304.924 455.01 304.875 455.01 304.826C455.01 304.781 454.992 304.741 454.987 304.701C454.866 304.006 454.366 303.405 453.619 303.178C453.499 303.142 453.373 303.115 453.243 303.102C453.1 303.088 452.956 303.088 452.817 303.102H403.29L383.443 367.849H432.79L432.757 367.773Z" fill="#95A6DB"/>
<path d="M403.743 303.181C402.691 302.865 401.569 303.435 401.244 304.446L381.695 365.224L381.648 365.367C381.324 366.378 381.908 367.442 382.956 367.763C384.008 368.084 385.131 367.518 385.46 366.503L405.06 305.586C405.389 304.575 404.796 303.497 403.743 303.186V303.181Z" fill="#768FDB"/>
<path d="M441.159 341.837C441.345 341.721 441.544 341.645 441.753 341.587C441.73 341.556 441.707 341.529 441.688 341.498C440.455 339.712 440.538 337.578 441.873 336.728C442.091 336.59 442.332 336.496 442.583 336.443C442.235 335.12 442.546 333.859 443.501 333.253C443.881 333.013 444.317 332.906 444.781 332.91C444.345 331.61 444.693 330.247 445.759 329.57C447.095 328.723 449.028 329.271 450.076 330.795C451.129 332.318 450.902 334.242 449.566 335.089C449.228 335.302 448.852 335.427 448.463 335.472C449.348 337.133 449.172 338.95 447.966 339.721C447.748 339.859 447.507 339.953 447.257 340.006C447.605 341.329 447.294 342.589 446.339 343.195C445.986 343.418 445.583 343.529 445.156 343.538C445.597 344.674 445.319 345.899 444.382 346.496C443.255 347.213 441.623 346.75 440.733 345.462C439.842 344.175 440.037 342.549 441.164 341.837H441.159Z" fill="#F37A50"/>
<path d="M380.27 337.982L384.787 335.47C384.787 335.47 386.039 329.319 393.286 329.172C392.456 331.751 391.26 335.47 391.26 335.47C391.26 335.47 394.826 338.129 403.293 333.577C411.565 331.791 408.032 337.586 410.772 338C414.82 338.615 407.823 346.249 399.56 347.421C388.872 348.935 387.601 346.833 387.601 346.833L381.55 348.864L380.266 337.982H380.27Z" fill="#F37A50"/>
<path d="M338.496 344.558C353.585 343.547 379.329 336.384 379.329 336.384C383.447 342.455 382.311 350.518 382.311 350.518C358.876 370.254 323.607 376.633 312.789 371.88C302.908 367.542 309.882 309.775 334.689 296.541C343.194 310.363 338.501 344.558 338.501 344.558H338.496Z" fill="#E3675F"/>
<path d="M180.205 295.664L168.687 263.081C168.687 263.081 148.03 261.5 134.759 282.68C126.533 295.807 105.602 299.958 105.602 299.958L117.18 332.715C117.18 332.715 144 330.216 153.14 315.053C162.808 299.023 180.205 295.664 180.205 295.664Z" fill="#D4DEFF"/>
<path d="M131.286 306.605C136.049 311.959 145.179 311.972 151.68 306.636C158.181 301.3 159.59 292.632 154.833 287.282C150.071 281.928 140.941 281.915 134.44 287.251C127.939 292.587 126.529 301.251 131.286 306.605Z" fill="#E3EAFF"/>
<path d="M895.906 329.316L875.183 301.25C875.183 301.25 854.915 305.401 848.493 329.338C844.51 344.176 825.684 353.895 825.684 353.895L846.517 382.112C846.517 382.112 871.478 372.358 875.73 355.324C880.228 337.307 895.906 329.321 895.906 329.321V329.316Z" fill="#D4DEFF"/>
<path d="M852.277 353.213C858.431 357.039 867.185 354.545 871.832 347.65C876.478 340.75 875.254 332.06 869.096 328.234C862.942 324.412 854.188 326.902 849.542 333.797C844.895 340.697 846.12 349.387 852.277 353.209V353.213Z" fill="#E3EAFF"/>
<path d="M244.134 88.7379V86.2168H223.143V88.7379H229.477C232.287 88.7379 234.689 90.2123 235.621 92.2879H223.147V94.809H236.001C235.644 97.5529 232.862 99.6864 229.477 99.6864H223.143V102.208H227.557L237.146 113.82H241.301L231.716 102.208H244.129V99.6864H237.846C239.126 98.3234 239.942 96.6442 240.091 94.809H244.134V92.2879H239.863C239.516 90.9695 238.815 89.7624 237.846 88.7379H244.134Z" fill="#2652B5"/>
<path d="M752.294 219.043V216.521H731.303V219.043H737.637C740.447 219.043 742.849 220.517 743.781 222.593H731.307V225.114H744.161C743.804 227.858 741.022 229.991 737.637 229.991H731.303V232.512H735.717L745.306 244.124H749.461L739.876 232.512H752.29V229.991H746.007C747.286 228.628 748.102 226.949 748.251 225.114H752.294V222.593H748.024C747.676 221.274 746.976 220.067 746.007 219.043H752.294Z" fill="#2652B5"/>
<path d="M248.749 298.718V296.197H227.758V298.718H234.092C236.902 298.718 239.304 300.193 240.236 302.268H227.762V304.79H240.616C240.259 307.533 237.477 309.667 234.092 309.667H227.758V312.188H232.172L241.761 323.8H245.916L236.332 312.188H248.745V309.667H242.462C243.741 308.304 244.557 306.625 244.706 304.79H248.749V302.268H244.479C244.131 300.95 243.431 299.743 242.462 298.718H248.749Z" fill="#2652B5"/>
<path d="M654.584 433.661V432.084H639.898V433.661H644.327C646.293 433.661 647.971 434.583 648.625 435.879H639.898V437.456H648.889C648.639 439.171 646.692 440.503 644.327 440.503H639.898V442.079H642.987L649.696 449.34H652.604L645.899 442.079H654.584V440.503H650.188C651.083 439.652 651.653 438.601 651.755 437.456H654.584V435.879H651.597C651.352 435.055 650.865 434.302 650.188 433.661H654.584Z" fill="#2652B5"/>
</svg>
