<svg width="236" height="232" viewBox="0 0 236 232" fill="none" xmlns="http://www.w3.org/2000/svg">
<path d="M177.08 173.658C209.621 141.688 209.621 89.855 177.08 57.8855C144.54 25.9159 91.7814 25.9159 59.241 57.8855C26.7005 89.855 26.7005 141.688 59.241 173.658C91.7814 205.627 144.54 205.627 177.08 173.658Z" fill="#FFD524"/>
<path d="M166.074 162.846C192.541 136.844 192.541 94.6869 166.074 68.6849C139.608 42.6829 96.6978 42.6829 70.2315 68.6849C43.7652 94.6869 43.7652 136.844 70.2315 162.846C96.6978 188.848 139.608 188.848 166.074 162.846Z" fill="#FFB02D"/>
<path d="M184.767 127.859C183.015 137.197 179.251 146.059 173.726 153.85C168.201 161.641 161.043 168.18 152.734 173.03C144.424 177.879 135.155 180.926 125.548 181.965C115.942 183.005 106.22 182.014 97.0351 179.058C87.8504 176.102 79.4157 171.25 72.297 164.827C65.1783 158.405 59.5405 150.561 55.7619 141.821C51.9833 133.082 50.1514 123.649 50.3892 114.157C50.6269 104.664 52.9289 95.3315 57.1405 86.7852C56.4169 90.569 56.0443 94.4095 56.0271 98.2596C55.9048 113.371 61.0185 128.074 70.5278 139.952C80.0371 151.829 93.3764 160.176 108.353 163.619C123.33 167.063 139.054 165.399 152.941 158.9C166.828 152.401 178.051 141.454 184.767 127.859Z" fill="#F89723"/>
<path d="M138.984 114.894C146.544 112.882 151.309 106.931 151.309 99.5806C151.309 90.4142 144.028 84.0481 131.97 82.3089V69.9922H118.342V81.8385H112.408V69.9922H98.7915V81.8385H90.7529V152.249H98.7915V161.558H112.408V152.249H118.342V161.558H132.015V151.921C145.431 150.379 153.748 143.17 153.748 132.637C153.703 123.59 148.047 116.699 138.984 114.894ZM118.342 96.2444H123.72C128.173 96.2444 131.28 98.1149 131.97 101.396C132.051 101.885 132.095 102.378 132.104 102.873C132.095 103.386 132.05 103.898 131.97 104.404C131.28 107.883 128.218 109.874 123.72 109.874H109.346V96.2444H118.342ZM132.015 135.623C130.166 137.231 127.305 138.029 123.765 138.029H109.346V123.131H123.72C127.261 123.131 130.122 123.93 131.97 125.472C132.73 126.043 133.342 126.783 133.756 127.631C134.17 128.479 134.375 129.41 134.353 130.35C134.402 131.347 134.216 132.341 133.811 133.255C133.405 134.169 132.791 134.98 132.015 135.623Z" fill="#FFD524"/>
<g style="mix-blend-mode:overlay" opacity="0.2">
<path d="M111.907 77.6491C113.767 84.2121 118.109 89.7798 123.197 94.3411C132.155 102.32 143.398 107.392 155.396 108.867C159.058 109.434 162.798 109.297 166.407 108.463C177.184 105.586 178.097 94.0895 173.833 85.4919C168.478 74.6957 158.302 65.8027 147.48 60.4538C138.573 56.0785 120.67 51.2765 113.588 61.1648C110.304 65.7043 110.449 72.4861 111.907 77.6491Z" fill="white"/>
</g>
</svg>
