<svg width="84" height="60" viewBox="0 0 84 60" fill="none" xmlns="http://www.w3.org/2000/svg">
<path d="M79.8098 57.0109H74.029H59.6266H40.987H22.5157H8.66763H4.76758H3.84702H3.65894H3.51046C3.83712 57.0208 3.45107 56.9812 3.39168 56.9713C3.68863 57.0505 3.35208 56.9416 3.28279 56.9119C2.95614 56.7535 3.44117 57.0901 3.18381 56.8327C3.07492 56.704 3.06503 56.7139 3.17391 56.8426C3.12442 56.7733 3.08482 56.704 3.04523 56.6248L2.98584 56.5061C3.05513 56.6644 3.06502 56.6545 3.00563 56.4962C2.99574 56.4566 2.98584 56.4071 2.97594 56.3675C2.99574 56.5457 3.00564 56.5457 2.99574 56.3675V56.3576V56.2883V55.9221V54.4274V48.9238V31.5816V13.5663C2.99574 10.3195 2.98584 7.06291 2.99574 3.81627V3.63809C2.99574 3.6084 3.02543 3.81627 2.99574 3.5688V3.49952C2.96604 3.67769 2.96604 3.67769 3.00563 3.49952C3.01553 3.45992 3.02543 3.42033 3.04523 3.37083C2.96604 3.51931 2.96604 3.51931 3.04523 3.37083C3.07492 3.31144 3.32238 3.02438 3.10462 3.25205C3.14421 3.21246 3.45108 2.965 3.18381 3.15307C3.28279 3.08378 3.40157 3.01449 3.51046 2.96499C3.20361 3.09367 3.59955 2.96499 3.64904 2.95509C3.44118 2.99468 3.50057 2.96499 3.65894 2.97488C3.79752 2.98478 3.94599 2.97488 4.09447 2.97488H7.09367H19.8232H37.8385H56.6555H72.0874C74.6017 2.97488 77.1158 2.96498 79.6401 2.97488H79.8083H79.8182H79.9568C79.7786 2.94519 79.7786 2.94519 79.9568 2.98478C79.9964 2.99468 80.036 3.00458 80.0855 3.02438C79.937 2.94519 79.937 2.94519 80.0855 3.02438C80.1449 3.05407 80.432 3.30153 80.2043 3.08377C80.2439 3.12336 80.4913 3.43022 80.3033 3.16296C80.3627 3.25204 80.5111 3.66779 80.432 3.38072C80.4518 3.45001 80.4913 3.82615 80.4715 3.4995V3.63808V3.64798V3.73707V4.10331V8.03305V23.7321V42.4893V55.1001V56.1989V56.3671C80.4814 56.4958 80.4419 56.6047 80.4914 56.377C80.4815 56.4265 80.3528 56.8225 80.4815 56.5156C80.432 56.6344 80.3627 56.7433 80.2934 56.8423C80.4815 56.575 80.234 56.8819 80.1944 56.9215C80.4221 56.7037 80.135 56.9413 80.0756 56.9809C80.036 57.0007 79.9964 57.0205 79.9568 57.0402C80.1152 56.971 80.1053 56.9611 79.9469 57.0205C79.9073 57.0303 79.8578 57.0402 79.8182 57.0501C79.9865 57.0007 79.9865 57.0007 79.8083 57.0106C79.0363 57.0303 78.284 57.6738 78.3236 58.4953C78.3632 59.2773 78.9769 60.0098 79.8083 59.9801C81.8573 59.9207 83.4114 58.3172 83.4313 56.2781V55.308V50.4874V33.6401V15.0204V4.07262C83.4313 3.56779 83.4313 3.07288 83.2729 2.58785C82.7879 1.00408 81.323 0.0241286 79.6996 0.00439932C78.9374 -0.00549915 78.1851 0.00439932 77.4229 0.00439932H65.5743H47.7767H28.5634H12.399H4.00499C3.78723 0.00439932 3.57935 0.00439979 3.37148 0.0241978C1.43132 0.202371 0.0356144 1.78614 0.0158852 3.72623C0.00598673 4.73588 0.0158852 5.73572 0.0158852 6.74535V21.7318V40.7967V54.4865C0.0158852 55.6149 -0.112796 56.8424 0.362342 57.9015C0.956246 59.2378 2.31228 59.99 3.74763 60H4.53951H14.2499H31.1171H50.4102H67.6633H78.3439H79.8089C80.5809 60 81.3332 59.317 81.2936 58.5152C81.2541 57.6936 80.6403 57.0106 79.8089 57.0106L79.8098 57.0109Z" fill="#7B3DD9"/>
<path d="M41.9874 45.3302C41.9676 41.9746 40.5422 38.6684 38.018 36.4414C35.7513 34.4419 32.8906 33.3926 29.8715 33.3828H24.2492C21.5667 33.3828 18.9534 33.9866 16.7561 35.6001C13.6282 37.8867 11.7573 41.4501 11.7276 45.3304C11.7177 46.1025 12.4106 46.8548 13.2124 46.8152C14.0241 46.7756 14.6873 46.1619 14.6972 45.3304C14.6972 44.9642 14.7269 44.5979 14.7566 44.2317C14.7566 44.1723 14.7962 43.9347 14.7566 44.2218C14.7665 44.1327 14.7863 44.0436 14.7962 43.9545C14.8259 43.7565 14.8655 43.5586 14.915 43.3606C14.9942 43.0339 15.0832 42.7172 15.1822 42.4004C15.2416 42.2322 15.301 42.0738 15.3604 41.9055C15.4594 41.6382 15.3901 41.8362 15.3604 41.8956C15.4 41.7966 15.4495 41.6976 15.499 41.5987C15.8058 40.9552 16.182 40.3316 16.6175 39.7675C16.4295 40.005 16.7462 39.619 16.7957 39.5596C16.8947 39.4408 16.9937 39.3319 17.1026 39.223C17.35 38.9558 17.6173 38.6984 17.8944 38.4608C17.9439 38.4213 18.3399 38.1045 18.1023 38.2827C18.2409 38.1738 18.3795 38.0748 18.5279 37.9758C18.815 37.7778 19.112 37.5997 19.4188 37.4314C19.5673 37.3522 19.7257 37.2631 19.8841 37.1938C19.9434 37.1641 20.4087 36.9662 20.1315 37.0751C20.478 36.9365 20.8343 36.8078 21.1907 36.7088C21.5173 36.6197 21.844 36.5405 22.1706 36.4812C22.2399 36.4713 22.7547 36.402 22.4478 36.4317C22.6755 36.4119 22.9031 36.3822 23.1308 36.3723C23.4079 36.3624 23.6752 36.3624 23.9524 36.3624H29.3569H30.03C30.228 36.3624 30.426 36.3624 30.614 36.3723C30.8021 36.3822 30.9803 36.402 31.1585 36.4119C31.2179 36.4119 31.4554 36.4515 31.1684 36.4119C31.2773 36.4317 31.396 36.4416 31.5049 36.4614C32.2077 36.59 32.8907 36.788 33.5539 37.0454C33.7716 37.1246 33.3559 36.9563 33.5638 37.0454C33.643 37.085 33.7221 37.1147 33.8013 37.1543C33.9597 37.2335 34.1181 37.3126 34.2666 37.3918C34.5932 37.57 34.91 37.7581 35.2069 37.9659C35.2762 38.0154 35.3455 38.0649 35.4148 38.1144C35.4445 38.1342 35.7216 38.352 35.5732 38.2332C35.4445 38.1342 35.6128 38.2629 35.6227 38.2827C35.7216 38.3718 35.8206 38.451 35.9196 38.5302C36.2067 38.7875 36.4838 39.0647 36.7511 39.3518C36.8798 39.5002 37.0085 39.6487 37.1272 39.7972C37.2757 39.9754 36.9985 39.619 37.1371 39.8071C37.2064 39.8962 37.2658 39.9853 37.3252 40.0743C37.5529 40.3911 37.7607 40.7277 37.9488 41.0642C38.0577 41.2523 38.1567 41.4503 38.2458 41.6482C38.2755 41.7076 38.2953 41.767 38.325 41.8264C38.3942 41.9848 38.2557 41.6383 38.3547 41.8957C38.5031 42.2916 38.6417 42.6876 38.7407 43.0934C38.7902 43.2914 38.8397 43.4795 38.8793 43.6775C38.8991 43.7665 38.909 43.8556 38.9288 43.9447C38.9387 43.9843 38.9882 44.3407 38.9585 44.1526C38.9387 43.9645 38.9684 44.2516 38.9684 44.2912C38.9783 44.4099 38.9882 44.5188 38.9981 44.6376C39.0179 44.8653 39.0179 45.1029 39.0179 45.3305C39.0278 46.1026 39.7008 46.8549 40.5026 46.8153C41.3044 46.7856 41.9973 46.162 41.9874 45.3305V45.3302Z" fill="#7B3DD9"/>
<path d="M35.7723 22.0772C35.7426 18.3059 33.3769 15.0096 29.8727 13.6833C26.4578 12.3964 22.34 13.5249 20.0336 16.336C17.648 19.2462 17.2422 23.4136 19.2121 26.6702C21.172 29.907 24.973 31.5205 28.675 30.8077C32.7829 30.0158 35.7426 26.2148 35.7723 22.0772C35.7822 21.3052 35.0794 20.5529 34.2875 20.5925C33.4758 20.632 32.8127 21.2458 32.8028 22.0772C32.8028 22.2653 32.7929 22.4435 32.783 22.6217C32.7731 22.7107 32.7632 22.7998 32.7632 22.8889C32.7731 22.8295 32.8126 22.6019 32.7632 22.8988C32.6939 23.2651 32.6147 23.6313 32.4959 23.9877C32.4464 24.1361 32.3969 24.2747 32.3375 24.4232C32.4464 24.146 32.2583 24.5816 32.2187 24.6608C32.0505 24.9874 31.8624 25.2943 31.6545 25.6011C31.6347 25.6308 31.4664 25.8486 31.5753 25.71C31.6842 25.5714 31.5159 25.7793 31.4862 25.809C31.3872 25.9179 31.2883 26.0366 31.1893 26.1455C31.0705 26.2742 30.9517 26.393 30.823 26.5019C30.7637 26.5613 30.6944 26.6207 30.635 26.6702C30.6053 26.69 30.2786 26.9473 30.536 26.7593C30.2786 26.9473 30.0114 27.1255 29.7243 27.2839C29.5758 27.373 29.4174 27.4423 29.2591 27.5214C29.1997 27.5511 29.1403 27.5808 29.0809 27.6006C29.3778 27.4719 28.9819 27.6303 28.9522 27.6402C28.6454 27.7491 28.3187 27.8382 28.0019 27.9075C27.9129 27.9273 27.8238 27.9471 27.7446 27.957C27.705 27.9669 27.4179 27.9966 27.606 27.9768C27.7941 27.957 27.507 27.9867 27.4674 27.9867C27.3585 27.9966 27.2398 28.0065 27.1309 28.0065C26.7646 28.0164 26.3984 27.9966 26.0321 27.9669C26.3489 27.9966 25.844 27.9273 25.7649 27.9174C25.5867 27.8778 25.4184 27.8382 25.2501 27.7986C25.0818 27.7491 24.9136 27.6996 24.7453 27.6402C24.6661 27.6105 24.5869 27.5808 24.4978 27.5511C24.7552 27.6501 24.5473 27.5709 24.4978 27.5511C24.1712 27.3928 23.8445 27.2245 23.5377 27.0166C23.409 26.9374 23.2902 26.8483 23.1714 26.7593C23.409 26.9275 23.0427 26.6504 22.9734 26.591C22.6963 26.3534 22.4488 26.0862 22.2113 25.809C22.1816 25.7793 22.0133 25.5615 22.1222 25.71C22.2311 25.8486 22.0727 25.6407 22.043 25.6011C21.944 25.4625 21.8549 25.3141 21.7658 25.1656C21.6866 25.0369 21.6174 24.9082 21.5481 24.7697C21.5085 24.6905 21.4689 24.6113 21.4293 24.542C21.4095 24.5123 21.2511 24.1163 21.3699 24.4232C21.2511 24.1164 21.1521 23.8095 21.0729 23.4829C21.0333 23.3146 20.9938 23.1364 20.9641 22.9582C20.9542 22.9186 20.9245 22.6316 20.9443 22.8197C20.9641 23.0176 20.9245 22.6019 20.9245 22.6118C20.8948 22.2456 20.8948 21.8793 20.9245 21.5131C20.9245 21.4438 20.9344 21.3745 20.9443 21.3052C20.9641 21.0676 20.9047 21.5329 20.9443 21.2953C20.974 21.0973 21.0135 20.8994 21.063 20.7113C21.1422 20.3747 21.2511 20.0382 21.3798 19.7115C21.2709 19.9986 21.459 19.5432 21.4986 19.474C21.5778 19.3156 21.657 19.1671 21.746 19.0186C21.8351 18.8702 21.9242 18.7217 22.0232 18.5831C22.0727 18.5138 22.1222 18.4445 22.1717 18.3752C22.0133 18.593 22.142 18.4148 22.1816 18.3752C22.4191 18.0981 22.6666 17.8308 22.9339 17.5933C22.9932 17.5339 23.0625 17.4844 23.1318 17.425C23.1615 17.3953 23.3793 17.227 23.2308 17.3359C23.1021 17.4349 23.2704 17.3062 23.2902 17.2963C23.3595 17.2468 23.4288 17.1973 23.4981 17.1478C23.8049 16.94 24.1217 16.7717 24.4582 16.6133C24.4978 16.5935 24.7453 16.4846 24.577 16.5539C24.4087 16.6232 24.6661 16.5242 24.7057 16.5044C24.874 16.445 25.0324 16.3856 25.2006 16.346C25.3491 16.3064 25.4976 16.2669 25.6461 16.2273C25.7351 16.2075 25.8242 16.1877 25.9034 16.1778C25.943 16.1679 26.3687 16.1184 26.042 16.1481C26.3885 16.1184 26.725 16.0986 27.0715 16.1085C27.2496 16.1184 27.4377 16.1283 27.6159 16.1481C27.8534 16.1679 27.3882 16.1085 27.6258 16.1481C27.7347 16.1679 27.8435 16.1877 27.9524 16.2075C28.3385 16.2866 28.7146 16.4054 29.0908 16.5341C29.358 16.6232 29.1601 16.5539 29.1007 16.5341C29.1997 16.5737 29.2986 16.6232 29.3976 16.6727C29.5758 16.7618 29.7441 16.8509 29.9124 16.9498C30.0806 17.0488 30.239 17.1577 30.3974 17.2666C30.4271 17.2864 30.6448 17.4547 30.5063 17.3458C30.3578 17.227 30.6251 17.4448 30.6547 17.4745C30.9517 17.7219 31.219 17.9991 31.4664 18.2862C31.5258 18.3554 31.5753 18.4148 31.6347 18.4841C31.4367 18.2367 31.6941 18.5732 31.7139 18.593C31.8129 18.7316 31.902 18.8801 31.991 19.0285C32.0999 19.2166 32.1989 19.4047 32.2979 19.6027C32.3375 19.6819 32.3672 19.761 32.4068 19.8402C32.3177 19.6423 32.387 19.7907 32.4266 19.9095C32.5553 20.2857 32.6641 20.6618 32.7433 21.0578C32.7631 21.1468 32.773 21.2359 32.7928 21.325C32.8324 21.5626 32.773 20.9687 32.8027 21.3943C32.8225 21.622 32.8324 21.8496 32.8324 22.0773C32.8423 22.8494 33.5055 23.6017 34.3172 23.5621C35.0893 23.5225 35.7822 22.9088 35.7723 22.0773L35.7723 22.0772Z" fill="#7B3DD9"/>
<path d="M46.5021 23.286H54.4804H67.2099H70.1399C70.912 23.286 71.6643 22.603 71.6247 21.8012C71.5851 20.9994 70.9714 20.3164 70.1399 20.3164H62.1617H49.4322H46.5021C45.7301 20.3164 44.9778 20.9994 45.0174 21.8012C45.0471 22.603 45.6707 23.286 46.5021 23.286Z" fill="#7B3DD9"/>
<path d="M51.2622 39.659H57.6269H67.7828H70.1287C70.9008 39.659 71.6531 38.976 71.6135 38.1742C71.5739 37.3724 70.9602 36.6895 70.1287 36.6895H63.764H53.6081H51.2622C50.4901 36.6895 49.7378 37.3724 49.7774 38.1742C49.817 38.9859 50.4307 39.659 51.2622 39.659Z" fill="#7B3DD9"/>
</svg>
