<svg width="23" height="24" viewBox="0 0 23 24" fill="none" xmlns="http://www.w3.org/2000/svg">
<path d="M11.9998 10.8L15.3598 7.2L2.31984 0.16C2.23984 0.08 2.07984 0.08 1.83984 0L11.9998 10.8Z" fill="#7C40FF"/>
<path d="M16.8 16L21.52 13.44C22.08 13.12 22.4 12.64 22.4 12C22.4 11.36 22.08 10.8 21.52 10.56L16.8 8L13.04 12L16.8 16Z" fill="#7C40FF"/>
<path d="M0.32 0.720703C0.0800001 0.960703 0 1.2807 0 1.6007V22.4007C0 22.7207 0.0800001 23.0407 0.32 23.3607L10.88 12.0007L0.32 0.720703Z" fill="#7C40FF"/>
<path d="M11.9998 13.1992L1.83984 23.9992C1.99984 23.9992 2.15984 23.9192 2.31984 23.8392L15.3598 16.7992L11.9998 13.1992Z" fill="#7C40FF"/>
</svg>
