<svg width="20" height="24" viewBox="0 0 20 24" fill="none" xmlns="http://www.w3.org/2000/svg">
<path d="M16.3663 12.7504C16.4001 16.3824 19.5613 17.5911 19.5963 17.6065C19.5696 17.6917 19.0912 19.3288 17.9308 21.0199C16.9277 22.482 15.8867 23.9386 14.2467 23.9688C12.6352 23.9984 12.117 23.0158 10.2747 23.0158C8.43284 23.0158 7.85713 23.9386 6.33169 23.9984C4.74867 24.0582 3.54317 22.4175 2.53179 20.9608C0.465053 17.9811 -1.11436 12.5409 1.00639 8.86873C2.05993 7.0451 3.9427 5.8903 5.98627 5.86069C7.54075 5.83112 9.00796 6.9036 9.95828 6.9036C10.908 6.9036 12.691 5.61385 14.5654 5.80327C15.3501 5.83583 17.5528 6.11936 18.9672 8.18392C18.8532 8.25437 16.3389 9.71399 16.3663 12.7504ZM13.3377 3.83196C14.1781 2.81747 14.7438 1.4052 14.5895 0C13.378 0.0485541 11.9132 0.805021 11.0442 1.81896C10.2655 2.71684 9.58351 4.15397 9.76752 5.53135C11.1178 5.63553 12.4972 4.8471 13.3377 3.83196Z" fill="#7C40FF"/>
</svg>
