<svg width="142" height="100" viewBox="0 0 142 100" fill="none" xmlns="http://www.w3.org/2000/svg">
<path d="M141.64 25.8828V82.0286C141.64 91.5969 133.881 99.3509 124.313 99.3509H17.6569C8.09002 99.3509 0.336914 91.5984 0.336914 82.0286V25.8828H141.64Z" fill="#AD9DF5"/>
<path d="M141.64 17.3302V25.882H0.336914V17.3302C0.336914 7.76188 8.08822 0 17.6569 0H124.313C133.881 0 141.64 7.76008 141.64 17.3302Z" fill="#6A4EEE"/>
<path d="M30.9834 79.9454C40.5525 79.9454 48.3098 72.1869 48.3098 62.6163C48.3098 53.0456 40.5525 45.2871 30.9834 45.2871C21.4143 45.2871 13.657 53.0456 13.657 62.6163C13.657 72.1869 21.4143 79.9454 30.9834 79.9454Z" fill="#6A4EEE"/>
<path d="M44.6949 57.84L42.0288 55.1738L29.4628 67.7418L21.4471 59.7253L18.781 62.3915L26.7967 70.4084L29.4628 73.0746L32.1286 70.4084L44.6949 57.84Z" fill="white"/>
<path d="M114.624 61.1713H69.575C66.6161 61.1546 63.784 59.9672 61.6977 57.8686C59.6113 55.7701 58.4402 52.9309 58.4402 49.9715C58.4402 47.0121 59.6113 44.1729 61.6977 42.0744C63.784 39.9758 66.6161 38.7884 69.575 38.7717H114.624C116.1 38.7633 117.563 39.0468 118.929 39.6059C120.294 40.165 121.536 40.9886 122.583 42.0295C123.63 43.0703 124.46 44.3078 125.027 45.6708C125.594 47.0338 125.885 48.4954 125.885 49.9715C125.885 51.4477 125.594 52.9092 125.027 54.2722C124.46 55.6352 123.63 56.8727 122.583 57.9135C121.536 58.9544 120.294 59.778 118.929 60.3371C117.563 60.8962 116.1 61.1797 114.624 61.1713V61.1713ZM69.575 41.7882C65.0634 41.7882 61.3932 45.4594 61.3932 49.9717C61.3932 54.4839 65.0616 58.1548 69.575 58.1548H114.624C119.135 58.1548 122.805 54.4857 122.805 49.9717C122.805 45.4576 119.135 41.7882 114.624 41.7882H69.575Z" fill="#CDC2FF"/>
<path d="M74.4017 52.1738H77.6145C77.9785 52.1738 78.1604 52.3556 78.1601 52.7192V53.9199C78.1601 54.2839 77.9783 54.4658 77.6145 54.4656H72.6559C72.292 54.4656 72.1101 54.2837 72.1104 53.9199V46.0379C72.1104 45.6738 72.2922 45.4919 72.6559 45.4922H73.8561C74.2196 45.4922 74.4015 45.6741 74.4017 46.0379V52.1738Z" fill="white"/>
<path d="M83.7533 54.6837C82.4438 54.6837 81.2796 54.1502 80.419 53.3013C79.7615 52.6419 79.3141 51.8024 79.1334 50.8888C78.9526 49.9753 79.0465 49.0286 79.4033 48.1684C79.76 47.3082 80.3636 46.5731 81.1379 46.0557C81.9121 45.5384 82.8222 45.2621 83.7533 45.2617C85.004 45.2625 86.2032 45.7597 87.0875 46.6442C87.9717 47.5287 88.4688 48.7282 88.4695 49.979C88.4717 50.5969 88.3507 51.209 88.1133 51.7795C87.876 52.35 87.5272 52.8674 87.0873 53.3013C86.2252 54.1502 85.0502 54.6837 83.7533 54.6837ZM83.7533 47.5534C83.1929 47.5511 82.649 47.7433 82.2143 48.0971C81.7796 48.451 81.4811 48.9446 81.3695 49.494C81.258 50.0433 81.3404 50.6143 81.6026 51.1097C81.8649 51.6051 82.2907 51.9942 82.8077 52.2107C83.3247 52.4272 83.9007 52.4578 84.4376 52.2971C84.9746 52.1365 85.4392 51.7945 85.7523 51.3296C86.0655 50.8647 86.2077 50.3056 86.1548 49.7476C86.102 49.1895 85.8573 48.6671 85.4624 48.2693C85.2385 48.0435 84.9723 47.8641 84.6791 47.7413C84.3858 47.6185 84.0713 47.5546 83.7533 47.5534V47.5534Z" fill="white"/>
<path d="M94.4527 54.6711C93.8323 54.6765 93.2169 54.559 92.6422 54.3253C92.0674 54.0916 91.5446 53.7464 91.104 53.3095C90.6634 52.8727 90.3136 52.3528 90.0749 51.7801C89.8363 51.2073 89.7134 50.5929 89.7134 49.9724C89.7134 49.3518 89.8363 48.7374 90.0749 48.1647C90.3136 47.5919 90.6634 47.0721 91.104 46.6352C91.5446 46.1984 92.0674 45.8531 92.6422 45.6194C93.2169 45.3857 93.8323 45.2682 94.4527 45.2736C95.714 45.2736 96.8778 45.7463 97.7504 46.6193C98.005 46.8981 97.969 47.1646 97.6899 47.3952L96.7322 48.1474C96.4531 48.3779 96.247 48.3412 95.9683 48.1114C95.5451 47.7532 95.007 47.5595 94.4527 47.5657C94.1354 47.5642 93.821 47.6256 93.5276 47.7464C93.2342 47.8672 92.9676 48.0449 92.7433 48.2693C92.519 48.4937 92.3413 48.7603 92.2206 49.0538C92.0999 49.3472 92.0386 49.6617 92.0401 49.979C92.0423 50.626 92.2942 51.2471 92.7432 51.7128C93.1795 52.174 93.7862 52.4772 94.4527 52.4772C94.9742 52.4772 95.3622 52.3693 95.6532 52.2222C95.8613 52.1236 96.0469 51.9833 96.1984 51.81V51.2279H94.7073C94.3438 51.2279 94.1621 51.0462 94.1621 50.6826V49.9305C94.1621 49.5669 94.3438 49.385 94.7073 49.3848H97.9442C98.3077 49.3848 98.4896 49.5667 98.4898 49.9305V52.1247C98.4898 52.3794 98.4413 52.5733 98.3459 52.7315C97.5687 53.9057 96.2959 54.6711 94.4527 54.6711Z" fill="white"/>
<path d="M102.206 45.4922C102.569 45.4922 102.751 45.6741 102.751 46.0379V53.9199C102.751 54.2839 102.569 54.4658 102.206 54.4656H101.007C100.644 54.4656 100.462 54.2837 100.461 53.9199V46.0379C100.461 45.6738 100.643 45.4919 101.007 45.4922H102.206Z" fill="white"/>
<path d="M105.287 54.4658C104.924 54.4658 104.742 54.2839 104.741 53.9201V46.0381C104.741 45.674 104.923 45.4921 105.287 45.4924H106.33C106.462 45.4894 106.592 45.5202 106.709 45.5817C106.826 45.6432 106.925 45.7334 106.997 45.8438L109.797 49.9064V46.0381C109.797 45.674 109.979 45.4921 110.343 45.4924H111.545C111.909 45.4924 112.09 45.6743 112.091 46.0381V53.9201C112.091 54.2841 111.909 54.466 111.545 54.4658H110.502C110.37 54.4685 110.24 54.4377 110.123 54.3762C110.007 54.3147 109.908 54.2246 109.836 54.1143L107.035 50.0158V53.9201C107.035 54.2841 106.853 54.466 106.489 54.4658H105.287Z" fill="white"/>
<path d="M114.624 86.4604H69.575C66.6161 86.4436 63.784 85.2562 61.6977 83.1577C59.6113 81.0591 58.4402 78.22 58.4402 75.2606C58.4402 72.3011 59.6113 69.462 61.6977 67.3634C63.784 65.2649 66.6161 64.0775 69.575 64.0607H114.624C116.1 64.0524 117.563 64.3359 118.929 64.895C120.294 65.4541 121.536 66.2777 122.583 67.3185C123.63 68.3594 124.46 69.5969 125.027 70.9598C125.594 72.3228 125.885 73.7844 125.885 75.2606C125.885 76.7367 125.594 78.1983 125.027 79.5613C124.46 80.9243 123.63 82.1617 122.583 83.2026C121.536 84.2434 120.294 85.067 118.929 85.6261C117.563 86.1852 116.1 86.4688 114.624 86.4604V86.4604ZM69.575 67.0773C65.0634 67.0773 61.3932 70.7485 61.3932 75.2607C61.3932 79.773 65.0616 83.4438 69.575 83.4438H114.624C119.135 83.4438 122.805 79.7748 122.805 75.2607C122.805 70.7467 119.135 67.0773 114.624 67.0773H69.575Z" fill="#CDC2FF"/>
<path d="M70.8393 78.4366C70.3336 78.0992 70.2491 77.678 70.6073 77.151L71.3449 76.0337L70.0592 75.5489C68.8791 75.1273 69.4693 73.3355 70.6494 73.7352L71.9351 74.1147L71.956 72.8291C71.956 72.1967 72.2723 71.8806 72.9048 71.8809H72.9256C73.5579 71.8809 73.8742 72.1969 73.8744 72.8291L73.8953 74.1147L75.1598 73.7352C76.3611 73.3355 76.9304 75.1273 75.7712 75.5489L74.4646 76.0337L75.2026 77.151C75.8978 78.1834 74.4225 79.1953 73.6845 78.205L72.9051 77.1931L72.1459 78.205C71.7672 78.6906 71.3237 78.7737 70.8393 78.4366Z" fill="white"/>
<path d="M80.4347 78.4366C79.929 78.0992 79.8445 77.678 80.2027 77.151L80.9404 76.0337L79.6546 75.5489C78.4746 75.1273 79.0648 73.3355 80.2448 73.7352L81.5306 74.1147L81.5515 72.8291C81.5515 72.1967 81.8677 71.8806 82.5002 71.8809H82.5211C83.1534 71.8809 83.4696 72.1969 83.4699 72.8291L83.4907 74.1147L84.7549 73.7352C85.9565 73.3355 86.5259 75.1273 85.3663 75.5489L84.0597 76.0337L84.7977 77.151C85.4929 78.1834 84.0176 79.1953 83.2796 78.205L82.5002 77.1931L81.741 78.205C81.3612 78.6906 80.9185 78.7737 80.4347 78.4366Z" fill="white"/>
<path d="M90.0287 78.4366C89.5227 78.0992 89.4382 77.678 89.7968 77.151L90.5344 76.0337L89.2486 75.5489C88.0686 75.1273 88.6588 73.3355 89.8385 73.7352L91.1246 74.1147L91.1455 72.8291C91.1455 72.1967 91.4616 71.8806 92.0939 71.8809H92.1151C92.7474 71.8809 93.0635 72.1969 93.0635 72.8291L93.0847 74.1147L94.3489 73.7352C95.5502 73.3355 96.1195 75.1273 94.9603 75.5489L93.6537 76.0337L94.3914 77.151C95.0869 78.1834 93.6116 79.1953 92.8736 78.205L92.0939 77.1931L91.335 78.205C90.9559 78.6906 90.5132 78.7737 90.0287 78.4366Z" fill="white"/>
<path d="M99.6236 78.4366C99.1176 78.0992 99.0331 77.678 99.3913 77.151L100.129 76.0337L98.8435 75.5489C97.6631 75.1273 98.2537 73.3355 99.4334 73.7352L100.719 74.1147L100.74 72.8291C100.74 72.1967 101.056 71.8806 101.689 71.8809H101.71C102.342 71.8809 102.658 72.1969 102.658 72.8291L102.68 74.1147L103.944 73.7352C105.145 73.3355 105.714 75.1273 104.555 75.5489L103.249 76.0337L103.986 77.151C104.682 78.1834 103.207 79.1953 102.469 78.205L101.69 77.1931L100.931 78.205C100.551 78.6906 100.108 78.7737 99.6236 78.4366Z" fill="white"/>
<path d="M109.219 78.4366C108.713 78.0992 108.628 77.678 108.987 77.151L109.725 76.0337L108.439 75.5489C107.258 75.1273 107.849 73.3355 109.029 73.7352L110.314 74.1147L110.336 72.8291C110.336 72.1967 110.652 71.8806 111.284 71.8809H111.305C111.937 71.8809 112.254 72.1969 112.254 72.8291L112.275 74.1147L113.539 73.7352C114.74 73.3355 115.31 75.1273 114.15 75.5489L112.843 76.0337L113.581 77.151C114.277 78.1834 112.802 79.1953 112.064 78.205L111.284 77.1931L110.525 78.205C110.146 78.6906 109.703 78.7737 109.219 78.4366Z" fill="white"/>
<path d="M123.351 17.9954C126.142 17.9954 128.404 15.7325 128.404 12.941C128.404 10.1496 126.142 7.88672 123.351 7.88672C120.56 7.88672 118.297 10.1496 118.297 12.941C118.297 15.7325 120.56 17.9954 123.351 17.9954Z" fill="#FF5F37"/>
<path d="M110.524 17.9954C113.315 17.9954 115.578 15.7325 115.578 12.941C115.578 10.1496 113.315 7.88672 110.524 7.88672C107.733 7.88672 105.471 10.1496 105.471 12.941C105.471 15.7325 107.733 17.9954 110.524 17.9954Z" fill="#F8923E"/>
<path d="M97.6976 17.9954C100.489 17.9954 102.751 15.7325 102.751 12.941C102.751 10.1496 100.489 7.88672 97.6976 7.88672C94.9066 7.88672 92.644 10.1496 92.644 12.941C92.644 15.7325 94.9066 17.9954 97.6976 17.9954Z" fill="#68DA3D"/>
</svg>
