<svg width="20" height="20" viewBox="0 0 20 20" fill="none" xmlns="http://www.w3.org/2000/svg">
<path d="M18.8097 3.04199C18.7472 3.05762 18.63 3.10449 18.5558 3.13965C18.4816 3.17871 15.8488 5.78027 12.7081 8.91699L6.9933 14.6279L4.29017 11.9248C2.38783 10.0303 1.53236 9.19824 1.40736 9.13574C1.16908 9.01465 0.790174 9.01465 0.563612 9.12793C0.356581 9.23731 0.145643 9.47559 0.0597055 9.70215C-0.026232 9.9209 -0.00279446 10.2295 0.110487 10.4521C0.227674 10.6787 6.42689 16.8545 6.61049 16.9326C6.79799 17.0068 7.18861 17.0068 7.37611 16.9326C7.55971 16.8545 19.7667 4.66699 19.8956 4.43262C20.0128 4.21387 20.0128 3.79199 19.8956 3.57324C19.6847 3.17481 19.2042 2.94043 18.8097 3.04199Z" fill="#6A4EEE"/>
</svg>
