<svg width="12" height="14" viewBox="0 0 12 14" fill="none" xmlns="http://www.w3.org/2000/svg">
<path d="M4.88125 0.9125C4.85625 0.9375 4.84375 1.09062 4.84375 1.39375C4.84375 1.91875 4.85313 1.9375 5.1625 1.9375H5.34375V2.08437V2.23438H6H6.65625V2.08437V1.9375H6.8375C7.14688 1.9375 7.15625 1.91875 7.15625 1.39375C7.15625 1.09062 7.14375 0.9375 7.11875 0.9125C7.06562 0.859375 4.93438 0.859375 4.88125 0.9125Z" fill="black"/>
<path d="M1.11875 2.89688C0.69375 3.32187 0.34375 3.69063 0.34375 3.71875C0.34375 3.78125 0.971875 4.40625 1.03438 4.40625C1.05937 4.40625 1.14375 4.34375 1.21875 4.26562C1.29375 4.1875 1.37188 4.125 1.3875 4.125C1.40625 4.125 1.4625 4.16875 1.51875 4.22187L1.61563 4.31562L2.06875 3.86562L2.52188 3.4125L2.40937 3.3L2.3 3.1875L2.44688 3.0375C2.52813 2.95625 2.59375 2.85938 2.59375 2.825C2.59375 2.76562 1.97812 2.125 1.91875 2.125C1.90625 2.125 1.54375 2.47187 1.11875 2.89688Z" fill="black"/>
<path d="M9.7438 2.42813C9.57192 2.59687 9.4188 2.75937 9.40317 2.79062C9.37817 2.83438 9.40317 2.87812 9.53442 3.01875L9.70005 3.19062L9.58755 3.3L9.47817 3.4125L9.9313 3.8625L10.3844 4.31562L10.4813 4.22187C10.5376 4.16875 10.5938 4.125 10.6126 4.125C10.6282 4.125 10.7063 4.1875 10.7813 4.26562C10.8563 4.34375 10.9407 4.40625 10.9657 4.40625C11.0282 4.40625 11.6563 3.78125 11.6563 3.71875C11.6563 3.66875 10.1282 2.125 10.0813 2.125C10.0657 2.125 9.91255 2.2625 9.7438 2.42813Z" fill="black"/>
<path d="M5.40673 2.5028C4.07548 2.6528 2.77548 3.34968 1.92861 4.36843C0.397357 6.20593 0.256732 8.78405 1.57861 10.7684C1.84423 11.1684 2.33173 11.6934 2.7036 11.9841C3.39423 12.5247 4.13173 12.8622 5.00673 13.0372C5.47548 13.1309 6.48172 13.1403 6.92235 13.0528C8.09735 12.8184 9.0411 12.3153 9.82859 11.4934C10.5317 10.7622 10.963 9.95593 11.2067 8.91843C11.2911 8.5653 11.2973 8.50905 11.2942 7.81218C11.2942 7.00593 11.263 6.77155 11.063 6.14968C10.9348 5.75593 10.5755 5.04343 10.3317 4.70593C9.19422 3.12468 7.3161 2.28718 5.40673 2.5028ZM6.7661 3.54655C8.28797 3.81218 9.60047 4.94968 10.0942 6.43093C10.2598 6.93093 10.2973 7.18093 10.2973 7.79655C10.2973 8.22155 10.2848 8.42468 10.2411 8.62468C10.0598 9.47468 9.69109 10.1747 9.10047 10.7841C8.45672 11.4528 7.64735 11.8872 6.75047 12.0497C6.3536 12.1216 5.64735 12.1216 5.25048 12.0497C4.6286 11.9372 3.9786 11.6622 3.4661 11.2903C3.3286 11.1934 3.0786 10.9716 2.90985 10.7966C2.3161 10.1872 1.94423 9.48405 1.75986 8.62468C1.68173 8.24968 1.68173 7.34343 1.75986 6.96843C1.94111 6.12468 2.31298 5.41218 2.88485 4.82155C3.26923 4.42468 3.62548 4.16218 4.0786 3.93718C4.60048 3.68093 5.05048 3.5528 5.6411 3.48718C5.85985 3.4653 6.47547 3.49655 6.7661 3.54655Z" fill="black"/>
<path d="M5.90891 3.85625C5.88391 3.88437 5.87453 4 5.88078 4.17188C5.88703 4.39375 5.89953 4.45312 5.94641 4.48125C5.98391 4.50625 6.01516 4.50625 6.05579 4.48125C6.09954 4.45312 6.11204 4.39375 6.11829 4.17188C6.12766 3.8875 6.10266 3.8125 5.99954 3.8125C5.96828 3.8125 5.92766 3.83125 5.90891 3.85625Z" fill="black"/>
<path d="M3.175 4.98764C3.14687 5.01264 3.125 5.05014 3.125 5.06577C3.125 5.11577 3.46875 5.46577 3.5375 5.48764C3.6125 5.50952 3.6875 5.45014 3.6875 5.35952C3.6875 5.28139 3.34687 4.93764 3.26875 4.93764C3.24375 4.93764 3.2 4.95952 3.175 4.98764Z" fill="black"/>
<path d="M8.51397 5.099C8.30147 5.299 8.27022 5.35213 8.31397 5.4365C8.36709 5.5365 8.46397 5.50838 8.64522 5.3365C8.85773 5.1365 8.88898 5.08337 8.84523 4.999C8.7921 4.899 8.69522 4.92712 8.51397 5.099Z" fill="black"/>
<path d="M5.92976 5.37813C5.87663 5.40626 5.87351 5.48438 5.87351 6.28126V7.15L5.76726 7.1875C5.62038 7.23438 5.41726 7.4625 5.37351 7.62813C5.30163 7.89063 5.41101 8.18125 5.63288 8.33438C5.74226 8.4125 5.78913 8.42188 5.99851 8.42188C6.27663 8.42188 6.40475 8.35625 6.54225 8.14688C6.75788 7.8125 6.61413 7.3625 6.24538 7.19688L6.12351 7.14375V6.27501C6.12351 5.45001 6.12038 5.40626 6.06413 5.37501C5.99226 5.33751 5.99538 5.33751 5.92976 5.37813Z" fill="black"/>
<path d="M2.02004 7.74375C1.97317 7.89063 2.05442 7.9375 2.37942 7.9375C2.61379 7.9375 2.70129 7.89375 2.68254 7.77813C2.67317 7.70625 2.66692 7.70313 2.35442 7.69375C2.06692 7.6875 2.03567 7.69063 2.02004 7.74375Z" fill="black"/>
<path d="M9.33478 7.70909C9.29103 7.74972 9.31603 7.87472 9.37228 7.90597C9.43791 7.94034 9.78478 7.94972 9.89728 7.91847C9.97541 7.89659 10.0129 7.81847 9.98166 7.73722C9.96603 7.69659 9.91291 7.68722 9.65978 7.68722C9.49103 7.68722 9.34416 7.69659 9.33478 7.70909Z" fill="black"/>
<path d="M3.35772 10.2568C3.14522 10.4568 3.11397 10.5099 3.15772 10.5943C3.21709 10.7037 3.31397 10.6662 3.52334 10.4599C3.63272 10.3505 3.72022 10.2443 3.72022 10.2255C3.72022 10.1755 3.6296 10.0943 3.57647 10.0943C3.55147 10.0943 3.45147 10.1693 3.35772 10.2568Z" fill="black"/>
<path d="M8.33125 10.143C8.30313 10.168 8.28125 10.2055 8.28125 10.2242C8.28125 10.243 8.37188 10.3492 8.48125 10.4586C8.63438 10.6117 8.7 10.6586 8.75625 10.6492C8.80938 10.643 8.83126 10.618 8.83751 10.543C8.84688 10.4649 8.81876 10.4211 8.65938 10.2711C8.4625 10.0836 8.40938 10.0617 8.33125 10.143Z" fill="black"/>
<path d="M5.90891 11.1375C5.88391 11.1656 5.87453 11.2812 5.88078 11.4531C5.88703 11.675 5.89953 11.7344 5.94641 11.7625C5.98391 11.7875 6.01516 11.7875 6.05579 11.7625C6.09954 11.7344 6.11204 11.675 6.11829 11.4531C6.12766 11.1687 6.10266 11.0938 5.99954 11.0938C5.96828 11.0938 5.92766 11.1125 5.90891 11.1375Z" fill="black"/>
</svg>
