<svg width="19" height="20" viewBox="0 0 19 20" fill="none" xmlns="http://www.w3.org/2000/svg">
<path fill-rule="evenodd" clip-rule="evenodd" d="M0.383987 16.821C0.262734 16.9422 0.166551 17.0862 0.100929 17.2446C0.0353077 17.403 0.00153279 17.5728 0.00153279 17.7443C0.00153279 17.9158 0.0353077 18.0856 0.100929 18.244C0.166551 18.4024 0.262734 18.5464 0.383987 18.6676C0.628869 18.9125 0.961 19.0501 1.30731 19.0501C1.47879 19.0501 1.64859 19.0163 1.80702 18.9507C1.96544 18.8851 2.10939 18.7889 2.23064 18.6676L9.52455 11.3725L16.821 18.6613C17.0709 18.8735 17.3916 18.984 17.7192 18.9706C18.0468 18.9573 18.3574 18.8212 18.5893 18.5893C18.8212 18.3574 18.9573 18.0468 18.9706 17.7192C18.984 17.3916 18.8735 17.0709 18.6613 16.821L11.3661 9.52582L18.6613 2.22937C18.8864 1.98128 19.0075 1.65616 18.9996 1.32126C18.9917 0.986357 18.8554 0.667305 18.6189 0.430102C18.3823 0.192899 18.0636 0.0556968 17.7288 0.0468771C17.3939 0.0380573 17.0684 0.158295 16.8197 0.382717L9.52582 7.67789L2.23064 0.382717C1.98559 0.137667 1.65323 -2.58202e-09 1.30668 0C0.960127 2.58202e-09 0.627767 0.137667 0.382717 0.382717C0.137667 0.627767 2.58202e-09 0.960127 0 1.30668C-2.58202e-09 1.65323 0.137667 1.98559 0.382717 2.23064L7.67789 9.52582L0.383987 16.821Z" fill="#121212"/>
</svg>
