<svg width="133" height="105" viewBox="0 0 133 105" fill="none" xmlns="http://www.w3.org/2000/svg">
<path d="M115.222 59.276V72.5286C114.618 80.6646 108.866 88.6575 98.1398 94.7754C75.623 107.615 39.345 107.488 17.0188 94.5688L16.6374 94.3463C5.59351 87.8471 0.0476715 79.3934 0 70.9555V59.2441L115.222 59.276Z" fill="#F89723"/>
<path d="M38.487 34.3763C55.6805 29.9747 76.513 31.8657 90.6238 40.0175L90.9416 40.1923C109.136 50.9025 108.961 68.0801 90.5284 78.5838C83.5377 82.3957 75.8753 84.8185 67.9639 85.7186H67.5189C52.5182 87.5778 36.2464 85.1148 24.6145 78.3772L24.3126 78.1865C6.11795 67.4922 6.29282 50.2986 24.694 39.795C29.0483 37.3628 33.7085 35.5243 38.5505 34.3287L38.487 34.3763ZM98.2671 35.5523C75.8615 22.6174 39.6629 22.5061 17.2255 35.3457C-5.21193 48.1852 -5.62508 69.399 16.7329 82.5564L17.1142 82.7789C39.5199 95.7138 75.7184 95.8408 98.2353 82.9854C120.752 70.13 121.102 48.9321 98.7279 35.7747L98.3465 35.5523" fill="#FFD524"/>
<path d="M56.6659 62.9166L54.028 61.3276L51.1201 59.6431L49.6264 58.7851L42.2373 63.0596L43.7469 63.9336L46.6548 65.618L49.2926 67.207C50.8881 68.149 52.6865 68.694 54.5365 68.7961C55.846 68.9 57.1568 68.6124 58.3025 67.9698C59.3036 67.3818 59.7327 66.6668 59.5579 65.8722C59.3832 65.0777 58.4138 63.87 56.6659 62.8689V62.9166ZM70.0297 55.1144L67.3761 53.5253L64.4681 51.8409L62.9744 50.9669L56.1891 54.9078L57.6987 55.7817L60.6067 57.4661L63.2445 59.0552C64.2469 59.6737 65.3743 60.0616 66.5451 60.1907C67.7158 60.3199 68.9007 60.1871 70.0138 59.802C70.3037 59.6837 70.5851 59.5457 70.8561 59.3889C71.0871 59.256 71.3052 59.1017 71.5076 58.9281L71.7619 58.6738C71.367 57.7045 71.069 56.6985 70.872 55.6705C70.6075 55.4616 70.3257 55.2756 70.0297 55.1144ZM72.9218 46.9943L71.6188 47.757L72.1432 48.059C72.3832 47.6902 72.6432 47.3348 72.9218 46.9943ZM90.6239 40.0025C76.5131 31.8506 55.6648 29.9597 38.4871 34.3614C39.663 34.0594 40.8389 33.8052 42.0307 33.5668C39.8765 34.4091 37.7844 35.4021 35.7698 36.5384C21.5796 44.6266 18.2902 56.6875 25.7429 66.7303L29.9856 64.2673L26.0448 61.979L61.0039 41.6869L64.9448 43.9592L70.8243 40.5427L76.7832 43.991C78.5216 43.0144 80.4413 42.4034 82.4243 42.1954C85.7548 41.8933 89.0948 42.6615 91.9586 44.3883C94.9796 46.1335 97.5146 48.6085 99.3319 51.5867C100.728 53.7621 101.513 56.273 101.605 58.8563C101.698 61.4395 101.094 64 99.8563 66.2695C97.6793 69.9561 91.5296 73.0071 84.8079 70.7824C83.6417 70.3949 82.5182 69.8891 81.455 69.2728C80.6721 68.8231 79.9184 68.3242 79.1986 67.7791C78.3153 67.1252 77.4716 66.4195 76.672 65.6656C73.8212 66.0608 70.9178 65.7943 68.1865 64.887C71.7301 67.9698 71.0786 71.561 66.5974 74.1671C61.3536 77.2181 53.7261 76.932 46.3687 73.5632L41.6016 76.3441L34.9117 72.4827L39.5358 69.7972L36.6279 68.1287L32.0038 70.8142L26.3149 67.5249C28.8546 70.5217 31.9051 73.0449 35.3249 74.9775L35.6426 75.1523C48.8 82.7479 67.7733 84.9091 84.2359 81.588C78.9915 83.6495 73.5086 85.0429 67.9163 85.7354C75.8277 84.8353 83.4901 82.4125 90.4808 78.6005C108.914 68.0969 109.089 50.9193 90.894 40.2091L90.5762 40.0342" fill="#FFB02D"/>
<path d="M42.0309 33.6445C40.8391 33.8829 39.6632 34.1371 38.4873 34.4391C33.6453 35.6347 28.985 37.4732 24.6307 39.9054C6.22952 50.409 6.05474 67.6026 24.2494 78.2969L24.5513 78.4876C36.2308 85.2251 52.5027 87.6882 67.4557 85.829H67.9007C73.493 85.1365 78.9758 83.7431 84.2202 81.6816C67.7576 85.0027 48.7844 82.8415 35.627 75.2459L35.3092 75.0711C31.8894 73.1385 28.8389 70.6153 26.2992 67.6185L25.2982 67.0464L25.6796 66.8239C18.1475 56.8129 21.5162 44.752 35.7065 36.632C37.7211 35.4957 39.8132 34.5027 41.9673 33.6604" fill="#F89723"/>
<path d="M42.2373 63.1229L49.6265 58.8483L51.1202 59.7064L54.0281 61.3908L56.6659 62.9799C58.4139 63.981 59.415 65.0298 59.558 65.9832C59.701 66.9366 59.3037 67.4928 58.3026 68.0807C57.1569 68.7234 55.8461 69.011 54.5366 68.907C52.6866 68.8049 50.8882 68.26 49.2927 67.318L46.6548 65.7289L43.7469 64.0445L42.2373 63.1705V63.1229ZM76.7674 44.0225L70.8084 40.5742L64.9289 43.9907L60.9881 41.7183L26.029 62.0106L29.9698 64.2988L25.7271 66.7618L25.3457 66.9843L26.3468 67.5563L32.0356 70.8457L36.6597 68.1602L39.5677 69.8287L34.9435 72.5142L41.6335 76.3756L46.4006 73.5948C53.7579 76.9635 61.3854 77.2495 66.6292 74.1986C71.1104 71.5925 71.7619 68.0013 68.2183 64.9185C70.9496 65.8258 73.8531 66.0923 76.7039 65.6972C74.5742 63.7658 72.8789 61.4043 71.7301 58.7689L71.4759 59.0231C71.2736 59.1967 71.0554 59.351 70.8243 59.484C70.5534 59.6407 70.272 59.7787 69.9822 59.8971C68.869 60.2822 67.6842 60.4149 66.5134 60.2858C65.3427 60.1566 64.2153 59.7687 63.2128 59.1502L60.5749 57.5612L57.6988 55.8927L56.1891 55.0187L62.9744 51.0779L64.4681 51.9518L67.3761 53.6362L70.0298 55.2253C70.3258 55.3865 70.6076 55.5726 70.8721 55.7815C70.8721 55.3683 70.7449 54.9393 70.7131 54.5261C70.4727 52.3075 70.9757 50.0718 72.1433 48.1699L71.6189 47.868L72.9219 47.1052C73.0967 46.8987 73.2715 46.708 73.4622 46.5173C74.4323 45.5286 75.5466 44.6928 76.7674 44.0384" fill="#FFD524"/>
<path d="M70.8721 55.7163C71.0691 56.7443 71.3671 57.7502 71.7619 58.7196C72.5565 57.7979 72.2228 56.7333 70.8721 55.7163ZM91.9905 44.3704C89.1267 42.6437 85.7867 41.8755 82.4562 42.1775C80.4732 42.3855 78.5535 42.9966 76.8151 43.9732L77.5302 44.3863L72.9219 47.04C72.6432 47.3805 72.3833 47.736 72.1433 48.1047L74.5269 49.4713L80.3905 46.0707L87.0803 49.9321L80.8672 53.4916C85.9362 57.4165 86.3494 61.3097 81.8048 63.9476C80.2238 64.8497 78.4789 65.4277 76.672 65.6479C77.4717 66.4017 78.3154 67.1074 79.1987 67.7613C79.9185 68.3064 80.6721 68.8053 81.4551 69.255C82.5183 69.8713 83.6418 70.3771 84.808 70.7646C91.5297 72.9892 97.6794 69.9383 99.8564 66.2517C101.094 63.9821 101.698 61.4217 101.606 58.8384C101.513 56.2552 100.728 53.7443 99.3319 51.5688C97.5147 48.5906 94.9796 46.1157 91.9587 44.3704" fill="#FFC03B"/>
<path d="M77.4821 44.3878L76.767 43.9746C75.5463 44.6291 74.4319 45.4649 73.4619 46.4535C73.2712 46.6442 73.0963 46.8349 72.9215 47.0415L77.4821 44.3878ZM87.0164 49.9336L80.3265 46.0722L74.5106 49.5363L72.127 48.1697C70.9595 50.0716 70.4564 52.3073 70.6968 54.5259C70.6968 54.9391 70.7922 55.3681 70.8558 55.7812C72.2065 56.7982 72.5402 57.8629 71.7457 58.7846C72.8945 61.42 74.5898 63.7815 76.7194 65.7128C78.5263 65.4927 80.2711 64.9147 81.852 64.0125C86.3967 61.3747 85.9836 57.4815 80.9145 53.5566L87.0641 49.9971" fill="#FFDD36"/>
<path d="M132.114 33.4537V46.7064C131.526 54.8264 125.758 62.8194 115.048 68.9531C92.5307 81.7926 56.2527 81.6655 33.9265 68.7306L33.545 68.5082C22.4217 62.0248 16.9554 53.5711 16.9077 45.1173V33.4219L132.114 33.4537Z" fill="#F89723"/>
<path d="M55.4421 8.53764C72.6197 4.13596 93.4522 6.02692 107.563 14.1788L107.881 14.3694C126.075 25.0637 125.901 42.2573 107.484 52.7609C100.484 56.563 92.8174 58.9801 84.9031 59.8799H84.4741C69.4734 61.7232 53.1857 59.2601 41.5697 52.5226L41.2519 52.3477C23.0572 41.6375 23.232 24.444 41.6491 13.9404C45.9885 11.5393 50.6264 9.72267 55.4421 8.53764ZM115.143 9.7771C92.7371 -3.15778 56.5385 -3.28493 34.1011 9.55461C11.6637 22.3941 11.2347 43.608 33.6085 56.7653L33.9899 56.9878C56.3955 69.9227 92.5941 70.0498 115.111 57.2102C137.628 44.3707 137.961 23.1569 115.588 9.99954L115.206 9.7771" fill="#FFD524"/>
<path d="M73.5574 37.0773L70.9195 35.4882L68.0115 33.8197L66.502 32.9457L59.1287 37.2362L60.6225 38.0943L63.5304 39.7786L66.1841 41.3677C67.77 42.3183 69.5654 42.8641 71.4121 42.9567C72.7217 43.0626 74.0331 42.7749 75.1781 42.1305C76.1792 41.5584 76.6083 40.8433 76.4335 40.0488C76.2587 39.2543 75.2894 38.0307 73.5574 37.0296V37.0773ZM86.9053 29.275L84.2675 27.686L81.3596 26.0016L79.8499 25.1435L73.0806 29.0844L74.5743 29.9425L77.4823 31.6269L80.1201 33.2159C81.1226 33.8344 82.25 34.2222 83.4207 34.3514C84.5915 34.4806 85.7763 34.3478 86.8894 33.9628C87.179 33.85 87.4605 33.7173 87.7317 33.5655C87.9583 33.4257 88.1758 33.2718 88.3831 33.1047C88.4785 33.0093 88.5739 32.9298 88.6533 32.8345C88.2438 31.8704 87.9452 30.8628 87.7635 29.8312C87.487 29.6314 87.2006 29.4458 86.9053 29.275ZM89.8133 21.155L88.4944 21.9177L89.0347 22.2355C89.2692 21.858 89.5294 21.497 89.8133 21.155ZM107.499 14.1314C93.3887 5.97954 72.5404 4.08859 55.3786 8.49027C56.5386 8.20424 57.7145 7.9341 58.9222 7.69574C56.7667 8.53503 54.6744 9.52809 52.6613 10.6673C38.4552 18.7714 35.1817 30.8323 42.6185 40.8592L46.8771 38.3962L42.9363 36.1238L77.8954 15.8158L81.8363 18.0881L87.7158 14.6716L93.6747 18.1199C95.4208 17.1478 97.3447 16.5371 99.3317 16.3243C102.661 16.0344 105.998 16.8017 108.866 18.5172C111.881 20.2763 114.418 22.748 116.255 25.7156C117.66 27.8881 118.449 30.401 118.539 32.9867C118.628 35.5723 118.015 38.1339 116.764 40.3984C114.587 44.085 108.437 47.1519 101.731 44.9113C100.558 44.5084 99.4332 43.9754 98.3783 43.3222C97.5954 42.8725 96.8416 42.3736 96.1218 41.8285C95.2306 41.1841 94.3814 40.4835 93.5794 39.731C90.7271 40.1097 87.8261 39.8381 85.0938 38.9365C88.6374 42.0192 88.0017 45.6105 83.5047 48.2166C78.2609 51.2675 70.6176 50.9815 63.2761 47.6127L58.509 50.4094L51.835 46.548L56.4432 43.8625L53.5512 42.1781L48.9271 44.8636L43.2223 41.5743C45.7716 44.5676 48.8266 47.0901 52.2481 49.0269L52.55 49.2176C65.7074 56.8133 84.6966 58.9585 101.143 55.5738C95.8989 57.6354 90.416 59.0288 84.8237 59.7213C92.7359 58.8581 100.408 56.4788 107.42 52.7135C125.837 42.2099 126.012 25.0164 107.817 14.3221L107.499 14.1314Z" fill="#FFB02D"/>
<path d="M58.9223 7.74414C57.7146 7.9825 56.5387 8.25264 55.3787 8.53867C50.538 9.73848 45.8782 11.5767 41.5221 14.005C23.105 24.5086 22.9302 41.7021 41.1249 52.4124L41.4427 52.5872C53.1063 59.3248 69.3941 61.7877 84.3471 59.9444H84.7762C90.3685 59.252 95.8513 57.8586 101.096 55.797C84.649 59.1182 65.6599 56.9729 52.5025 49.4408L52.2006 49.2502C48.7791 47.3133 45.7241 44.7908 43.1748 41.7975L42.1895 41.2254L42.5551 41.003C35.0388 31.0078 38.3918 18.9469 52.5979 10.811C54.611 9.67183 56.7033 8.67877 58.8587 7.83948" fill="#F89723"/>
<path d="M59.1288 37.2997L66.502 33.0093L68.0115 33.8832L70.9195 35.5518L73.5574 37.1408C75.2895 38.1419 76.2906 39.1907 76.4336 40.16C76.5766 41.1293 76.1793 41.6696 75.1782 42.2416C74.0331 42.8861 72.7217 43.1738 71.4121 43.0679C69.5655 42.9753 67.77 42.4295 66.1842 41.4789L63.5305 39.8898L60.6225 38.2054L59.1288 37.3473V37.2997ZM93.5794 18.1357L87.6205 14.6875L81.7409 18.104L77.8001 15.8316L42.841 36.1397L46.7818 38.412L42.5232 40.875L42.1577 41.0975L43.1429 41.6696L48.8476 44.9589L53.4718 42.2734L56.3638 43.9578L51.7556 46.6433L58.4296 50.5047L63.1967 47.708C70.5382 51.0768 78.1815 51.3628 83.4253 48.3118C87.9065 45.7058 88.5421 42.1145 85.0144 39.0318C87.7467 39.9334 90.6477 40.205 93.5 39.8263C91.3728 37.8901 89.6826 35.5228 88.5421 32.8821C88.5421 32.9775 88.3673 33.0569 88.2719 33.1523C88.0646 33.3194 87.8471 33.4733 87.6205 33.6131C87.3493 33.7649 87.0678 33.8976 86.7782 34.0104C85.6651 34.3954 84.4803 34.5282 83.3095 34.399C82.1388 34.2698 81.0114 33.882 80.0089 33.2635L77.3711 31.6745L74.5108 30.0536L73.0171 29.1955L79.7864 25.2547L81.2961 26.1128L84.204 27.7972L86.8418 29.3862C87.1371 29.557 87.4235 29.7426 87.6999 29.9424C87.6172 29.5277 87.5589 29.1085 87.5251 28.687C87.287 26.4665 87.7958 24.2298 88.9711 22.3308L88.4309 22.013L89.7498 21.2503C89.9087 21.0596 90.0835 20.853 90.2741 20.6623C91.2483 19.6783 92.362 18.8431 93.5794 18.1834" fill="#FFD524"/>
<path d="M87.7637 29.8779C87.9454 30.9096 88.244 31.9171 88.6535 32.8812C89.4481 31.9755 89.1144 30.8949 87.7637 29.8779ZM108.898 18.5321C106.03 16.8167 102.693 16.0493 99.3637 16.3392C97.3767 16.552 95.4528 17.1627 93.7067 18.1348L94.4376 18.548L89.877 21.2017C89.5931 21.5437 89.333 21.9047 89.0984 22.2823L91.4661 23.6488L97.3456 20.2324L104.036 24.0938L97.8859 27.6691C102.939 31.5782 103.352 35.4873 98.8075 38.1251C97.2203 39.0131 95.4783 39.5902 93.6749 39.8254C94.477 40.5779 95.3261 41.2785 96.2173 41.9229C96.9372 42.468 97.6909 42.9669 98.4739 43.4166C99.5287 44.0698 100.653 44.6028 101.827 45.0057C108.533 47.2463 114.682 44.1794 116.859 40.4928C118.11 38.2283 118.724 35.6668 118.634 33.0811C118.545 30.4955 117.756 27.9825 116.351 25.81C114.513 22.8424 111.976 20.3707 108.962 18.6116" fill="#FFC03B"/>
<path d="M94.3738 18.5479L93.6428 18.1348C92.4478 18.7996 91.3559 19.6347 90.4012 20.6137C90.2105 20.8044 90.0357 21.011 89.8768 21.2017L94.4373 18.5479H94.3738ZM103.972 24.0937L97.2818 20.2323L91.4023 23.6488L89.0346 22.2822C87.8593 24.1812 87.3504 26.4178 87.5885 28.6384C87.6223 29.0599 87.6807 29.4791 87.7634 29.8938C89.1141 30.9108 89.4478 31.9913 88.6533 32.8971C89.7938 35.5377 91.4839 37.905 93.6111 39.8412C95.4145 39.606 97.1565 39.0289 98.7437 38.1409C103.288 35.5031 102.875 31.594 97.822 27.685L103.972 24.1096" fill="#FFDD36"/>
</svg>
