<svg width="331" height="245" viewBox="0 0 331 245" fill="none" xmlns="http://www.w3.org/2000/svg">
<g clip-path="url(#clip0_1803_3702)">
<g opacity="0.1">
<path opacity="0.1" d="M299.397 240.867C334.619 214.081 350.306 139.805 293.115 103.383C255.252 79.2748 231.703 92.998 189.108 77.0791C137.108 57.6144 129.358 -1.19506 66.114 27.7424C32.6045 43.0678 9.37492 86.2625 5.29564 135.355C1.2757 183.43 18.3122 216.418 53.127 238.961C134.883 242.47 216.802 241.839 299.397 240.867Z" fill="#6666CC"/>
<path opacity="0.1" d="M154.694 29.5974C149.376 50.9611 169.134 72.1097 189.946 80.8777C210.758 89.6457 234.625 88.6072 256.92 84.4235C266.562 82.6209 276.434 80.084 283.91 73.9493C291.387 67.8147 295.718 57.1625 291.624 48.5577C288.004 40.9691 279.208 37.0821 270.812 35.0867C262.416 33.0913 253.516 32.2753 246.04 28.0767C238.949 24.0933 233.921 17.4987 227.757 12.2765C216.372 2.6406 200.359 -2.12173 185.563 0.912209C170.766 3.94615 159.218 11.4383 154.694 29.5974Z" fill="#6666CC"/>
</g>
<path d="M314.052 127.864V111.7H307.904C307.178 108.913 306.069 106.239 304.611 103.756L308.942 99.4163L297.52 87.9852L293.181 92.3173C290.699 90.8574 288.025 89.749 285.238 89.0237V82.8965H269.099V89.0237C266.32 89.7519 263.654 90.8603 261.178 92.3173L256.839 87.9852L245.409 99.4163L249.741 103.756C248.285 106.241 247.177 108.914 246.448 111.7H240.321V127.864H246.448C247.177 130.65 248.285 133.324 249.741 135.809L245.409 140.148L256.839 151.572L261.178 147.24C263.664 148.695 266.336 149.805 269.121 150.541V156.668H285.275V150.541C288.061 149.807 290.733 148.696 293.219 147.24L297.557 151.572L308.987 140.148L304.655 135.809C306.099 133.323 307.192 130.649 307.904 127.864H314.052ZM277.183 133.798C274.413 133.8 271.705 132.98 269.402 131.442C267.098 129.904 265.302 127.717 264.241 125.158C263.18 122.599 262.901 119.783 263.441 117.066C263.98 114.348 265.313 111.852 267.272 109.893C269.23 107.933 271.725 106.599 274.441 106.058C277.158 105.517 279.974 105.794 282.533 106.854C285.092 107.913 287.279 109.708 288.818 112.012C290.357 114.315 291.179 117.023 291.179 119.793C291.173 123.503 289.696 127.059 287.073 129.682C284.449 132.305 280.893 133.78 277.183 133.784V133.798Z" fill="#6A77E8"/>
<path d="M265.22 168.357L262.149 160.331L259.108 161.496C258.219 160.252 257.16 159.138 255.964 158.187L257.291 155.22L249.444 151.733L248.117 154.701C246.609 154.447 245.074 154.405 243.555 154.575L242.383 151.533L234.373 154.612L235.538 157.646C234.296 158.54 233.183 159.601 232.23 160.798L229.263 159.47L225.77 167.311L228.736 168.639C228.489 170.15 228.449 171.687 228.618 173.208L225.577 174.373L228.655 182.392L231.688 181.227C232.582 182.467 233.64 183.58 234.833 184.536L233.513 187.503L241.352 190.989L242.68 188.022C244.19 188.276 245.727 188.318 247.249 188.148L248.413 191.19L256.431 188.111L255.244 185.085C256.487 184.188 257.602 183.128 258.559 181.932L261.526 183.26L265.02 175.419L262.053 174.091C262.303 172.581 262.345 171.044 262.179 169.522L265.22 168.357ZM248.065 178.312C246.696 178.832 245.205 178.935 243.779 178.608C242.352 178.282 241.054 177.541 240.047 176.478C239.041 175.416 238.371 174.079 238.123 172.637C237.874 171.194 238.058 169.71 238.651 168.372C239.244 167.034 240.219 165.901 241.454 165.116C242.69 164.331 244.129 163.929 245.593 163.961C247.056 163.993 248.477 164.456 249.677 165.294C250.877 166.132 251.802 167.306 252.337 168.669C252.695 169.582 252.868 170.557 252.847 171.538C252.826 172.518 252.61 173.485 252.213 174.382C251.816 175.279 251.244 176.088 250.532 176.763C249.82 177.437 248.982 177.964 248.065 178.312Z" stroke="#6A77E8" stroke-miterlimit="10"/>
<path d="M238.964 140.244L236.887 134.829L234.833 135.615C234.231 134.78 233.517 134.031 232.712 133.39L233.602 131.38L228.306 129.021L227.409 131.031C226.389 130.86 225.351 130.83 224.323 130.942L223.537 128.895L218.123 130.972L218.909 133.019C218.075 133.626 217.327 134.342 216.684 135.148L214.674 134.25L212.3 139.562L214.31 140.459C214.138 141.479 214.111 142.518 214.229 143.545L212.174 144.331L214.251 149.746L216.306 148.96C216.908 149.795 217.621 150.544 218.427 151.185L217.537 153.196L222.832 155.555L223.73 153.544C224.75 153.713 225.788 153.74 226.815 153.626L227.601 155.681L233.016 153.604L232.252 151.542C233.087 150.939 233.835 150.225 234.477 149.42L236.487 150.31L238.845 145.014L236.835 144.116C237.007 143.096 237.035 142.058 236.917 141.03L238.964 140.244ZM227.371 146.979C226.444 147.334 225.433 147.406 224.464 147.187C223.496 146.967 222.615 146.464 221.932 145.744C221.249 145.023 220.795 144.116 220.628 143.137C220.46 142.158 220.586 141.152 220.99 140.245C221.395 139.338 222.059 138.571 222.898 138.041C223.738 137.512 224.716 137.243 225.709 137.269C226.701 137.295 227.664 137.615 228.475 138.188C229.285 138.761 229.908 139.562 230.264 140.489C230.74 141.733 230.702 143.116 230.16 144.333C229.618 145.549 228.615 146.501 227.371 146.979V146.979Z" stroke="#6A77E8" stroke-miterlimit="10"/>
<path d="M237.08 45.4209C237.08 50.4725 235.582 55.4107 232.776 59.6109C229.97 63.8111 225.981 67.0846 221.314 69.0175C216.648 70.9503 211.513 71.4556 206.559 70.4696C201.606 69.4835 197.055 67.0503 193.484 63.4777C189.913 59.9052 187.482 55.3537 186.497 50.3989C185.513 45.4442 186.02 40.3087 187.954 35.642C189.887 30.9753 193.162 26.987 197.362 24.1815C201.562 21.376 206.5 19.8794 211.551 19.8809C214.905 19.8779 218.227 20.5366 221.326 21.8192C224.425 23.1017 227.241 24.983 229.612 27.3553C231.983 29.7276 233.864 32.5443 235.145 35.6442C236.426 38.7442 237.084 42.0664 237.08 45.4209Z" fill="#6A4EEE" stroke="#6A4EEE" stroke-miterlimit="10"/>
<path d="M212.579 45.2998C217.16 44.734 220.416 40.5605 219.85 35.9782C219.284 31.3959 215.111 28.14 210.53 28.7058C205.948 29.2717 202.692 33.4452 203.258 38.0275C203.824 42.6098 207.997 45.8657 212.579 45.2998Z" fill="white"/>
<path d="M227.379 62.2371C222.87 65.7971 217.292 67.7334 211.548 67.7334C205.803 67.7334 200.226 65.7971 195.716 62.2371C197.348 55.0491 198.854 48.8848 200.411 47.2751C202.636 45.0497 208.488 43.7812 211.537 43.7812C214.585 43.7812 220.733 45.339 221.868 46.474C224.182 48.7884 226.177 55.1604 227.379 62.2371Z" fill="white"/>
<path d="M174.853 108.406V95.7956C174.853 94.143 175.509 92.5581 176.677 91.3895C177.846 90.221 179.431 89.5645 181.083 89.5645H220.808C221.628 89.5616 222.44 89.7206 223.199 90.0324C223.957 90.3442 224.647 90.8027 225.227 91.3816C225.808 91.9605 226.269 92.6484 226.584 93.4059C226.898 94.1633 227.06 94.9754 227.06 95.7956V108.406C227.06 110.059 226.404 111.644 225.235 112.812C224.067 113.981 222.482 114.637 220.83 114.637H181.075C179.424 114.635 177.842 113.978 176.675 112.809C175.508 111.641 174.853 110.057 174.853 108.406Z" fill="#6A4EEE"/>
<path d="M191.63 107.717L172.405 126.447L203.563 110.691" fill="#6A4EEE"/>
<path d="M179.674 95.4471V95.3804C179.674 95.1344 179.771 94.8986 179.945 94.7247C180.119 94.5508 180.355 94.4531 180.601 94.4531H200.241C200.486 94.4531 200.722 94.5508 200.896 94.7247C201.07 94.8986 201.168 95.1344 201.168 95.3804V95.4471C201.168 95.693 201.07 95.9289 200.896 96.1028C200.722 96.2767 200.486 96.3744 200.241 96.3744H180.601C180.355 96.3744 180.119 96.2767 179.945 96.1028C179.771 95.9289 179.674 95.693 179.674 95.4471Z" fill="white"/>
<path d="M202.05 95.4471V95.3804C202.05 95.1344 202.148 94.8986 202.322 94.7247C202.496 94.5508 202.732 94.4531 202.977 94.4531H220.118C220.364 94.4531 220.599 94.5508 220.773 94.7247C220.947 94.8986 221.045 95.1344 221.045 95.3804V95.4471C221.045 95.693 220.947 95.9289 220.773 96.1028C220.599 96.2767 220.364 96.3744 220.118 96.3744H202.977C202.732 96.3744 202.496 96.2767 202.322 96.1028C202.148 95.9289 202.05 95.693 202.05 95.4471Z" fill="white"/>
<path d="M194.567 99.6678V99.6011C194.567 99.3552 194.664 99.1193 194.838 98.9454C195.012 98.7715 195.248 98.6738 195.494 98.6738H220.118C220.364 98.6738 220.6 98.7715 220.773 98.9454C220.947 99.1193 221.045 99.3552 221.045 99.6011V99.6678C221.045 99.9138 220.947 100.15 220.773 100.323C220.6 100.497 220.364 100.595 220.118 100.595H195.494C195.248 100.595 195.012 100.497 194.838 100.323C194.664 100.15 194.567 99.9138 194.567 99.6678Z" fill="white"/>
<path d="M179.674 99.6678V99.6011C179.674 99.3552 179.771 99.1193 179.945 98.9454C180.119 98.7715 180.355 98.6738 180.601 98.6738H191.6C191.846 98.6738 192.082 98.7715 192.255 98.9454C192.429 99.1193 192.527 99.3552 192.527 99.6011V99.6678C192.527 99.9138 192.429 100.15 192.255 100.323C192.082 100.497 191.846 100.595 191.6 100.595H180.601C180.355 100.595 180.119 100.497 179.945 100.323C179.771 100.15 179.674 99.9138 179.674 99.6678Z" fill="white"/>
<path d="M197.986 103.889V103.822C197.986 103.576 198.084 103.34 198.257 103.166C198.431 102.992 198.667 102.895 198.913 102.895H220.118C220.364 102.895 220.599 102.992 220.773 103.166C220.947 103.34 221.045 103.576 221.045 103.822V103.889C221.045 104.134 220.947 104.37 220.773 104.544C220.599 104.718 220.364 104.816 220.118 104.816H198.913C198.667 104.816 198.431 104.718 198.257 104.544C198.084 104.37 197.986 104.134 197.986 103.889Z" fill="white"/>
<path d="M179.674 103.889V103.822C179.674 103.576 179.771 103.34 179.945 103.166C180.119 102.992 180.355 102.895 180.601 102.895H195.249C195.495 102.895 195.731 102.992 195.905 103.166C196.078 103.34 196.176 103.576 196.176 103.822V103.889C196.176 104.134 196.078 104.37 195.905 104.544C195.731 104.718 195.495 104.816 195.249 104.816H180.601C180.355 104.816 180.119 104.718 179.945 104.544C179.771 104.37 179.674 104.134 179.674 103.889Z" fill="white"/>
<path d="M179.674 108.109V108.042C179.674 107.797 179.771 107.561 179.945 107.387C180.119 107.213 180.355 107.115 180.601 107.115H186.037C186.283 107.115 186.519 107.213 186.693 107.387C186.867 107.561 186.964 107.797 186.964 108.042V108.109C186.964 108.355 186.867 108.591 186.693 108.765C186.519 108.939 186.283 109.036 186.037 109.036H180.601C180.355 109.036 180.119 108.939 179.945 108.765C179.771 108.591 179.674 108.355 179.674 108.109Z" fill="white"/>
<path d="M188.885 108.109V108.042C188.885 107.797 188.983 107.561 189.157 107.387C189.331 107.213 189.567 107.115 189.812 107.115H220.118C220.364 107.115 220.6 107.213 220.773 107.387C220.947 107.561 221.045 107.797 221.045 108.042V108.109C221.045 108.355 220.947 108.591 220.773 108.765C220.6 108.939 220.364 109.036 220.118 109.036H189.812C189.567 109.036 189.331 108.939 189.157 108.765C188.983 108.591 188.885 108.355 188.885 108.109Z" fill="white"/>
<path d="M76.7904 90.5083C82.5132 78.2059 77.1808 63.5929 64.8802 57.8693C52.5796 52.1457 37.9688 57.4788 32.246 69.7812C26.5232 82.0836 31.8555 96.6966 44.1561 102.42C56.4567 108.144 71.0676 102.811 76.7904 90.5083Z" fill="#6A4EEE"/>
<path d="M50.6929 97.8447C53.7963 96.7547 55.4287 93.3549 54.3388 90.251C53.249 87.147 49.8496 85.5145 46.7461 86.6045C43.6427 87.6945 42.0103 91.0943 43.1002 94.1983C44.1901 97.3022 47.5894 98.9348 50.6929 97.8447Z" fill="white"/>
<path d="M45.6063 94.3496L45.317 90.5739L48.4469 88.4375L51.8587 90.0769L52.148 93.8526L49.018 95.989L45.6063 94.3496Z" fill="#6A4EEE"/>
<path d="M62.3128 73.713C65.4102 72.6057 67.0235 69.1968 65.9163 66.099C64.8091 63.0012 61.4007 61.3877 58.3034 62.495C55.2061 63.6023 53.5927 67.0112 54.6999 70.109C55.8071 73.2068 59.2155 74.8204 62.3128 73.713Z" fill="white"/>
<path d="M57.3546 69.877L57.5623 65.0702L61.1817 61.9102L64.5935 63.5495L64.3858 68.3489L60.7664 71.5164L57.3546 69.877Z" fill="#6A4EEE"/>
<path d="M52.8527 89.4603L48.2987 87.2349L51.666 79.4758C51.881 78.9788 52.111 78.4966 52.3631 77.9922L56.3163 70.5742L60.8703 72.7625L57.6217 80.4104C57.3695 81.0038 57.0951 81.5825 56.791 82.1462L52.8527 89.4603Z" fill="white"/>
<path d="M71.5802 93.3702C72.4628 92.9696 86.5549 93.6076 86.5549 93.6076L76.3937 84.2832L71.5802 93.3702Z" fill="#6A4EEE"/>
<path d="M133.782 38.6092C139.076 26.3699 133.446 12.1564 121.208 6.86255C108.971 1.56866 94.7595 7.19905 89.4664 19.4384C84.1732 31.6777 89.8028 45.8912 102.04 51.185C114.278 56.4789 128.489 50.8485 133.782 38.6092Z" fill="#6A4EEE"/>
<path d="M112.432 8.44922H110.823V28.7299H112.432V8.44922Z" fill="white"/>
<path d="M93.8106 40.4323L94.7266 41.7559L111.625 30.0572L110.709 28.7336L93.8106 40.4323Z" fill="white"/>
<path d="M113.849 29.034C113.849 29.4741 113.718 29.9044 113.474 30.2703C113.229 30.6363 112.882 30.9215 112.475 31.09C112.069 31.2584 111.621 31.3025 111.19 31.2166C110.758 31.1307 110.362 30.9188 110.051 30.6076C109.739 30.2963 109.527 29.8998 109.442 29.4681C109.356 29.0365 109.4 28.589 109.568 28.1824C109.737 27.7757 110.022 27.4282 110.388 27.1836C110.754 26.9391 111.184 26.8086 111.624 26.8086C112.214 26.8086 112.78 27.0431 113.197 27.4604C113.615 27.8777 113.849 28.4438 113.849 29.034Z" fill="white"/>
<path d="M177.174 192.533C175.743 170.457 185.399 147.609 201.65 134.539C202.169 156.726 192.609 179.18 177.174 192.533Z" fill="#6A78E3"/>
<path d="M199.009 140.48C192.122 153.331 186.204 166.679 181.305 180.411C175.32 197.154 170.61 214.942 160.36 228.977" stroke="#6A4EEE" stroke-miterlimit="10" stroke-linecap="round"/>
<path d="M172.042 206.418C180.274 188 196.614 174.083 214.629 170.145C206.96 189.884 189.709 204.942 172.042 206.418Z" fill="#6A78E3"/>
<path d="M210.209 174.203C197.907 185.033 185.395 195.557 172.672 205.774" stroke="#6A4EEE" stroke-miterlimit="10" stroke-linecap="round"/>
<path d="M167.184 222.465C178.183 206.034 198.475 197.459 215.267 202.147C202.918 218.371 182.559 226.968 167.184 222.465Z" fill="#6A78E3"/>
<path d="M211.24 203.355C197.038 212.287 181.52 218.93 165.255 223.043" stroke="#6A4EEE" stroke-miterlimit="10" stroke-linecap="round"/>
<path d="M173.125 200.834C176.64 182.334 171.367 161.712 159.626 148.07C154.812 166.267 159.403 187.556 173.125 200.834Z" fill="#6A78E3"/>
<path d="M160.835 152.787C163.012 169.626 167.321 186.12 173.659 201.872" stroke="#6A4EEE" stroke-miterlimit="10" stroke-linecap="round"/>
<path d="M167.087 216.589C165.604 197.569 155.843 179.707 141.588 169.855C142.396 179.787 145.023 189.485 149.339 198.466C154.226 208.599 161.406 215.031 167.087 216.589Z" fill="#6A78E3"/>
<path d="M143.702 173.684C149.186 189.318 157.205 203.943 167.436 216.975" stroke="#6A4EEE" stroke-miterlimit="10" stroke-linecap="round"/>
<path d="M277.176 212.028C284.956 191.784 302.853 175.361 322.589 170.361C313.941 190.33 296.289 206.427 277.176 212.028Z" fill="#6A78E3"/>
<path d="M317.805 174.566C306.447 183.207 295.747 192.681 285.794 202.91C273.645 215.387 262.186 229.303 247.375 237.626" stroke="#6A4EEE" stroke-miterlimit="10" stroke-linecap="round"/>
<path d="M266.948 222.302C281.782 209.254 301.919 203.527 319.452 207.369C304.589 221.827 283.169 228.199 266.948 222.302Z" fill="#6A78E3"/>
<path d="M313.882 209.186C298.554 213.814 283.181 218.082 267.764 221.989" stroke="#6A4EEE" stroke-miterlimit="10" stroke-linecap="round"/>
<path d="M256.075 234.615C272.533 224.467 293.982 225.112 306.903 236.143C289.362 245.549 267.853 244.896 256.075 234.615Z" fill="#6A78E3"/>
<path d="M302.86 235.549C286.654 237.708 270.208 237.29 254.132 234.311" stroke="#6A4EEE" stroke-miterlimit="10" stroke-linecap="round"/>
<path d="M270.197 217.769C280.884 202.726 284.674 182.2 279.89 165.258C268.179 179.485 263.507 200.337 270.197 217.769Z" fill="#6A78E3"/>
<path d="M279.023 169.975C274.039 185.858 271.086 202.308 270.234 218.933" stroke="#6A4EEE" stroke-miterlimit="10" stroke-linecap="round"/>
<path d="M258.404 229.318C264.871 211.767 263.596 191.872 255.022 177.273C251.668 186.447 250.016 196.155 250.149 205.922C250.304 216.967 254.013 225.609 258.404 229.318Z" fill="#6A78E3"/>
<path d="M255.303 181.584C253.745 197.738 254.84 214.038 258.545 229.838" stroke="#6A4EEE" stroke-miterlimit="10" stroke-linecap="round"/>
<path d="M56.6723 176.651C48.7363 152.372 26.6044 132.767 0.845581 127.203C11.6816 148.196 31.3141 164.901 56.6723 176.651Z" fill="#6A78E3"/>
<path d="M58.0147 180.398C49.2526 175.521 39.584 172.492 29.6059 171.498C19.6277 170.504 9.55172 171.566 0 174.619C17.9752 183.596 38.6224 185.653 58.0147 180.398Z" fill="#6A78E3"/>
<path d="M62.8208 185.664C44.0413 183.06 24.3792 187.689 9.13013 198.274C26.4188 204.587 47.1638 200.507 62.8208 185.664Z" fill="#6A78E3"/>
<path d="M68.6728 197.155C50.0787 197.081 31.7961 205.915 20.8636 220.269C29.1729 221.921 37.79 220.951 45.5247 217.495C53.1122 214.06 59.4759 208.185 68.6728 197.155Z" fill="#6A78E3"/>
<path d="M81.7858 216.389C63.4439 213.243 43.9153 218.926 30.691 231.224C38.6208 234.224 47.2846 234.696 55.493 232.575C63.5626 230.468 70.8386 225.735 81.7858 216.389Z" fill="#6A78E3"/>
<path d="M61.9902 177.785C49.8784 161.466 46.5928 139.464 53.4756 120.756C58.7268 129.657 63.2585 139.056 65.3426 149.055C67.4268 159.055 67.0782 169.714 61.9902 177.785Z" fill="#6A78E3"/>
<path d="M69.3848 193.533C68.0184 184.828 68.7161 175.923 71.4215 167.536C74.1269 159.149 78.7644 151.516 84.9602 145.25C86.4065 163.194 80.9477 181.472 69.3848 193.533Z" fill="#6A78E3"/>
<path d="M6.48975 131.551C43.3442 155.132 72.1587 190.279 87.3707 230.209" stroke="#6A4EEE" stroke-miterlimit="10" stroke-linecap="round"/>
<path d="M54.6178 129.361C59.1052 147.533 61.8372 166.094 62.7764 184.788" stroke="#6A4EEE" stroke-miterlimit="10" stroke-linecap="round"/>
<path d="M82.216 152.291C80.724 167.043 76.2125 181.329 68.962 194.262" stroke="#6A4EEE" stroke-miterlimit="10" stroke-linecap="round"/>
<path d="M7.75806 175.041C24.6548 178.247 41.7974 179.984 58.9938 180.234" stroke="#6A4EEE" stroke-miterlimit="10" stroke-linecap="round"/>
<path d="M17.9043 196.857C33.4495 195.725 48.6899 191.962 62.9766 185.73" stroke="#6A4EEE" stroke-miterlimit="10" stroke-linecap="round"/>
<path d="M27.2719 217.651L70.3935 196.139" stroke="#6A4EEE" stroke-miterlimit="10" stroke-linecap="round"/>
<path d="M36.6171 230.312C55.3892 226.685 60.9592 222.368 81.7932 216.389" stroke="#6A4EEE" stroke-miterlimit="10" stroke-linecap="round"/>
<path d="M155.428 195.938C155.428 195.938 157.052 210.825 158.869 212.02C162.118 214.163 199.721 219.119 199.721 219.119L198.49 228.903C198.49 228.903 146.987 233.532 144.8 230.958C141.002 226.507 134.327 204.95 134.327 204.95L155.428 195.938Z" fill="#E06A58"/>
<path d="M130.596 157.601L134.757 147.609C134.757 147.609 146.046 152.913 149.769 159.478C153.752 166.481 158.625 203.711 158.625 203.711C158.625 203.711 138.695 208.303 135.031 206.352C131.368 204.401 130.596 157.601 130.596 157.601Z" fill="#F2AE30"/>
<path d="M98.904 111.225C95.9892 110.156 92.9038 109.222 89.7813 109.459C86.6588 109.696 83.4695 111.373 82.4311 114.095C81.6894 116.039 82.0232 118.331 80.8291 120.082C79.635 121.832 77.4173 122.455 75.2961 122.596C73.1749 122.737 71.024 122.463 68.9102 122.737C62.3833 123.605 57.7255 130.697 59.869 136.505C60.722 138.819 62.4723 141.03 62.0941 143.441C61.6713 146.022 58.9642 147.721 57.8516 150.117C56.3683 153.307 58.1409 157.171 61.0557 159.345C63.9705 161.518 67.7309 162.312 71.4393 162.883C76.5051 163.625 81.7339 163.996 86.7403 162.928C91.7467 161.859 96.5306 159.219 99.1191 155.094C100.269 153.269 100.966 151.207 102.301 149.494C105.06 145.955 109.948 144.583 113.797 142.076C118.002 139.324 121.088 133.968 118.611 129.777C116.222 125.749 110.007 124.851 107.485 120.875C106.454 119.236 106.21 117.285 105.542 115.497C104.875 113.71 103.198 112.805 98.904 111.225Z" fill="#0A2240"/>
<path d="M115.889 160.636C116.63 161.481 117.491 162.408 118.692 162.49C119.894 162.572 121.021 161.682 121.837 160.814C125.962 156.488 128.789 151.09 129.995 145.236C128.95 144.642 127.941 144.071 127.029 143.537C126.216 143.069 125.571 142.358 125.182 141.505C124.931 140.9 124.837 140.242 124.907 139.591C125.285 134.692 126.32 129.867 127.985 125.245C118.685 123.145 109.911 120.653 104.867 116.439C104.251 119.036 103.525 124.117 101.975 129.154C100.321 134.487 97.7395 139.761 93.3635 142.031C101.812 146.997 109.415 153.277 115.889 160.636Z" fill="#F9A07B"/>
<path d="M124.87 139.599C124.8 140.25 124.894 140.908 125.145 141.513C119.642 148.189 107.344 139.465 101.938 129.162C103.488 124.125 104.214 119.044 104.83 116.447C109.866 120.661 118.648 123.123 127.948 125.252C126.282 129.874 125.247 134.7 124.87 139.599Z" fill="#E06A58"/>
<path d="M140.194 220.305C138.977 228.361 147.67 237.033 147.885 241.335C129.424 241.335 90.775 242.463 71.061 239.785C70.1635 234.815 79.887 223.636 79.887 212.598C79.887 211.114 79.8277 209.534 79.709 207.813C79.3975 202.888 78.6707 197.028 77.8622 191.019C75.6372 174.9 72.7446 157.638 74.8955 154.085C79.1231 147.12 88.9875 142.387 93.9123 140.354C95.596 139.657 96.6937 139.279 96.7752 139.234C102.924 149.723 115.436 158.669 120.161 158.269C121.473 158.165 125.352 156.785 127.941 143.848C128.942 144.42 129.943 144.946 130.908 145.458C135.795 148.002 140.379 150.102 141.699 153.373C145.185 161.985 148.604 183.698 147.848 191.42C147.091 199.142 143.991 205.158 141.766 212.998C141.254 214.831 140.787 216.774 140.409 218.866C140.342 219.311 140.283 219.801 140.194 220.305Z" fill="#FFC73C"/>
<path d="M147.885 241.336C129.424 241.336 90.775 242.463 71.061 239.785C70.1635 234.815 79.887 223.636 79.887 212.598C79.887 211.115 79.8277 209.535 79.709 207.814C79.3975 202.888 78.6707 197.028 77.8622 191.02C81.3556 194.729 86.451 179.151 88.7057 183.691C100.906 208.318 110.526 214.794 127.273 214.794C132.157 214.749 137.019 214.147 141.766 212.999C141.254 214.831 140.787 216.775 140.409 218.867C140.32 219.361 140.238 219.856 140.164 220.35C138.977 228.354 147.699 237.026 147.885 241.336Z" fill="#FFBB33"/>
<path d="M130.945 145.495C130.151 151.259 127.8 159.025 120.962 161.073C111.72 163.84 98.3477 146.571 93.9198 140.392C95.6034 139.694 96.7011 139.316 96.7827 139.271C102.931 149.76 115.444 158.706 120.168 158.306C121.481 158.202 125.36 156.822 127.948 143.885C128.95 144.412 129.951 144.939 130.945 145.495Z" fill="#FCE172"/>
<path d="M134.742 232.665L134.676 239.096L249.637 239.786L249.874 232.494L134.742 232.665Z" fill="#0B002F"/>
<path d="M299.463 175.293L296.905 172.697L213.168 172.141L171.159 232.908L173.354 234.674L299.463 175.293Z" fill="#0B002F"/>
<path d="M214.785 174.389L173.354 234.674L252.492 235.06L299.464 175.294L214.785 174.389Z" fill="#0B0E68"/>
<path d="M234.781 212.865C239.868 212.865 243.993 210.803 243.993 208.259C243.993 205.715 239.868 203.652 234.781 203.652C229.693 203.652 225.569 205.715 225.569 208.259C225.569 210.803 229.693 212.865 234.781 212.865Z" fill="#3C738C"/>
<path d="M153.183 118.015C154.488 111.012 151.802 104.636 147.183 103.775C142.565 102.914 137.762 107.893 136.457 114.897C135.151 121.9 137.837 128.276 142.456 129.137C147.075 129.999 151.877 125.019 153.183 118.015Z" fill="#6A4EEE"/>
<path d="M153.181 96.018C152.32 102.116 149.598 108.836 145.63 116.262C144.236 110.179 143.346 102.768 142.115 95.3578C140.883 87.9472 139.266 80.5219 136.5 74.4392C135.899 73.129 135.22 71.8558 134.468 70.6263C136.108 70.4741 137.761 70.6224 139.348 71.064C141.829 71.7354 144.116 72.9833 146.023 74.7062C149.112 77.5966 151.36 81.2701 152.528 85.3361C153.551 88.8013 153.775 92.4539 153.181 96.018Z" fill="#0B2D50"/>
<path d="M148.523 102.322C148.478 103.524 148.397 104.748 148.285 105.965C146.594 125.696 138.31 139.234 125.634 139.234C107.737 139.234 96.1375 119.161 96.1375 99.4961C96.1375 80.0982 108.004 66.056 121.926 67.6805C129.944 68.6004 135.803 71.2634 139.964 75.1653C142.68 77.7596 144.765 80.9417 146.06 84.4674C147.626 88.7632 148.456 93.2923 148.515 97.8642C148.515 97.8642 148.515 97.8642 148.515 97.9087C148.59 99.3478 148.575 100.817 148.523 102.322Z" fill="#F9A07B"/>
<path d="M148.523 102.322C147.997 100.399 147.185 98.566 146.112 96.885C135.339 102.494 123.041 104.469 111.053 102.515L104.333 108.131C104.378 99.1549 104.504 93.0796 108.004 88.7327C111.29 84.6528 116.771 83.1173 121.963 82.4497C127.812 81.6817 133.739 81.7192 139.578 82.561C141.844 82.7804 144.047 83.4326 146.068 84.4822C147.633 88.7781 148.463 93.3072 148.523 97.879C148.523 97.879 148.523 97.879 148.523 97.9235C148.59 99.3478 148.575 100.817 148.523 102.322Z" fill="#E06A58"/>
<path d="M151.104 90.1733C148.399 92.3667 145.366 94.1192 142.115 95.3658C132.28 99.3344 119.501 100.647 109.54 100.165C104.645 110.921 102.664 114.779 101.381 124.162C96.5973 119.674 92.7034 111.455 91.5464 104.994C90.322 98.5134 90.5756 91.8397 92.2881 85.4703C93.4081 81.6218 95.3084 78.0451 97.8707 74.9631C100.433 71.881 103.602 69.3596 107.181 67.5559C108.217 66.9945 109.287 66.499 110.385 66.0724C116.697 63.6319 123.81 63.847 130.285 65.835C133.637 66.8923 136.712 68.6811 139.289 71.0721C144.34 75.6341 147.447 81.8133 149.48 86.4421C150.169 87.8589 150.666 89.1199 151.104 90.1733Z" fill="#0B2D50"/>
<path d="M153.181 96.0174C152.784 93.8663 152.155 91.7645 151.304 89.7493C150.813 88.5948 150.222 87.4854 149.539 86.4335C147.363 82.8518 144.018 80.1318 140.068 78.7336C138.996 77.2194 137.806 75.7931 136.507 74.4683C132.405 70.1876 127.026 67.3508 121.177 66.3828C116.506 65.6416 111.726 66.049 107.248 67.5696C108.284 67.0081 109.354 66.5126 110.452 66.086C116.764 63.6455 123.877 63.8606 130.351 65.8487C133.704 66.906 136.779 68.6948 139.356 71.0857C141.836 71.7571 144.124 73.0051 146.031 74.7279C149.119 77.6184 151.367 81.2918 152.535 85.3578C153.549 88.8172 153.77 92.4609 153.181 96.0174Z" fill="#225570"/>
<path d="M115.243 108.116C118.551 106.224 121.985 105.371 126.799 107.129" stroke="#0B2D50" stroke-width="2" stroke-miterlimit="10" stroke-linecap="round"/>
<path d="M137.894 107.984C140.728 105.87 144.926 105.654 147.114 107.984" stroke="#0B2D50" stroke-width="2" stroke-miterlimit="10" stroke-linecap="round"/>
<path d="M134.475 118.791C134.765 120.275 134.609 123.605 133.897 125.096" stroke="#CC454E" stroke-width="2" stroke-miterlimit="10" stroke-linecap="round"/>
<path d="M123.298 119.777C124.052 119.777 124.663 118.814 124.663 117.626C124.663 116.438 124.052 115.475 123.298 115.475C122.544 115.475 121.933 116.438 121.933 117.626C121.933 118.814 122.544 119.777 123.298 119.777Z" fill="#262D40"/>
<path d="M141.136 118.777C141.889 118.777 142.5 117.814 142.5 116.626C142.5 115.438 141.889 114.475 141.136 114.475C140.382 114.475 139.771 115.438 139.771 116.626C139.771 117.814 140.382 118.777 141.136 118.777Z" fill="#262D40"/>
<path d="M132.784 128.005C132.565 128.429 132.317 128.838 132.043 129.229C131.055 130.664 129.648 131.76 128.015 132.366C127.18 132.639 126.29 132.697 125.427 132.537C122.638 132.04 121.904 129.466 121.77 127.485C121.752 127.13 121.752 126.773 121.77 126.417C121.775 125.97 121.81 125.524 121.874 125.082C126.25 127.53 132.784 128.005 132.784 128.005Z" fill="#CC454E"/>
<path d="M132.784 128.005C132.565 128.429 132.317 128.838 132.043 129.229C129.773 129.229 125.13 128.034 121.74 126.417C121.746 125.97 121.78 125.524 121.844 125.082C126.25 127.53 132.784 128.005 132.784 128.005Z" fill="white"/>
<path d="M127.971 132.358C127.136 132.63 126.246 132.688 125.382 132.528C122.593 132.031 121.859 129.457 121.726 127.477C123.115 127.636 124.433 128.176 125.535 129.038C126.637 129.899 127.48 131.048 127.971 132.358Z" fill="#E8729B"/>
<path d="M101.455 104.698C101.544 98.3744 102.801 92.1223 105.164 86.2565C109.992 74.7216 119.834 69.7887 129.38 69.4549C132.827 69.3732 136.256 69.9778 139.467 71.2334C142.678 72.4891 145.608 74.3707 148.085 76.769C148.085 76.769 144.34 70.1596 136.96 68.2606C132.109 67.0144 124.789 66.777 118.915 69.2027C112.863 71.658 105.32 78.4751 102.598 85.6779C99.8756 92.8807 98.548 104.097 98.548 104.097L101.455 104.698Z" fill="#6A4EEE"/>
<path d="M101.28 128.789C106.206 128.276 109.569 121.809 108.793 114.344C108.016 106.879 103.393 101.243 98.4677 101.755C93.5419 102.268 90.1784 108.735 90.955 116.2C91.7316 123.665 96.3542 129.301 101.28 128.789Z" fill="#6B43C7"/>
<path d="M99.0103 126.395C102.19 125.917 104.086 120.994 103.245 115.399C102.404 109.804 99.1445 105.656 95.9647 106.134C92.7849 106.612 90.8889 111.536 91.73 117.13C92.571 122.725 95.8305 126.873 99.0103 126.395Z" fill="#6A4EEE"/>
<path d="M129.439 139.51C132.077 139.51 134.216 138.178 134.216 136.535C134.216 134.892 132.077 133.561 129.439 133.561C126.801 133.561 124.663 134.892 124.663 136.535C124.663 138.178 126.801 139.51 129.439 139.51Z" fill="#6A4EEE"/>
<path d="M105.423 126.588C105.423 126.588 112.44 135.608 124.64 136.535" stroke="#6A4EEE" stroke-width="2" stroke-miterlimit="10" stroke-linecap="round"/>
<path d="M134.675 215.492L134.216 227.361C134.216 227.361 91.3313 240.208 84.2407 236.143C80.7845 234.155 77.5655 223.221 75.1476 212.547C72.6259 201.331 71.009 190.412 71.009 190.412L96.1522 185.486C96.1522 185.486 96.1522 200.819 97.02 209.684C97.3241 212.985 97.7617 215.388 98.3476 215.781C100.565 217.243 134.675 215.492 134.675 215.492Z" fill="#F9A07B"/>
<path d="M97.02 209.668C92.4512 211.152 83.6696 213.444 75.1476 212.539C72.6259 201.323 71.009 190.404 71.009 190.404L96.1522 185.479C96.1522 185.479 96.1671 200.804 97.02 209.668Z" fill="#E06A58"/>
<path d="M133.452 215.611C139.83 214.246 150.629 210.967 155.109 209.84C158.291 209.038 166.575 213.326 168.763 217.369C169.72 219.134 170.625 229.134 167.28 228.103C165.619 227.583 165.893 223.296 165.374 221.545C164.951 220.121 163.601 218.741 161.547 217.554C162.919 220.974 162.867 223.956 162.719 227.65C162.748 228.468 162.585 229.28 162.244 230.024C162.069 230.385 161.772 230.673 161.406 230.837C161.04 231.002 160.627 231.031 160.241 230.921C159.5 230.61 159.225 229.668 159.055 228.844C158.385 225.912 157.912 222.938 157.638 219.943C157.697 223.11 157.638 226.285 157.43 229.445C157.282 231.863 156.081 233.191 154.605 232.768C153.945 232.583 153.678 231.975 153.396 231.174C152.951 232.724 151.838 234.437 150.429 233.785C149.554 233.392 149.012 230.231 149.168 226.982C146.295 228.663 143.032 229.561 139.704 229.586C136.485 229.734 133.192 229.134 131.256 226.945C131.602 223.102 132.338 219.305 133.452 215.611Z" fill="#F9A07B"/>
<path d="M153.492 230.669C153.708 228.101 153.485 225.515 152.832 223.021" stroke="#CC454E" stroke-miterlimit="10" stroke-linecap="round"/>
<path d="M93.3264 160.607C91.5019 155.466 84.8193 144.947 84.8193 144.947C84.8193 144.947 74.6211 149.19 71.0016 156.393C64.8753 168.588 67.9904 203.601 67.9904 203.601C76.2454 207.058 92.8147 207.11 99.8829 206.116C99.8681 206.116 96.9829 170.88 93.3264 160.607Z" fill="#FFC73C"/>
<path d="M94.6244 162.758C97.2693 175.235 98.8572 187.912 99.3712 200.656" stroke="#F2AE30" stroke-miterlimit="10" stroke-linecap="round"/>
<path d="M312.903 237.664H20.4706V245H312.903V237.664Z" fill="#0B001A"/>
</g>
<defs>
<clipPath id="clip0_1803_3702">
<rect width="331" height="245" fill="white"/>
</clipPath>
</defs>
</svg>
