<svg width="65" height="65" viewBox="0 0 65 65" fill="none" xmlns="http://www.w3.org/2000/svg">
<path d="M31.8037 0.317389C31.4863 0.622076 31.4863 0.660162 31.4863 2.83106C31.4863 4.875 31.5117 5.06543 31.7529 5.38281C31.9561 5.63672 32.1211 5.71289 32.502 5.71289C32.8829 5.71289 33.0479 5.63672 33.2511 5.38281C33.4923 5.06543 33.5177 4.875 33.5177 2.83106C33.5177 0.660162 33.5177 0.622076 33.2003 0.317389C33.0098 0.114264 32.7432 6.28643e-06 32.502 6.28643e-06C32.2608 6.28643e-06 31.9942 0.114264 31.8037 0.317389Z" fill="white"/>
<path d="M21.7875 5.59864C21.5336 5.80176 21.4574 5.9668 21.4574 6.33497C21.4574 6.85547 21.3305 6.71582 25.609 10.5625C26.0025 10.918 26.2565 11.0449 26.5739 11.0449C27.4372 11.0449 27.8688 10.0039 27.2721 9.35645C26.7262 8.78516 23.1714 5.62403 22.8921 5.48438C22.4858 5.26856 22.1684 5.29395 21.7875 5.59864Z" fill="white"/>
<path d="M42.0869 5.48403C41.8076 5.64907 37.8719 9.17837 37.618 9.49575C37.1482 10.0797 37.6688 11.0446 38.4432 11.0446C38.8876 11.0446 38.7733 11.1334 41.7314 8.46743C43.4708 6.90591 43.5469 6.80434 43.5469 6.34731C43.5469 5.56021 42.7598 5.10317 42.0869 5.48403Z" fill="white"/>
<path d="M9.45872 8.1758C9.24289 8.26467 9.00166 8.42971 8.92549 8.53127C8.83662 8.63283 8.32878 9.86428 7.79556 11.2481C7.26233 12.6318 6.77989 13.8252 6.71641 13.8887C6.66563 13.9522 5.31987 14.0791 3.73289 14.1553L0.850931 14.3076L0.431968 14.7647C-0.0377783 15.2725 -0.113953 15.7295 0.152659 16.3135C0.228835 16.4912 1.23181 17.3799 2.36174 18.2813C3.47897 19.1953 4.48194 20.0078 4.55812 20.1094C4.68508 20.249 4.55812 20.833 4.0122 22.877C3.61863 24.2988 3.30123 25.6445 3.30123 25.8857C3.30123 26.4951 3.9995 27.168 4.63429 27.168C5.20561 27.168 5.18021 27.1807 7.77017 25.4922C8.92549 24.7432 9.94116 24.1211 10.0046 24.1211C10.0808 24.1211 11.1854 24.8066 12.4676 25.6445C14.5244 26.9902 14.8545 27.168 15.3369 27.168C15.7812 27.168 15.959 27.0918 16.251 26.7998C16.4541 26.5967 16.6573 26.292 16.708 26.1016C16.7588 25.8857 16.543 24.8574 16.0352 22.9785L15.2734 20.1982L17.254 18.6113C18.3458 17.7481 19.3996 16.8594 19.6027 16.6563C20.2756 15.9453 20.0217 14.7774 19.133 14.4092C18.879 14.3076 17.8507 14.2188 16.4414 14.168C13.0136 14.041 13.3183 14.1553 12.8231 12.8477C11.5027 9.34377 11.1473 8.51857 10.8807 8.34084C10.4363 8.06154 9.87768 7.98537 9.45872 8.1758ZM10.8553 13.3936C11.2615 14.4727 11.7059 15.4375 11.8836 15.6152C12.2137 15.958 13.0389 16.085 15.1084 16.1358C17.127 16.1738 17.127 16.1231 15.1592 17.6973C14.2197 18.459 13.3944 19.1826 13.3309 19.3096C13.1024 19.7158 13.204 20.3379 13.7626 22.3691C14.0673 23.4736 14.2958 24.375 14.2704 24.375C14.2451 24.375 13.3944 23.8291 12.3788 23.1563C10.906 22.1787 10.4236 21.9248 10.0554 21.9121C9.64915 21.9121 9.25558 22.1025 7.6813 23.1309C6.64024 23.8037 5.77692 24.3496 5.75153 24.3369C5.73883 24.3115 5.98005 23.3721 6.29745 22.2168C6.60215 21.0742 6.85607 20.0332 6.85607 19.9063C6.85607 19.4111 6.48789 18.9922 4.85012 17.6973C2.84418 16.0977 2.7934 16.1992 5.61187 16.085C7.6686 15.9961 8.12565 15.8565 8.41766 15.2598C8.51922 15.0693 8.9001 14.1045 9.26828 13.1016C9.63646 12.1113 9.99194 11.3369 10.0427 11.3877C10.0935 11.4512 10.4617 12.3399 10.8553 13.3936Z" fill="white"/>
<path d="M31.9306 8.1758C31.3847 8.40432 31.2831 8.62014 30.2039 11.4512L29.2644 13.9522L28.8201 14.0156C28.5789 14.0537 27.3474 14.1172 26.0905 14.168C24.8336 14.2188 23.6656 14.3076 23.4878 14.3711C23.0181 14.5488 22.6245 14.9678 22.5356 15.374C22.3579 16.1738 22.6118 16.4785 24.9479 18.3447C26.154 19.3223 27.1569 20.1856 27.1569 20.2617C27.1696 20.3506 26.8522 21.5947 26.4587 23.042C25.6715 25.9619 25.6461 26.3047 26.2936 26.8379C26.5729 27.0791 26.8268 27.168 27.195 27.168C27.6521 27.168 28.0329 26.9648 30.0516 25.6445C31.3339 24.8066 32.4384 24.1211 32.5146 24.1211C32.5908 24.1211 33.6953 24.8066 34.9649 25.6445C36.9708 26.9648 37.3517 27.168 37.8087 27.168C38.1769 27.168 38.4308 27.0791 38.7102 26.8379C39.3576 26.3047 39.3323 25.9619 38.5451 23.042C38.1515 21.5947 37.8341 20.3506 37.8468 20.2617C37.8468 20.1856 38.8498 19.3223 40.0559 18.3574C42.3919 16.4912 42.6459 16.1738 42.4681 15.374C42.3793 14.9678 41.9857 14.5488 41.5159 14.3711C41.3382 14.3076 40.1702 14.2061 38.9133 14.168C37.6564 14.1172 36.4249 14.0537 36.1837 14.0156L35.7393 13.9522L34.7998 11.4512C34.2793 10.0801 33.7588 8.81057 33.6572 8.64553C33.4668 8.35354 32.8066 7.99807 32.4765 7.99807C32.3876 8.01076 32.1337 8.08694 31.9306 8.1758ZM33.124 12.7842C34.0127 15.1582 34.2158 15.5772 34.6348 15.793C34.8887 15.9199 35.6758 16.0215 37.1232 16.0977C38.2912 16.1738 39.2688 16.25 39.3069 16.2754C39.3323 16.3135 38.6086 16.9356 37.6945 17.6592C36.044 18.9668 35.6758 19.3858 35.6758 19.957C35.6758 20.1221 35.879 20.9981 36.1202 21.8994C36.3741 22.8135 36.628 23.7402 36.6915 23.9688C36.7677 24.2734 36.755 24.3496 36.6534 24.2861C36.5646 24.2481 35.7139 23.6895 34.7491 23.0674C32.4384 21.5693 32.5527 21.5693 30.2547 23.0674C29.2898 23.7022 28.4392 24.2481 28.3503 24.2988C28.2488 24.3496 28.2361 24.2734 28.3123 23.9688C28.3757 23.7402 28.6297 22.8135 28.8836 21.8994C29.1248 20.9981 29.3279 20.1221 29.3279 19.957C29.3279 19.3858 28.9597 18.9668 27.3093 17.6592C26.3952 16.9356 25.6715 16.3135 25.6969 16.2754C25.735 16.25 26.7126 16.1738 27.8806 16.0977C29.3279 16.0215 30.1151 15.9199 30.369 15.793C30.7879 15.5772 30.9911 15.1582 31.8798 12.7842C32.1845 11.9717 32.4638 11.2988 32.5019 11.2988C32.54 11.2988 32.8193 11.9717 33.124 12.7842Z" fill="white"/>
<path d="M54.6303 8.08768C54.0463 8.20194 53.7543 8.69706 52.764 11.325C51.5833 14.3972 52.1165 14.0418 48.5871 14.1687C45.9083 14.2703 45.5274 14.3719 45.1592 15.1209C44.918 15.6414 44.9688 16.2254 45.3116 16.5935C45.4385 16.7205 46.4796 17.5838 47.6222 18.5105L49.717 20.199L48.968 22.9793C48.1554 26.0008 48.1427 26.1912 48.7521 26.8006C49.0441 27.0925 49.2219 27.1687 49.6662 27.1687C50.1487 27.1687 50.4788 26.991 52.5355 25.6453C53.8178 24.8074 54.935 24.1218 55.0112 24.1218C55.1001 24.1218 55.5698 24.3884 56.0523 24.7185C60.0388 27.3972 60.445 27.5623 61.2702 26.7371C61.5876 26.4197 61.7019 26.1912 61.7019 25.8865C61.7019 25.6453 61.3845 24.2996 61.0036 22.8777C60.6101 21.4685 60.3308 20.2498 60.3688 20.199C60.4069 20.1355 61.3972 19.3103 62.5652 18.3582C63.7459 17.406 64.7743 16.492 64.8505 16.3142C65.1171 15.7303 65.0282 15.2605 64.5712 14.7654L64.1522 14.2957L61.6892 14.1941C60.3308 14.1306 58.9977 14.0418 58.7311 13.991L58.2232 13.9021L57.2076 11.2488C56.1411 8.49393 55.9634 8.21464 55.227 8.08768C55.0493 8.0496 54.7827 8.0496 54.6303 8.08768ZM55.7983 13.2674C56.1919 14.3084 56.5728 15.2732 56.6363 15.3875C56.8902 15.8572 57.4615 15.9969 59.3913 16.0857C62.2097 16.2 62.159 16.0984 60.153 17.698C58.5152 18.9929 58.1471 19.4119 58.1471 19.907C58.1471 20.034 58.401 21.075 58.7057 22.2176C59.0231 23.3728 59.2643 24.3123 59.2516 24.3377C59.2389 24.3504 58.3756 23.8045 57.3345 23.1316C55.7729 22.116 55.354 21.9129 54.9731 21.9129C54.6176 21.9256 54.0971 22.2049 52.6371 23.157C51.6087 23.8299 50.7581 24.3758 50.7327 24.3758C50.7073 24.3758 50.9358 23.4744 51.2405 22.3699C51.8626 20.1482 51.9134 19.6023 51.5579 19.158C51.431 18.9929 50.6057 18.282 49.717 17.5838C47.8888 16.1365 47.8888 16.1746 49.8948 16.1365C51.9642 16.0857 52.7894 15.9588 53.1195 15.616C53.2973 15.4383 53.7416 14.4734 54.1479 13.3943C54.8715 11.4646 54.9731 11.2488 55.0366 11.325C55.062 11.3504 55.4048 12.2137 55.7983 13.2674Z" fill="white"/>
<path d="M30.4718 29.7832C29.126 30.1386 27.9453 30.8242 26.8408 31.9287C25.2284 33.541 24.5428 35.0136 24.4159 37.2099C24.2889 39.2412 24.8094 40.9169 26.0663 42.6181C26.3964 43.0498 26.9424 43.621 27.2851 43.8876C27.6279 44.1542 27.9199 44.4082 27.9199 44.4462C27.9326 44.4843 27.6914 44.5986 27.3994 44.6748C26.4218 44.9667 24.3905 46.0966 23.2606 46.9726C22.1814 47.7978 21.4197 48.5595 20.6198 49.5624L20.2262 50.0576L19.3883 49.207C18.4742 48.3056 17.1158 47.3535 15.9985 46.8456C15.6177 46.6806 15.2749 46.5283 15.2495 46.5029C15.2241 46.4902 15.478 46.1728 15.8208 45.7919C18.1568 43.2402 18.0933 39.457 15.6557 37.0322C12.012 33.3886 5.81646 35.4072 4.94045 40.5361C4.63575 42.3769 5.28324 44.4335 6.6036 45.8427C6.94639 46.2109 7.2257 46.5156 7.20031 46.5283C7.18761 46.5283 6.85752 46.6806 6.47664 46.8456C3.89939 47.9755 1.67761 50.2734 0.509597 53.0156C-0.0363245 54.2851 -0.0998037 55.5927 0.344551 56.4433C0.687339 57.0781 1.30944 57.7001 1.96962 58.0556C2.47745 58.3349 2.56632 58.3349 10.0061 58.373L17.522 58.4111V59.7187C17.522 60.4804 17.5982 61.2675 17.6998 61.623C18.1314 63.0449 19.3121 64.2382 20.7849 64.7333C21.5593 64.9999 21.7624 64.9999 32.465 64.9999C44.5896 64.9999 44.1325 65.0253 45.4529 64.124C46.2654 63.5654 47.0272 62.537 47.2938 61.6484C47.4081 61.2675 47.4842 60.4931 47.4842 59.7187V58.4111L55.0129 58.373C62.4399 58.3349 62.5288 58.3349 63.0366 58.0556C63.6968 57.7001 64.3189 57.0781 64.6617 56.4433C65.1061 55.5927 65.0426 54.2851 64.4967 53.0156C63.3413 50.2861 61.0053 47.874 58.5296 46.833C58.1487 46.6806 57.8186 46.541 57.806 46.5283C57.7806 46.5156 58.0599 46.2109 58.4154 45.83C59.7103 44.4462 60.3705 42.3388 60.0531 40.5107C59.1898 35.4072 52.9942 33.3886 49.3505 37.0322C46.9383 39.4443 46.8494 43.2402 49.1474 45.7539C49.5029 46.1474 49.7822 46.4902 49.7568 46.5029C49.7314 46.5283 49.3886 46.6806 49.0077 46.8456C47.8905 47.3535 46.532 48.3056 45.6179 49.207L44.78 50.0576L44.3864 49.5624C43.5866 48.5595 42.8249 47.7978 41.7457 46.9726C40.6158 46.0966 38.5844 44.9667 37.6196 44.6748C37.3149 44.5986 37.0736 44.4843 37.0863 44.4462C37.0863 44.4082 37.3783 44.1542 37.7211 43.8876C38.0639 43.621 38.6098 43.0498 38.9399 42.6181C40.1968 40.9169 40.7173 39.2412 40.5904 37.2099C40.4634 35.0136 39.7905 33.541 38.1655 31.916C37.0482 30.7988 35.9056 30.1386 34.471 29.7705C33.5315 29.5293 31.4113 29.5293 30.4718 29.7832ZM34.6995 31.9795C36.2865 32.6015 37.81 34.1884 38.2924 35.7119C38.9907 37.9716 38.4321 40.3076 36.7816 41.9453C34.3694 44.3574 30.6368 44.3701 28.2373 41.9707C26.917 40.6503 26.3203 39.0888 26.4472 37.2607C26.4853 36.6767 26.625 35.9277 26.79 35.5087C27.3994 33.8837 28.961 32.4111 30.6368 31.8652C31.716 31.5097 33.6331 31.5732 34.6995 31.9795ZM13.1927 37.705C14.0688 38.1748 14.7036 38.8349 15.1352 39.7236C15.3764 40.206 15.4272 40.5234 15.4272 41.5136C15.4272 42.58 15.3891 42.7958 15.0717 43.3925C14.6147 44.2558 13.8783 44.9667 12.9769 45.4111C11.9613 45.9062 10.552 45.9062 9.51095 45.4238C8.50798 44.9667 7.8224 44.2939 7.33996 43.3164C6.59091 41.8056 6.83213 39.9775 7.94936 38.7334C8.97773 37.5781 9.92991 37.1718 11.428 37.2353C12.2279 37.2734 12.5199 37.3496 13.1927 37.705ZM55.6477 37.6289C56.5745 38.0732 57.552 39.1396 57.844 40.0156C58.5931 42.1738 57.6028 44.4462 55.4953 45.4238C54.4542 45.9062 53.045 45.9062 52.0293 45.4111C49.5156 44.1796 48.7157 41.082 50.3789 38.9111C50.8486 38.289 51.8897 37.5527 52.626 37.3242C53.3497 37.0957 54.8859 37.248 55.6477 37.6289ZM35.8929 46.2617C38.3178 46.9345 40.2095 48.0644 41.9742 49.9306C43.3581 51.3906 44.196 52.7617 44.8689 54.7167C45.3767 56.1767 45.3767 56.1767 45.4275 58.4365C45.4656 60.3408 45.4402 60.7978 45.2625 61.2675C45.0212 61.915 44.2087 62.664 43.5612 62.8417C42.9518 63.0068 22.0671 63.0068 21.4577 62.8417C20.8356 62.6767 20.0739 62.0038 19.7946 61.3945C19.4264 60.5947 19.4518 57.205 19.82 55.7324C20.9753 51.2001 24.5047 47.5312 28.8975 46.3251C30.4845 45.8935 30.9415 45.8427 32.884 45.8935C34.3694 45.9316 34.9534 45.9951 35.8929 46.2617ZM13.1801 48.0644C15.186 48.4706 17.6617 50.0068 18.7027 51.5048L19.0455 51.9999L18.5885 53.041C18.3346 53.6122 18.0172 54.6025 17.8648 55.2245L17.5855 56.3671H10.3489C3.49312 56.3671 3.08685 56.3544 2.71867 56.1259C2.22354 55.8339 1.98232 55.2499 2.08388 54.6533C2.21084 53.9804 3.22651 52.0761 3.8486 51.3017C4.86427 50.083 6.47664 48.9277 7.87319 48.4199C9.43478 47.8613 11.5042 47.7216 13.1801 48.0644ZM56.3078 48.1787C58.0853 48.6611 59.9008 49.829 61.1069 51.2636C61.7798 52.0634 62.7827 53.955 62.9224 54.6533C63.0239 55.2499 62.7827 55.8339 62.2876 56.1259C61.9194 56.3544 61.5131 56.3671 54.6574 56.3671H47.4207L47.1414 55.2372C47.0018 54.6152 46.6717 53.6249 46.4178 53.0537L45.9607 51.9999L46.3035 51.5048C47.3065 50.0576 49.7822 48.4833 51.7373 48.0644C52.8419 47.8232 55.216 47.874 56.3078 48.1787Z" fill="white"/>
</svg>
