<svg width="18" height="26" viewBox="0 0 18 26" fill="none" xmlns="http://www.w3.org/2000/svg">
<path d="M9.38383 1C9.89692 1 10.3117 1.41566 10.3117 1.92782V21.8853L16.1968 16.2005C16.3759 16.0261 16.6088 15.9398 16.8407 15.9398C17.0838 15.9398 17.326 16.0344 17.5078 16.2228C17.8641 16.5911 17.8539 17.1785 17.4856 17.5347L10.0417 24.7263C10.0407 24.7272 10.0407 24.7272 10.0398 24.7281L10.0277 24.7393C9.99434 24.7718 9.95259 24.7857 9.9164 24.8117C9.85702 24.8543 9.80228 24.9017 9.73455 24.9295C9.62878 24.9731 9.51651 24.9935 9.40331 24.9963C9.39682 24.9963 9.39032 25 9.38383 25C9.37733 25 9.37084 24.9963 9.36435 24.9963C9.25115 24.9935 9.13981 24.9731 9.03311 24.9295C8.96538 24.9017 8.91064 24.8543 8.85126 24.8126C8.81507 24.7857 8.77332 24.7718 8.73992 24.7393L8.72879 24.7291C8.72786 24.7281 8.72786 24.7281 8.72693 24.7272L1.28301 17.5357C0.914661 17.1794 0.904455 16.5921 1.26074 16.2237C1.61517 15.8554 2.20526 15.8442 2.57175 16.2015L8.45693 21.8862V1.92875C8.45601 1.41566 8.87074 1 9.38383 1Z" fill="white" fill-opacity="0.6" stroke="#969FA3" stroke-width="0.4"/>
</svg>
