<svg width="12" height="16" viewBox="0 0 12 16" fill="none" xmlns="http://www.w3.org/2000/svg">
<path d="M6.08312 0.448779C6.39421 0.448779 6.64566 0.700797 6.64566 1.01132V13.1116L10.2139 9.66487C10.3224 9.55911 10.4636 9.5068 10.6043 9.5068C10.7516 9.5068 10.8985 9.56418 11.0087 9.67837C11.2247 9.9017 11.2185 10.2578 10.9952 10.4738L6.48196 14.8341C6.4814 14.8346 6.4814 14.8346 6.48084 14.8352L6.47353 14.8419C6.45327 14.8616 6.42796 14.8701 6.40602 14.8858C6.37002 14.9117 6.33683 14.9404 6.29576 14.9572C6.23163 14.9837 6.16357 14.9961 6.09494 14.9977C6.091 14.9977 6.08706 15 6.08312 15C6.07919 15 6.07525 14.9977 6.07131 14.9977C6.00268 14.9961 5.93518 14.9837 5.87048 14.9572C5.82942 14.9404 5.79623 14.9117 5.76023 14.8864C5.73829 14.8701 5.71297 14.8616 5.69272 14.8419L5.68597 14.8357C5.68541 14.8352 5.68541 14.8352 5.68484 14.8346L1.17159 10.4744C0.948259 10.2584 0.942071 9.90226 1.15809 9.67893C1.37298 9.45561 1.73075 9.44886 1.95295 9.66543L5.52115 13.1121V1.01188C5.52058 0.700796 5.77204 0.448779 6.08312 0.448779Z" fill="#6A4EEE" stroke="#6A4EEE" stroke-width="0.4"/>
</svg>
