<svg width="25" height="18" viewBox="0 0 25 18" fill="none" xmlns="http://www.w3.org/2000/svg">
<path d="M12.5 10.3929L1.527 0.267857C1.88614 0.0938674 2.27976 0.00239286 2.67873 0H22.3216C22.7206 0.00239158 23.1142 0.0938674 23.4733 0.267857L12.5 10.3929ZM24.7321 1.52704L13.125 12.2413C12.9599 12.3944 12.7429 12.4795 12.5179 12.4795C12.2927 12.4795 12.0759 12.3944 11.9107 12.2413L0.30353 1.52704C0.117189 1.88319 0.013551 2.27699 0 2.67878V15.1788C0 15.8893 0.282204 16.5705 0.784439 17.0729C1.28687 17.5751 1.96806 17.8574 2.67857 17.8574H22.3214C23.0319 17.8574 23.7131 17.5751 24.2156 17.0729C24.7178 16.5705 25 15.8893 25 15.1788V2.67878C24.9976 2.27978 24.9061 1.88617 24.7321 1.52704H24.7321Z" fill="#280DA7"/>
</svg>
