<svg width="11" height="22" viewBox="0 0 11 22" fill="none" xmlns="http://www.w3.org/2000/svg">
<path d="M3.01721 4.87407C3.01721 5.37786 3.01721 7.62747 3.01721 7.62747H1V10.995H3.01721V21H7.16231V10.995H9.94261C9.94261 10.995 10.2026 9.37985 10.3292 7.61471C9.96674 7.61471 7.17714 7.61471 7.17714 7.61471C7.17714 7.61471 7.17714 5.65544 7.17714 5.31234C7.17714 4.96855 7.62851 4.50546 8.0754 4.50546C8.52091 4.50546 9.46192 4.50546 10.3329 4.50546C10.3329 4.04684 10.3329 2.46273 10.3329 1C9.17021 1 7.84678 1 7.26403 1C2.91514 1.00034 3.01721 4.37063 3.01721 4.87407Z" stroke="white" stroke-miterlimit="10" stroke-linecap="round" stroke-linejoin="round"/>
</svg>
