<svg width="18" height="18" viewBox="0 0 18 18" fill="none" xmlns="http://www.w3.org/2000/svg">
<path d="M8.50342 6.62939C8.50342 6.19287 8.74658 5.97461 9.23291 5.97461C9.71924 5.97461 9.9624 6.19287 9.9624 6.62939C9.9624 6.8374 9.90088 7 9.77783 7.11719C9.65771 7.23145 9.47607 7.28857 9.23291 7.28857C8.74658 7.28857 8.50342 7.06885 8.50342 6.62939ZM9.90088 12.8125H8.56055V7.89941H9.90088V12.8125Z" fill="#5762F7"/>
<path d="M8.99937 16.4275C13.1021 16.4275 16.4279 13.1016 16.4279 8.99888C16.4279 4.8962 13.1021 1.57031 8.99937 1.57031C4.89669 1.57031 1.5708 4.8962 1.5708 8.99888C1.5708 13.1016 4.89669 16.4275 8.99937 16.4275Z" stroke="#5762F7" stroke-width="1.2"/>
</svg>
