<svg width="60" height="60" viewBox="0 0 60 60" fill="none" xmlns="http://www.w3.org/2000/svg">
<path d="M29.373 0.228395C28.972 0.568727 28.9332 0.944266 28.9849 3.79601L29.0237 6.35437L29.386 6.63603C29.8259 6.97636 30.1105 6.98809 30.5633 6.67123L30.8997 6.43652V3.45568C30.8997 0.533521 30.8997 0.463107 30.6151 0.228395C30.2528 -0.0767298 29.7353 -0.0767298 29.373 0.228395Z" fill="white"/>
<path d="M20.0341 5.04006C19.8918 5.16915 19.7754 5.42733 19.7754 5.62684C19.7754 6.11973 20.6552 8.06784 20.9398 8.20866C21.6125 8.53726 22.4147 8.16172 22.4017 7.528C22.4017 7.09378 21.6125 5.29824 21.315 5.02832C20.9915 4.73493 20.3576 4.74667 20.0341 5.04006Z" fill="white"/>
<path d="M38.6896 5.00456C38.3274 5.29795 37.4735 7.33995 37.577 7.65681C37.7711 8.25532 38.4309 8.50177 39.0519 8.20838C39.3365 8.06755 40.2163 6.11945 40.2163 5.62655C40.2163 4.92242 39.2718 4.54688 38.6896 5.00456Z" fill="white"/>
<path d="M8.77633 7.97437C8.62108 8.11519 8.51758 8.36164 8.51758 8.58462C8.51758 8.91321 8.78927 9.2066 10.6911 10.9435C11.8814 12.0349 12.994 12.9737 13.1622 13.0324C13.7703 13.2436 14.4689 12.7508 14.4689 12.117C14.4689 12.0114 13.4339 10.9787 12.1789 9.82859C10.1348 7.96263 9.83722 7.73966 9.46203 7.73966C9.20327 7.73966 8.93158 7.83354 8.77633 7.97437Z" fill="white"/>
<path d="M47.8095 9.82887C46.5545 10.979 45.5195 12.0117 45.5195 12.1056C45.5195 12.7745 46.2052 13.2557 46.8262 13.0327C46.9944 12.974 48.1071 12.0352 49.3103 10.9437C51.1992 9.20688 51.4708 8.91349 51.4708 8.58489C51.4708 8.092 51.0698 7.73993 50.5264 7.73993C50.1512 7.73993 49.8536 7.96291 47.8095 9.82887Z" fill="white"/>
<path d="M28.1198 9.11259C27.0719 9.19474 24.7819 9.64069 23.6175 9.96928C22.2332 10.38 19.1928 11.7062 18.7012 12.1286C18.1061 12.6215 18.326 13.49 19.0764 13.6543C19.3481 13.7247 19.6586 13.6073 20.5383 13.1496C22.479 12.1404 24.4455 11.4714 26.6967 11.0724C28.288 10.7908 31.6777 10.779 33.2949 11.0607C40.3459 12.3047 45.922 16.7642 47.9661 22.8198C49.04 25.9884 49.0658 29.4738 48.0438 32.6424C46.9441 36.1044 44.5247 39.273 41.2903 41.5145C39.3885 42.8172 38.3923 44.0612 37.9912 45.622L37.823 46.2322H36.0376H34.2393L33.8512 46.5843C33.5407 46.8777 33.476 47.0068 33.5407 47.265C33.7089 47.9104 33.9806 47.9926 35.9729 47.9926H37.7713L37.7325 50.6096L37.6937 53.2384L37.3185 53.6726C36.5681 54.5645 36.6198 54.5645 29.9958 54.5645C24.549 54.5645 24.0703 54.541 23.5916 54.3415C22.9965 54.0951 22.5696 53.7078 22.3755 53.2384C22.2849 53.0389 22.2332 51.9005 22.2332 50.4453V47.9926H26.632C30.8626 47.9926 31.0437 47.9808 31.2895 47.7579C31.6777 47.4058 31.6388 46.7838 31.2119 46.4787C30.8755 46.244 30.7203 46.2322 26.5155 46.2322H22.1685L22.0003 45.6103C21.5992 44.026 20.5772 42.782 18.546 41.3972C14.4318 38.5924 11.6373 33.9216 11.2491 29.2039C10.861 24.3923 12.6076 19.8389 16.1784 16.3652C16.9546 15.6024 17.1875 15.2855 17.1875 15.0273C17.1875 14.5344 16.7994 14.1589 16.2819 14.1589C15.9067 14.1589 15.6997 14.288 14.7423 15.2034C12.4523 17.3744 10.7057 20.2731 9.89067 23.2305C9.47667 24.7327 9.41198 25.073 9.29554 26.5751C8.82979 32.9358 11.9607 39.1322 17.5756 42.9463C18.9082 43.8499 19.4775 44.4602 19.9691 45.5281C20.189 45.9975 20.2278 46.4787 20.2925 49.7529C20.3572 53.3205 20.3702 53.4731 20.6677 54.0716C21.0559 54.8462 22.1556 55.7733 23.0094 56.0549C23.4623 56.1958 23.6822 56.3483 23.8245 56.6182C24.5102 57.9092 26.011 59.1179 27.6282 59.693C28.4044 59.9746 28.6891 60.0098 29.9958 59.9981C31.199 59.9981 31.6388 59.9511 32.2598 59.7399C33.7865 59.2353 35.132 58.2143 35.96 56.9234C36.3352 56.3366 36.4905 56.2075 37.008 56.0432C37.836 55.7733 38.9486 54.8344 39.3238 54.0716C39.6214 53.4731 39.6343 53.3205 39.699 49.7529C39.7637 46.4904 39.8025 45.9975 40.0224 45.5281C40.5141 44.4484 41.1221 43.8147 42.6746 42.7702C43.9167 41.9253 45.8444 40.0945 46.8406 38.8271C49.6739 35.2125 50.9935 31.0112 50.683 26.5634C50.5019 23.9229 49.8162 21.7049 48.419 19.2404C45.1975 13.5721 39.1297 9.82846 32.0399 9.14779C30.8885 9.04218 29.2195 9.0187 28.1198 9.11259ZM34.0064 56.4305C34.0064 56.6534 32.6609 57.651 31.9623 57.9444C31.3283 58.2143 31.0566 58.2612 29.9958 58.2612C28.9349 58.2612 28.6632 58.2143 28.0292 57.9444C27.3306 57.651 25.9851 56.6534 25.9851 56.4305C25.9851 56.3718 27.7964 56.3248 29.9958 56.3248C32.2081 56.3248 34.0064 56.3718 34.0064 56.4305Z" fill="white"/>
<path d="M27.3578 16.5767C27.1249 16.788 27.0344 17.0696 26.905 17.9498C26.685 19.4402 26.685 19.4402 26.1417 19.6045C25.8829 19.6749 25.456 19.8392 25.2102 19.9448L24.7573 20.1561L23.5412 19.3463C22.7908 18.8417 22.2086 18.5366 22.0016 18.5366C21.7558 18.5366 21.2771 18.8886 20.0222 20.0153C19.1165 20.8368 18.3403 21.623 18.3015 21.7756C18.198 22.1277 18.3273 22.3506 19.2718 23.4773L20.0222 24.3809L19.6211 25.2376C19.4012 25.7188 19.22 26.1178 19.2071 26.1295C19.1942 26.153 18.5473 26.2469 17.7581 26.3407C15.7269 26.6107 15.7657 26.552 15.7657 29.1573C15.7657 31.7743 15.7269 31.7156 17.771 31.9856C18.5602 32.0912 19.2071 32.1851 19.2071 32.1851C19.22 32.1968 19.4012 32.5958 19.6211 33.077L20.0222 33.9454L19.1165 35.0603C18.3791 35.9757 18.2238 36.2339 18.2885 36.4803C18.3791 36.8089 21.3806 39.6254 21.7558 39.7311C22.1698 39.8484 22.5579 39.6841 23.6576 38.9213L24.7315 38.1702L25.65 38.534C26.1546 38.7335 26.6074 38.9448 26.6462 38.9917C26.685 39.0504 26.8015 39.6254 26.892 40.2709C27.1379 42.043 27.0732 42.0078 29.9971 42.0078C32.921 42.0078 32.8563 42.043 33.1021 40.2709C33.1927 39.6254 33.3091 39.0504 33.3479 38.9917C33.3867 38.9448 33.8396 38.7335 34.3312 38.534L35.2498 38.182L36.3365 38.9213C37.4492 39.6841 37.8244 39.8484 38.2384 39.7311C38.3677 39.6958 39.1957 39.0034 40.0755 38.2054C42.042 36.4099 42.0291 36.4686 40.8259 35.0016L39.972 33.9454L40.3601 33.077C40.5801 32.5958 40.7741 32.1968 40.7871 32.1851C40.7871 32.1851 41.4469 32.0912 42.2231 31.9856C44.2673 31.7156 44.2285 31.7743 44.2285 29.169C44.2285 26.5403 44.2802 26.6224 42.249 26.3407L40.7741 26.1412L40.3601 25.2493L39.9591 24.3692L40.7094 23.4773C41.6668 22.3624 41.7962 22.1277 41.6927 21.7756C41.6539 21.623 40.8776 20.8368 39.972 20.0153C38.717 18.8886 38.2384 18.5366 37.9925 18.5366C37.7855 18.5366 37.2033 18.8417 36.453 19.3463L35.2498 20.1444L34.6029 19.8862C34.2406 19.7453 33.8007 19.5693 33.6196 19.5106C33.3091 19.3933 33.2703 19.2994 33.115 18.1258C32.8563 16.2599 32.9469 16.3068 29.9971 16.3068C27.733 16.3068 27.6424 16.3186 27.3578 16.5767ZM31.2779 19.0882C31.4978 20.6138 31.6402 20.825 32.5458 21.0597C32.9598 21.1654 33.6972 21.4353 34.1759 21.6582C34.6546 21.8812 35.198 22.0573 35.3662 22.0573C35.5344 22.0573 36.1295 21.7404 36.7117 21.3531C37.2939 20.9658 37.8114 20.649 37.8632 20.649C37.9149 20.649 38.303 20.9658 38.73 21.3531L39.4804 22.0455L38.7688 22.9022C37.6432 24.2518 37.6691 24.1345 38.2513 25.3197C38.5359 25.8831 38.8594 26.6224 38.9887 26.9627C39.1052 27.3031 39.2992 27.6199 39.4286 27.6786C39.5451 27.7373 40.1402 27.8546 40.7353 27.9251C42.4301 28.1246 42.3008 28.0189 42.262 29.1925L42.2231 30.2135L40.9035 30.3895C39.4157 30.589 39.1699 30.7299 38.937 31.4809C38.8464 31.7509 38.5489 32.4315 38.2642 32.9948C37.6691 34.1684 37.6432 34.0628 38.7559 35.4241L39.4674 36.2808L38.717 36.9732C38.303 37.3605 37.902 37.6656 37.8244 37.6656C37.7597 37.6656 37.2292 37.3487 36.6729 36.9615C35.5215 36.1752 35.2627 36.1282 34.4735 36.539C34.1759 36.6915 33.5679 36.938 33.1021 37.0788C31.8472 37.4661 31.6919 37.5482 31.5625 37.9472C31.459 38.2289 31.1615 39.9306 31.1615 40.2005C31.1615 40.2826 28.8327 40.2474 28.8327 40.1535C28.8198 39.8954 28.4575 37.9238 28.3799 37.7595C28.3281 37.6539 28.0176 37.4661 27.6942 37.3605C26.5686 36.9849 25.5336 36.5859 25.2748 36.4216C24.7961 36.1165 24.3821 36.2339 23.3213 36.9615C22.7649 37.3487 22.2345 37.6656 22.1698 37.6656C22.0922 37.6656 21.6911 37.3605 21.2771 36.9732L20.5267 36.2808L21.2383 35.4241C22.2862 34.1567 22.2992 34.0862 21.7817 33.1122C21.5488 32.6545 21.2512 31.9856 21.1219 31.6335C20.7855 30.6712 20.5785 30.5538 19.0648 30.3661L17.771 30.2135L17.7322 29.1925C17.6934 28.0189 17.5252 28.148 19.3106 27.9133C19.8798 27.8429 20.4491 27.7255 20.5785 27.6551C20.7079 27.573 20.9407 27.174 21.096 26.7515C21.2512 26.329 21.5617 25.6249 21.7946 25.1907C22.2992 24.2283 22.2862 24.1931 21.2512 22.9257L20.5138 22.0455L21.2771 21.3414C21.6911 20.9658 22.0792 20.649 22.131 20.649C22.1827 20.649 22.7003 20.9658 23.2824 21.3531C23.8646 21.7404 24.4598 22.0573 24.628 22.0573C24.7961 22.0573 25.3395 21.8812 25.8182 21.6582C26.2969 21.447 26.9309 21.2006 27.2155 21.1301C27.9659 20.9189 28.2893 20.7546 28.3799 20.5434C28.4575 20.3791 28.8198 18.4075 28.8327 18.1493C28.8327 18.1024 29.3502 18.0672 29.9841 18.0672H31.1356L31.2779 19.0882Z" fill="white"/>
<path d="M28.4541 23.6539C23.7448 24.804 22.1535 30.0615 25.5691 33.1714C28.0272 35.4012 31.9602 35.4012 34.4184 33.1714C36.2944 31.458 36.786 28.8762 35.6216 26.6934C34.3537 24.2993 31.2357 22.9732 28.4541 23.6539ZM31.7015 25.555C33.2281 26.1653 34.289 27.6088 34.289 29.0874C34.302 30.2258 33.9915 30.9651 33.1505 31.7866C32.1931 32.7255 31.4427 33.0306 29.9937 33.0306C28.5447 33.0306 27.7943 32.7255 26.8369 31.7866C26.0219 30.9886 25.6726 30.2141 25.6726 29.1579C25.6726 27.4562 26.9146 25.9306 28.7388 25.3907C29.4892 25.1678 30.9382 25.2499 31.7015 25.555Z" fill="white"/>
<path d="M5.55559 18.2544C4.98633 18.9116 5.3874 19.4162 6.9011 19.9326C8.11724 20.3551 8.55712 20.3785 8.90643 20.0617C9.22987 19.7683 9.25575 19.1111 8.94525 18.8646C8.58299 18.5947 6.68116 17.9493 6.22834 17.9493C5.94371 17.9493 5.73671 18.0432 5.55559 18.2544Z" fill="white"/>
<path d="M52.2344 18.337C50.9665 18.8182 50.8242 18.9355 50.8242 19.4871C50.8242 19.9917 51.1606 20.2969 51.7299 20.2969C52.2732 20.2969 54.0974 19.6045 54.4209 19.2876C54.7702 18.9238 54.7831 18.6539 54.4338 18.2549C54.0716 17.8441 53.5023 17.8676 52.2344 18.337Z" fill="white"/>
<path d="M0.536553 26.4C-0.0456405 26.6112 -0.175017 27.2449 0.251925 27.7378L0.510678 28.043H3.79684H7.083L7.34175 27.7378C7.67813 27.3506 7.69107 26.975 7.36763 26.623C7.12181 26.3413 7.10887 26.3413 3.96503 26.3178C2.24432 26.3061 0.691805 26.3413 0.536553 26.4Z" fill="white"/>
<path d="M52.935 26.4C52.3528 26.6112 52.2234 27.2449 52.6504 27.7378L52.9091 28.043H56.1953H59.4814L59.7402 27.7378C60.0766 27.3506 60.0895 26.975 59.7661 26.623C59.5203 26.3413 59.5073 26.3413 56.3635 26.3178C54.6428 26.3061 53.0902 26.3413 52.935 26.4Z" fill="white"/>
</svg>
