<svg width="23" height="22" viewBox="0 0 23 22" fill="none" xmlns="http://www.w3.org/2000/svg">
<path d="M21.9299 13.2617V21H17.4441V13.7803C17.4441 11.9666 16.7949 10.7288 15.1717 10.7288C13.9311 10.7288 13.1939 11.5631 12.8691 12.3693C12.7507 12.6576 12.7204 13.0593 12.7204 13.4634V20.9996H8.23382C8.23382 20.9996 8.29372 8.77186 8.23382 7.50524H12.7204V9.41744C12.7117 9.43224 12.6998 9.4474 12.6912 9.46147H12.7204V9.41744C13.3158 8.49977 14.3811 7.18804 16.7642 7.18804C19.7168 7.18841 21.9299 9.11649 21.9299 13.2617ZM3.53902 1C2.00428 1 1 2.0068 1 3.3308C1 4.62629 1.97469 5.66377 3.47948 5.66377H3.50979C5.07376 5.66377 6.04736 4.62629 6.04736 3.3308C6.01813 2.0068 5.07412 1 3.53902 1ZM1.26595 20.9996H5.75182V7.5056H1.26595V20.9996Z" stroke="#6A4EEE" stroke-miterlimit="10" stroke-linecap="round" stroke-linejoin="round"/>
</svg>
