<svg width="465" height="333" viewBox="0 0 465 333" fill="none" xmlns="http://www.w3.org/2000/svg">
<g style="mix-blend-mode:multiply">
<path d="M441.561 167.093C445.122 196.666 460.927 221.569 458.441 252.21C458.376 252.999 458.3 253.793 458.212 254.59C456.604 269.038 451.416 283.348 442.934 295.212C437.691 302.548 431.183 308.949 423.476 313.868C419.774 316.219 415.876 318.246 411.825 319.926C403.947 323.226 395.53 325.41 387.021 327.027C384.396 327.528 381.761 327.973 379.133 328.386C378.817 328.437 378.5 328.487 378.182 328.534C373.63 329.23 369.089 329.807 364.557 330.264C336.372 333.15 308.478 331.92 279.909 331.525C241.633 331.003 202.066 328.54 163.986 331.366C163.514 331.401 163.042 331.438 162.566 331.471C152.393 332.213 142.011 332.809 131.626 332.865C130.111 332.874 128.599 332.874 127.088 332.865C121.366 332.807 115.649 332.566 109.971 332.088C105.781 331.727 101.61 331.236 97.478 330.582C93.5829 329.966 89.711 329.209 85.8973 328.287L84.9264 328.052C75.9361 325.814 67.1884 322.649 58.8252 318.273C57.4776 317.567 56.1436 316.832 54.8232 316.07C53.3591 315.224 51.9164 314.342 50.495 313.426C47.4029 311.432 44.4211 309.272 41.5629 306.955C30.0404 297.621 20.9394 286.101 14.2267 273.313C2.57605 251.128 -1.86866 225.135 0.70807 200.155C3.56053 172.463 17.3296 147.004 31.1938 123.19C43.7784 101.59 52.7242 77.9559 56.8252 53.4147C59.2388 38.9823 60.7087 24.5908 72.6098 14.4179C100.354 -9.29047 144.304 0.461166 176.157 13.6646C179.273 14.9595 182.275 16.2835 185.133 17.6134C217.689 32.7563 252.752 60.3921 290.503 58.3478C308.919 57.3518 327.632 48.8252 344.5 42.0944C370.889 31.5604 401.153 22.3834 429.779 29.4753C447.556 33.8823 463.866 47.5711 464.94 66.3754C465.767 80.9204 457.839 94.3432 451.942 107.727C443.732 126.378 439.134 146.922 441.561 167.093Z" fill="#E0D9FF"/>
</g>
<path d="M341.885 110.654C332.734 104.122 321.767 100.618 310.523 100.633C280.517 100.633 256.194 125.094 256.194 155.287C256.194 185.48 280.517 209.941 310.523 209.941C323.259 209.956 335.588 205.463 345.327 197.258L310.523 155.287L341.885 110.654Z" fill="#6B43C7"/>
<path d="M372.487 155.287C372.501 146.555 370.424 137.946 366.428 130.181C362.433 122.416 356.636 115.72 349.522 110.654L318.158 155.287L352.961 197.258C359.087 192.116 364.011 185.692 367.385 178.44C370.759 171.189 372.501 163.285 372.487 155.287Z" fill="#6A4EEE"/>
<path d="M230.2 119.104C236.532 117.427 244.701 112.698 242.807 99.3621C242.807 99.3621 224.046 96.9548 223.104 114.453C219.255 112.66 215.059 111.732 210.813 111.735H181.568V175.995C179.286 169.798 173.5 160.759 159.626 165.047C159.626 165.047 160.224 185.649 179.706 181.959C175.067 176.036 165.117 169.852 165.117 169.852C170.595 170.27 178.44 176.993 181.572 179.874V209.942H198.696V174.292H210.817C227.021 174.292 240.194 161.04 240.194 145.004V141.292C240.198 137.097 239.309 132.948 237.586 129.123C235.862 125.297 233.345 121.882 230.2 119.104ZM237.235 104.07C236.225 108.376 231.021 113.56 227.271 116.823C226.553 116.332 225.811 115.874 225.046 115.447C231.052 111.311 237.235 104.07 237.235 104.07ZM223.06 145.004C223.06 151.498 217.526 157.064 210.807 157.196H198.687V128.968H210.807C217.526 128.968 222.928 134.404 223.06 141.292V145.004Z" fill="#6B43C7"/>
<path d="M128.513 155.883C135.629 153.51 144.798 146.207 144.798 146.207C141.92 152.633 128.149 159.214 128.149 159.214C128.149 159.214 150.103 164.068 151.159 142.656C151.159 142.65 131.701 136.201 128.513 155.883Z" fill="#6B43C7"/>
<path d="M121.944 111.74H111.024V131.28C108.35 125.307 102.457 118.273 89.8975 122.065C89.8975 122.065 90.3732 142.671 109.876 139.098C105.272 133.148 95.3597 126.903 95.3597 126.903C100.449 127.322 107.548 133.197 111.024 136.353V209.932H128.15V111.74H121.944Z" fill="#6B43C7"/>
<g style="mix-blend-mode:multiply">
<path d="M458.441 252.209C458.376 252.999 458.3 253.792 458.212 254.59C456.604 269.037 451.416 283.347 442.934 295.211C437.691 302.548 431.182 308.949 423.476 313.868C419.774 316.219 415.876 318.246 411.825 319.925C403.947 323.226 395.53 325.41 387.021 327.027C384.396 327.528 381.761 327.972 379.133 328.386C378.817 328.436 378.5 328.487 378.182 328.533C373.63 329.23 369.089 329.806 364.557 330.263C336.372 333.15 308.478 331.919 279.909 331.525C241.633 331.003 202.065 328.539 163.985 331.366C163.514 331.401 163.042 331.438 162.566 331.471C152.393 332.212 142.01 332.808 131.626 332.865C130.111 332.874 128.599 332.874 127.088 332.865C121.366 332.806 115.649 332.566 109.971 332.088C105.781 331.727 101.61 331.236 97.4779 330.582C93.5828 329.966 89.7109 329.209 85.8972 328.287L84.9264 328.052C75.936 325.814 67.1883 322.649 58.8251 318.273C57.4775 317.566 56.1435 316.832 54.8231 316.07C53.359 315.223 51.9163 314.342 50.4949 313.425C47.4028 311.432 44.421 309.271 41.5628 306.955C30.0403 297.621 20.9393 286.1 14.2266 273.312C192.475 199.751 393.939 237.061 458.441 252.209Z" fill="#AD9DF5"/>
</g>
<path d="M354.741 234.516L355.154 250.395C355.154 250.395 358.312 255.054 357.694 268.576L355.978 268.537C355.978 268.537 351.346 246.458 347.463 239.043L347.61 232.662C347.61 232.662 354.531 230.763 354.741 234.516Z" fill="#002A69"/>
<path d="M350.693 234.423C350.693 234.423 349.066 237.366 347.468 239.043L345.615 251.779C345.615 251.779 347.718 255.161 344.411 270.138L342.697 270.1L341.095 232.945C341.095 232.945 348.576 231.547 350.693 234.423Z" fill="#002A69"/>
<path d="M338.852 234.148C338.852 234.148 338.927 238.503 341.31 237.934L341.228 236.037L339.943 234.174L338.852 234.148Z" fill="#EDF6FB"/>
<path d="M357.694 268.576L357.956 270.451L356.094 270.409L355.978 268.535L357.694 268.576Z" fill="#002152"/>
<path d="M356.094 270.408L353.312 269.408L353.333 268.475L355.978 268.535L356.094 270.408Z" fill="#002152"/>
<path d="M344.476 270.14L344.738 272.016L342.874 271.973L342.76 270.1L344.476 270.14Z" fill="#002152"/>
<path d="M342.875 271.973L340.093 270.973L340.116 270.039L342.761 270.099L342.875 271.973Z" fill="#002152"/>
<path d="M344.011 201.272C344.011 201.272 342.907 202.15 343.235 203.864L342.846 205.223C342.831 205.27 342.826 205.321 342.833 205.37C342.841 205.42 342.859 205.467 342.888 205.508C342.917 205.549 342.955 205.582 342.999 205.606C343.043 205.63 343.092 205.643 343.142 205.644H343.617C343.617 205.644 344.246 207.848 345.458 207.362L345.936 208.9L349.507 207.669L347.852 203.957C347.852 203.957 346.687 199.041 344.011 201.272Z" fill="white"/>
<path d="M343.226 211.175L341.15 208.899C341.15 208.899 341.611 206.455 342.403 207.292C342.91 207.849 343.327 208.482 343.638 209.169L343.679 207.47C343.679 207.434 343.69 207.398 343.709 207.367C343.728 207.335 343.755 207.31 343.787 207.292C343.819 207.275 343.855 207.266 343.892 207.267C343.928 207.268 343.964 207.278 343.995 207.297C344.196 207.403 344.354 207.575 344.442 207.785C344.529 207.994 344.54 208.228 344.473 208.445C344.216 209.437 344.259 211.176 344.259 211.176L343.226 211.175Z" fill="#EDF6FB"/>
<path d="M349.51 207.117L350.357 208.457L352.98 209.377C353.408 209.528 353.79 209.787 354.088 210.13C354.386 210.473 354.59 210.887 354.679 211.332L355.427 215.073L353.147 222.611C353.147 222.611 352.745 226.543 353.924 229.375C354.623 231.025 355.106 232.758 355.363 234.532L340.564 234.188C340.564 234.188 346.465 221.649 343.13 210.856L345.974 209.245L345.683 208.35L349.51 207.117Z" fill="#002A69"/>
<path d="M343.753 211.051C343.753 211.051 341.316 208.494 340.258 220.563C340.258 220.563 338.524 228.207 338.852 234.153L339.943 234.179L345.186 216.706C345.186 216.706 346.242 211.227 343.753 211.051Z" fill="#002A69"/>
<path d="M345.463 207.365L346.517 206.623L346.325 205.658L348.721 206.138L349.51 207.116L345.684 208.347L345.463 207.365Z" fill="url(#paint0_linear_1616_565)"/>
<path d="M344.015 201.391C344.015 201.391 345.054 199.302 347.204 199.691C347.204 199.691 351.456 200.966 349.586 205.35L348.841 206.589L346.091 206.375L345.93 205.562C345.93 205.562 345.942 202.995 344.557 204.148L344.54 204.878C344.54 204.896 344.534 204.914 344.523 204.929C344.512 204.943 344.496 204.954 344.478 204.959C344.461 204.964 344.442 204.963 344.425 204.956C344.408 204.949 344.394 204.937 344.384 204.921C344.075 204.437 343.91 203.874 343.909 203.3C343.909 203.3 342.582 202.84 344.015 201.391Z" fill="#002868"/>
<path d="M344.063 220.459L345.386 215.59L345.409 214.037L346.021 216.629L344.04 221.492L344.063 220.459Z" fill="#002152"/>
<path d="M347.463 239.042C347.463 239.042 350.137 236.519 350.688 234.422L354.737 234.515L354.766 235.014L351.162 234.931C351.162 234.931 350.278 237.332 347.463 239.042Z" fill="#002152"/>
<path d="M341.3 234.205L348.199 234.364L341.288 234.702L341.3 234.205Z" fill="#002152"/>
<path d="M345.976 209.245L350.358 208.457L349.952 207.818L345.976 209.245Z" fill="#002152"/>
<path d="M345.261 205.503L344.97 204.658L345.457 204.67L345.261 205.503Z" fill="url(#paint1_linear_1616_565)"/>
<path d="M348.198 234.364L348.928 229.59L348.818 234.377L348.198 234.364Z" fill="#002152"/>
<path d="M352.905 210.814L354.361 215.227L350.776 222.154L353.621 215.21L352.905 210.814Z" fill="#002152"/>
<path d="M338.848 230.617L339.671 230.637L339.64 231.912L340.191 231.287L340.999 231.803L339.943 234.172L338.853 234.147L338.848 230.617Z" fill="#002152"/>
<path d="M234.345 268.188H219.504V278.149H234.345V268.188Z" fill="#002152"/>
<path d="M223.427 268.823V268.604C223.429 267.845 223.733 267.118 224.271 266.583C224.809 266.048 225.538 265.748 226.297 265.75H227.569C228.327 265.751 229.055 266.053 229.591 266.589C230.128 267.126 230.43 267.853 230.431 268.612V268.823C230.43 269.582 230.128 270.309 229.591 270.846C229.055 271.382 228.327 271.684 227.569 271.685H226.297C225.92 271.686 225.547 271.612 225.199 271.469C224.851 271.325 224.535 271.115 224.268 270.849C224.002 270.583 223.79 270.267 223.646 269.92C223.501 269.572 223.427 269.2 223.427 268.823ZM226.289 266.385C225.698 266.385 225.132 266.62 224.715 267.038C224.297 267.455 224.062 268.021 224.062 268.612V268.823C224.062 269.413 224.297 269.979 224.715 270.397C225.132 270.814 225.699 271.048 226.289 271.048H227.561C228.151 271.048 228.717 270.813 229.134 270.396C229.551 269.979 229.786 269.413 229.786 268.823V268.604C229.786 268.014 229.551 267.448 229.134 267.031C228.717 266.613 228.151 266.378 227.561 266.377L226.289 266.385Z" fill="#002152"/>
<path d="M260.517 238.966L260.478 240.628L259.438 240.608L259.23 239.769L257.938 239.74L259.509 237.482L260.517 238.966Z" fill="#EDF6FB"/>
<path d="M245.748 276.459L246.008 278.334L244.146 278.291L244.029 276.418L245.748 276.459Z" fill="#002152"/>
<path d="M244.146 278.293L241.363 277.293L241.387 276.359L244.029 276.42L244.146 278.293Z" fill="#002152"/>
<path d="M258.508 276.756L258.768 278.631L256.906 278.588L256.791 276.715L258.508 276.756Z" fill="#002152"/>
<path d="M256.905 278.588L254.122 277.588L254.145 276.654L256.79 276.714L256.905 278.588Z" fill="#002152"/>
<path d="M248.736 208.28C248.736 208.28 247.74 208.841 247.789 210.257L247.305 211.29C247.286 211.326 247.276 211.365 247.275 211.406C247.275 211.447 247.284 211.487 247.301 211.523C247.319 211.56 247.345 211.592 247.378 211.616C247.41 211.641 247.448 211.657 247.488 211.664L247.876 211.734C247.876 211.734 247.031 213.705 249.131 213.344L249.325 214.635L252.933 213.998L252.752 210.27C252.752 210.27 251.166 206.836 248.736 208.28Z" fill="white"/>
<path d="M249.124 213.341L250.089 212.735L250.058 211.939L252.621 212.104L252.918 213.995L249.365 214.987L249.124 213.341Z" fill="url(#paint2_linear_1616_565)"/>
<path d="M248.871 207.701C248.871 207.701 249.492 205.693 251.471 206.382C251.471 206.382 256.956 207.353 253.556 212.29L252.917 213.996L250.927 213.5L250.057 211.946C250.057 211.946 250.455 209.516 248.968 210.393L248.843 211.084C248.84 211.101 248.831 211.116 248.818 211.128C248.806 211.139 248.79 211.146 248.773 211.148C248.756 211.15 248.739 211.147 248.724 211.138C248.709 211.13 248.697 211.117 248.69 211.102C248.469 210.596 248.397 210.038 248.482 209.492C248.482 209.492 247.21 207.996 248.871 207.701Z" fill="#002868"/>
<path d="M249.453 211.525L249.327 210.812L249.717 210.884L249.453 211.525Z" fill="url(#paint3_linear_1616_565)"/>
<path d="M253.145 215.242L261.04 216.465L266.57 229.725L260.518 238.966L259.51 237.483L261.768 230.031L257.541 223.472L257.722 233.689L259.438 240.608L251.213 243.753L251.323 238.962L250.193 243.73L243.766 242.121L245.869 232.373L244.215 222.747L241.135 229.764L243.422 238.987L242.356 240.004L236.331 230.068L241.84 217.273L247.931 215.329L248.908 214.559L253.145 215.242Z" fill="#002A69"/>
<path d="M259.438 240.608L259.109 254.78L258.579 277.688L257.119 277.653C257.119 277.653 252.847 264.005 254.865 258.008L251.1 248.54C251.1 248.54 251.1 240.204 252.56 240.445C254.02 240.685 259.438 240.608 259.438 240.608Z" fill="#002A69"/>
<path d="M252.899 243.11L248.921 253.914L247.756 258.887C247.756 258.887 249.093 264.129 245.451 277.387L243.367 277.338L243.897 254.43L244.163 242.916C244.163 242.916 247.723 231.261 252.899 243.11Z" fill="#002A69"/>
<path d="M253.144 215.242L252.919 213.996L248.907 214.559L253.144 215.242Z" fill="#002152"/>
<path d="M242.356 240.004L242.31 241.988L244.148 243.589C244.148 243.589 245.325 242.246 243.422 238.986L242.356 240.004Z" fill="#EDF6FB"/>
<path d="M259.436 240.609L253.842 245.074L252.99 238.896L252.454 245.041L245.562 243.622L252.809 246.66L259.436 240.609Z" fill="#002152"/>
<path d="M254.865 258.011L252.783 247.867L251.154 247.83L254.865 258.011Z" fill="#002152"/>
<path d="M257.54 223.471L259.078 225.857L257.342 232.067L257.54 223.471Z" fill="#002152"/>
<path d="M251.695 219.236L251.458 232.737L253.052 236.196C253.052 236.196 251.773 230.295 251.695 219.236Z" fill="#002152"/>
<path d="M200.922 269.287L200.85 272.38L198.806 274.073C198.806 274.073 197.239 270.407 200.922 269.287Z" fill="#00245C"/>
<path d="M196.03 212.715C196.03 212.715 195.133 211.876 195.114 212.694C195.077 214.311 196.889 215.28 196.889 215.28C196.889 215.28 204.656 214.53 200.225 212.705L196.03 212.715Z" fill="url(#paint4_linear_1616_565)"/>
<path d="M200.185 214.401L199.991 216.81L196.414 216.595L196.152 214.733L196.529 214.318C196.529 214.318 199.168 212.498 200.185 214.401Z" fill="url(#paint5_linear_1616_565)"/>
<path d="M200.018 215.882L200.77 213.513C200.77 213.513 203.1 209.854 200.119 209.388C200.119 209.388 197.855 205.755 195.166 210.465L195.795 210.879C195.795 210.879 195.9 213.109 196.535 214.317L196.875 215.81L200.018 215.882Z" fill="#002868"/>
<path d="M200.532 216.927L200.476 219.34L206.515 219.48L210.827 241.928L209.016 241.886L205.617 232.144L205.499 237.275L202.157 257.432C202.157 257.432 203.957 264.722 199.245 272.769L199.175 275.788L196.759 275.732C196.759 275.732 193.584 269.325 193.507 259.651L191.402 246.165L189.893 246.13L190.105 236.924L184.79 231.666L189.606 219.395L195.656 218.931L196.309 216.832L200.532 216.927Z" fill="#002A69"/>
<path d="M191.396 246.16L197.585 246.301L197.74 239.602L199.682 246.35L199.459 256.018L199.249 272.765C199.249 272.765 199.024 264.013 197.321 258.134L197.532 248.977C195.385 248.278 193.326 247.333 191.396 246.16Z" fill="#00245C"/>
<path d="M190.101 236.919L193.157 227.734L190.209 232.301C190.209 232.301 190.18 233.792 190.101 236.919Z" fill="#00245C"/>
<path d="M205.617 232.144L205.776 225.309L204.133 236.375L203.9 246.448L205.396 237.897L205.617 232.144Z" fill="#00245C"/>
<path d="M200.822 246.376L203.943 244.594L203.9 246.448L199.673 246.351" fill="#00245C"/>
<path d="M200.477 219.34L195.653 218.927L196.306 216.828L200.1 218.123L200.477 219.34Z" fill="#00245C"/>
<path d="M199.169 275.785L198.705 278.355L196.725 277.02L196.754 275.729L199.169 275.785Z" fill="#00245C"/>
<path d="M144.457 250.511L144.214 260.979L146.825 261.039L147.068 250.572L144.457 250.511Z" fill="#375394"/>
<path d="M149.894 247.309L150.465 255.864L146.811 261.015L147.053 250.549L149.894 247.309Z" fill="#00245C"/>
<path d="M147.054 250.549L149.895 247.309L148.378 246.455L144.442 250.489L147.054 250.549Z" fill="#0D3065"/>
<path d="M152.483 270.214L153.819 272.241L152.914 276.215L150.957 276.176L151.029 273.105C151.029 273.105 151.264 267.789 152.483 270.214Z" fill="#00245C"/>
<path d="M159.042 270.366L160.378 272.395L159.473 276.371L157.521 276.325L157.591 273.253C157.591 273.253 157.824 267.942 159.042 270.366Z" fill="#00245C"/>
<path d="M164.125 243.273C164.125 243.273 163.859 244.97 162.554 244.787L161.933 244.011L163.067 242.545L164.125 243.273Z" fill="url(#paint6_linear_1616_565)"/>
<path d="M158.768 215.812L158.716 218.116L160.065 219.53L164.626 221.632L161.347 233.859L162.555 244.785L149.382 242.931L148.731 244.467L147.502 244.438L146.679 233.521L148.636 222.032L153.768 219.384L154.572 217.866L154.467 215.713L158.768 215.812Z" fill="#002A69"/>
<path d="M164.626 221.635L168.898 235.912L164.117 243.274L163.059 242.538L165.713 234.803L161.441 226.888C161.441 226.888 162.779 221.745 164.626 221.635Z" fill="#002A69"/>
<path d="M162.554 244.787L160.733 257.018C160.733 257.018 162.577 263.677 158.781 274.958L157.552 274.929L156.878 257.577L155.276 243.754C155.276 243.754 160.181 241.036 162.554 244.787Z" fill="#002A69"/>
<path d="M148.459 242.913L150.092 258.687C150.092 258.687 147.655 264.723 150.956 274.789L152.032 274.812L153.525 256.691L155.704 247.445C155.704 247.445 158.88 237.481 150.094 238.662L148.459 242.913Z" fill="#002A69"/>
<path d="M150.095 238.66L150.186 234.739L151.064 229.949L150.953 234.758C150.855 236.093 150.566 237.407 150.095 238.66Z" fill="#00245C"/>
<path d="M156.263 243.9L156.383 238.674L155.278 243.762L156.263 243.9Z" fill="#00245C"/>
<path d="M147.502 244.438L146.382 246.408L147.432 247.423L148.9 247.157L148.621 244.472L147.502 244.438Z" fill="url(#paint7_linear_1616_565)"/>
<path d="M147.602 248.499L148.378 246.455L147.149 246.428L147.101 248.488L147.602 248.499Z" fill="#00245C"/>
<path d="M154.117 213.373C154.117 213.373 153.079 212.402 153.055 213.347C153.013 215.223 155.112 216.345 155.112 216.345C155.112 216.345 164.11 215.477 158.978 213.361L154.117 213.373Z" fill="url(#paint8_linear_1616_565)"/>
<path d="M158.934 215.325L158.724 218.117L154.58 217.868L154.258 215.71L154.695 215.228C154.695 215.228 157.753 213.118 158.934 215.325Z" fill="url(#paint9_linear_1616_565)"/>
<path d="M158.739 217.042L159.609 214.295C159.609 214.295 162.327 210.057 158.855 209.516C158.855 209.516 156.234 205.307 153.115 210.766L153.845 211.243C153.845 211.243 153.966 213.827 154.702 215.227L155.09 216.957L158.739 217.042Z" fill="#002868"/>
<path d="M161.965 244.033L156.264 243.901L155.279 243.763L148.996 243.002L148.731 244.468L155.421 244.986L161.965 244.033Z" fill="#00245C"/>
<path d="M148.995 243.002L150.094 238.659L150.719 236.473L149.778 243.161L148.995 243.002Z" fill="#00245C"/>
<path d="M159.503 218.943L156.835 219.228L153.769 219.385L154.572 217.867L158.716 218.118L159.503 218.943Z" fill="#00245C"/>
<path d="M162.624 229.098L163.463 224.93L160.121 233.567L161.892 238.803L161.346 233.86L162.624 229.098Z" fill="#00245C"/>
<path d="M302.869 205.285C302.869 205.285 301.873 205.843 301.91 206.971L300.805 208.652L301.723 208.712C301.723 208.712 301.517 211.277 302.067 211.313C302.616 211.35 304.809 209.945 304.813 213.255L305.356 215.08L308.98 213.765L308.321 211.164L307.758 209.733C307.758 209.733 304.939 201.919 302.869 205.285Z" fill="url(#paint10_linear_1616_565)"/>
<path d="M304.814 213.259L304.389 211.463L307.379 208.637L308.635 212.294L304.814 213.259Z" fill="url(#paint11_linear_1616_565)"/>
<path d="M303.188 216.136L298.798 220.732L300.695 214.628L299.693 213.809L295.68 224.486L302.81 222.426L303.188 216.136Z" fill="#00255D"/>
<path d="M311.313 237.222L310.004 250.981C310.004 250.981 312.406 254.312 309.521 274.786L308.429 274.716L305.569 249.773L304.21 242.841C304.21 242.841 307.026 233.516 311.313 237.222Z" fill="#00255D"/>
<path d="M308.628 212.305L311.865 215.143C312.242 215.474 312.518 215.904 312.661 216.386C312.803 216.867 312.807 217.378 312.671 217.861L309.952 227.535L312.76 238.657L301.096 237.896L301.735 216.279L304.804 213.275L308.628 212.305Z" fill="#002A69"/>
<path d="M310.322 237.154L306.002 253.546C306.002 253.546 307.722 256.652 299.726 274.142L298.949 274.093L301.79 252.619L301.097 237.878L310.322 237.154Z" fill="#002A69"/>
<path d="M303.152 207.572C303.152 207.572 304.855 206.888 305.141 207.572C305.426 208.255 305.948 208.381 304.449 208.835C304.804 209.036 305.104 209.32 305.323 209.663C305.542 210.007 305.674 210.398 305.707 210.804L307.758 209.742L308.216 204.306L304.389 203.254C303.921 202.968 303.117 203.174 302.975 203.702L302.449 205.659C302.449 205.659 304.121 205.426 303.152 207.572Z" fill="#002868"/>
<path d="M299.682 214.635C299.682 214.635 298.979 210.925 300.193 211.185C301.406 211.445 303.121 210.566 301.402 212.6L300.696 214.633L299.682 214.635Z" fill="#EDF6FB"/>
<path d="M298.071 237.14L297.168 239.202C297.168 239.202 298.211 241.501 300.143 239.278L299.086 239.084L299.156 237.113L298.071 237.14Z" fill="#EDF6FB"/>
<path d="M308.472 274.115L307.501 274.88H306.103C306.103 274.88 306.026 275.734 306.711 275.736C307.396 275.738 309.255 275.447 309.255 275.447L310.212 275.364L309.851 274.69L309.624 274.119L308.472 274.115Z" fill="#00245C"/>
<path d="M298.888 273.578L297.76 274.104L296.401 273.788C296.401 273.788 296.133 274.605 296.801 274.758C297.469 274.912 299.344 275.046 299.344 275.046L300.296 275.18L300.102 274.444L300.009 273.836L298.888 273.578Z" fill="#00245C"/>
<path d="M293.779 247.397L302.748 246.885C302.805 246.882 302.86 246.867 302.912 246.843C302.963 246.818 303.008 246.783 303.046 246.741C303.084 246.699 303.113 246.649 303.131 246.596C303.15 246.542 303.158 246.485 303.154 246.429L302.83 240.736C302.823 240.622 302.771 240.516 302.685 240.44C302.6 240.363 302.488 240.324 302.374 240.331L293.403 240.845C293.289 240.852 293.182 240.903 293.106 240.988C293.03 241.074 292.99 241.185 292.997 241.3L293.323 246.992C293.326 247.048 293.341 247.104 293.365 247.155C293.39 247.206 293.425 247.252 293.467 247.289C293.509 247.327 293.559 247.356 293.612 247.375C293.666 247.393 293.723 247.401 293.779 247.397Z" fill="#04306D"/>
<path d="M298.12 244.612L293.189 243.624L298.166 245.416L302.964 243.064L298.12 244.612Z" fill="#375394"/>
<path d="M299.009 244.315L297.281 244.414L297.341 245.449L299.068 245.35L299.009 244.315Z" fill="url(#paint12_linear_1616_565)"/>
<path d="M296.044 240.117C296.026 239.797 296.136 239.482 296.35 239.243C296.564 239.004 296.863 238.858 297.184 238.839L298.219 238.781C298.539 238.763 298.853 238.873 299.092 239.086C299.331 239.299 299.476 239.599 299.494 239.919L299.623 242.161L296.174 242.355L296.044 240.117ZM299.151 239.938C299.138 239.71 299.034 239.496 298.864 239.343C298.693 239.191 298.469 239.112 298.24 239.125L297.205 239.185C296.976 239.199 296.762 239.302 296.61 239.473C296.457 239.644 296.379 239.869 296.391 240.097L296.5 241.994L299.259 241.835L299.151 239.938Z" fill="#04306D"/>
<path d="M299.181 240.513C299.181 240.513 301.727 239.001 298.422 238.397C297.659 238.257 296.395 240.465 299.181 240.513Z" fill="white"/>
<path d="M305.573 214.274L305.707 216.951L301.986 225.338L299.113 238.478L297.645 237.647L300.021 225.078L301.847 215.435C301.847 215.435 302.699 212.426 305.573 214.274Z" fill="#002A69"/>
<path d="M309.785 238.588L301.104 237.881L301.173 239.341L309.785 238.588Z" fill="#00245C"/>
<path d="M301.406 227.646L305.707 216.951L301.326 230.382L301.406 227.646Z" fill="#00245C"/>
<path d="M310.238 238.479L309.96 227.52L312.77 238.644L311.785 238.469L311.29 234.237L311.059 238.531L310.238 238.479Z" fill="#00245C"/>
<path d="M299.11 238.479L297.64 237.646L297.849 235.598L299.038 235.675L298.482 237.133L299.644 236.46L299.95 237.17L299.11 238.479Z" fill="url(#paint13_linear_1616_565)"/>
<path d="M300.696 214.628L299.595 214.072L299.003 215.649L300.042 216.21L300.119 215.026L300.529 216.243L300.997 215.779L300.696 214.628Z" fill="url(#paint14_linear_1616_565)"/>
<path d="M308.635 212.295L309.53 213.079L304.336 213.728L304.392 212.873L308.635 212.295Z" fill="#002A69"/>
<path d="M108.381 239.484L107.235 255.325C107.235 255.325 103.864 259.833 103.856 273.38L105.573 273.419C105.573 273.419 111.22 251.579 115.439 244.351L115.587 237.969C115.587 237.969 108.765 235.745 108.381 239.484Z" fill="#002A69"/>
<path d="M112.431 239.579C112.431 239.579 113.92 242.594 115.438 244.343L116.701 257.156C116.701 257.156 114.442 260.437 117.054 275.553L118.767 275.594L122.087 238.552C122.087 238.552 114.677 236.807 112.431 239.579Z" fill="#002A69"/>
<path d="M124.271 239.853C124.271 239.853 123.995 244.2 121.642 243.523L121.811 241.63L123.181 239.828L124.271 239.853Z" fill="#EDF6FB"/>
<path d="M103.856 273.371L103.509 275.233L105.371 275.278L105.575 273.412L103.856 273.371Z" fill="#002152"/>
<path d="M105.372 275.278L108.199 274.408L108.221 273.472L105.576 273.412L105.372 275.278Z" fill="#002152"/>
<path d="M116.989 275.545L116.642 277.407L118.504 277.449L118.708 275.584L116.989 275.545Z" fill="#002152"/>
<path d="M118.504 277.45L121.331 276.58L121.352 275.646L118.708 275.584L118.504 277.45Z" fill="#002152"/>
<path d="M120.919 206.229C120.919 206.229 121.981 207.157 121.57 208.855L121.896 210.214C121.91 210.262 121.912 210.313 121.903 210.362C121.894 210.411 121.873 210.458 121.843 210.497C121.812 210.537 121.773 210.569 121.728 210.591C121.683 210.612 121.633 210.623 121.583 210.622L121.105 210.612C121.105 210.612 120.329 213.604 119.187 212.241L118.639 213.755L114.756 212.105L116.136 211.134C116.136 211.134 118.335 203.877 120.919 206.229Z" fill="white"/>
<path d="M120.964 216.699L123.142 214.523C123.142 214.523 122.797 212.061 121.966 212.861C121.433 213.394 120.987 214.007 120.645 214.678L120.684 212.979C120.686 212.942 120.677 212.906 120.66 212.873C120.643 212.84 120.617 212.812 120.586 212.793C120.555 212.773 120.519 212.762 120.482 212.76C120.445 212.759 120.408 212.768 120.375 212.785C120.169 212.881 120.003 213.046 119.906 213.252C119.809 213.458 119.788 213.691 119.845 213.911C120.055 214.915 119.932 216.649 119.932 216.649L120.964 216.699Z" fill="#EDF6FB"/>
<path d="M114.758 212.109L113.968 213.662L111.305 214.46C110.87 214.59 110.476 214.832 110.163 215.16C109.849 215.489 109.627 215.893 109.517 216.334L108.599 220.036L110.525 227.674C110.525 227.674 110.746 231.618 109.435 234.393C108.66 236.008 108.096 237.716 107.758 239.475L122.558 239.819C122.558 239.819 117.243 227.019 121.072 216.392L118.307 214.645L118.639 213.763L114.758 212.109Z" fill="#002A69"/>
<path d="M120.443 216.551C120.443 216.551 122.996 214.111 123.495 226.21C123.495 226.21 124.876 233.925 124.272 239.852L123.183 239.827L118.748 222.135C118.748 222.135 117.946 216.613 120.443 216.551Z" fill="#002A69"/>
<path d="M119.188 212.25L118.172 211.277L118.409 210.324L114.926 211.584L114.761 212.114L118.642 213.764L119.188 212.25Z" fill="url(#paint15_linear_1616_565)"/>
<path d="M120.921 207.761C120.89 208.44 120.663 209.097 120.268 209.651C120.256 209.668 120.238 209.681 120.219 209.687C120.199 209.693 120.177 209.693 120.157 209.686C120.137 209.68 120.12 209.667 120.108 209.65C120.096 209.633 120.09 209.612 120.09 209.591L120.109 208.727C118.536 207.287 118.408 210.323 118.408 210.323L116.967 211.991L114.925 211.585V210.774L114.567 207.792C114.661 207.013 115.057 206.302 115.67 205.812C116.283 205.323 117.065 205.094 117.845 205.177L120.894 205.495C122.835 206.266 120.921 207.761 120.921 207.761Z" fill="#002868"/>
<path d="M119.699 225.939L118.603 221.014L118.652 219.461L117.922 222.022L119.675 226.97L119.699 225.939Z" fill="#002152"/>
<path d="M115.439 244.338C115.439 244.338 112.884 241.686 112.431 239.574L108.381 239.48L108.33 239.977L111.926 240.067C111.926 240.067 112.703 242.507 115.439 244.338Z" fill="#002152"/>
<path d="M121.826 239.796L114.925 239.635L121.814 240.293L121.826 239.796Z" fill="#002152"/>
<path d="M118.31 214.647L113.968 213.656L114.282 213.045L118.31 214.647Z" fill="#002152"/>
<path d="M119.239 209.975L119.571 209.144L119.082 209.135L119.239 209.975Z" fill="url(#paint16_linear_1616_565)"/>
<path d="M114.925 239.635L114.418 234.834L114.308 239.621L114.925 239.635Z" fill="#002152"/>
<path d="M111.315 215.896L109.656 220.235L112.916 227.322L110.396 220.253L111.315 215.896Z" fill="#002152"/>
<path d="M124.441 236.326L123.618 236.309L123.589 237.582L123.066 236.934L122.235 237.411L123.181 239.828L124.272 239.854L124.441 236.326Z" fill="#002152"/>
<path d="M71.6523 234.562L73.6291 250.033C73.6291 250.033 69.3261 252.476 70.9552 274.235H72.1106L76.8369 248.171L78.7495 240.971C78.7495 240.971 76.4213 230.957 71.6523 234.562Z" fill="url(#paint17_linear_1616_565)"/>
<path d="M72.7031 234.562L77.9459 251.777C77.9459 251.777 74.107 255.271 81.3187 274.225H82.1343L80.6217 251.427L82.3692 235.958L72.7031 234.562Z" fill="url(#paint18_linear_1616_565)"/>
<path d="M72.1031 273.589L73.0837 274.461L74.5536 274.554C74.5536 274.554 74.5769 275.461 73.8565 275.414C73.1361 275.368 71.1983 274.935 71.1983 274.935L70.1982 274.781L70.6235 274.098L70.9012 273.516L72.1031 273.589Z" fill="#00245C"/>
<path d="M82.23 273.686L83.3814 274.317L84.8358 274.078C84.8358 274.078 85.0611 274.955 84.3484 275.072C83.6358 275.188 81.6494 275.2 81.6494 275.2L80.6396 275.274L80.9018 274.513L81.0416 273.88L82.23 273.686Z" fill="#00245C"/>
<path d="M81.3596 206.262L81.5538 208.248L79.8877 208.013L79.0625 205.072C79.0625 205.072 80.346 204.204 81.3596 206.262Z" fill="#002152"/>
<path d="M78.4724 200.672L80.8996 202.503L82.4938 203.335L81.9618 204.362C81.9618 204.362 83.655 207.049 80.7812 206.613L80.4918 207.814L80.1714 209.791L77.684 209.73L76.0918 208.302L77.9151 207.628C77.9151 207.628 77.3734 202.126 78.4724 200.672Z" fill="#EDF6FB"/>
<path d="M80.7813 206.612L79.5114 206.491L77.5968 203.439C77.5968 203.439 76.657 203.907 78.057 205.781L77.9152 207.627L77.4919 207.94L78.7424 208.134L80.4687 207.94L80.7813 206.612Z" fill="url(#paint19_linear_1616_565)"/>
<path d="M80.7832 202.402L80.2783 202.758L80.5735 202.831C80.5735 202.831 81.0531 202.659 80.7832 202.402Z" fill="#5B628C"/>
<path d="M77.6696 199.557C77.6696 199.557 81.025 199.446 79.9415 201.78L77.5958 203.44L76.59 202.081C76.59 202.081 76.5512 199.146 77.6696 199.557Z" fill="#002868"/>
<path d="M78.5092 199.835C78.5092 199.835 73.6315 196.274 73.6897 204.867L73.4043 207.734L79.1966 208.09C79.1966 208.09 77.3189 203.624 78.2704 202.962L78.5092 199.835Z" fill="#002868"/>
<path d="M78.0527 199.561C78.0527 199.561 76.7575 201.712 78.2236 205.213L79.4527 208.195L73.4041 207.735C73.4041 207.735 72.2779 196.579 78.0527 199.561Z" fill="#002152"/>
<path d="M81.659 212.93L85.9619 218.067L84.3852 211.513L85.4978 210.719L88.9872 222.235L81.624 219.575L81.659 212.93Z" fill="#00255D"/>
<path d="M76.1983 208.512L73.7556 211.364C72.9012 212.02 72.4857 215.423 72.709 216.477L73.7556 224.437L70.0332 235.951H82.3654L83.179 213.156L80.1537 209.783L76.1983 208.512Z" fill="#002A69"/>
<path d="M85.4508 211.586C85.4508 211.586 86.447 207.728 85.1499 207.919C83.8528 208.109 82.111 207.066 83.7809 209.326L84.3848 211.512L85.4508 211.586Z" fill="#EDF6FB"/>
<path d="M79.2754 210.803L78.9492 213.612L82.2871 222.696L84.4134 236.724L86.0173 235.948L84.3784 222.552L83.1221 212.276C83.1221 212.276 82.425 209.055 79.2754 210.803Z" fill="#002A69"/>
<path d="M82.7415 225.168L78.9492 213.613L82.6366 228.051L82.7415 225.168Z" fill="#00245C"/>
<path d="M72.6992 235.958L73.7478 224.443L70.0254 235.958L71.072 235.841L71.8856 231.421L71.8312 235.958H72.6992Z" fill="#00245C"/>
<path d="M84.4143 236.722L86.0182 235.948L85.9386 233.777H84.6823L85.1677 235.35L83.991 234.562L83.6201 235.29L84.4143 236.722Z" fill="url(#paint20_linear_1616_565)"/>
<path d="M84.3844 211.513L85.5825 211.004L86.0971 212.705L84.965 213.223V211.971L84.4485 213.223L83.9902 212.705L84.3844 211.513Z" fill="url(#paint21_linear_1616_565)"/>
<path d="M76.1905 208.51L75.1943 209.275L80.6157 210.313V209.413L76.1905 208.51Z" fill="#002A69"/>
<path d="M82.3558 229.641L77.9053 229.451L78.2276 231.127H82.3558V229.641Z" fill="#002152"/>
<path d="M71.0696 235.842C71.0696 235.842 70.1123 239.661 70.5861 241.569C71.0599 243.477 70.4541 253.456 70.4541 253.456L80.7804 254.002L82.3552 235.958L71.0696 235.842Z" fill="#002152"/>
<path d="M85.5958 235.39L86.4074 237.621C86.4074 237.621 85.1492 239.97 83.2695 237.496L84.3938 237.37L84.456 235.291L85.5958 235.39Z" fill="#EDF6FB"/>
<path d="M89.4019 246.472L79.996 245.308C79.8759 245.292 79.7667 245.231 79.6921 245.135C79.6175 245.04 79.5837 244.919 79.5979 244.799L80.3339 238.831C80.3508 238.713 80.4133 238.606 80.508 238.534C80.6028 238.461 80.7222 238.428 80.8407 238.443L90.2466 239.608C90.3665 239.622 90.4758 239.684 90.5504 239.779C90.625 239.874 90.6589 239.994 90.6447 240.114L89.9165 246.084C89.9084 246.143 89.8886 246.201 89.8583 246.252C89.828 246.304 89.7878 246.349 89.74 246.385C89.6922 246.421 89.6377 246.448 89.5797 246.463C89.5216 246.478 89.4612 246.481 89.4019 246.472Z" fill="#04306D"/>
<path d="M85.0333 243.248L90.2916 242.547L84.9304 244.09L80.041 241.285L85.0333 243.248Z" fill="#375394"/>
<path d="M84.1287 242.898L83.9951 243.982L85.8067 244.205L85.9403 243.121L84.1287 242.898Z" fill="url(#paint22_linear_1616_565)"/>
<path d="M87.2376 241.009L83.6201 240.564L83.9095 238.213C83.9512 237.878 84.1242 237.573 84.3906 237.365C84.6571 237.156 84.9952 237.062 85.3308 237.103L86.4163 237.237C86.7518 237.279 87.0571 237.452 87.2653 237.718C87.4735 237.984 87.5676 238.322 87.527 238.658L87.2376 241.009ZM84.026 240.248L86.9192 240.603L87.1638 238.613C87.1929 238.374 87.1259 238.132 86.9774 237.942C86.829 237.752 86.6111 237.628 86.3716 237.598L85.2862 237.464C85.0463 237.436 84.8049 237.503 84.6147 237.652C84.4244 237.801 84.3007 238.019 84.2706 238.258L84.026 240.248Z" fill="#04306D"/>
<path d="M84.1958 238.861C84.1958 238.861 81.6211 237.094 85.1395 236.686C85.9531 236.591 87.124 239 84.1958 238.861Z" fill="white"/>
<path d="M386.136 235.969C386.136 235.969 387.734 236.188 386.361 251.729C386.361 251.729 389.957 253.628 385.778 273.566L384.751 273.529L383.602 252.271L378.103 235.676L386.136 235.969Z" fill="url(#paint23_linear_1616_565)"/>
<path d="M378.579 236.014C378.579 236.014 377.266 241.108 377.983 252.224L379.46 273.335L380.136 274.333C380.136 274.347 383.39 260.143 381.223 252.504L382.089 247.685L378.579 236.014Z" fill="url(#paint24_linear_1616_565)"/>
<path d="M384.759 273.527L382.067 275.376L384.687 275.471L384.722 274.5L386.256 275.529L385.786 273.566L384.759 273.527Z" fill="#002152"/>
<path d="M379.319 273.33L376.628 275.176L379.247 275.271L379.284 274.301L380.816 275.33L380.346 273.367L379.319 273.33Z" fill="#002152"/>
<path d="M381.114 195.184L378.65 196.964L377.038 197.764L377.549 198.8C377.549 198.8 375.801 201.45 378.681 201.076L378.945 202.283L379.223 204.265H381.71L383.333 202.87L381.524 202.157C381.524 202.157 382.182 196.663 381.114 195.184Z" fill="#EDF6FB"/>
<path d="M378.682 201.075L379.954 200.982L381.932 197.971C381.932 197.971 382.862 198.458 381.423 200.3L381.524 202.149L381.942 202.471L380.687 202.644L378.965 202.415L378.682 201.075Z" fill="url(#paint25_linear_1616_565)"/>
<path d="M378.769 196.867L379.264 197.23L378.969 197.3C378.969 197.3 378.497 197.118 378.769 196.867Z" fill="#5B628C"/>
<path d="M381.939 194.086C381.939 194.086 378.587 193.907 379.622 196.26L381.931 197.971L382.966 196.635C382.966 196.635 383.065 193.699 381.939 194.086Z" fill="#002868"/>
<path d="M377.671 207.371L373.259 212.417L374.974 205.897L373.88 205.082L370.148 216.519L377.566 214.016L377.671 207.371Z" fill="#00255D"/>
<path d="M383.231 203.068L385.614 205.98C386.456 206.654 386.798 210.057 386.551 211.115L385.338 219.06L388.816 230.65L376.487 230.39L376.155 207.58L379.25 204.28L383.231 203.068Z" fill="#002A69"/>
<path d="M373.907 205.949C373.907 205.949 372.994 202.066 374.295 202.292C375.596 202.517 377.352 201.501 375.635 203.726L374.985 205.901L373.907 205.949Z" fill="#EDF6FB"/>
<path d="M380.096 205.297L380.362 208.112L376.834 217.124L374.411 231.102L372.824 230.293L374.745 216.94L376.218 206.693C376.218 206.693 376.978 203.484 380.096 205.297Z" fill="#002A69"/>
<path d="M376.329 219.585L380.364 208.113L376.372 222.47L376.329 219.585Z" fill="#00245C"/>
<path d="M386.141 230.587L385.337 219.051L388.815 230.643L387.77 230.503L387.05 226.067L387.009 230.604L386.141 230.587Z" fill="#00245C"/>
<path d="M374.414 231.103L372.827 230.295L372.953 228.127L374.208 228.154L373.689 229.715L374.883 228.952L375.239 229.686L374.414 231.103Z" fill="url(#paint26_linear_1616_565)"/>
<path d="M374.973 205.897L373.787 205.363L373.235 207.052L374.358 207.596L374.385 206.344L374.874 207.608L375.344 207.097L374.973 205.897Z" fill="url(#paint27_linear_1616_565)"/>
<path d="M383.232 203.068L384.21 203.853L378.768 204.777L378.787 203.876L383.232 203.068Z" fill="#002A69"/>
<path d="M376.62 224.066L381.074 223.971L380.715 225.638L376.589 225.551L376.62 224.066Z" fill="#002152"/>
<path d="M387.77 230.505C387.77 230.505 388.648 234.341 388.133 236.24C387.618 238.139 388.013 248.127 388.013 248.127L377.679 248.455L376.486 230.383L387.77 230.505Z" fill="#002152"/>
<path d="M373.258 229.744L372.399 231.957C372.399 231.957 373.607 234.331 375.539 231.899L374.417 231.749L374.399 229.67L373.258 229.744Z" fill="#EDF6FB"/>
<path d="M369.211 240.752L378.64 239.793C378.76 239.78 378.87 239.72 378.946 239.627C379.022 239.533 379.058 239.414 379.046 239.294L378.438 233.31C378.426 233.191 378.366 233.081 378.272 233.005C378.179 232.929 378.059 232.893 377.939 232.905L368.51 233.864C368.45 233.869 368.393 233.887 368.34 233.915C368.287 233.944 368.241 233.982 368.203 234.028C368.165 234.075 368.137 234.128 368.12 234.186C368.103 234.243 368.098 234.303 368.104 234.363L368.712 240.344C368.724 240.464 368.784 240.575 368.877 240.651C368.971 240.727 369.091 240.764 369.211 240.752Z" fill="#04306D"/>
<path d="M373.656 237.612L368.413 236.802L373.741 238.458L378.687 235.756L373.656 237.612Z" fill="#375394"/>
<path d="M374.581 237.255L372.766 237.439L372.876 238.527L374.692 238.342L374.581 237.255Z" fill="url(#paint28_linear_1616_565)"/>
<path d="M371.259 232.972C371.226 232.636 371.327 232.3 371.54 232.038C371.754 231.776 372.063 231.609 372.399 231.574L373.486 231.464C373.823 231.429 374.159 231.53 374.422 231.744C374.684 231.958 374.85 232.267 374.885 232.603L375.125 234.96L371.498 235.329L371.259 232.972ZM374.523 232.64C374.498 232.4 374.378 232.18 374.191 232.027C374.004 231.875 373.764 231.803 373.523 231.827L372.436 231.937C372.196 231.962 371.976 232.081 371.823 232.268C371.671 232.455 371.598 232.695 371.622 232.935L371.817 234.929L374.718 234.634L374.523 232.64Z" fill="#04306D"/>
<path d="M374.584 233.244C374.584 233.244 377.196 231.534 373.687 231.05C372.875 230.942 371.654 233.322 374.584 233.244Z" fill="white"/>
<path d="M381.422 200.303C381.422 200.303 384.221 200.87 385.337 196.867C386.454 192.864 383.424 190.804 381.195 194.052L381.422 200.303Z" fill="#002868"/>
<path d="M380.456 199.725L381.526 202.151H379.93L380.456 199.725Z" fill="#002152"/>
<path d="M383.589 199.724C383.589 199.724 391.046 196.035 385.337 192.448C381.523 190.044 383.545 198.738 383.589 199.724Z" fill="#002152"/>
<defs>
<linearGradient id="paint0_linear_1616_565" x1="348.966" y1="210.302" x2="347.136" y2="207.049" gradientUnits="userSpaceOnUse">
<stop stop-color="white"/>
<stop offset="1" stop-color="#AAD0FF"/>
</linearGradient>
<linearGradient id="paint1_linear_1616_565" x1="1280.5" y1="1202.16" x2="1281.72" y2="1202.16" gradientUnits="userSpaceOnUse">
<stop stop-color="white"/>
<stop offset="1" stop-color="#AAD0FF"/>
</linearGradient>
<linearGradient id="paint2_linear_1616_565" x1="-9270.69" y1="2258.37" x2="-9286.94" y2="2197.32" gradientUnits="userSpaceOnUse">
<stop stop-color="white"/>
<stop offset="1" stop-color="#AAD0FF"/>
</linearGradient>
<linearGradient id="paint3_linear_1616_565" x1="-616.154" y1="903.468" x2="-616.934" y2="903.325" gradientUnits="userSpaceOnUse">
<stop stop-color="white"/>
<stop offset="1" stop-color="#AAD0FF"/>
</linearGradient>
<linearGradient id="paint4_linear_1616_565" x1="7531.44" y1="4044.3" x2="7748.18" y2="4049.29" gradientUnits="userSpaceOnUse">
<stop stop-color="white"/>
<stop offset="1" stop-color="#AAD0FF"/>
</linearGradient>
<linearGradient id="paint5_linear_1616_565" x1="4744.6" y1="4417.9" x2="4828.07" y2="4419.82" gradientUnits="userSpaceOnUse">
<stop stop-color="white"/>
<stop offset="1" stop-color="#AAD0FF"/>
</linearGradient>
<linearGradient id="paint6_linear_1616_565" x1="2233.38" y1="3452.37" x2="2257.92" y2="3452.94" gradientUnits="userSpaceOnUse">
<stop stop-color="white"/>
<stop offset="1" stop-color="#AAD0FF"/>
</linearGradient>
<linearGradient id="paint7_linear_1616_565" x1="2285.31" y1="4492.66" x2="2318.19" y2="4493.42" gradientUnits="userSpaceOnUse">
<stop stop-color="white"/>
<stop offset="1" stop-color="#AAD0FF"/>
</linearGradient>
<linearGradient id="paint8_linear_1616_565" x1="7028.37" y1="4646.81" x2="7319.33" y2="4653.52" gradientUnits="userSpaceOnUse">
<stop stop-color="white"/>
<stop offset="1" stop-color="#AAD0FF"/>
</linearGradient>
<linearGradient id="paint9_linear_1616_565" x1="4419.03" y1="5102.98" x2="4531.12" y2="5105.56" gradientUnits="userSpaceOnUse">
<stop stop-color="white"/>
<stop offset="1" stop-color="#AAD0FF"/>
</linearGradient>
<linearGradient id="paint10_linear_1616_565" x1="13243.9" y1="13817" x2="13600.6" y2="13840.3" gradientUnits="userSpaceOnUse">
<stop stop-color="white"/>
<stop offset="1" stop-color="#AAD0FF"/>
</linearGradient>
<linearGradient id="paint11_linear_1616_565" x1="7197.53" y1="6150.99" x2="7218.57" y2="6253.35" gradientUnits="userSpaceOnUse">
<stop stop-color="white"/>
<stop offset="1" stop-color="#AAD0FF"/>
</linearGradient>
<linearGradient id="paint12_linear_1616_565" x1="-1690.27" y1="2021.58" x2="-1705.66" y2="2022.46" gradientUnits="userSpaceOnUse">
<stop stop-color="white"/>
<stop offset="1" stop-color="#AAD0FF"/>
</linearGradient>
<linearGradient id="paint13_linear_1616_565" x1="3903.08" y1="4315.86" x2="3930.08" y2="4317.62" gradientUnits="userSpaceOnUse">
<stop stop-color="white"/>
<stop offset="1" stop-color="#AAD0FF"/>
</linearGradient>
<linearGradient id="paint14_linear_1616_565" x1="3450.99" y1="3065.09" x2="3471.47" y2="3066.42" gradientUnits="userSpaceOnUse">
<stop stop-color="white"/>
<stop offset="1" stop-color="#AAD0FF"/>
</linearGradient>
<linearGradient id="paint15_linear_1616_565" x1="11100.3" y1="4758.8" x2="11137.5" y2="4682.28" gradientUnits="userSpaceOnUse">
<stop stop-color="white"/>
<stop offset="1" stop-color="#AAD0FF"/>
</linearGradient>
<linearGradient id="paint16_linear_1616_565" x1="984.73" y1="1235.13" x2="985.963" y2="1235.16" gradientUnits="userSpaceOnUse">
<stop stop-color="white"/>
<stop offset="1" stop-color="#AAD0FF"/>
</linearGradient>
<linearGradient id="paint17_linear_1616_565" x1="4158" y1="60062.5" x2="10006.6" y2="55486.7" gradientUnits="userSpaceOnUse">
<stop stop-color="white"/>
<stop offset="1" stop-color="#AAD0FF"/>
</linearGradient>
<linearGradient id="paint18_linear_1616_565" x1="5385.49" y1="59681.9" x2="4235.05" y2="56124.5" gradientUnits="userSpaceOnUse">
<stop stop-color="white"/>
<stop offset="1" stop-color="#AAD0FF"/>
</linearGradient>
<linearGradient id="paint19_linear_1616_565" x1="-1964.16" y1="9145.73" x2="-1933.09" y2="9081.07" gradientUnits="userSpaceOnUse">
<stop stop-color="white"/>
<stop offset="1" stop-color="#AAD0FF"/>
</linearGradient>
<linearGradient id="paint20_linear_1616_565" x1="-7260.35" y1="4180.67" x2="-7289.97" y2="4180.67" gradientUnits="userSpaceOnUse">
<stop stop-color="white"/>
<stop offset="1" stop-color="#AAD0FF"/>
</linearGradient>
<linearGradient id="paint21_linear_1616_565" x1="-6300.04" y1="2913.83" x2="-6322.9" y2="2913.83" gradientUnits="userSpaceOnUse">
<stop stop-color="white"/>
<stop offset="1" stop-color="#AAD0FF"/>
</linearGradient>
<linearGradient id="paint22_linear_1616_565" x1="-608.817" y1="3481.65" x2="-598.618" y2="3482.91" gradientUnits="userSpaceOnUse">
<stop stop-color="white"/>
<stop offset="1" stop-color="#AAD0FF"/>
</linearGradient>
<linearGradient id="paint23_linear_1616_565" x1="-12452.4" y1="57841.9" x2="-12042.6" y2="53764.4" gradientUnits="userSpaceOnUse">
<stop stop-color="white"/>
<stop offset="1" stop-color="#AAD0FF"/>
</linearGradient>
<linearGradient id="paint24_linear_1616_565" x1="-6838.47" y1="58216" x2="-3733.59" y2="56405.8" gradientUnits="userSpaceOnUse">
<stop stop-color="white"/>
<stop offset="1" stop-color="#AAD0FF"/>
</linearGradient>
<linearGradient id="paint25_linear_1616_565" x1="4441.53" y1="9195.59" x2="4411.17" y2="9129.54" gradientUnits="userSpaceOnUse">
<stop stop-color="white"/>
<stop offset="1" stop-color="#AAD0FF"/>
</linearGradient>
<linearGradient id="paint26_linear_1616_565" x1="8977.08" y1="4257.04" x2="9006.85" y2="4257.67" gradientUnits="userSpaceOnUse">
<stop stop-color="white"/>
<stop offset="1" stop-color="#AAD0FF"/>
</linearGradient>
<linearGradient id="paint27_linear_1616_565" x1="7867.33" y1="2991.6" x2="7890.23" y2="2992.08" gradientUnits="userSpaceOnUse">
<stop stop-color="white"/>
<stop offset="1" stop-color="#AAD0FF"/>
</linearGradient>
<linearGradient id="paint28_linear_1616_565" x1="1643.49" y1="2058.01" x2="1626.43" y2="2059.75" gradientUnits="userSpaceOnUse">
<stop stop-color="white"/>
<stop offset="1" stop-color="#AAD0FF"/>
</linearGradient>
</defs>
</svg>
