<svg width="22" height="22" viewBox="0 0 22 22" fill="none" xmlns="http://www.w3.org/2000/svg">
<path d="M16.7143 1H5.28571C2.91878 1 1 2.91878 1 5.28571V16.7143C1 19.0812 2.91878 21 5.28571 21H16.7143C19.0812 21 21 19.0812 21 16.7143V5.28571C21 2.91878 19.0812 1 16.7143 1Z" stroke="white" stroke-width="1.2" stroke-miterlimit="10"/>
<path d="M10.9968 15.7351C13.6123 15.7351 15.7325 13.6148 15.7325 10.9994C15.7325 8.38392 13.6123 6.26367 10.9968 6.26367C8.38136 6.26367 6.26111 8.38392 6.26111 10.9994C6.26111 13.6148 8.38136 15.7351 10.9968 15.7351Z" stroke="white" stroke-width="1.2" stroke-miterlimit="10"/>
<path d="M16.9319 6.43136C17.5828 6.43136 18.1104 5.9037 18.1104 5.25279C18.1104 4.60188 17.5828 4.07422 16.9319 4.07422C16.281 4.07422 15.7533 4.60188 15.7533 5.25279C15.7533 5.9037 16.281 6.43136 16.9319 6.43136Z" stroke="white" stroke-width="1.2" stroke-miterlimit="10"/>
</svg>
