<svg width="22" height="25" viewBox="0 0 22 25" fill="none" xmlns="http://www.w3.org/2000/svg">
<path d="M10.7142 0.000101984C8.34619 0.000101984 6.07518 0.940813 4.401 2.6153C2.72652 4.28957 1.78581 6.56059 1.78581 8.92853C1.78581 15.5805 9.87506 21.0448 10.2235 21.2764C10.3692 21.3725 10.54 21.4237 10.7146 21.4237C10.8892 21.4237 11.06 21.3725 11.2057 21.2764C11.5538 21.0445 19.6434 15.58 19.6434 8.92853C19.6434 7.36125 19.2308 5.82151 18.4472 4.46427C17.6636 3.10703 16.5364 1.97984 15.1791 1.19617C13.8219 0.412549 12.2821 0 10.7149 0L10.7142 0.000101984ZM10.7142 13.3929C9.53022 13.3929 8.39481 12.9226 7.55757 12.0853C6.72033 11.2481 6.24997 10.1127 6.24997 8.92864C6.24997 7.74461 6.72032 6.60921 7.55757 5.77197C8.39482 4.93472 9.53022 4.46437 10.7142 4.46437C11.8983 4.46437 13.0337 4.93471 13.8709 5.77197C14.7082 6.60922 15.1785 7.74461 15.1785 8.92864C15.1785 10.1127 14.7082 11.2481 13.8709 12.0853C13.0337 12.9225 11.8983 13.3929 10.7142 13.3929ZM21.4285 20.5357C21.4285 23.4642 16.0714 25 10.7142 25C5.35712 25 0 23.4642 0 20.5357C0 19.0892 1.3126 17.9821 3.2856 17.2322C3.67542 17.7597 4.09253 18.2664 4.53559 18.75C2.79453 19.2501 1.78571 19.9733 1.78571 20.5357C1.78571 21.5982 5.35712 23.2143 10.7142 23.2143C16.0714 23.2143 19.6428 21.5982 19.6428 20.5357C19.6428 19.9733 18.634 19.2501 16.8929 18.7054C17.3214 18.25 17.7411 17.7589 18.1429 17.2412C20.1159 17.9821 21.4285 19.0893 21.4285 20.5357Z" fill="#280DA7"/>
</svg>
