<svg width="60" height="60" viewBox="0 0 60 60" fill="none" xmlns="http://www.w3.org/2000/svg">
<path d="M38.3961 9.23816V8.42578H31.5859V9.23816H33.6409C34.5525 9.23816 35.3318 9.71325 35.6341 10.3821H31.5874V11.1945H35.7575C35.6417 12.0786 34.739 12.7661 33.6409 12.7661H31.5859V13.5785H33.0181L36.1291 17.3204H37.477L34.3675 13.5785H38.3946V12.7661H36.3562C36.7714 12.3269 37.0362 11.7858 37.0843 11.1945H38.3961V10.3821H37.0106C36.8978 9.95725 36.6706 9.56828 36.3562 9.23816H38.3961Z" fill="white"/>
<path d="M33.6983 0.0332146C33.6044 0.0566216 33.123 0.138544 32.6416 0.208765C29.6122 0.700306 26.6064 2.56114 24.6455 5.15929C23.7414 6.35304 22.8608 8.15536 22.4616 9.62999C22.1798 10.6833 22.1445 10.9993 22.1445 12.8484C22.1445 14.6976 22.1798 15.0135 22.4616 16.0668C23.4244 19.6598 25.9254 22.7261 29.2365 24.3997C30.2228 24.9029 31.8666 25.4296 33.0173 25.6051C34.3324 25.8158 36.9038 25.6987 38.1602 25.371C40.4146 24.7742 42.2228 23.7677 43.9371 22.1175C45.6631 20.4673 46.896 18.3724 47.5183 16.0668C47.8001 15.0135 47.8353 14.6976 47.8353 12.8484C47.8353 11.011 47.8001 10.6833 47.5183 9.6651C46.2385 4.89012 42.4576 1.28548 37.6436 0.255579C36.8803 0.0917301 34.1093 -0.0721169 33.6983 0.0332146ZM37.6318 2.66647C42.1289 3.82511 45.2991 7.73404 45.5222 12.3803C45.8862 20.0109 38.2893 25.4296 31.0917 22.6676C27.8862 21.427 25.35 18.4309 24.6455 15.0135C23.4479 9.24377 27.2522 3.59104 33.076 2.49092C34.3089 2.25686 36.3872 2.33878 37.6318 2.66647Z" fill="white"/>
<path d="M54 25.1136C53.0841 25.4179 52.4853 25.8627 51.135 27.2671C50.4892 27.9225 48.8337 29.6194 47.4599 31.0239L44.9589 33.5869L44.4305 33.0954C43.7495 32.4634 42.8102 32.042 41.8239 31.9133C41.3894 31.8665 38.137 31.8197 34.591 31.808H28.1448L27.0528 31.4569C25.3973 30.9302 24.1174 30.743 22.1918 30.743C18.8806 30.743 16.2153 31.5037 13.6438 33.1656C12.3288 34.0199 10.5558 35.7871 9.71037 37.0862L9.05284 38.0927L8.23092 38.1512C6.83366 38.2565 6.61057 38.4204 3.14677 41.8729L0 44.9977V45.5478V46.1095L6.76321 52.9209C10.4853 56.6543 13.6438 59.7791 13.7847 59.861C14.1135 60.0482 14.501 60.0482 14.8885 59.8493C15.0646 59.7557 16.6145 58.2693 18.3288 56.5372C21.8982 52.956 21.8982 52.9443 21.8278 51.259L21.7808 50.3578L22.6732 49.5386C24.0939 48.2161 23.3542 48.3098 32.9941 48.3098C38.0783 48.3098 41.6595 48.2629 42.2583 48.1927C44.2309 47.9352 46.2387 47.0809 47.7534 45.8286C48.6223 45.1147 59.3777 32.2527 59.7182 31.5154C59.9648 31.0122 60 30.743 60 29.5843C60 28.3438 59.9765 28.1799 59.6712 27.5362C59.2133 26.5883 58.4149 25.7924 57.4403 25.336C56.4305 24.8679 55.0333 24.7742 54 25.1136ZM56.5245 27.5128C57.2877 27.9459 57.6869 28.5427 57.7456 29.3269C57.7808 29.7716 57.7339 30.1461 57.6164 30.427C57.3933 30.9536 47.4951 42.8092 46.4384 43.8157C45.5812 44.6349 44.4892 45.2435 43.2094 45.6297C42.3405 45.8989 42.2583 45.8989 33.1703 45.9691C26.8297 46.0159 23.8943 46.0744 23.636 46.168C22.8258 46.4489 21.8395 47.0692 21.0528 47.7831L20.2309 48.5321L15.6399 43.9444L11.0372 39.3567L11.6008 38.4789C13.8552 34.9913 17.589 33.0836 22.1683 33.0836C23.9648 33.0836 25.092 33.2592 26.4892 33.7624L27.4168 34.0901L34.638 34.1487C41.8356 34.2072 41.8591 34.2072 42.3522 34.4646C44.0431 35.3658 44.0431 37.7299 42.3522 38.6311C41.8708 38.8885 41.7769 38.8885 36.4814 38.947L31.092 39.0056L30.8102 39.3333C30.411 39.8014 30.4344 40.3632 30.8689 40.843L31.2094 41.2292L36.1057 41.2643C41.3425 41.2994 42.2583 41.2409 43.2564 40.7845C44.8885 40.0355 46.1566 37.9874 46.0157 36.3255C45.9804 35.9393 46.1683 35.7169 49.9374 31.8431C52.274 29.4556 54.1057 27.665 54.3875 27.5011C55.0333 27.15 55.9022 27.15 56.5245 27.5128ZM14.2309 45.8169L19.4912 51.06V51.5867V52.1133L16.9785 54.5945C15.593 55.9638 14.4188 57.0873 14.3601 57.0873C14.3131 57.0873 11.6712 54.5008 8.51272 51.3526L2.7593 45.618L5.36595 43.0198L7.9726 40.4334L8.46575 40.5036C8.94716 40.5621 9.21722 40.8196 14.2309 45.8169Z" fill="white"/>
<path d="M26.1707 38.8889C25.5484 39.2283 25.4545 40.1178 25.9711 40.6678C26.476 41.2062 27.4388 41.1009 27.7676 40.4572C28.3429 39.3454 27.2627 38.2921 26.1707 38.8889Z" fill="white"/>
</svg>
