<svg width="5" height="25" viewBox="0 0 5 25" fill="none" xmlns="http://www.w3.org/2000/svg">
<path d="M0 2.5C0 3.88071 1.11929 5 2.5 5C3.88071 5 5 3.88071 5 2.5C5 1.11929 3.88071 0 2.5 0C1.11929 0 0 1.11929 0 2.5Z" fill="#6A4EEE"/>
<path d="M0 12.0996C0 13.4803 1.11929 14.5996 2.5 14.5996C3.88071 14.5996 5 13.4803 5 12.0996C5 10.7189 3.88071 9.59961 2.5 9.59961C1.11929 9.59961 0 10.7189 0 12.0996Z" fill="#6A4EEE"/>
<path d="M0 21.6992C0 23.0799 1.11929 24.1992 2.5 24.1992C3.88071 24.1992 5 23.0799 5 21.6992C5 20.3185 3.88071 19.1992 2.5 19.1992C1.11929 19.1992 0 20.3185 0 21.6992Z" fill="#6A4EEE"/>
</svg>
