<svg width="25" height="25" viewBox="0 0 25 25" fill="none" xmlns="http://www.w3.org/2000/svg">
<path d="M25 19.2055V22.3214C25 23.0319 24.7178 23.7131 24.2156 24.2155C23.7132 24.7177 23.032 24.9999 22.3215 24.9999H20.5358C17.8382 25.0079 15.1655 24.4801 12.6733 23.447C10.1811 22.4141 7.91908 20.8964 6.0178 18.9822C4.10356 17.0811 2.58594 14.8191 1.55301 12.3267C0.519872 9.83456 -0.00787029 7.16208 8.86984e-05 4.46418V2.67851C8.86984e-05 1.96802 0.282286 1.28686 0.784509 0.784422C1.28693 0.2822 1.9681 2.50188e-06 2.6786 2.50188e-06H5.79454C6.37789 -0.000794673 6.94564 0.188932 7.41139 0.540092C7.87714 0.891445 8.21535 1.38528 8.37478 1.94628L9.49981 5.88374C9.63214 6.34331 9.63912 6.82999 9.51974 7.29335C9.40036 7.7565 9.15921 8.17919 8.82123 8.5176L6.68741 10.6514C8.22079 14.0542 10.9453 16.7788 14.3479 18.312L16.4818 16.1781C16.8202 15.8401 17.2429 15.599 17.706 15.4796C18.1694 15.3603 18.656 15.3672 19.1156 15.4996L23.0531 16.6246C23.6141 16.784 24.108 17.1222 24.4593 17.588C24.8104 18.0537 25.0002 18.6215 24.9994 19.2048L25 19.2055Z" fill="#280DA7"/>
</svg>
