<svg width="16" height="12" viewBox="0 0 16 12" fill="none" xmlns="http://www.w3.org/2000/svg">
<path d="M1.00005 5.91688C1.00005 5.60579 1.25207 5.35434 1.56259 5.35434L13.6628 5.35434L10.2161 1.78615C10.1104 1.67758 10.0581 1.53638 10.0581 1.39574C10.0581 1.24836 10.1154 1.10153 10.2296 0.991277C10.453 0.775261 10.8091 0.78145 11.0251 1.00478L15.3853 5.51804C15.3859 5.5186 15.3859 5.5186 15.3864 5.51916L15.3932 5.52647C15.4129 5.54673 15.4213 5.57204 15.4371 5.59398C15.463 5.62998 15.4916 5.66317 15.5085 5.70424C15.535 5.76837 15.5473 5.83643 15.549 5.90506C15.549 5.909 15.5513 5.91294 15.5513 5.91688C15.5513 5.92081 15.549 5.92475 15.549 5.92869C15.5473 5.99732 15.535 6.06482 15.5085 6.12952C15.4916 6.17058 15.463 6.20377 15.4376 6.23977C15.4213 6.26171 15.4129 6.28703 15.3932 6.30728L15.387 6.31403C15.3864 6.31459 15.3864 6.31459 15.3859 6.31516L11.0256 10.8284C10.8096 11.0517 10.4535 11.0579 10.2302 10.8419C10.0069 10.627 10.0001 10.2692 10.2167 10.047L13.6634 6.47885L1.56315 6.47885C1.25207 6.47942 1.00005 6.22796 1.00005 5.91688Z" fill="#6A4EEE" stroke="#6A4EEE" stroke-width="0.4"/>
</svg>
