<svg width="16" height="12" viewBox="0 0 16 12" fill="none" xmlns="http://www.w3.org/2000/svg">
<path d="M0.99956 6.08485C0.99956 5.77376 1.25158 5.52231 1.5621 5.52231L13.6623 5.52231L10.2157 1.95411C10.1099 1.84554 10.0576 1.70435 10.0576 1.56371C10.0576 1.41633 10.115 1.2695 10.2292 1.15925C10.4525 0.94323 10.8086 0.949419 11.0246 1.17275L15.3848 5.686C15.3854 5.68657 15.3854 5.68657 15.386 5.68713L15.3927 5.69444C15.4124 5.71469 15.4208 5.74001 15.4366 5.76195C15.4625 5.79795 15.4912 5.83114 15.508 5.87221C15.5345 5.93633 15.5468 6.0044 15.5485 6.07303C15.5485 6.07697 15.5508 6.08091 15.5508 6.08485C15.5508 6.08878 15.5485 6.09272 15.5485 6.09666C15.5468 6.16529 15.5345 6.23279 15.508 6.29749C15.4912 6.33855 15.4625 6.37174 15.4371 6.40774C15.4208 6.42968 15.4124 6.455 15.3927 6.47525L15.3865 6.482C15.386 6.48256 15.386 6.48256 15.3854 6.48312L11.0251 10.9964C10.8091 11.2197 10.453 11.2259 10.2297 11.0099C10.0064 10.795 9.99964 10.4372 10.2162 10.215L13.6629 6.64682L1.56266 6.64682C1.25158 6.64739 0.99956 6.39593 0.99956 6.08485Z" fill="white" stroke="white" stroke-width="0.4"/>
</svg>
