<svg width="120" height="120" viewBox="0 0 120 120" fill="none" xmlns="http://www.w3.org/2000/svg">
<path d="M88.2557 44.2529C88.2557 68.5551 68.5551 88.2557 44.2529 88.2557C19.9508 88.2557 0.25 68.5551 0.25 44.2529C0.25 19.9508 19.9508 0.25 44.2529 0.25C68.5551 0.25 88.2557 19.9508 88.2557 44.2529Z" fill="#DDDEE1" stroke="#BBBBBB" stroke-width="0.5"/>
<path d="M13.9674 55.4573L13.9675 55.4574C15.5319 59.6977 18.0187 63.6773 21.4236 67.0822C34.0335 79.6922 54.4757 79.6922 67.0854 67.0822C75.4255 58.7423 78.2484 46.9737 75.5527 36.3133L75.5527 36.3131C74.1774 30.8556 71.3529 25.6879 67.0854 21.4204L67.2622 21.2437L67.0854 21.4204C66.0265 20.3613 64.9121 19.391 63.7505 18.5118L63.7502 18.5116C51.0975 8.90143 32.9744 9.87194 21.4236 21.4204C21.4236 21.4204 21.4236 21.4204 21.4236 21.4204M13.9674 55.4573L13.7329 55.544C12.3928 51.9198 11.7217 48.1049 11.7168 44.2901C11.7072 35.9504 14.8823 27.6083 21.2468 21.2437L21.4236 21.4204M13.9674 55.4573C12.6376 51.8611 11.9717 48.0756 11.9668 44.2898C11.9573 36.0138 15.108 27.7363 21.4236 21.4204M13.9674 55.4573L21.4236 21.4204" fill="#F9F9FA" stroke="#BBBBBB" stroke-width="0.5"/>
<path d="M79.4115 79.4105L79.4115 79.4105C82.0938 76.7281 86.8474 76.521 92.4635 78.4966C98.0608 80.4656 104.426 84.5773 110.223 90.3735C116.02 96.1713 118.856 101.262 119.568 105.57C120.278 109.863 118.882 113.406 116.144 116.144C113.407 118.881 109.864 120.277 105.571 119.567C101.263 118.856 96.1723 116.02 90.3746 110.222C84.5784 104.426 80.4666 98.0598 78.4976 92.4626C76.5219 86.8464 76.7291 82.0928 79.4115 79.4105Z" fill="#DDDEE1" stroke="#BBBBBB" stroke-width="0.5"/>
<path d="M65.0143 83.1865L83.1865 65.0143C86.6639 61.5369 92.3017 61.5369 95.7794 65.0143C99.2566 68.4915 99.2566 74.1297 95.7794 77.607L77.6071 95.7792C74.1297 99.2566 68.4917 99.2566 65.0143 95.7792C61.5369 92.302 61.5369 86.6638 65.0143 83.1865L64.8375 83.0098L65.0143 83.1865Z" fill="#DDDEE1" stroke="#BBBBBB" stroke-width="0.5"/>
<line x1="45" y1="23.334" x2="45" y2="63.3342" stroke="black" stroke-width="0.5"/>
<line x1="67.6387" y1="30.125" x2="67.6387" y2="53.5213" stroke="black" stroke-width="0.5"/>
<line x1="33.6777" y1="30.125" x2="33.6777" y2="53.5213" stroke="black" stroke-width="0.5"/>
<line x1="56.3193" y1="43.334" x2="56.3193" y2="59.1831" stroke="black" stroke-width="0.5"/>
<line x1="22.3584" y1="40.3145" x2="22.3584" y2="56.1636" stroke="black" stroke-width="0.5"/>
<rect x="40.9766" y="26.7305" width="7.5472" height="33.2077" fill="#63FA84"/>
<rect x="29.6533" y="32.7676" width="7.5472" height="18.1133" fill="#63FA84"/>
<rect x="63.6172" y="32.7676" width="7.5472" height="18.1133" fill="#63FA84"/>
<rect x="18.334" y="42.957" width="7.5472" height="10.5661" fill="#FA6C63"/>
<rect x="52.2949" y="45.9746" width="7.5472" height="10.5661" fill="#FA6C63"/>
</svg>
