<svg width="20" height="20" viewBox="0 0 20 20" fill="none" xmlns="http://www.w3.org/2000/svg">
<path d="M9.21777 7.16895C9.21777 6.68392 9.48796 6.44141 10.0283 6.44141C10.5687 6.44141 10.8389 6.68392 10.8389 7.16895C10.8389 7.40007 10.7705 7.58073 10.6338 7.71094C10.5003 7.83789 10.2985 7.90137 10.0283 7.90137C9.48796 7.90137 9.21777 7.65723 9.21777 7.16895ZM10.7705 14.0391H9.28125V8.58008H10.7705V14.0391Z" fill="#6A4EEE"/>
<path d="M9.99777 18.3569C14.6133 18.3569 18.3549 14.6152 18.3549 9.99972C18.3549 5.3842 14.6133 1.64258 9.99777 1.64258C5.38225 1.64258 1.64062 5.3842 1.64062 9.99972C1.64062 14.6152 5.38225 18.3569 9.99777 18.3569Z" stroke="#6A4EEE" stroke-width="1.5"/>
</svg>
