<svg width="42" height="42" viewBox="0 0 42 42" fill="none" xmlns="http://www.w3.org/2000/svg">
<path d="M38.5723 11.0231C38.5836 10.9154 38.5243 10.8127 38.4253 10.7687L33.4469 8.55398L31.233 3.57554C31.189 3.47659 31.0863 3.41722 30.9786 3.42847L25.5586 3.99456L21.1467 0.797562C21.0592 0.734141 20.9408 0.734146 20.8533 0.797575L16.4422 3.99456L11.0231 3.42847C10.9154 3.41722 10.8127 3.47657 10.7687 3.57549L8.55397 8.55316L3.57547 10.7687C3.47656 10.8127 3.41722 10.9154 3.42847 11.0231L3.99456 16.4422L0.797575 20.8533C0.734137 20.9408 0.734142 21.0592 0.797588 21.1467L3.99454 25.5569L3.42765 30.9769C3.41639 31.0846 3.47574 31.1873 3.57468 31.2313L8.55313 33.446L10.767 38.4245C10.811 38.5234 10.9137 38.5828 11.0214 38.5715L16.4414 38.0054L20.8533 41.2024C20.9408 41.2659 21.0592 41.2659 21.1467 41.2024L25.5578 38.0054L30.9769 38.5715C31.0846 38.5828 31.1873 38.5234 31.2313 38.4245L33.446 33.4468L38.4245 31.2313C38.5234 31.1873 38.5828 31.0846 38.5715 30.9769L38.0054 25.5578L41.2024 21.1467C41.2659 21.0592 41.2659 20.9408 41.2024 20.8533L38.0055 16.4431L38.5723 11.0231ZM31.9048 31.7788C31.8483 31.8039 31.8031 31.8491 31.778 31.9056L29.8274 36.2893L25.0573 35.7916C24.996 35.7852 24.9345 35.8016 24.8847 35.8378L21 38.6529L17.1153 35.8378C17.0655 35.8016 17.004 35.7852 16.9427 35.7916L12.1717 36.2893L10.2212 31.9048C10.1961 31.8483 10.1509 31.8031 10.0944 31.778L5.71066 29.8282L6.20842 25.0581C6.21481 24.9969 6.19836 24.9354 6.16222 24.8855L3.34712 21L6.16301 17.1154C6.19917 17.0655 6.21564 17.004 6.20924 16.9427L5.71148 12.1717L10.096 10.2212C10.1525 10.1961 10.1977 10.1509 10.2228 10.0944L12.1734 5.71065L16.9435 6.20842C17.0048 6.21481 17.0663 6.19835 17.1162 6.16219L21 3.34713L24.8847 6.1622C24.9345 6.19835 24.996 6.21481 25.0573 6.20842L29.8282 5.71065L31.7788 10.0952C31.8039 10.1517 31.8491 10.1969 31.9056 10.222L36.2893 12.1718L35.7916 16.9419C35.7852 17.0031 35.8016 17.0646 35.8378 17.1145L38.6529 21L35.837 24.8846C35.8008 24.9345 35.7844 24.996 35.7908 25.0573L36.2893 29.8283L31.9048 31.7788Z" fill="white" stroke="white" stroke-width="0.5" stroke-linejoin="round"/>
<path d="M12.6826 21.066C12.6357 21.0191 12.5721 20.9928 12.5058 20.9928C12.4395 20.9928 12.3759 21.0191 12.329 21.066L11.1621 22.2329C11.0645 22.3305 11.0645 22.4888 11.1621 22.5864L17.5223 28.9467C17.5692 28.9936 17.6328 29.0199 17.6991 29.0199C17.7654 29.0199 17.829 28.9936 17.8759 28.9467L32.4886 14.3339C32.5355 14.287 32.5618 14.2234 32.5618 14.1571C32.5618 14.0908 32.5355 14.0272 32.4886 13.9804L31.3217 12.8135C31.2241 12.7158 31.0658 12.7158 30.9682 12.8135L17.6991 26.0825L12.6826 21.066Z" fill="white" stroke="white" stroke-width="0.5" stroke-linejoin="round"/>
</svg>
