<svg width="60" height="60" viewBox="0 0 60 60" fill="none" xmlns="http://www.w3.org/2000/svg">
<path d="M18.9192 0.0669518C14.0059 0.677101 9.8332 2.62489 6.41274 5.92204C1.0881 11.0731 -1.10993 18.4418 0.535651 25.6463C1.9344 31.8182 6.00134 37.0397 11.5846 39.8206C14.5349 41.2873 17.015 41.9092 20.3297 42.0382C24.7963 42.1908 28.9925 40.9939 32.7421 38.4829C33.4591 38.0136 34.0821 37.6146 34.1173 37.6146C34.1526 37.6146 35.7394 39.3629 37.6318 41.4985L41.0758 45.3823L41.1463 46.2975C41.1933 46.9312 41.2991 47.3301 41.4637 47.6C41.6047 47.8229 44.2612 50.5334 47.3878 53.6311C53.4294 59.6387 53.4764 59.6739 54.8869 59.932C56.7441 60.284 58.7423 59.2398 59.6121 57.468C59.9765 56.7405 60 56.6114 60 55.4498C60 54.1121 59.8354 53.5841 59.1419 52.7276C58.9656 52.5164 56.368 49.8998 53.3589 46.9312C47.4113 41.0409 47.5171 41.1347 46.1771 41.1347H45.6129L42.357 37.4621C40.5704 35.4556 38.9483 33.6369 38.7485 33.4257L38.3958 33.0502L38.9248 32.1937C41.2991 28.3803 42.3805 24.0388 42.0749 19.6269C41.8633 16.7287 41.2521 14.4172 40.0179 11.8593C37.0324 5.6639 31.2728 1.36938 24.4436 0.23122C23.1742 0.0200157 20.0711 -0.0738525 18.9192 0.0669518ZM23.7384 2.42542C27.676 2.91823 31.5667 4.84255 34.4935 7.76423C38.102 11.3547 40.0767 16.1186 40.0767 21.1758C40.0767 24.2617 39.3479 27.1834 37.9022 29.9643C35.1869 35.1623 30.0386 38.8584 24.1615 39.8558C22.9626 40.067 22.4102 40.0904 20.6235 40.0435C18.2492 39.9731 16.9797 39.7619 14.9228 39.0579C6.82413 36.3122 1.51125 28.2277 2.22825 19.6973C2.51035 16.2946 3.48595 13.4785 5.36662 10.6624C7.96429 6.76686 11.9372 3.96252 16.4508 2.82436C18.8957 2.21421 21.0349 2.09687 23.7384 2.42542ZM40.1942 38.2013C41.8281 40.0435 43.2973 41.6745 43.4384 41.8387L43.7087 42.1321L42.8977 42.8596L42.0984 43.5988L39.2421 40.3955C37.6788 38.6472 36.2213 37.0162 36.0097 36.7933L35.6101 36.3709L36.3271 35.5847C36.7267 35.1506 37.0911 34.7986 37.1264 34.822C37.1734 34.8455 38.5604 36.3591 40.1942 38.2013ZM52.1012 48.4917C55.0632 51.4486 57.6257 54.1004 57.7902 54.382C58.3309 55.2738 58.1311 56.6818 57.3906 57.3506C56.7088 57.9725 55.4041 58.1955 54.5578 57.8552C54.264 57.7261 52.3951 55.9426 48.6337 52.1878L43.1328 46.7082V46.1215V45.5348L44.3317 44.338L45.5424 43.1294H46.1301H46.706L52.1012 48.4917Z" fill="white"/>
<path d="M19.5662 4.30268C18.9197 4.36135 17.7678 4.56083 17.0155 4.74857C7.64746 7.10703 2.18177 16.5643 4.82646 25.8457C6.54257 31.8885 11.4323 36.4177 17.7443 37.7905C18.9432 38.0487 22.0933 38.1543 23.3745 37.9782C27.0183 37.462 30.2625 35.8779 32.8719 33.3435C37.3738 28.9903 39.0781 22.9005 37.5031 16.7873C36.7038 13.6779 34.8231 10.6506 32.3195 8.44466C28.8402 5.38218 24.2914 3.90374 19.5662 4.30268ZM23.7977 6.47341C26.3248 6.88409 28.8755 8.11612 30.9442 9.89964C33.6712 12.2581 35.3756 15.4262 35.975 19.2279C36.1513 20.366 36.0455 23.0179 35.787 24.2381C34.7996 28.7439 31.8493 32.5456 27.7353 34.5755C26.4306 35.2091 24.8791 35.7019 23.4568 35.9366C22.0228 36.1595 19.3076 36.0891 17.9794 35.7958C13.2777 34.7515 9.41059 31.6303 7.49466 27.3476C6.54257 25.2355 6.18994 23.5224 6.18994 21.0701C6.2017 17.0689 7.58869 13.6544 10.3862 10.7679C13.8772 7.1657 18.6494 5.64032 23.7977 6.47341Z" fill="white"/>
<path d="M14.0996 12.2114V13.2087H21.0933H28.0871V12.2114V11.214H21.0933H14.0996V12.2114Z" fill="white"/>
<path d="M19.6241 15.391C17.4144 15.6609 15.5925 16.2006 13.7706 17.1393C11.8664 18.1132 9.56257 19.9554 9.08064 20.8941L8.89258 21.2343L10.1385 22.4312C13.2886 25.4819 16.9207 26.9721 21.211 26.9721C25.3719 26.9838 29.1098 25.5171 32.1188 22.7128C32.6125 22.2552 33.1414 21.7037 33.2707 21.516L33.5293 21.1639L32.8358 20.4599C29.6622 17.2214 25.8774 15.5201 21.6224 15.391C20.7525 15.3675 19.8475 15.3675 19.6241 15.391ZM19.3068 17.6086C18.6485 17.8903 17.8022 18.782 17.4379 19.5799C17.003 20.5186 16.9795 21.868 17.3791 22.7245C17.7082 23.452 18.5663 24.3907 19.1775 24.6958L19.6829 24.9539L19.154 24.8718C16.6856 24.5315 13.7353 23.1939 11.9252 21.5981L11.455 21.1874L11.9252 20.765C12.6069 20.1431 14.2055 19.1223 15.1928 18.6647C16.521 18.0545 18.5663 17.4561 19.3891 17.4444C19.6594 17.4444 19.6476 17.4561 19.3068 17.6086ZM24.0907 17.6556C26.4651 18.1836 28.5573 19.2279 30.3087 20.7415L30.8141 21.1639L30.0383 21.7976C28.1224 23.3816 25.4777 24.5432 23.0329 24.8718L22.5039 24.9539L22.9741 24.7075C23.6558 24.3555 24.4081 23.5693 24.7725 22.8301C25.0428 22.2669 25.0898 22.044 25.0898 21.1287C25.0781 20.3191 25.0193 19.9554 24.8312 19.5447C24.5256 18.8759 23.7028 17.9841 23.0916 17.679C22.5039 17.374 22.7625 17.3622 24.0907 17.6556ZM21.8927 19.357C22.1043 19.4391 22.4216 19.6855 22.5979 19.885C23.4678 20.9293 23.1504 22.4077 21.928 22.9592C21.305 23.2408 20.8701 23.2408 20.2471 22.9357C18.8249 22.2434 18.7896 20.1666 20.1883 19.4274C20.7055 19.1575 21.3638 19.134 21.8927 19.357Z" fill="white"/>
<path d="M14.0996 30.1638V31.1611H21.0933H28.0871V30.1638V29.1664H21.0933H14.0996V30.1638Z" fill="white"/>
<path d="M39.1357 6.22705V7.22441H44.8835C51.1015 7.22441 51.1485 7.22441 52.0066 7.8815C52.2299 8.04576 52.559 8.47991 52.7353 8.84365L53.0644 9.51247L53.0997 26.3151L53.1232 43.1294H54.1223H55.1214V26.6671C55.1214 17.3975 55.0744 9.88795 55.0039 9.47727C54.7923 7.9871 53.852 6.59079 52.5708 5.87504C51.4424 5.25315 51.2073 5.22969 44.9305 5.22969H39.1357V6.22705Z" fill="white"/>
<path d="M42.1565 10.24C42.1095 10.2752 42.0742 10.7328 42.0742 11.2374V12.1526H46.5996H51.1367L51.1014 11.1787L51.0662 10.2165L46.6466 10.1813C44.2252 10.1696 42.2035 10.1931 42.1565 10.24Z" fill="white"/>
<path d="M44.0723 16.2009V17.1982H47.5985H51.1248V16.2009V15.2035H47.5985H44.0723V16.2009Z" fill="white"/>
<path d="M44.1545 20.2136C44.1075 20.2488 44.0723 20.7064 44.0723 21.211V22.1262H47.5985H51.1365L51.1013 21.1523L51.066 20.1902L47.6455 20.155C45.7649 20.1432 44.2016 20.1667 44.1545 20.2136Z" fill="white"/>
<path d="M44.0723 26.1743V27.1716H47.5985H51.1248V26.1743V25.1769H47.5985H44.0723V26.1743Z" fill="white"/>
<path d="M44.1545 30.1873C44.1075 30.2225 44.0723 30.6801 44.0723 31.1846V32.0999H47.5985H51.1365L51.1013 31.126L51.066 30.1638L47.6455 30.1286C45.7649 30.1169 44.2016 30.1403 44.1545 30.1873Z" fill="white"/>
<path d="M45.1309 36.1479V37.1453H48.1282H51.1255V36.1479V35.1505H48.1282H45.1309V36.1479Z" fill="white"/>
<path d="M5.16602 45.4998C5.16602 51.2727 5.17777 51.3901 5.75372 52.5165C6.07109 53.1501 6.92914 54.0067 7.66965 54.4291C8.83332 55.1096 8.2221 55.0979 27.4754 55.0979H45.1302V54.1005V53.1032H27.4637C8.04579 53.1032 9.10366 53.1384 8.18684 52.3874C7.94 52.1879 7.62264 51.8007 7.48159 51.5426C7.223 51.0615 7.223 50.9442 7.16422 45.5936L7.10545 40.1375L6.14161 40.1023L5.16602 40.0671V45.4998Z" fill="white"/>
<path d="M9.16309 45.0656V46.063H22.6216H36.0801V45.0656V44.0683H22.6216H9.16309V45.0656Z" fill="white"/>
<path d="M9.16309 49.0549V50.0522H24.6198H40.0766V49.0549V48.0575H24.6198H9.16309V49.0549Z" fill="white"/>
</svg>
