<svg width="50" height="47" viewBox="0 0 50 47" fill="none" xmlns="http://www.w3.org/2000/svg">
<path d="M33.7882 2.287C33.7801 2.27917 33.7721 2.2712 33.7643 2.2631C33.3713 1.85643 32.8991 1.53458 32.3768 1.31742C31.8546 1.10025 31.2934 0.992368 30.7279 1.00042L30.7137 1.00052H5.33784H5.3237L5.3237 1.00042C4.75815 0.992424 4.19696 1.10034 3.67471 1.31751C3.15246 1.53469 2.68022 1.85652 2.28711 2.26318C2.27927 2.27128 2.2713 2.27925 2.2632 2.28708C1.85648 2.68029 1.53461 3.15264 1.31743 3.67501C1.10025 4.19737 0.992363 4.75868 1.00042 5.32434L1.00052 5.33858V41.6337L1.00042 41.6479C0.992371 42.2133 1.10025 42.7743 1.3174 43.2964C1.53455 43.8185 1.85637 44.2906 2.263 44.6835C2.27123 44.6914 2.27932 44.6995 2.28728 44.7077C2.68025 45.1144 3.1524 45.4363 3.6746 45.6535C4.19679 45.8706 4.75794 45.9784 5.32342 45.9703L5.33781 45.9702H16.3293C16.0513 45.7942 15.8012 45.5737 15.5898 45.3153C15.1385 44.7637 14.8915 44.0732 14.8905 43.3606M33.7882 2.287L15.8905 43.3564M33.7882 2.287C34.195 2.68034 34.5169 3.15277 34.7342 3.6752C34.9515 4.19763 35.0596 4.75902 35.0518 5.3248L35.0517 5.3248V5.33858V12.7848H33.8293L33.8293 5.33858L33.8293 5.33213C33.824 4.50917 33.4947 3.72143 32.9128 3.1395C32.3308 2.55757 31.5431 2.22829 30.7201 2.22297V2.22295H30.7137H5.33783V2.22293L5.33162 2.22297C4.50854 2.22808 3.72064 2.5574 3.13873 3.13953C2.55683 3.72166 2.22782 4.50968 2.22302 5.33276H2.223V5.33859L2.22298 37.3631L2.22302 37.3695C2.22834 38.1923 2.55745 38.9799 3.13913 39.5618C3.72081 40.1436 4.50825 40.4731 5.331 40.4787H5.33783H16.8467M33.7882 2.287L16.8467 40.4787M14.8905 43.3606C14.8905 43.3593 14.8905 43.3579 14.8905 43.3566L15.8905 43.3564M14.8905 43.3606C14.8905 43.3619 14.8905 43.3633 14.8905 43.3646L15.8905 43.3564M14.8905 43.3606C14.8876 42.9454 14.9694 42.534 15.1309 42.1515L15.673 42.3803M15.8905 43.3564C15.8886 43.1339 15.923 42.9129 15.9918 42.702C15.9007 42.6447 15.8176 42.5718 15.7465 42.4839C15.7195 42.4506 15.695 42.4159 15.673 42.3803M15.673 42.3803C15.4297 41.9868 15.4871 41.469 15.8267 41.1385C15.8277 41.1376 15.8286 41.1367 15.8295 41.1358M15.673 42.3803L15.1309 42.1515C15.2923 41.769 15.5301 41.4234 15.8295 41.1358M15.8295 41.1358C16.1241 40.8499 16.4704 40.6276 16.8467 40.4787M15.8295 41.1358C15.8305 41.1349 15.8315 41.1339 15.8325 41.133L16.5241 41.8552L15.9694 41.0232C16.4007 40.7357 16.9801 40.8253 17.3043 41.2296C17.335 41.2679 17.3625 41.3078 17.3867 41.349L16.8467 40.4787M19.1226 40.4787H26.2767V43.3761C26.2705 44.2804 26.4665 45.1653 26.8401 45.9702H19.64C20.1713 45.6338 20.5893 45.1422 20.8353 44.5593C21.113 43.9015 21.1546 43.1679 20.9531 42.4829C20.7516 41.7979 20.3194 41.2037 19.7298 40.8009C19.5387 40.6705 19.3349 40.5627 19.1226 40.4787Z" stroke="white" stroke-width="2" stroke-linejoin="round"/>
<path d="M48.25 17.1414C48.2419 17.1335 48.2339 17.1255 48.226 17.1173C47.9926 16.8758 47.7122 16.6846 47.4021 16.5557C47.092 16.4267 46.7588 16.3626 46.423 16.3674L46.4087 16.3675H32.4523C31.7653 16.3698 31.1071 16.6438 30.6214 17.1295C30.1356 17.6153 29.8617 18.2735 29.8594 18.9605V43.3785C29.8617 44.0654 30.1356 44.7235 30.6214 45.2092C31.1071 45.6949 31.7653 45.9687 32.4522 45.9709H37.5212C37.3545 45.7454 37.2272 45.4909 37.147 45.2179C36.9904 44.6846 37.023 44.1136 37.2393 43.6017C37.3439 43.354 37.4885 43.1275 37.6655 42.9303H32.4508H32.4439L32.4439 42.9303C31.8043 42.9259 31.1921 42.6698 30.7399 42.2175C30.2876 41.7652 30.0317 41.1529 30.0274 40.5133L30.0274 40.5067L30.0274 18.959V18.9522L30.0274 18.9522C30.0318 18.3126 30.2878 17.7005 30.74 17.2483C31.1922 16.796 31.8043 16.54 32.4438 16.5356L32.4508 16.5355V16.5356H46.4086H46.4152V16.5356C47.0549 16.5398 47.6672 16.7958 48.1195 17.2481C48.5718 17.7005 48.8278 18.3127 48.8321 18.9524L48.8321 18.959L48.8321 40.5067V40.5131L48.8321 40.5131C48.828 41.1528 48.572 41.7652 48.1197 42.2176C47.6673 42.6701 47.0549 42.9261 46.4152 42.9303L46.4086 42.9303L41.2505 42.9303C41.2751 42.9577 41.2991 42.9857 41.3225 43.0144C41.6735 43.4435 41.8656 43.9805 41.8666 44.5348M48.25 17.1414L40.8666 44.5391M48.25 17.1414C48.4916 17.3749 48.6828 17.6554 48.8118 17.9656C48.9409 18.2759 49.0051 18.6092 49.0004 18.9452L49.0003 18.9452V18.959V43.3782M48.25 17.1414L50.0003 18.959M41.8666 44.5348C41.8666 44.5362 41.8666 44.5376 41.8666 44.5391H40.8666M41.8666 44.5348C41.8666 44.5333 41.8665 44.5319 41.8665 44.5305L40.8666 44.5391M41.8666 44.5348C41.8688 44.8585 41.8049 45.1792 41.6789 45.4775C41.6047 45.6531 41.5099 45.8187 41.3968 45.9709M40.8666 44.5391C40.8682 44.7276 40.8312 44.9146 40.7578 45.0883C40.6844 45.262 40.5762 45.4188 40.4398 45.5491M41.3968 45.9709H40.8499L40.4398 45.5491M41.3968 45.9709H46.4071M41.3968 45.9709C41.3178 46.0772 41.2299 46.177 41.1338 46.2691L46.4071 45.9709M40.4398 45.5491L40.8429 45.9709L40.4398 45.5491ZM46.4071 45.9709C46.4067 45.9709 46.4062 45.9709 46.4058 45.9709L46.4086 46.9709M46.4071 45.9709L28.8594 43.38C28.8621 44.3316 29.2414 45.2435 29.9143 45.9163C30.5872 46.5892 31.4992 46.9683 32.4508 46.9709H46.4086M46.4071 45.9709H46.4086V46.9709M46.4071 45.9709C47.094 45.9687 47.7523 45.6948 48.2381 45.2091C48.7239 44.7234 48.9979 44.0652 49.0003 43.3782M46.4086 46.9709C47.3602 46.9683 48.2721 46.5891 48.9451 45.9163C49.6181 45.2435 49.9975 44.3316 50.0003 43.38M50.0003 43.38H49.0003V43.3782M50.0003 43.38V18.959M50.0003 43.38L49.0003 43.377C49.0003 43.3774 49.0003 43.3778 49.0003 43.3782M50.0003 18.959C50.0069 18.4866 49.9166 18.0178 49.7351 17.5816L50.0003 18.959Z" stroke="white" stroke-width="2" stroke-linejoin="round"/>
</svg>
