<svg width="26" height="22" viewBox="0 0 26 22" fill="none" xmlns="http://www.w3.org/2000/svg">
<path d="M9.15565 21C6.34315 21 3.56971 20.2188 1.1869 18.7344C1.03065 18.6172 0.952524 18.4609 1.03065 18.2656C1.10877 18.1094 1.26502 17.9922 1.46034 18.0312C1.92909 18.1094 2.39784 18.1484 2.82752 18.1484C4.58534 18.1484 6.26502 17.6797 7.7494 16.7422C5.95252 16.3516 4.46815 15.0234 3.92127 13.1875C3.88221 13.0703 3.92127 12.9141 3.9994 12.7969C4.07752 12.6797 4.23377 12.6406 4.35096 12.6797C4.46815 12.7188 4.58534 12.7188 4.74159 12.7188C4.39002 12.5234 4.07752 12.25 3.80409 11.9766C2.78846 11 2.24159 9.67188 2.24159 8.26563V8.1875C2.24159 8.03125 2.31971 7.91406 2.4369 7.83594C2.55409 7.75781 2.71034 7.75781 2.82752 7.83594C2.98377 7.91406 3.14002 7.99219 3.29627 8.07031C2.98377 7.67969 2.7494 7.25 2.59315 6.78125C2.35877 6.19531 2.24159 5.57031 2.24159 4.90625C2.24159 4.63281 2.28065 4.35938 2.31971 4.08594C2.4369 3.38281 2.67127 2.71875 3.0619 2.13281C3.0619 2.01563 3.17909 1.97656 3.29627 1.9375C3.41346 1.9375 3.53065 1.97656 3.60877 2.05469C3.96034 2.44531 4.35096 2.83594 4.74159 3.1875C4.9369 3.38281 5.13221 3.53906 5.36659 3.69531C6.53846 4.67188 7.86659 5.41406 9.27284 6C9.46815 6.07813 9.6244 6.15625 9.81971 6.19531C10.4447 6.42969 11.1088 6.625 11.7728 6.74219C11.9291 6.78125 12.0853 6.82031 12.2416 6.82031L12.4369 6.85938C12.5541 6.85938 12.6713 6.89844 12.7885 6.89844C12.7494 6.66406 12.7494 6.42969 12.7494 6.19531C12.7494 4.51563 13.5697 2.91406 14.976 1.9375C15.0541 1.85938 15.1713 1.82031 15.2494 1.74219C16.0697 1.23438 17.0072 1 17.9447 1C19.3119 1 20.6791 1.54688 21.6556 2.52344C21.89 2.48438 22.1635 2.40625 22.3978 2.32813C22.7103 2.25 23.0228 2.13281 23.3353 1.97656C23.6869 1.82031 24.0775 1.66406 24.39 1.46875C24.5463 1.39062 24.7025 1.39062 24.8197 1.50781C24.9369 1.625 25.015 1.78125 24.9369 1.9375C24.7416 2.5625 24.39 3.14844 23.9603 3.69531C23.9213 3.73438 23.9213 3.73438 23.8822 3.77344C24.1556 3.69531 24.39 3.61719 24.6635 3.5C24.8588 3.42188 25.0541 3.5 25.1322 3.65625C25.2103 3.8125 25.2103 4.04688 25.0541 4.16406C24.7416 4.4375 24.39 4.71094 24.0385 4.94531C23.765 5.14063 23.5306 5.29688 23.2572 5.45312C23.2572 5.72656 23.2572 5.96094 23.2572 6.23438C23.2572 10.6875 21.3822 14.9844 18.101 17.9922C18.101 17.9922 18.0619 17.9922 18.0619 18.0312C15.4838 19.9844 12.3978 21 9.15565 21ZM3.10096 18.8906C4.97596 19.75 7.04627 20.2188 9.15565 20.2188C12.2025 20.2188 15.1322 19.2812 17.5931 17.4844C20.7181 14.6328 22.476 10.5313 22.476 6.3125C22.476 6 22.476 5.64844 22.4369 5.33594C22.4369 5.17969 22.515 5.0625 22.6322 4.98438C22.7103 4.94531 22.7885 4.90625 22.8666 4.82813H22.8275C22.7494 4.82813 22.7103 4.82813 22.6322 4.86719C22.5541 4.90625 22.4369 4.94531 22.3197 4.90625C22.2025 4.86719 22.1244 4.78906 22.0853 4.67188C22.0463 4.55469 22.0463 4.4375 22.1244 4.32031C22.1635 4.24219 22.2806 4.16406 22.3978 4.125C22.4369 4.08594 22.515 4.04688 22.5541 4.00781C22.8666 3.77344 23.14 3.53906 23.4135 3.22656C23.5697 3.07031 23.6869 2.875 23.8041 2.71875C23.765 2.75781 23.726 2.75781 23.6478 2.79688C23.2963 2.95313 22.9838 3.07031 22.6322 3.14844C22.3197 3.26562 21.9681 3.34375 21.6166 3.38281C21.4994 3.42188 21.3431 3.34375 21.265 3.26562C20.4447 2.36719 19.2338 1.82031 17.9838 1.82031C17.2025 1.82031 16.4603 2.01562 15.7963 2.36719L15.7572 2.40625C15.6791 2.48438 15.601 2.52344 15.5228 2.52344C15.4838 2.5625 15.4447 2.5625 15.4057 2.60156C14.2338 3.42188 13.5306 4.78906 13.5306 6.23438C13.5306 6.58594 13.5697 6.9375 13.6478 7.28906C13.6869 7.40625 13.6478 7.52344 13.5697 7.64063C13.4916 7.71875 13.3744 7.79688 13.2181 7.75781C12.9056 7.71875 12.5931 7.67969 12.3197 7.64063L12.1244 7.60156C11.9681 7.5625 11.8119 7.52344 11.6166 7.52344C10.9135 7.36719 10.2103 7.17188 9.54627 6.9375C9.35096 6.85938 9.15565 6.78125 8.9994 6.74219C7.51502 6.15625 6.10877 5.33594 4.85877 4.32031C4.6244 4.16406 4.42909 3.96875 4.23377 3.77344C3.96034 3.53906 3.6869 3.26563 3.41346 2.99219C3.21815 3.38281 3.10096 3.77344 3.02284 4.20313C2.98377 4.4375 2.98377 4.67188 2.98377 4.86719C2.98377 5.41406 3.0619 5.96094 3.25721 6.42969C3.56971 7.21094 4.07752 7.875 4.74159 8.38281C4.89784 8.5 4.9369 8.65625 4.85877 8.85156C4.78065 9.00781 4.6244 9.125 4.46815 9.08594C3.96034 9.04688 3.49159 8.92969 3.02284 8.73438C3.14002 9.71094 3.56971 10.6484 4.3119 11.3516C4.89784 11.9375 5.64002 12.3281 6.42127 12.5234C6.57752 12.5625 6.73377 12.7188 6.73377 12.9141C6.73377 13.1094 6.61659 13.2656 6.42127 13.3047C5.91346 13.4219 5.36659 13.5 4.81971 13.4609C5.52284 14.9844 7.04627 15.9609 8.76502 16C8.92127 16 9.07752 16.1172 9.11659 16.2734C9.15565 16.4297 9.11659 16.5859 8.9994 16.7031C7.31971 18.0703 5.28846 18.8125 3.10096 18.8906Z" fill="#6A4EEE" stroke="#6A4EEE" stroke-width="0.5" stroke-linejoin="round"/>
</svg>
