<svg width="18" height="26" viewBox="0 0 18 26" fill="none" xmlns="http://www.w3.org/2000/svg">
<path d="M9.38383 25C9.89692 25 10.3117 24.5843 10.3117 24.0722V4.1147L16.1968 9.79948C16.3759 9.97391 16.6088 10.0602 16.8407 10.0602C17.0838 10.0602 17.326 9.96556 17.5078 9.77721C17.8641 9.40886 17.8539 8.82155 17.4856 8.46526L10.0417 1.27371C10.0407 1.27278 10.0407 1.27278 10.0398 1.27185L10.0277 1.26072C9.99434 1.22824 9.95259 1.21433 9.9164 1.18835C9.85702 1.14567 9.80228 1.09835 9.73455 1.07051C9.62878 1.02691 9.51651 1.0065 9.40331 1.00371C9.39682 1.00371 9.39032 1 9.38383 1C9.37733 1 9.37084 1.00371 9.36435 1.00371C9.25115 1.0065 9.13981 1.02691 9.03311 1.07051C8.96538 1.09835 8.91064 1.14567 8.85126 1.18742C8.81507 1.21433 8.77332 1.22824 8.73992 1.26072L8.72879 1.27092C8.72786 1.27185 8.72786 1.27185 8.72693 1.27278L1.28301 8.46434C0.914661 8.82062 0.904455 9.40793 1.26074 9.77628C1.61517 10.1446 2.20526 10.1558 2.57175 9.79855L8.45693 4.11377V24.0712C8.45601 24.5843 8.87074 25 9.38383 25Z" fill="white" fill-opacity="0.6" stroke="#969FA3" stroke-width="0.4"/>
</svg>
